<svg width="30" height="30" viewBox="0 0 30 30" fill="none" xmlns="http://www.w3.org/2000/svg">
<path d="M20.8726 2.98145C24.1662 2.98145 26.8364 5.65169 26.8364 8.94531V20.8721C26.8364 24.1657 24.1662 26.8359 20.8726 26.8359H8.9458C5.65218 26.8359 2.98193 24.1657 2.98193 20.8721V8.94531C2.98193 5.65169 5.65218 2.98145 8.9458 2.98145H20.8726ZM15.9409 7.4541C13.9505 7.4541 12.6489 8.73683 12.6489 11.0586V13.0996H10.437V15.7773H12.6489V22.251C13.5511 22.401 14.4703 22.401 15.3726 22.251V15.7773H17.4028L17.7886 13.0996H15.3726V11.3623C15.3726 10.6297 15.71 9.91504 16.7925 9.91504H17.8911V7.63477C17.8886 7.63431 16.893 7.45416 15.9409 7.4541Z" fill="#BCC1C5"/>
</svg>
