<svg width="130" height="130" viewBox="0 0 130 130" fill="none" xmlns="http://www.w3.org/2000/svg">
<path d="M54.5449 81.9998H109.734C111.391 81.9998 112.734 80.6566 112.734 78.9998V38.0344C112.734 37.0139 112.215 36.0634 111.357 35.5114L83.1192 17.346C82.1119 16.698 80.8158 16.7113 79.8219 17.3797L52.8707 35.5055C52.042 36.0629 51.5449 36.9961 51.5449 37.9949V78.9998C51.5449 80.6566 52.8881 81.9998 54.5449 81.9998Z" fill="#2450D4"/>
<path fill-rule="evenodd" clip-rule="evenodd" d="M79.8 20.9743C81.1183 20.1106 82.821 20.1015 84.1485 20.9511L114.448 40.3447C116.306 41.4571 118.796 40.9797 120.01 39.2785C121.225 37.5773 120.704 35.2964 118.846 34.1841L85.0156 12.5861C83.1102 11.4451 80.6418 11.4683 78.7624 12.6449L45.3644 34.4884C43.5323 35.6354 43.0623 37.9256 44.3146 39.6036C45.567 41.2816 48.0675 41.7121 49.8996 40.5651L79.8 20.9743Z" fill="#3E75E5"/>
<path d="M70.542 65.0047H93.7378C94.8423 65.0047 95.7378 64.1093 95.7378 63.0047V45.7264C95.7378 45.0065 95.3508 44.3421 94.7247 43.9869L82.8469 37.2483C82.2228 36.8943 81.4569 36.9017 80.8397 37.2677L69.5217 43.9805C68.9144 44.3408 68.542 44.9946 68.542 45.7007V63.0047C68.542 64.1093 69.4374 65.0047 70.542 65.0047Z" fill="white"/>
<path fill-rule="evenodd" clip-rule="evenodd" d="M80.6396 52.9063V65.0048H83.6397V52.9063H98.0038V49.9063H83.6397L83.6396 33.2764H80.6396L80.6396 49.9063H66.2754V52.9063H80.6396Z" fill="#2450D4"/>
<rect x="2" y="72" width="26.4822" height="33.612" rx="2" fill="#2450D4"/>
<path d="M28.4814 76.0742H33.6113C34.7158 76.0742 35.6113 76.9696 35.6113 78.0742V99.5379C35.6113 100.642 34.7158 101.538 33.6113 101.538H28.4814V76.0742Z" fill="white"/>
<path d="M35.4534 78.0002C37.9552 78.5901 42.5283 79.0567 48.3436 77.6029C56.492 75.5659 67.696 81.1669 73.298 87.2782C78.9 93.3895 91.0914 91.4719 96.7246 92.8802C100.516 93.8281 101.661 97.8644 99.339 99.6511C100.994 99.3519 103.824 98.8325 106.401 97.9738C112.512 95.9367 118.623 92.881 125.244 95.4274C129.729 97.1523 129.661 99.4858 129.432 100.882C129.367 101.28 129.066 101.604 128.675 101.704C123.283 103.087 113.997 105.419 110.475 108.159C105.892 111.724 81.4464 119.363 67.1867 111.724C53.4734 104.378 43.9991 99.8573 35.1401 99.9746C34.5661 99.9822 34.084 99.5278 34.084 98.9537V79.0297C34.084 78.3358 34.778 77.8409 35.4534 78.0002Z" fill="#FFAC8E"/>
<path d="M98.7617 95.4266C97.3153 94.4625 94.0113 94.1549 91.7019 94.2963C91.1148 94.3323 90.7419 94.9 90.8504 95.4781C91.0594 96.5918 91.0688 97.4124 90.899 98.3329C90.7855 98.9479 91.1868 99.5618 91.8095 99.6193C93.4935 99.775 95.725 99.9045 97.7431 99.5009C100.289 98.9916 100.289 96.445 98.7617 95.4266Z" fill="white"/>
</svg>
