<svg width="123" height="48" viewBox="0 0 123 48" fill="none" xmlns="http://www.w3.org/2000/svg">
<g clip-path="url(#clip0_729_6714)">
<path d="M68.6091 31.6995H65.3622L64.0712 28.1994H58.1608L56.9408 31.6995H53.7739L59.5333 16.291H62.6898L68.6091 31.6995ZM63.1133 25.6033L61.076 19.8858L59.0787 25.6033H63.1133Z" fill="#0123B4"/>
<path d="M69.666 16.291H75.1233C76.3537 16.291 77.2909 16.3888 77.9364 16.5857C78.804 16.853 79.5472 17.3249 80.1661 18.0044C80.785 18.684 81.2558 19.5163 81.5786 20.5012C81.9013 21.4862 82.0627 22.7003 82.0627 24.1434C82.0627 25.4124 81.9117 26.5058 81.6082 27.4221C81.238 28.543 80.7109 29.4501 80.024 30.1449C79.5073 30.6702 78.807 31.081 77.926 31.3742C77.2672 31.5911 76.3863 31.6995 75.2832 31.6995H69.666V16.291ZM72.6508 18.8978V29.1034H74.8805C75.7141 29.1034 76.3152 29.0546 76.6853 28.9568C77.1695 28.8316 77.5722 28.6163 77.8905 28.3154C78.2088 28.0146 78.4694 27.5183 78.6722 26.828C78.8736 26.1378 78.9743 25.1971 78.9743 24.006C78.9743 22.8148 78.8736 21.9001 78.6722 21.2617C78.4709 20.6234 78.1881 20.1271 77.8254 19.7698C77.4626 19.4124 77.0007 19.1711 76.444 19.0444C76.0265 18.9467 75.2107 18.8978 73.9937 18.8978H72.6523H72.6508Z" fill="#0123B4"/>
<path d="M84.0762 31.6995V16.291H95.0382V18.8978H87.061V22.3139H94.483V24.91H87.061V29.1034H95.321V31.6995H84.0762Z" fill="#0123B4"/>
<path d="M97.3447 31.6995V16.291H103.628C105.208 16.291 106.355 16.43 107.073 16.7064C107.789 16.9843 108.362 17.476 108.792 18.1831C109.223 18.8917 109.438 19.6995 109.438 20.6112C109.438 21.7672 109.112 22.7217 108.459 23.476C107.808 24.2304 106.832 24.7054 105.535 24.9008C106.181 25.2933 106.714 25.724 107.134 26.1928C107.555 26.6631 108.122 27.4969 108.834 28.6942L110.64 31.701H107.07L104.912 28.3475C104.145 27.1503 103.621 26.3943 103.338 26.0828C103.057 25.7713 102.756 25.5575 102.441 25.4414C102.124 25.3254 101.624 25.2673 100.938 25.2673H100.332V31.6995H97.3477H97.3447ZM100.331 22.8072H102.54C103.973 22.8072 104.866 22.7446 105.223 22.6178C105.58 22.4926 105.859 22.2742 106.061 21.9673C106.262 21.6588 106.363 21.274 106.363 20.8112C106.363 20.2936 106.23 19.8736 105.965 19.556C105.699 19.2368 105.323 19.0352 104.841 18.9512C104.599 18.9161 103.872 18.8993 102.663 18.8993H100.332V22.8087L100.331 22.8072Z" fill="#0123B4"/>
<path d="M110.979 26.687L113.884 26.3922C114.059 27.4078 114.414 28.1545 114.947 28.631C115.482 29.1074 116.203 29.3457 117.11 29.3457C118.071 29.3457 118.797 29.1334 119.284 28.7104C119.771 28.2858 120.014 27.7911 120.014 27.223C120.014 26.8595 119.912 26.548 119.706 26.293C119.5 26.0379 119.143 25.815 118.632 25.6256C118.283 25.4989 117.487 25.2744 116.243 24.9522C114.642 24.5383 113.52 24.0313 112.875 23.4281C111.967 22.5806 111.512 21.5467 111.512 20.3281C111.512 19.5432 111.726 18.8102 112.154 18.126C112.581 17.4434 113.196 16.9227 114 16.5653C114.802 16.208 115.774 16.0293 116.909 16.0293C118.764 16.0293 120.162 16.4538 121.099 17.3014C122.038 18.1489 122.529 19.282 122.577 20.6961L119.592 20.8336C119.465 20.0425 119.191 19.4729 118.77 19.1263C118.35 18.7796 117.719 18.6055 116.879 18.6055C116.04 18.6055 115.332 18.7918 114.842 19.1629C114.525 19.4011 114.368 19.7203 114.368 20.1189C114.368 20.4839 114.517 20.7954 114.811 21.055C115.189 21.3849 116.102 21.7269 117.555 22.0858C119.007 22.4431 120.08 22.8127 120.776 23.1945C121.472 23.5763 122.017 24.0985 122.409 24.7613C122.803 25.4241 123 26.2426 123 27.2153C123 28.098 122.765 28.9257 122.294 29.6969C121.823 30.4681 121.158 31.0408 120.298 31.4149C119.438 31.789 118.364 31.9769 117.081 31.9769C115.212 31.9769 113.776 31.5264 112.775 30.6254C111.773 29.7244 111.175 28.4126 110.979 26.6885V26.687Z" fill="#0123B4"/>
<path d="M25.4227 48C12.5922 48 2.1543 37.2339 2.1543 24C2.1543 10.7661 12.5922 0 25.4227 0C38.2532 0 48.6911 10.7661 48.6911 24C48.6911 37.2339 38.2532 48 25.4227 48ZM25.4227 2.00356C13.6641 2.00356 4.09678 11.8717 4.09678 24C4.09678 36.1283 13.6641 45.9964 25.4242 45.9964C37.1842 45.9964 46.7501 36.1283 46.7501 24C46.7501 11.8717 37.1827 2.00356 25.4227 2.00356Z" fill="#0123B4"/>
<path d="M3.12693 25.8331L0 23.379L0.691419 22.4414L3.12397 24.3503L5.54023 22.4429L6.23461 23.3775L3.12693 25.8331Z" fill="#0123B4"/>
<path d="M45.1392 25.5601L44.4478 24.6225L47.5747 22.1699L50.6824 24.624L49.988 25.5601L47.5717 23.6512L45.1392 25.5601Z" fill="#0123B4"/>
<path d="M31.5921 30.4924H28.8561L27.7679 27.542H22.7873L21.7598 30.4924H19.0903L23.9436 17.5059H26.6041L31.5936 30.4924H31.5921ZM26.9595 25.3552L25.2435 20.5356L23.5601 25.3552H26.9595Z" fill="#0123B4"/>
</g>
<defs>
<clipPath id="clip0_729_6714">
<rect width="123" height="48" fill="white"/>
</clipPath>
</defs>
</svg>
