<svg width="30" height="30" viewBox="0 0 30 30" fill="none" xmlns="http://www.w3.org/2000/svg">
<path d="M20.8726 2.98145C24.1662 2.98145 26.8364 5.65169 26.8364 8.94531V20.8721C26.8364 24.1657 24.1662 26.8359 20.8726 26.8359H8.9458C5.65218 26.8359 2.98193 24.1657 2.98193 20.8721V8.94531C2.98193 5.65169 5.65218 2.98145 8.9458 2.98145H20.8726ZM8.94189 7.65527C7.32105 7.65527 6.00049 8.98141 6.00049 10.5967V17.7148C6.00062 19.3356 7.3267 20.6553 8.94189 20.6553H12.9849L13.6812 21.8584L14.3667 23.0449C14.4893 23.2619 14.8011 23.2621 14.9292 23.0449L15.6138 21.8584L16.3101 20.6553H20.3989C22.0194 20.6549 23.3392 19.3298 23.3394 17.7148V10.6016C23.3392 8.98101 22.0136 7.65554 20.3931 7.65527H8.94189ZM18.9565 12.873C19.2904 12.8732 19.6026 12.9899 19.853 13.1846V12.9346H20.7554V16.0312C20.6951 16.4147 20.4245 16.7072 20.4155 16.7168C19.8234 17.3087 19.1605 17.2424 19.1401 17.2402V16.4541C19.7536 16.4539 19.8501 16.05 19.853 16.0371V15.6133C19.6081 15.8081 19.2961 15.9257 18.9565 15.9258C18.1378 15.9258 17.4752 15.2404 17.4751 14.3994C17.4751 13.5584 18.1378 12.873 18.9565 12.873ZM9.47607 11.9219V13.2305C9.72664 13.0024 10.05 12.8691 10.395 12.8691C11.1967 12.8695 11.8373 13.5819 11.8374 14.4561C11.8374 15.3303 11.1912 16.0377 10.395 16.0381C10.0443 16.0381 9.72667 15.8984 9.47607 15.6758V15.96H8.58447V11.9219H9.47607ZM15.4692 12.8672C16.3602 12.8674 17.0737 13.5749 17.0737 14.4492C17.0736 15.3234 16.3546 16.031 15.4692 16.0312C14.5838 16.0311 13.8658 15.3235 13.8657 14.4492C13.8657 13.5748 14.5837 12.8673 15.4692 12.8672ZM11.938 11.8418C11.9612 11.839 12.5384 11.7767 13.0513 12.3818C13.0588 12.3914 13.2924 12.6895 13.3472 13.084V15.958H12.4282V13.1064C12.3521 12.7148 11.9564 12.6521 11.938 12.6494V11.8418ZM10.2163 13.6602C9.88787 13.6603 9.6035 13.8548 9.48096 14.1387C9.4365 14.2332 9.4146 14.339 9.41455 14.4502C9.41455 14.5616 9.44197 14.668 9.48096 14.7627C9.6035 15.0466 9.88787 15.2411 10.2163 15.2412C10.6617 15.241 11.019 14.8901 11.019 14.4502C11.0188 14.0105 10.6615 13.6604 10.2163 13.6602ZM15.4692 13.6914C15.046 13.6915 14.7007 14.0316 14.7007 14.4492C14.7008 14.8668 15.0461 15.2059 15.4692 15.2061C15.8978 15.2058 16.2377 14.8667 16.2378 14.4492C16.2378 14.0316 15.8923 13.6917 15.4692 13.6914ZM19.1235 13.6143C18.678 13.6143 18.3101 13.9648 18.3101 14.3936C18.3101 14.8224 18.6724 15.1738 19.1235 15.1738C19.4407 15.1737 19.7194 15.0008 19.853 14.7393C19.9031 14.639 19.937 14.516 19.937 14.3936C19.937 14.2713 19.9085 14.1545 19.853 14.0488C19.7194 13.7927 19.4408 13.6144 19.1235 13.6143Z" fill="#BCC1C5"/>
</svg>
