<svg width="30" height="30" viewBox="0 0 30 30" fill="none" xmlns="http://www.w3.org/2000/svg">
<g clip-path="url(#clip0_646_1032)">
<path d="M15.0005 5.16374C18.2065 5.16374 18.5829 5.17803 19.85 5.2352C21.0219 5.2876 21.6555 5.48291 22.0795 5.64965C22.6416 5.86878 23.0418 6.12603 23.461 6.54524C23.8802 6.96445 24.1422 7.36461 24.3566 7.92674C24.5186 8.35072 24.7187 8.9843 24.7711 10.1562C24.8282 11.4234 24.8425 11.7997 24.8425 15.0057C24.8425 18.2118 24.8282 18.5881 24.7711 19.8553C24.7187 21.0272 24.5233 21.6608 24.3566 22.0847C24.1375 22.6469 23.8802 23.047 23.461 23.4662C23.0418 23.8855 22.6416 24.1475 22.0795 24.3618C21.6555 24.5238 21.0219 24.7239 19.85 24.7763C18.5829 24.8334 18.2065 24.8477 15.0005 24.8477C11.7945 24.8477 11.4181 24.8334 10.151 24.7763C8.97906 24.7239 8.34547 24.5286 7.92149 24.3618C7.35936 24.1427 6.95921 23.8855 6.53999 23.4662C6.12078 23.047 5.85877 22.6469 5.6444 22.0847C5.48243 21.6608 5.28235 21.0272 5.22995 19.8553C5.17278 18.5881 5.15849 18.2118 5.15849 15.0057C5.15849 11.7997 5.17278 11.4234 5.22995 10.1562C5.28235 8.9843 5.47766 8.35072 5.6444 7.92674C5.86353 7.36461 6.12078 6.96445 6.53999 6.54524C6.95921 6.12603 7.35936 5.86402 7.92149 5.64965C8.34547 5.48768 8.97906 5.2876 10.151 5.2352C11.4181 5.17327 11.7992 5.16374 15.0005 5.16374ZM15.0005 3.00098C11.7421 3.00098 11.3324 3.01527 10.0509 3.07243C8.77421 3.1296 7.90244 3.33444 7.14023 3.6298C6.34944 3.93468 5.68251 4.34913 5.01558 5.01606C4.34864 5.68299 3.93896 6.35469 3.62931 7.14071C3.33395 7.90292 3.12911 8.7747 3.07195 10.0562C3.01478 11.3329 3.00049 11.7425 3.00049 15.001C3.00049 18.2594 3.01478 18.6691 3.07195 19.9506C3.12911 21.2273 3.33395 22.099 3.62931 22.866C3.93419 23.6568 4.34864 24.3237 5.01558 24.9907C5.68251 25.6576 6.3542 26.0673 7.14023 26.3769C7.90244 26.6723 8.77421 26.8771 10.0557 26.9343C11.3371 26.9914 11.7421 27.0057 15.0053 27.0057C18.2685 27.0057 18.6734 26.9914 19.9549 26.9343C21.2315 26.8771 22.1033 26.6723 22.8703 26.3769C23.6611 26.072 24.328 25.6576 24.995 24.9907C25.6619 24.3237 26.0716 23.652 26.3812 22.866C26.6766 22.1038 26.8814 21.232 26.9386 19.9506C26.9957 18.6691 27.01 18.2642 27.01 15.001C27.01 11.7378 26.9957 11.3329 26.9386 10.0514C26.8814 8.7747 26.6766 7.90292 26.3812 7.13595C26.0763 6.34516 25.6619 5.67823 24.995 5.0113C24.328 4.34437 23.6563 3.93468 22.8703 3.62503C22.1081 3.32968 21.2363 3.12484 19.9549 3.06767C18.6686 3.01527 18.2589 3.00098 15.0005 3.00098Z" fill="#BCC1C5"/>
<path d="M15.0003 8.8418C11.5989 8.8418 8.83594 11.6 8.83594 15.0061C8.83594 18.4123 11.5942 21.1705 15.0003 21.1705C18.4064 21.1705 21.1646 18.4123 21.1646 15.0061C21.1646 11.6 18.4064 8.8418 15.0003 8.8418ZM15.0003 19.003C12.7899 19.003 10.9987 17.2118 10.9987 15.0014C10.9987 12.791 12.7899 10.9998 15.0003 10.9998C17.2107 10.9998 19.0019 12.791 19.0019 15.0014C19.0019 17.2118 17.2107 19.003 15.0003 19.003Z" fill="#BCC1C5"/>
<path d="M21.4074 10.0326C22.202 10.0326 22.8461 9.38849 22.8461 8.59394C22.8461 7.79939 22.202 7.15527 21.4074 7.15527C20.6129 7.15527 19.9688 7.79939 19.9688 8.59394C19.9688 9.38849 20.6129 10.0326 21.4074 10.0326Z" fill="#BCC1C5"/>
</g>
<defs>
<clipPath id="clip0_646_1032">
<rect width="24" height="24" fill="white" transform="translate(3.00049 3)"/>
</clipPath>
</defs>
</svg>
