<svg width="30" height="30" viewBox="0 0 30 30" fill="none" xmlns="http://www.w3.org/2000/svg">
<path d="M27.8579 8.76162C27.5986 7.65724 26.837 6.79215 25.8808 6.49765C24.1306 5.96387 15.6551 5.96387 15.6551 5.96387C15.6551 5.96387 7.16345 5.96387 5.42946 6.49765C4.47333 6.79215 3.71167 7.65724 3.45238 8.76162C2.98242 10.7495 2.98242 14.9093 2.98242 14.9093C2.98242 14.9093 2.98242 19.0691 3.45238 21.057C3.71167 22.1614 4.47333 23.0265 5.42946 23.321C7.17965 23.8548 15.6551 23.8548 15.6551 23.8548C15.6551 23.8548 24.1468 23.8548 25.8808 23.321C26.837 23.0265 27.5986 22.1614 27.8579 21.057C28.3279 19.0691 28.3279 14.9093 28.3279 14.9093C28.3279 14.9093 28.3279 10.7495 27.8579 8.76162ZM14.5197 17.9412C14.0236 18.2611 13.3702 17.905 13.3702 17.3147V12.5039C13.3702 11.9136 14.0236 11.5575 14.5197 11.8774L18.2491 14.2829C18.7043 14.5765 18.7043 15.2422 18.2491 15.5358L14.5197 17.9412Z" fill="#BCC1C5"/>
</svg>
