<svg width="130" height="130" viewBox="0 0 130 130" fill="none" xmlns="http://www.w3.org/2000/svg">
<path d="M13.7803 31.3972C13.7803 29.3216 15.8373 27.8732 17.7914 28.5727L48.7111 39.6421C49.9039 40.0692 50.6999 41.1996 50.6999 42.4666V108.587H13.7803V31.3972Z" fill="#002AA9"/>
<g opacity="0.5">
<rect x="23.626" y="52.0977" width="36.9196" height="6.56856" rx="1" fill="white"/>
<rect x="23.626" y="69.1758" width="36.9196" height="6.56856" rx="1" fill="white"/>
<rect x="23.626" y="86.2539" width="36.9196" height="6.56856" rx="1" fill="white"/>
</g>
<path d="M63.0059 39.333C63.0059 37.6762 64.349 36.333 66.0059 36.333H115.385C117.042 36.333 118.385 37.6762 118.385 39.333V109.901H63.0059V39.333Z" fill="#002AA9"/>
<g opacity="0.5">
<rect x="67.9282" y="52.0977" width="36.9196" height="6.56856" rx="1" fill="white"/>
<rect x="67.9282" y="69.1758" width="36.9196" height="6.56856" rx="1" fill="white"/>
<rect x="67.9282" y="86.2539" width="36.9196" height="6.56856" rx="1" fill="white"/>
</g>
<path d="M37.1626 17C37.1626 15.3431 38.5057 14 40.1626 14H89.542C91.1989 14 92.542 15.3431 92.542 17V109.901H37.1626V17Z" fill="#2450D4"/>
<path d="M2.7041 106.332C2.7041 104.675 4.04725 103.332 5.7041 103.332H124C125.657 103.332 127 104.675 127 106.332V109.901H2.7041V106.332Z" fill="#2450D4"/>
<rect x="47.0068" y="31.0791" width="36.9196" height="6.56856" rx="1" fill="white"/>
<rect x="47.0068" y="48.1572" width="36.9196" height="6.56856" rx="1" fill="white"/>
<rect x="47.0068" y="65.2354" width="36.9196" height="6.56856" rx="1" fill="white"/>
<path d="M59.3135 84.6279C59.3135 84.0756 59.7612 83.6279 60.3135 83.6279H70.62C71.1723 83.6279 71.62 84.0756 71.62 84.6279V109.902H59.3135V84.6279Z" fill="white"/>
</svg>
