<svg width="130" height="130" viewBox="0 0 130 130" fill="none" xmlns="http://www.w3.org/2000/svg">
<rect x="56" y="22.9355" width="53.1818" height="61.6234" rx="3" fill="#5286EF"/>
<rect x="62.8184" y="28.377" width="53.1818" height="61.6234" rx="3" fill="#2450D4"/>
<circle cx="89.5" cy="46.5" r="5" stroke="white" stroke-width="3"/>
<path d="M98 61V60.5C98 55.8056 94.1944 52 89.5 52V52C84.8056 52 81 55.8056 81 60.5V61" stroke="white" stroke-width="3" stroke-linecap="round"/>
<path d="M80 75H100" stroke="white" stroke-width="3" stroke-linecap="round"/>
<path d="M80 68H100" stroke="white" stroke-width="3" stroke-linecap="round"/>
<rect x="2" y="72" width="26.4822" height="33.612" rx="2" fill="#2450D4"/>
<path d="M28.4814 76.0742H33.6113C34.7158 76.0742 35.6113 76.9696 35.6113 78.0742V99.5379C35.6113 100.642 34.7158 101.538 33.6113 101.538H28.4814V76.0742Z" fill="white"/>
<path d="M35.4534 78.0002C37.9552 78.5901 42.5283 79.0567 48.3436 77.6029C56.492 75.5659 67.696 81.1669 73.298 87.2782C78.9 93.3895 91.0914 91.4719 96.7246 92.8802C100.516 93.8281 101.661 97.8644 99.339 99.6511C100.994 99.3519 103.824 98.8325 106.401 97.9738C112.512 95.9367 118.623 92.881 125.244 95.4274C129.729 97.1523 129.661 99.4858 129.432 100.882C129.367 101.28 129.066 101.604 128.675 101.704C123.283 103.087 113.997 105.419 110.475 108.159C105.892 111.724 81.4464 119.363 67.1867 111.724C53.4734 104.378 43.9991 99.8573 35.1401 99.9746C34.5661 99.9822 34.084 99.5278 34.084 98.9537V79.0297C34.084 78.3358 34.778 77.8409 35.4534 78.0002Z" fill="#FFAC8E"/>
<path d="M98.7617 95.4266C97.3153 94.4625 94.0113 94.1549 91.7019 94.2963C91.1148 94.3323 90.7419 94.9 90.8504 95.4781C91.0594 96.5918 91.0688 97.4124 90.899 98.3329C90.7855 98.9479 91.1868 99.5618 91.8095 99.6193C93.4935 99.775 95.725 99.9045 97.7431 99.5009C100.289 98.9916 100.289 96.445 98.7617 95.4266Z" fill="white"/>
</svg>
