<svg width="18" height="20" viewBox="0 0 18 20" fill="none" xmlns="http://www.w3.org/2000/svg">
<path d="M1.32457 2.85808L8.59246 0.250389C9.04273 0.0888349 9.53599 0.0940213 9.98276 0.265008L16.7149 2.84149C17.4889 3.13772 18 3.88062 18 4.70937V13.842C18 14.5583 17.6169 15.2199 16.9957 15.5765L10.2547 19.4464C9.65501 19.7906 8.92003 19.8007 8.31113 19.473L1.05216 15.5663C0.404142 15.2175 0 14.541 0 13.8051V4.74058C0 3.89643 0.530012 3.14317 1.32457 2.85808Z" fill="#0222B4"/>
<path d="M5 9.23077L7.62299 12.0555C8.06739 12.5341 8.8438 12.4652 9.19696 11.9158L13 6" stroke="white" stroke-width="2" stroke-linecap="round"/>
</svg>
