<svg width="190" height="190" viewBox="0 0 190 190" fill="none" xmlns="http://www.w3.org/2000/svg">
<g opacity="0.8">
<path d="M91.5483 1.95642C93.6894 0.742835 96.3106 0.742834 98.4517 1.95642L136.325 23.423L173.852 45.4889C175.974 46.7364 177.284 49.0064 177.304 51.4675L177.65 95L177.304 138.533C177.284 140.994 175.974 143.264 173.852 144.511L136.325 166.577L98.4517 188.044C96.3106 189.257 93.6894 189.257 91.5483 188.044L53.675 166.577L16.1477 144.511C14.0262 143.264 12.7156 140.994 12.696 138.533L12.35 95L12.696 51.4675C12.7156 49.0064 14.0262 46.7364 16.1477 45.489L53.675 23.423L91.5483 1.95642Z" fill="url(#paint0_linear_790_29)" fill-opacity="0.8"/>
<path d="M91.7949 2.3916C93.7831 1.2647 96.2169 1.2647 98.2051 2.3916L136.078 23.8584L173.599 45.9199C175.569 47.0783 176.786 49.1864 176.804 51.4717L177.15 95.0039L176.804 138.528C176.786 140.814 175.569 142.922 173.599 144.08L136.078 166.142L98.2051 187.608C96.2169 188.735 93.7831 188.735 91.7949 187.608L53.9219 166.142L16.4014 144.08C14.4313 142.922 13.2145 140.814 13.1963 138.528L12.8496 95.0039L13.1963 51.4717C13.2145 49.1864 14.4313 47.0783 16.4014 45.9199L53.9219 23.8584L91.7949 2.3916Z" stroke="url(#paint1_linear_790_29)" stroke-opacity="0.3"/>
</g>
<g opacity="0.8">
<path d="M91.5483 12.9564C93.6894 11.7428 96.3106 11.7428 98.4517 12.9564L131.54 31.7109L164.326 50.989C166.448 52.2364 167.758 54.5064 167.778 56.9675L168.08 95L167.778 133.033C167.758 135.494 166.448 137.764 164.326 139.011L131.54 158.289L98.4517 177.044C96.3106 178.257 93.6894 178.257 91.5483 177.044L58.46 158.289L25.674 139.011C23.5525 137.764 22.2419 135.494 22.2223 133.033L21.92 95L22.2223 56.9675C22.2419 54.5064 23.5525 52.2364 25.674 50.989L58.46 31.7109L91.5483 12.9564Z" fill="url(#paint2_linear_790_29)" fill-opacity="0.8"/>
<path d="M91.7949 13.3916C93.7831 12.2647 96.2169 12.2647 98.2051 13.3916L131.293 32.1455L164.072 51.4199C165.919 52.5058 167.105 54.4262 167.261 56.5449L167.277 56.9717L167.58 95.0039L167.277 133.028C167.259 135.314 166.042 137.422 164.072 138.58L131.293 157.854L98.2051 176.608C96.2169 177.735 93.7831 177.735 91.7949 176.608L58.707 157.854L25.9277 138.58C23.9577 137.422 22.7408 135.314 22.7227 133.028L22.4199 95.0039L22.7227 56.9717C22.7408 54.6864 23.9577 52.5783 25.9277 51.4199L58.707 32.1455L91.7949 13.3916Z" stroke="url(#paint3_linear_790_29)" stroke-opacity="0.3"/>
</g>
<path d="M115.24 71.0098C115.24 82.6024 105.56 92 93.62 92C81.6796 92 72 82.6024 72 71.0098C72 59.4172 81.6796 50.0195 93.62 50.0195" stroke="white" stroke-width="1.59403" stroke-linecap="round"/>
<path d="M93.1592 54.9316V86.1937" stroke="white" stroke-width="1.59403" stroke-linecap="round"/>
<path d="M110.642 70.5645L75.6816 70.5645" stroke="white" stroke-width="1.59403" stroke-linecap="round"/>
<path d="M106.04 79.4941H80.28" stroke="white" stroke-width="1.59403" stroke-linecap="round"/>
<path d="M92.7002 62.0781L79.8202 62.0781" stroke="white" stroke-width="1.59403" stroke-linecap="round"/>
<path d="M88.5602 56.2715C88.5602 56.2715 81.6602 59.436 81.6602 70.3586C81.6602 81.2811 88.5602 84.8539 88.5602 84.8539" stroke="white" stroke-width="1.59403" stroke-linecap="round"/>
<path d="M98.22 84.8531C98.22 84.8531 105.538 81.521 106.04 71.4551" stroke="white" stroke-width="1.59403" stroke-linecap="round"/>
<path d="M107.88 46.7969C113.051 46.7969 117.203 50.8611 117.203 55.8252C117.203 60.7893 113.051 64.8535 107.88 64.8535H99.1768C98.8329 64.8533 98.5568 64.5765 98.5566 64.2354V55.8252C98.5567 50.8611 102.709 46.7969 107.88 46.7969Z" stroke="white" stroke-width="1.59403"/>
<path d="M113.17 55.6027L111.1 53.6767M101.9 55.6027L107.008 51.0407C107.372 50.7155 107.924 50.7211 108.281 51.0537L111.1 53.6767M111.1 50.4668V53.6767" stroke="white" stroke-width="1.59403" stroke-linecap="round"/>
<path d="M111.1 56.4961V59.1238C111.1 59.6458 110.677 60.0689 110.155 60.0689H105.145C104.623 60.0689 104.2 59.6458 104.2 59.1238V56.4961" stroke="white" stroke-width="1.59403" stroke-linecap="round"/>
<path d="M72.088 117.856H78.136V119.536H72.088V117.856ZM68.664 125.168H76.184V126.848H68.664V125.168ZM71.16 116.352H73.112V122.288H71.16V116.352ZM67.656 121.296H77.208V127.424H75.24V122.976H69.528V127.424H67.656V121.296ZM70.504 112.4H72.504V115.328H70.504V112.4ZM65.704 114.288H78.36V116.112H65.704V114.288ZM64.776 114.288H66.696V118.32C66.696 118.971 66.6693 119.691 66.616 120.48C66.5733 121.259 66.4933 122.064 66.376 122.896C66.2587 123.717 66.088 124.517 65.864 125.296C65.6507 126.075 65.3627 126.779 65 127.408C64.8827 127.301 64.7173 127.173 64.504 127.024C64.3013 126.885 64.0933 126.747 63.88 126.608C63.6667 126.48 63.4853 126.384 63.336 126.32C63.6667 125.744 63.928 125.115 64.12 124.432C64.312 123.749 64.4507 123.051 64.536 122.336C64.632 121.621 64.696 120.923 64.728 120.24C64.76 119.547 64.776 118.907 64.776 118.32V114.288ZM86.248 114.512H94.36V116.176H86.248V114.512ZM87.256 119.856H93.416V121.408H87.256V119.856ZM87.256 122.448H93.416V123.984H87.256V122.448ZM89.432 112.384H91.144V127.296H89.432V112.384ZM92.456 117.232H94.136V125.6C94.136 125.963 94.0987 126.261 94.024 126.496C93.96 126.731 93.816 126.923 93.592 127.072C93.3787 127.211 93.128 127.296 92.84 127.328C92.5627 127.371 92.2267 127.392 91.832 127.392C91.8107 127.157 91.752 126.88 91.656 126.56C91.5707 126.251 91.4747 125.984 91.368 125.76C91.56 125.771 91.7413 125.776 91.912 125.776C92.0933 125.776 92.2107 125.771 92.264 125.76C92.392 125.76 92.456 125.696 92.456 125.568V117.232ZM86.536 117.232H93.4V118.848H88.2V127.376H86.536V117.232ZM91.352 113.264L92.472 112.416C92.7813 112.608 93.1067 112.837 93.448 113.104C93.7893 113.36 94.056 113.6 94.248 113.824L93.08 114.768C92.9093 114.544 92.6587 114.293 92.328 114.016C91.9973 113.728 91.672 113.477 91.352 113.264ZM80.28 122.032H85.88V127.088H84.136V123.584H81.944V127.408H80.28V122.032ZM82.184 115.84H83.928V120.352H82.184V115.84ZM80.392 117.2H85.768V118.656H80.392V117.2ZM79.864 119.76H86.12V121.312H79.864V119.76ZM80.904 125.008H85.08V126.576H80.904V125.008ZM81.976 112.4H83.016V112.768H83.576V113.28C83.256 113.867 82.8453 114.533 82.344 115.28C81.8427 116.027 81.208 116.752 80.44 117.456C80.344 117.328 80.2213 117.184 80.072 117.024C79.9333 116.853 79.784 116.693 79.624 116.544C79.4747 116.395 79.336 116.277 79.208 116.192C79.8693 115.627 80.4293 115.008 80.888 114.336C81.3573 113.653 81.72 113.008 81.976 112.4ZM82.312 112.4H83.608C83.9387 112.677 84.28 112.987 84.632 113.328C84.984 113.669 85.3093 114.011 85.608 114.352C85.9173 114.693 86.168 115.008 86.36 115.296L85.16 116.768C85 116.48 84.776 116.149 84.488 115.776C84.2107 115.392 83.9067 115.019 83.576 114.656C83.2453 114.283 82.9253 113.968 82.616 113.712H82.312V112.4ZM95.88 121.664H110.152V123.28H95.88V121.664ZM95.944 113.504H102.44V114.944H95.944V113.504ZM102.808 113.04H108.888V114.656H102.808V113.04ZM96.216 115.936H102.232V117.36H96.216V115.936ZM104.168 122.384C104.616 123.429 105.357 124.203 106.392 124.704C107.427 125.205 108.835 125.509 110.616 125.616C110.467 125.755 110.317 125.936 110.168 126.16C110.019 126.384 109.88 126.608 109.752 126.832C109.624 127.056 109.517 127.264 109.432 127.456C108.131 127.296 107.027 127.029 106.12 126.656C105.224 126.293 104.477 125.781 103.88 125.12C103.293 124.459 102.797 123.627 102.392 122.624L104.168 122.384ZM108.216 113.04H110.024C110.024 113.04 110.024 113.088 110.024 113.184C110.024 113.269 110.024 113.371 110.024 113.488C110.024 113.595 110.019 113.685 110.008 113.76C109.965 115.051 109.912 116.101 109.848 116.912C109.784 117.712 109.709 118.331 109.624 118.768C109.539 119.205 109.427 119.515 109.288 119.696C109.128 119.899 108.957 120.048 108.776 120.144C108.605 120.229 108.403 120.288 108.168 120.32C107.965 120.352 107.704 120.373 107.384 120.384C107.075 120.384 106.744 120.384 106.392 120.384C106.381 120.117 106.328 119.824 106.232 119.504C106.136 119.173 106.019 118.896 105.88 118.672C106.168 118.693 106.429 118.709 106.664 118.72C106.899 118.72 107.08 118.72 107.208 118.72C107.325 118.72 107.421 118.709 107.496 118.688C107.571 118.667 107.645 118.613 107.72 118.528C107.795 118.411 107.864 118.176 107.928 117.824C107.992 117.461 108.045 116.923 108.088 116.208C108.131 115.483 108.173 114.528 108.216 113.344V113.04ZM95.672 118.96C96.248 118.907 96.904 118.843 97.64 118.768C98.3867 118.693 99.1707 118.613 99.992 118.528C100.824 118.432 101.651 118.341 102.472 118.256L102.504 119.728C101.32 119.877 100.136 120.021 98.952 120.16C97.7787 120.299 96.7333 120.421 95.816 120.528L95.672 118.96ZM104.696 113.616H106.488C106.435 114.693 106.328 115.675 106.168 116.56C106.008 117.445 105.709 118.229 105.272 118.912C104.835 119.584 104.179 120.155 103.304 120.624C103.208 120.411 103.053 120.171 102.84 119.904C102.627 119.627 102.424 119.413 102.232 119.264C102.947 118.891 103.469 118.437 103.8 117.904C104.141 117.36 104.365 116.731 104.472 116.016C104.589 115.301 104.664 114.501 104.696 113.616ZM98.408 112.4H100.184V119.04L98.408 119.248V112.4ZM101.896 120.72H103.848V122.272C103.848 122.677 103.789 123.088 103.672 123.504C103.565 123.909 103.368 124.309 103.08 124.704C102.792 125.099 102.376 125.472 101.832 125.824C101.288 126.176 100.584 126.491 99.72 126.768C98.8667 127.056 97.816 127.291 96.568 127.472C96.4507 127.237 96.28 126.96 96.056 126.64C95.8427 126.331 95.6453 126.069 95.464 125.856C96.5733 125.707 97.5067 125.531 98.264 125.328C99.032 125.115 99.6507 124.885 100.12 124.64C100.6 124.384 100.968 124.123 101.224 123.856C101.48 123.579 101.656 123.307 101.752 123.04C101.848 122.763 101.896 122.491 101.896 122.224V120.72ZM118.888 119.648L120.44 118.88C120.717 119.243 120.995 119.643 121.272 120.08C121.549 120.507 121.8 120.933 122.024 121.36C122.248 121.776 122.413 122.155 122.52 122.496L120.856 123.36C120.76 123.029 120.605 122.651 120.392 122.224C120.189 121.787 119.955 121.344 119.688 120.896C119.432 120.448 119.165 120.032 118.888 119.648ZM119.432 115.12H125.176V116.944H119.432V115.12ZM124.344 115.12H126.2C126.2 115.12 126.2 115.179 126.2 115.296C126.2 115.413 126.2 115.541 126.2 115.68C126.2 115.819 126.195 115.931 126.184 116.016C126.131 117.776 126.072 119.275 126.008 120.512C125.955 121.739 125.885 122.752 125.8 123.552C125.715 124.352 125.613 124.981 125.496 125.44C125.389 125.899 125.251 126.235 125.08 126.448C124.856 126.757 124.621 126.971 124.376 127.088C124.141 127.205 123.853 127.291 123.512 127.344C123.224 127.387 122.851 127.408 122.392 127.408C121.944 127.408 121.48 127.403 121 127.392C120.989 127.115 120.925 126.789 120.808 126.416C120.691 126.053 120.541 125.733 120.36 125.456C120.872 125.499 121.341 125.525 121.768 125.536C122.195 125.547 122.509 125.552 122.712 125.552C122.883 125.552 123.016 125.531 123.112 125.488C123.219 125.445 123.32 125.376 123.416 125.28C123.544 125.141 123.656 124.859 123.752 124.432C123.848 124.005 123.928 123.408 123.992 122.64C124.067 121.861 124.131 120.885 124.184 119.712C124.248 118.539 124.301 117.136 124.344 115.504V115.12ZM119.528 112.384L121.512 112.832C121.288 113.621 121.016 114.4 120.696 115.168C120.387 115.925 120.045 116.635 119.672 117.296C119.299 117.957 118.909 118.533 118.504 119.024C118.376 118.907 118.211 118.773 118.008 118.624C117.805 118.475 117.592 118.331 117.368 118.192C117.144 118.053 116.952 117.941 116.792 117.856C117.208 117.429 117.587 116.928 117.928 116.352C118.269 115.765 118.573 115.136 118.84 114.464C119.117 113.781 119.347 113.088 119.528 112.384ZM113.88 112.416L115.576 113.008C115.363 113.424 115.139 113.851 114.904 114.288C114.669 114.715 114.44 115.131 114.216 115.536C113.992 115.931 113.773 116.277 113.56 116.576L112.264 116.048C112.456 115.717 112.653 115.344 112.856 114.928C113.059 114.501 113.251 114.069 113.432 113.632C113.613 113.195 113.763 112.789 113.88 112.416ZM115.8 114.32L117.432 114.992C117.037 115.6 116.611 116.24 116.152 116.912C115.693 117.573 115.229 118.208 114.76 118.816C114.291 119.424 113.853 119.957 113.448 120.416L112.28 119.824C112.589 119.461 112.904 119.051 113.224 118.592C113.544 118.133 113.859 117.659 114.168 117.168C114.488 116.677 114.787 116.187 115.064 115.696C115.352 115.195 115.597 114.736 115.8 114.32ZM111.416 116.208L112.328 114.896C112.605 115.131 112.893 115.397 113.192 115.696C113.491 115.984 113.763 116.272 114.008 116.56C114.264 116.848 114.456 117.115 114.584 117.36L113.608 118.848C113.48 118.603 113.293 118.325 113.048 118.016C112.813 117.696 112.552 117.381 112.264 117.072C111.976 116.752 111.693 116.464 111.416 116.208ZM115.416 118.176L116.776 117.584C116.989 117.936 117.197 118.315 117.4 118.72C117.603 119.125 117.779 119.525 117.928 119.92C118.077 120.304 118.189 120.651 118.264 120.96L116.792 121.632C116.728 121.333 116.627 120.987 116.488 120.592C116.349 120.187 116.184 119.776 115.992 119.36C115.811 118.933 115.619 118.539 115.416 118.176ZM111.416 119.456C112.152 119.435 113.037 119.403 114.072 119.36C115.117 119.317 116.179 119.269 117.256 119.216L117.24 120.736C116.237 120.811 115.24 120.885 114.248 120.96C113.256 121.024 112.365 121.077 111.576 121.12L111.416 119.456ZM115.688 122.176L117.096 121.712C117.32 122.192 117.528 122.715 117.72 123.28C117.912 123.845 118.051 124.336 118.136 124.752L116.648 125.296C116.573 124.869 116.445 124.368 116.264 123.792C116.083 123.205 115.891 122.667 115.688 122.176ZM112.104 121.808L113.688 122.096C113.603 122.864 113.475 123.621 113.304 124.368C113.133 125.115 112.936 125.744 112.712 126.256C112.605 126.181 112.461 126.096 112.28 126C112.099 125.915 111.912 125.829 111.72 125.744C111.539 125.659 111.379 125.595 111.24 125.552C111.475 125.072 111.661 124.501 111.8 123.84C111.939 123.168 112.04 122.491 112.104 121.808ZM113.96 120.304H115.656V127.44H113.96V120.304Z" fill="white"/>
<defs>
<linearGradient id="paint0_linear_790_29" x1="91.3965" y1="124.148" x2="182.152" y2="116.492" gradientUnits="userSpaceOnUse">
<stop stop-color="#001A8E"/>
<stop offset="1" stop-color="#254598"/>
</linearGradient>
<linearGradient id="paint1_linear_790_29" x1="95" y1="0" x2="95" y2="190" gradientUnits="userSpaceOnUse">
<stop stop-color="white" stop-opacity="0.6"/>
<stop offset="1" stop-color="white"/>
</linearGradient>
<linearGradient id="paint2_linear_790_29" x1="91.8138" y1="120.773" x2="172.061" y2="114.003" gradientUnits="userSpaceOnUse">
<stop stop-color="#001A8E"/>
<stop offset="1" stop-color="#254598"/>
</linearGradient>
<linearGradient id="paint3_linear_790_29" x1="95" y1="11" x2="95" y2="179" gradientUnits="userSpaceOnUse">
<stop stop-color="white" stop-opacity="0.6"/>
<stop offset="1" stop-color="white"/>
</linearGradient>
</defs>
</svg>
