<svg width="190" height="190" viewBox="0 0 190 190" fill="none" xmlns="http://www.w3.org/2000/svg">
<g opacity="0.8">
<path d="M91.5483 1.95642C93.6894 0.742835 96.3106 0.742834 98.4517 1.95642L136.325 23.423L173.852 45.4889C175.974 46.7364 177.284 49.0064 177.304 51.4675L177.65 95L177.304 138.533C177.284 140.994 175.974 143.264 173.852 144.511L136.325 166.577L98.4517 188.044C96.3106 189.257 93.6894 189.257 91.5483 188.044L53.675 166.577L16.1477 144.511C14.0262 143.264 12.7156 140.994 12.696 138.533L12.35 95L12.696 51.4675C12.7156 49.0064 14.0262 46.7364 16.1477 45.489L53.675 23.423L91.5483 1.95642Z" fill="url(#paint0_linear_790_47)" fill-opacity="0.8"/>
<path d="M91.7949 2.3916C93.7831 1.2647 96.2169 1.2647 98.2051 2.3916L136.078 23.8584L173.599 45.9199C175.569 47.0783 176.786 49.1864 176.804 51.4717L177.15 95.0039L176.804 138.528C176.786 140.814 175.569 142.922 173.599 144.08L136.078 166.142L98.2051 187.608C96.2169 188.735 93.7831 188.735 91.7949 187.608L53.9219 166.142L16.4014 144.08C14.4313 142.922 13.2145 140.814 13.1963 138.528L12.8496 95.0039L13.1963 51.4717C13.2145 49.1864 14.4313 47.0783 16.4014 45.9199L53.9219 23.8584L91.7949 2.3916Z" stroke="url(#paint1_linear_790_47)" stroke-opacity="0.3"/>
</g>
<g opacity="0.8">
<path d="M91.5483 12.9564C93.6894 11.7428 96.3106 11.7428 98.4517 12.9564L131.54 31.7109L164.326 50.989C166.448 52.2364 167.758 54.5064 167.778 56.9675L168.08 95L167.778 133.033C167.758 135.494 166.448 137.764 164.326 139.011L131.54 158.289L98.4517 177.044C96.3106 178.257 93.6894 178.257 91.5483 177.044L58.46 158.289L25.674 139.011C23.5525 137.764 22.2419 135.494 22.2223 133.033L21.92 95L22.2223 56.9675C22.2419 54.5064 23.5525 52.2364 25.674 50.989L58.46 31.7109L91.5483 12.9564Z" fill="url(#paint2_linear_790_47)" fill-opacity="0.8"/>
<path d="M91.7949 13.3916C93.7831 12.2647 96.2169 12.2647 98.2051 13.3916L131.293 32.1455L164.072 51.4199C165.919 52.5058 167.105 54.4262 167.261 56.5449L167.277 56.9717L167.58 95.0039L167.277 133.028C167.259 135.314 166.042 137.422 164.072 138.58L131.293 157.854L98.2051 176.608C96.2169 177.735 93.7831 177.735 91.7949 176.608L58.707 157.854L25.9277 138.58C23.9577 137.422 22.7408 135.314 22.7227 133.028L22.4199 95.0039L22.7227 56.9717C22.7408 54.6864 23.9577 52.5783 25.9277 51.4199L58.707 32.1455L91.7949 13.3916Z" stroke="url(#paint3_linear_790_47)" stroke-opacity="0.3"/>
</g>
<path d="M42.9375 119.656C47.0156 119.078 52.0781 116.516 54.7344 113.688L56.0469 115.156C54.8281 116.422 53.1484 117.641 51.2812 118.672V126.844H49.0938V119.766C47.1406 120.641 45.1094 121.281 43.2656 121.547L42.9375 119.656ZM59.0469 124.312C65 123.75 68.0469 121.266 69.125 116.094L71.0625 116.531C69.9688 122.547 66.1719 125.719 59.3594 126.312L59.0469 124.312ZM63.5625 118.594C61.9219 117.641 60.2344 116.844 58.5156 116.188L59.4688 114.359C61.2188 115 62.9062 115.797 64.5938 116.781L63.5625 118.594ZM74.4844 124.797C77.4375 124.469 78.9219 123.078 78.9219 120.688V120.406H72.8438V118.562H86.1562V120.406H81.0781V120.688C81.0781 124.141 78.8281 126.328 74.9688 126.656L74.4844 124.797ZM74.2969 116.156V114.312H84.7031V116.156H74.2969ZM90.125 124.594C95.75 124.453 97.5938 123.016 97.5938 118.781V114.125H99.7969V118.734C99.7969 124.188 97.125 126.391 90.375 126.484L90.125 124.594ZM89.25 121.078V114.125H91.4531V121.078H89.25ZM103.969 124.922C107.141 124.016 107.969 122.844 107.969 119.125V117.344H110.016V119.125C110.016 123.578 108.578 125.656 104.875 126.594L103.969 124.922ZM103.391 116.516V114.734H116V116.516C115.484 119.047 113.781 121.156 111.391 122.172L110.219 120.547C112.25 119.633 113.438 118.312 113.812 116.516H103.391ZM125.688 114.448H132.312V116.176H125.688V114.448ZM127.656 116.576H129.256V124.496H127.656V116.576ZM125.864 112.384L127.736 112.768C127.469 113.909 127.096 114.992 126.616 116.016C126.147 117.029 125.592 117.872 124.952 118.544C124.856 118.427 124.717 118.283 124.536 118.112C124.365 117.941 124.189 117.771 124.008 117.6C123.827 117.429 123.661 117.291 123.512 117.184C124.077 116.629 124.557 115.925 124.952 115.072C125.347 114.219 125.651 113.323 125.864 112.384ZM123.768 120.672L130.744 117.456L131.4 119.008L124.44 122.256L123.768 120.672ZM125.096 117.728H126.792V125.024C126.792 125.365 126.845 125.579 126.952 125.664C127.059 125.749 127.309 125.792 127.704 125.792C127.8 125.792 127.955 125.792 128.168 125.792C128.392 125.792 128.637 125.792 128.904 125.792C129.171 125.792 129.421 125.792 129.656 125.792C129.891 125.792 130.061 125.792 130.168 125.792C130.392 125.792 130.557 125.749 130.664 125.664C130.771 125.579 130.851 125.419 130.904 125.184C130.957 124.939 131 124.581 131.032 124.112C131.224 124.24 131.469 124.368 131.768 124.496C132.067 124.624 132.339 124.715 132.584 124.768C132.52 125.44 132.408 125.968 132.248 126.352C132.088 126.736 131.853 127.003 131.544 127.152C131.245 127.312 130.84 127.392 130.328 127.392C130.232 127.392 130.088 127.392 129.896 127.392C129.715 127.392 129.501 127.392 129.256 127.392C129.021 127.392 128.787 127.392 128.552 127.392C128.317 127.392 128.104 127.392 127.912 127.392C127.731 127.392 127.597 127.392 127.512 127.392C126.883 127.392 126.392 127.323 126.04 127.184C125.688 127.045 125.443 126.8 125.304 126.448C125.165 126.107 125.096 125.632 125.096 125.024V117.728ZM130.264 117.792H130.136L130.456 117.552L130.76 117.344L131.944 117.76L131.88 118.032C131.88 118.597 131.875 119.12 131.864 119.6C131.864 120.08 131.864 120.512 131.864 120.896C131.864 121.28 131.859 121.6 131.848 121.856C131.848 122.112 131.837 122.304 131.816 122.432C131.805 122.72 131.741 122.955 131.624 123.136C131.517 123.307 131.352 123.44 131.128 123.536C130.936 123.621 130.717 123.675 130.472 123.696C130.237 123.717 130.013 123.723 129.8 123.712C129.779 123.499 129.736 123.259 129.672 122.992C129.619 122.715 129.549 122.491 129.464 122.32C129.56 122.331 129.656 122.336 129.752 122.336C129.859 122.336 129.939 122.336 129.992 122.336C130.056 122.336 130.104 122.32 130.136 122.288C130.179 122.256 130.211 122.192 130.232 122.096C130.232 122.043 130.232 121.915 130.232 121.712C130.243 121.499 130.248 121.211 130.248 120.848C130.259 120.485 130.264 120.048 130.264 119.536C130.264 119.024 130.264 118.443 130.264 117.792ZM117.608 114.848H124.424V116.624H117.608V114.848ZM120.104 118.336H122.696V120.08H120.104V118.336ZM120.072 112.432H121.912V115.44H120.072V112.432ZM119.16 115.936H120.984C120.963 117.056 120.925 118.155 120.872 119.232C120.819 120.309 120.717 121.344 120.568 122.336C120.419 123.328 120.2 124.256 119.912 125.12C119.624 125.984 119.235 126.752 118.744 127.424C118.595 127.2 118.387 126.955 118.12 126.688C117.864 126.432 117.613 126.229 117.368 126.08C117.795 125.493 118.125 124.821 118.36 124.064C118.595 123.307 118.765 122.491 118.872 121.616C118.989 120.741 119.064 119.824 119.096 118.864C119.128 117.904 119.149 116.928 119.16 115.936ZM122.072 118.336H123.8C123.8 118.336 123.8 118.384 123.8 118.48C123.8 118.576 123.8 118.683 123.8 118.8C123.8 118.917 123.8 119.013 123.8 119.088C123.789 120.368 123.768 121.461 123.736 122.368C123.715 123.264 123.683 124.005 123.64 124.592C123.608 125.179 123.555 125.637 123.48 125.968C123.416 126.299 123.336 126.539 123.24 126.688C123.091 126.901 122.936 127.056 122.776 127.152C122.616 127.248 122.424 127.317 122.2 127.36C121.997 127.403 121.752 127.424 121.464 127.424C121.176 127.435 120.867 127.44 120.536 127.44C120.525 127.184 120.477 126.891 120.392 126.56C120.307 126.24 120.205 125.963 120.088 125.728C120.333 125.76 120.557 125.781 120.76 125.792C120.973 125.792 121.133 125.792 121.24 125.792C121.347 125.792 121.432 125.776 121.496 125.744C121.571 125.712 121.64 125.643 121.704 125.536C121.789 125.419 121.853 125.131 121.896 124.672C121.939 124.213 121.976 123.509 122.008 122.56C122.04 121.6 122.061 120.315 122.072 118.704V118.336ZM134.6 114.064H147.448V116.08H134.6V114.064ZM133.72 124.384H148.344V126.32H133.72V124.384ZM139.848 115.168H142.04V125.168H139.848V115.168Z" fill="white"/>
<path d="M71 65.9014L92.8945 47.571C93.2881 47.2415 93.8623 47.2448 94.252 47.5789L105.127 56.9007M115.628 65.9014L105.127 56.9007M109.59 60.726V52.226C109.59 51.646 109.12 51.1759 108.54 51.1759H106.178C105.598 51.1759 105.127 51.646 105.127 52.226V56.9007" stroke="white" stroke-width="1.5" stroke-linecap="round"/>
<path d="M74.1514 67.4766V90.0532C74.1514 90.6331 74.6215 91.1032 75.2014 91.1032H86.7128M99.8585 91.1032H111.954C112.534 91.1032 113.004 90.6331 113.004 90.0532V67.4766M103.948 71.1518H107.572C108.152 71.1518 108.622 71.622 108.622 72.2019V80.6025C108.622 81.1824 108.152 81.6526 107.572 81.6526H94.7739C94.194 81.6526 93.7238 82.1227 93.7238 82.7026V84.8028" stroke="white" stroke-width="1.5" stroke-linecap="round"/>
<path d="M79.4004 71.1523L81.5005 71.1523" stroke="white" stroke-width="1.5" stroke-linecap="round"/>
<path d="M82.0254 69.5762H84.6575C85.2374 69.5762 85.7076 70.0463 85.7076 70.6262V73.2514C85.7076 73.8314 86.1777 74.3015 86.7576 74.3015H88.3397C88.9196 74.3015 89.3897 73.8314 89.3897 73.2514V70.6262C89.3897 70.0463 89.8599 69.5762 90.4398 69.5762H97.1202C97.7002 69.5762 98.1703 70.0463 98.1703 70.6262V71.4138C98.1703 71.9937 98.6404 72.4639 99.2204 72.4639H99.6694C100.249 72.4639 100.719 71.9937 100.719 71.4138V70.6262C100.719 70.0463 101.19 69.5762 101.77 69.5762H103.552" stroke="white" stroke-width="1.5" stroke-linecap="round"/>
<mask id="path-10-inside-1_790_47" fill="white">
<rect x="90.4277" y="84.8047" width="6.30045" height="12.6009" rx="1.05007"/>
</mask>
<rect x="90.4277" y="84.8047" width="6.30045" height="12.6009" rx="1.05007" stroke="white" stroke-width="3" mask="url(#path-10-inside-1_790_47)"/>
<rect x="81.7256" y="65.0742" width="22.1267" height="12.676" rx="2.40022" stroke="white" stroke-width="1.5"/>
<defs>
<linearGradient id="paint0_linear_790_47" x1="91.3965" y1="124.148" x2="182.152" y2="116.492" gradientUnits="userSpaceOnUse">
<stop stop-color="#001A8E"/>
<stop offset="1" stop-color="#254598"/>
</linearGradient>
<linearGradient id="paint1_linear_790_47" x1="95" y1="0" x2="95" y2="190" gradientUnits="userSpaceOnUse">
<stop stop-color="white" stop-opacity="0.6"/>
<stop offset="1" stop-color="white"/>
</linearGradient>
<linearGradient id="paint2_linear_790_47" x1="91.8138" y1="120.773" x2="172.061" y2="114.003" gradientUnits="userSpaceOnUse">
<stop stop-color="#001A8E"/>
<stop offset="1" stop-color="#254598"/>
</linearGradient>
<linearGradient id="paint3_linear_790_47" x1="95" y1="11" x2="95" y2="179" gradientUnits="userSpaceOnUse">
<stop stop-color="white" stop-opacity="0.6"/>
<stop offset="1" stop-color="white"/>
</linearGradient>
</defs>
</svg>
