<svg width="190" height="190" viewBox="0 0 190 190" fill="none" xmlns="http://www.w3.org/2000/svg">
<g opacity="0.8">
<path d="M91.5483 1.95642C93.6894 0.742835 96.3106 0.742834 98.4517 1.95642L136.325 23.423L173.852 45.4889C175.974 46.7364 177.284 49.0064 177.304 51.4675L177.65 95L177.304 138.533C177.284 140.994 175.974 143.264 173.852 144.511L136.325 166.577L98.4517 188.044C96.3106 189.257 93.6894 189.257 91.5483 188.044L53.675 166.577L16.1477 144.511C14.0262 143.264 12.7156 140.994 12.696 138.533L12.35 95L12.696 51.4675C12.7156 49.0064 14.0262 46.7364 16.1477 45.489L53.675 23.423L91.5483 1.95642Z" fill="url(#paint0_linear_790_16)" fill-opacity="0.8"/>
<path d="M91.7949 2.3916C93.7831 1.2647 96.2169 1.2647 98.2051 2.3916L136.078 23.8584L173.599 45.9199C175.569 47.0783 176.786 49.1864 176.804 51.4717L177.15 95.0039L176.804 138.528C176.786 140.814 175.569 142.922 173.599 144.08L136.078 166.142L98.2051 187.608C96.2169 188.735 93.7831 188.735 91.7949 187.608L53.9219 166.142L16.4014 144.08C14.4313 142.922 13.2145 140.814 13.1963 138.528L12.8496 95.0039L13.1963 51.4717C13.2145 49.1864 14.4313 47.0783 16.4014 45.9199L53.9219 23.8584L91.7949 2.3916Z" stroke="url(#paint1_linear_790_16)" stroke-opacity="0.3"/>
</g>
<g opacity="0.8">
<path d="M91.5483 12.9564C93.6894 11.7428 96.3106 11.7428 98.4517 12.9564L131.54 31.7109L164.326 50.989C166.448 52.2364 167.758 54.5064 167.778 56.9675L168.08 95L167.778 133.033C167.758 135.494 166.448 137.764 164.326 139.011L131.54 158.289L98.4517 177.044C96.3106 178.257 93.6894 178.257 91.5483 177.044L58.46 158.289L25.674 139.011C23.5525 137.764 22.2419 135.494 22.2223 133.033L21.92 95L22.2223 56.9675C22.2419 54.5064 23.5525 52.2364 25.674 50.989L58.46 31.7109L91.5483 12.9564Z" fill="url(#paint2_linear_790_16)" fill-opacity="0.8"/>
<path d="M91.7949 13.3916C93.7831 12.2647 96.2169 12.2647 98.2051 13.3916L131.293 32.1455L164.072 51.4199C165.919 52.5058 167.105 54.4262 167.261 56.5449L167.277 56.9717L167.58 95.0039L167.277 133.028C167.259 135.314 166.042 137.422 164.072 138.58L131.293 157.854L98.2051 176.608C96.2169 177.735 93.7831 177.735 91.7949 176.608L58.707 157.854L25.9277 138.58C23.9577 137.422 22.7408 135.314 22.7227 133.028L22.4199 95.0039L22.7227 56.9717C22.7408 54.6864 23.9577 52.5783 25.9277 51.4199L58.707 32.1455L91.7949 13.3916Z" stroke="url(#paint3_linear_790_16)" stroke-opacity="0.3"/>
</g>
<path d="M64.264 113.376H76.184V115.2H64.264V113.376ZM64.424 116.336H73.896V118.016H64.424V116.336ZM75.496 113.376H77.48V125.008C77.48 125.552 77.416 125.979 77.288 126.288C77.1707 126.608 76.9413 126.853 76.6 127.024C76.2693 127.195 75.8427 127.301 75.32 127.344C74.7973 127.387 74.1733 127.403 73.448 127.392C73.4267 127.2 73.384 126.976 73.32 126.72C73.256 126.475 73.1813 126.224 73.096 125.968C73.0107 125.712 72.92 125.493 72.824 125.312C73.1333 125.333 73.4427 125.349 73.752 125.36C74.0613 125.36 74.3387 125.36 74.584 125.36C74.8293 125.349 75.0053 125.344 75.112 125.344C75.2613 125.344 75.3627 125.317 75.416 125.264C75.4693 125.211 75.496 125.109 75.496 124.96V113.376ZM65.24 119.2H67.112V125.808H65.24V119.2ZM66.904 119.2H73.048V124.64H66.904V122.992H71.16V120.848H66.904V119.2ZM83.944 118.816H94.328V120.64H83.944V118.816ZM84.744 114.704H93.56V116.544H84.744V114.704ZM88.088 112.4H90.072V120.144H88.088V112.4ZM83.96 124.848C84.6747 124.816 85.5013 124.779 86.44 124.736C87.3893 124.693 88.392 124.64 89.448 124.576C90.5147 124.512 91.576 124.453 92.632 124.4L92.616 126.144C91.624 126.219 90.6213 126.299 89.608 126.384C88.6053 126.469 87.64 126.544 86.712 126.608C85.7947 126.672 84.9573 126.736 84.2 126.8L83.96 124.848ZM90.088 122.64L91.736 121.76C92.1413 122.229 92.536 122.741 92.92 123.296C93.3147 123.851 93.672 124.4 93.992 124.944C94.312 125.488 94.552 125.989 94.712 126.448L92.888 127.44C92.7493 127.003 92.5307 126.507 92.232 125.952C91.9333 125.397 91.5973 124.832 91.224 124.256C90.8507 123.669 90.472 123.131 90.088 122.64ZM86.84 120.112L88.984 120.672C88.7493 121.28 88.4933 121.904 88.216 122.544C87.9493 123.184 87.6773 123.792 87.4 124.368C87.1333 124.944 86.8773 125.456 86.632 125.904L84.92 125.344C85.0907 124.992 85.2667 124.603 85.448 124.176C85.6293 123.739 85.8053 123.285 85.976 122.816C86.1573 122.347 86.3173 121.883 86.456 121.424C86.6053 120.955 86.7333 120.517 86.84 120.112ZM80.376 113.888L81.432 112.464C81.784 112.592 82.152 112.747 82.536 112.928C82.92 113.109 83.288 113.301 83.64 113.504C83.992 113.707 84.28 113.904 84.504 114.096L83.384 115.664C83.1707 115.472 82.8933 115.269 82.552 115.056C82.2213 114.832 81.864 114.619 81.48 114.416C81.096 114.203 80.728 114.027 80.376 113.888ZM79.464 118.24L80.456 116.784C80.7973 116.901 81.1653 117.045 81.56 117.216C81.9547 117.387 82.328 117.568 82.68 117.76C83.0427 117.941 83.336 118.117 83.56 118.288L82.504 119.904C82.2907 119.723 82.008 119.531 81.656 119.328C81.3147 119.125 80.952 118.928 80.568 118.736C80.184 118.544 79.816 118.379 79.464 118.24ZM79.896 125.984C80.1733 125.579 80.472 125.099 80.792 124.544C81.1227 123.989 81.4533 123.403 81.784 122.784C82.1253 122.165 82.4453 121.547 82.744 120.928L84.184 122.16C83.928 122.715 83.6507 123.285 83.352 123.872C83.064 124.448 82.7653 125.019 82.456 125.584C82.1573 126.149 81.8587 126.693 81.56 127.216L79.896 125.984ZM107.528 112.368L108.92 113.968C108.099 114.181 107.203 114.368 106.232 114.528C105.272 114.677 104.275 114.811 103.24 114.928C102.205 115.035 101.165 115.125 100.12 115.2C99.0747 115.264 98.0667 115.312 97.096 115.344C97.064 115.099 97 114.811 96.904 114.48C96.808 114.139 96.712 113.861 96.616 113.648C97.576 113.616 98.5573 113.563 99.56 113.488C100.573 113.413 101.56 113.323 102.52 113.216C103.491 113.109 104.403 112.987 105.256 112.848C106.109 112.709 106.867 112.549 107.528 112.368ZM96.776 116.912H109.416V118.752H96.776V116.912ZM95.672 120.64H110.376V122.528H95.672V120.64ZM102.024 114.64H104.024V125.136C104.024 125.712 103.944 126.139 103.784 126.416C103.635 126.704 103.363 126.928 102.968 127.088C102.595 127.227 102.109 127.317 101.512 127.36C100.925 127.403 100.221 127.419 99.4 127.408C99.368 127.227 99.304 127.019 99.208 126.784C99.1227 126.56 99.0267 126.331 98.92 126.096C98.8133 125.872 98.712 125.675 98.616 125.504C99.0213 125.515 99.4213 125.525 99.816 125.536C100.211 125.547 100.563 125.552 100.872 125.552C101.181 125.552 101.4 125.552 101.528 125.552C101.709 125.541 101.837 125.504 101.912 125.44C101.987 125.376 102.024 125.264 102.024 125.104V114.64ZM120.968 112.384H122.856V116.912H120.968V112.384ZM117.64 113.648H126.264V115.216H117.64V113.648ZM118.2 116.16H125.8V117.712H118.2V116.16ZM117.576 118.432H126.424V121.616H124.744V119.92H119.176V121.616H117.576V118.432ZM122.392 120.72H124.104V125.152C124.104 125.376 124.12 125.52 124.152 125.584C124.184 125.637 124.253 125.664 124.36 125.664C124.392 125.664 124.445 125.664 124.52 125.664C124.595 125.664 124.664 125.664 124.728 125.664C124.803 125.664 124.861 125.664 124.904 125.664C124.979 125.664 125.037 125.621 125.08 125.536C125.123 125.44 125.155 125.253 125.176 124.976C125.208 124.688 125.229 124.256 125.24 123.68C125.411 123.819 125.651 123.952 125.96 124.08C126.269 124.208 126.541 124.304 126.776 124.368C126.723 125.125 126.632 125.717 126.504 126.144C126.387 126.571 126.211 126.864 125.976 127.024C125.752 127.195 125.453 127.28 125.08 127.28C125.016 127.28 124.936 127.28 124.84 127.28C124.755 127.28 124.664 127.28 124.568 127.28C124.472 127.28 124.376 127.28 124.28 127.28C124.195 127.28 124.12 127.28 124.056 127.28C123.608 127.28 123.261 127.211 123.016 127.072C122.771 126.944 122.605 126.725 122.52 126.416C122.435 126.107 122.392 125.685 122.392 125.152V120.72ZM119.496 120.736H121.224V122.032C121.224 122.437 121.181 122.88 121.096 123.36C121.021 123.829 120.867 124.309 120.632 124.8C120.408 125.291 120.067 125.76 119.608 126.208C119.16 126.667 118.557 127.083 117.8 127.456C117.661 127.253 117.464 127.029 117.208 126.784C116.952 126.549 116.717 126.347 116.504 126.176C117.155 125.856 117.683 125.515 118.088 125.152C118.493 124.789 118.797 124.421 119 124.048C119.203 123.675 119.336 123.312 119.4 122.96C119.464 122.608 119.496 122.277 119.496 121.968V120.736ZM113.864 112.416L115.528 113.008C115.315 113.424 115.091 113.851 114.856 114.288C114.621 114.715 114.392 115.131 114.168 115.536C113.944 115.931 113.731 116.277 113.528 116.576L112.248 116.048C112.44 115.717 112.637 115.344 112.84 114.928C113.043 114.512 113.235 114.08 113.416 113.632C113.608 113.184 113.757 112.779 113.864 112.416ZM115.672 114.32L117.24 115.024C116.845 115.621 116.419 116.251 115.96 116.912C115.501 117.573 115.043 118.208 114.584 118.816C114.125 119.424 113.688 119.957 113.272 120.416L112.168 119.808C112.467 119.445 112.776 119.04 113.096 118.592C113.427 118.133 113.747 117.659 114.056 117.168C114.376 116.667 114.675 116.171 114.952 115.68C115.229 115.189 115.469 114.736 115.672 114.32ZM111.4 116.16L112.344 114.864C112.611 115.12 112.888 115.397 113.176 115.696C113.464 115.995 113.731 116.293 113.976 116.592C114.221 116.891 114.403 117.168 114.52 117.424L113.496 118.88C113.379 118.624 113.203 118.336 112.968 118.016C112.744 117.696 112.493 117.376 112.216 117.056C111.939 116.725 111.667 116.427 111.4 116.16ZM115.128 118.144L116.472 117.6C116.685 117.952 116.888 118.336 117.08 118.752C117.272 119.168 117.443 119.573 117.592 119.968C117.741 120.352 117.848 120.699 117.912 121.008L116.456 121.648C116.413 121.339 116.323 120.981 116.184 120.576C116.045 120.171 115.885 119.76 115.704 119.344C115.523 118.917 115.331 118.517 115.128 118.144ZM111.352 119.424C112.067 119.392 112.909 119.349 113.88 119.296C114.851 119.232 115.837 119.168 116.84 119.104L116.872 120.672C115.933 120.747 114.995 120.821 114.056 120.896C113.128 120.96 112.291 121.024 111.544 121.088L111.352 119.424ZM115.576 122.16L116.904 121.76C117.096 122.197 117.267 122.683 117.416 123.216C117.576 123.749 117.677 124.203 117.72 124.576L116.296 125.04C116.264 124.656 116.179 124.197 116.04 123.664C115.912 123.12 115.757 122.619 115.576 122.16ZM112.04 121.808L113.576 122.08C113.491 122.848 113.363 123.605 113.192 124.352C113.032 125.088 112.84 125.712 112.616 126.224C112.509 126.149 112.371 126.069 112.2 125.984C112.029 125.899 111.853 125.819 111.672 125.744C111.491 125.659 111.336 125.595 111.208 125.552C111.443 125.072 111.624 124.496 111.752 123.824C111.88 123.152 111.976 122.48 112.04 121.808ZM113.784 120.288H115.448V127.44H113.784V120.288Z" fill="white"/>
<path d="M86.9336 59.2383H93.8645" stroke="white" stroke-width="1.50473" stroke-linecap="round"/>
<path d="M82.543 64.0879H98.253" stroke="white" stroke-width="1.50473" stroke-linecap="round"/>
<path d="M82.543 68.709H98.253" stroke="white" stroke-width="1.50473" stroke-linecap="round"/>
<path d="M104.723 74.4846V56.2333C104.723 54.7022 103.482 53.4609 101.951 53.4609H78.3856C76.8545 53.4609 75.6133 54.7022 75.6133 56.2333V88.1153C75.6133 89.6465 76.8545 90.8877 78.3856 90.8877H83.0062" stroke="white" stroke-width="1.50473"/>
<path d="M81.4867 53.2892L81.8546 49.5074C82.0029 47.9834 83.3584 46.8682 84.8824 47.0165L108.139 49.279C109.643 49.4253 110.752 50.7486 110.634 52.2548L108.87 74.7823" stroke="white" stroke-width="1.50473"/>
<path d="M99.3135 74.543H111.19C112.306 74.543 113.211 75.4479 113.211 76.5635V92.2734C113.211 93.389 112.306 94.293 111.19 94.293H85.3154C84.1998 94.293 83.295 93.389 83.2949 92.2734V80.7168C83.2949 79.6012 84.1998 78.6963 85.3154 78.6963H92.5566C93.4246 78.6963 94.2627 78.3761 94.9092 77.7969L97.9648 75.0586C98.3353 74.7267 98.816 74.543 99.3135 74.543Z" stroke="white" stroke-width="1.50473"/>
<defs>
<linearGradient id="paint0_linear_790_16" x1="91.3965" y1="124.148" x2="182.152" y2="116.492" gradientUnits="userSpaceOnUse">
<stop stop-color="#001A8E"/>
<stop offset="1" stop-color="#254598"/>
</linearGradient>
<linearGradient id="paint1_linear_790_16" x1="95" y1="0" x2="95" y2="190" gradientUnits="userSpaceOnUse">
<stop stop-color="white" stop-opacity="0.6"/>
<stop offset="1" stop-color="white"/>
</linearGradient>
<linearGradient id="paint2_linear_790_16" x1="91.8138" y1="120.773" x2="172.061" y2="114.003" gradientUnits="userSpaceOnUse">
<stop stop-color="#001A8E"/>
<stop offset="1" stop-color="#254598"/>
</linearGradient>
<linearGradient id="paint3_linear_790_16" x1="95" y1="11" x2="95" y2="179" gradientUnits="userSpaceOnUse">
<stop stop-color="white" stop-opacity="0.6"/>
<stop offset="1" stop-color="white"/>
</linearGradient>
</defs>
</svg>
