<svg width="282" height="322" viewBox="0 0 282 322" fill="none" xmlns="http://www.w3.org/2000/svg">
<g opacity="0.2">
<path d="M137.246 0.99045C139.574 -0.330152 142.426 -0.330149 144.754 0.990453L211.5 38.838L277.636 77.7424C279.943 79.0999 281.369 81.57 281.39 84.2481L282 161L281.39 237.752C281.369 240.43 279.943 242.9 277.636 244.258L211.5 283.162L144.754 321.01C142.426 322.33 139.574 322.33 137.246 321.01L70.5 283.162L4.36431 244.258C2.05667 242.9 0.631144 240.43 0.609865 237.752L0 161L0.609865 84.2481C0.631144 81.57 2.05667 79.0999 4.36432 77.7424L70.5 38.838L137.246 0.99045Z" fill="white"/>
<path d="M137.246 0.99045C139.574 -0.330152 142.426 -0.330149 144.754 0.990453L211.5 38.838L277.636 77.7424C279.943 79.0999 281.369 81.57 281.39 84.2481L282 161L281.39 237.752C281.369 240.43 279.943 242.9 277.636 244.258L211.5 283.162L144.754 321.01C142.426 322.33 139.574 322.33 137.246 321.01L70.5 283.162L4.36431 244.258C2.05667 242.9 0.631144 240.43 0.609865 237.752L0 161L0.609865 84.2481C0.631144 81.57 2.05667 79.0999 4.36432 77.7424L70.5 38.838L137.246 0.99045Z" fill="url(#paint0_linear_730_450)" fill-opacity="0.7"/>
<path d="M144.508 1.42539L211.246 39.269L211.253 39.273L277.382 78.1734C279.538 79.4417 280.87 81.7497 280.89 84.2521L281.5 160.996V161.004L280.89 237.748C280.87 240.25 279.538 242.558 277.382 243.827L211.253 282.727L211.246 282.731L144.508 320.575C142.332 321.808 139.668 321.808 137.492 320.575L70.7535 282.731L70.7466 282.727L4.61783 243.827C2.46174 242.558 1.12973 240.25 1.10985 237.748L0.499984 161.004V160.996L1.10985 84.2521C1.12973 81.7497 2.46174 79.4417 4.61783 78.1734L70.7466 39.273L70.7535 39.269L137.492 1.42539C139.668 0.191535 142.332 0.191537 144.508 1.42539Z" stroke="url(#paint1_linear_730_450)" stroke-opacity="0.8"/>
</g>
<g opacity="0.7" clip-path="url(#clip0_730_450)">
<path d="M69.5272 161.318V149H74.2668V178H69.5272V165.642H54.6996V178H50V149H54.6996V161.318H69.5272Z" fill="white"/>
<path d="M80.9512 176.654C79.3574 175.756 78.1284 174.512 77.2641 172.922C76.3999 171.33 75.9678 169.543 75.9678 167.558C75.9678 165.572 76.4135 163.731 77.3051 162.113C78.1957 160.496 79.4657 159.231 81.1132 158.32C82.7607 157.41 84.6511 156.953 86.7844 156.953C88.9177 156.953 90.7007 157.402 92.2946 158.299C93.8884 159.197 95.1101 160.441 95.9607 162.032C96.8113 163.623 97.2371 165.411 97.2371 167.396C97.2371 169.38 96.7913 171.223 95.8998 172.841C95.0083 174.458 93.7456 175.724 92.1117 176.634C90.4769 177.545 88.5929 178 86.4605 178C84.3281 178 82.5432 177.552 80.9503 176.655M89.8037 173.106C90.7353 172.535 91.4576 171.759 91.9707 170.781C92.4829 169.802 92.7412 168.728 92.7412 167.559C92.7412 166.39 92.4911 165.228 91.9916 164.235C91.4922 163.243 90.7762 162.454 89.8438 161.869C88.9122 161.286 87.8524 160.993 86.6643 160.993C85.4762 160.993 84.3745 161.279 83.443 161.849C82.5114 162.42 81.7882 163.195 81.2751 164.173C80.762 165.152 80.5046 166.226 80.5046 167.396C80.5046 168.565 80.7538 169.727 81.2542 170.72C81.7536 171.712 82.4696 172.5 83.402 173.086C84.3336 173.671 85.3934 173.963 86.5824 173.963C87.7714 173.963 88.8713 173.677 89.8037 173.106Z" fill="white"/>
<path d="M101.674 175.39C100.147 173.65 99.3848 171.325 99.3848 168.415V157.443H103.922V168.293C103.922 170.033 104.368 171.413 105.259 172.432C106.15 173.452 107.366 173.962 108.905 173.962C110.444 173.962 111.7 173.398 112.693 172.29C113.404 171.497 114.11 170.336 114.171 168.434V157.443H118.709V177.985H114.171V174.289C113.596 175.42 112.827 176.502 111.842 177.063C110.705 177.709 109.377 178.001 107.892 178.001C105.272 178.001 103.199 177.131 101.674 175.391" fill="white"/>
<path d="M128.229 176.919C126.959 176.199 126.284 175.308 125.798 174.247V177.984H121.261V149H125.798V160.585C126.282 159.652 127.115 158.755 128.371 158.034C129.627 157.314 131.106 156.954 132.807 156.954C134.645 156.954 136.291 157.382 137.75 158.238C139.209 159.095 140.363 160.312 141.214 161.889C142.064 163.467 142.49 165.288 142.49 167.355C142.49 169.421 142.065 171.305 141.214 172.922C140.363 174.541 139.188 175.792 137.689 176.675C136.19 177.558 134.508 178.001 132.645 178.001C130.969 178.001 129.498 177.64 128.228 176.92M136.731 172.147C137.893 170.938 138.474 169.381 138.474 167.477C138.474 165.574 137.9 164.018 136.751 162.807C135.603 161.598 134.125 160.992 132.316 160.992C130.506 160.992 129.081 161.598 127.961 162.807C126.839 164.018 126.279 165.574 126.279 167.477C126.279 169.381 126.839 170.938 127.961 172.147C129.081 173.358 130.506 173.962 132.235 173.962C134.071 173.962 135.57 173.357 136.731 172.147Z" fill="white"/>
<path d="M164.082 169.108H148.767C148.902 170.631 149.53 171.84 150.651 172.738C151.771 173.635 153.169 174.084 154.844 174.084C155.898 174.084 156.977 173.9 158.085 173.533C159.192 173.166 160.178 172.602 161.043 171.84L163.19 174.858C162.217 175.892 160.962 176.673 159.423 177.204C157.884 177.734 156.303 178 154.683 178C152.604 178 150.773 177.571 149.193 176.715C147.614 175.859 146.384 174.635 145.507 173.044C144.629 171.453 144.19 169.598 144.19 167.477C144.19 165.356 144.643 163.582 145.548 161.991C146.453 160.4 147.708 159.163 149.316 158.279C150.922 157.396 152.738 156.953 154.765 156.953C157.573 156.953 159.842 157.837 161.571 159.605C163.299 161.372 164.163 163.928 164.163 167.273C164.163 167.917 164.163 168.443 164.082 169.109M150.753 162.072C149.726 162.874 149.078 164.064 148.808 165.641H159.868C159.759 164.091 159.234 162.909 158.287 162.093C157.342 161.278 156.113 160.869 154.601 160.869C153.089 160.869 151.779 161.27 150.753 162.072Z" fill="white"/>
<path d="M166.918 178V157.851H171.132C171.132 158.858 171.092 159.958 171.01 161.155H171.091C171.522 160.095 172.265 159.212 173.319 158.504C174.372 157.798 175.628 157.443 177.086 157.443C178.112 157.443 179.016 157.58 179.8 157.851L178.625 161.889C178.085 161.671 177.422 161.562 176.64 161.562C175.073 161.562 173.817 162.107 172.872 163.194C171.926 164.282 171.454 165.736 171.454 167.558V178H166.917H166.918Z" fill="white"/>
<path d="M181 178H177.419V175.229L179.209 174.094L181 175.229V178Z" fill="white"/>
</g>
<defs>
<linearGradient id="paint0_linear_730_450" x1="134.853" y1="210.747" x2="289.682" y2="197.692" gradientUnits="userSpaceOnUse">
<stop stop-color="#001B94"/>
<stop offset="1" stop-color="#254598"/>
</linearGradient>
<linearGradient id="paint1_linear_730_450" x1="141" y1="0" x2="141" y2="322" gradientUnits="userSpaceOnUse">
<stop stop-color="white" stop-opacity="0.6"/>
<stop offset="1" stop-color="white"/>
</linearGradient>
<clipPath id="clip0_730_450">
<rect width="131" height="29" fill="white" transform="translate(50 149)"/>
</clipPath>
</defs>
</svg>
