<svg width="190" height="190" viewBox="0 0 190 190" fill="none" xmlns="http://www.w3.org/2000/svg">
<g opacity="0.8">
<path d="M91.5483 1.95642C93.6894 0.742835 96.3106 0.742834 98.4517 1.95642L136.325 23.423L173.852 45.4889C175.974 46.7364 177.284 49.0064 177.304 51.4675L177.65 95L177.304 138.533C177.284 140.994 175.974 143.264 173.852 144.511L136.325 166.577L98.4517 188.044C96.3106 189.257 93.6894 189.257 91.5483 188.044L53.675 166.577L16.1477 144.511C14.0262 143.264 12.7156 140.994 12.696 138.533L12.35 95L12.696 51.4675C12.7156 49.0064 14.0262 46.7364 16.1477 45.489L53.675 23.423L91.5483 1.95642Z" fill="url(#paint0_linear_730_476)" fill-opacity="0.8"/>
<path d="M98.2052 2.39141L136.072 23.854L136.078 23.858L173.599 45.92C175.569 47.0783 176.786 49.1862 176.804 51.4714L177.15 94.996V95.004L176.804 138.529C176.786 140.814 175.569 142.922 173.599 144.08L136.078 166.142L136.072 166.146L98.2052 187.609C96.217 188.735 93.783 188.735 91.7948 187.609L53.9284 166.146L53.9216 166.142L16.4012 144.08C14.4312 142.922 13.2142 140.814 13.196 138.529L12.85 95.004V94.996L13.196 51.4714C13.2142 49.1862 14.4312 47.0783 16.4012 45.92L53.9249 23.8561L53.9284 23.854L91.7948 2.39141C93.783 1.26451 96.217 1.26451 98.2052 2.39141Z" stroke="url(#paint1_linear_730_476)" stroke-opacity="0.3"/>
</g>
<g opacity="0.8">
<path d="M91.5483 12.9564C93.6894 11.7428 96.3106 11.7428 98.4517 12.9564L131.54 31.7109L164.326 50.989C166.448 52.2364 167.758 54.5064 167.778 56.9675L168.08 95L167.778 133.033C167.758 135.494 166.448 137.764 164.326 139.011L131.54 158.289L98.4517 177.044C96.3106 178.257 93.6894 178.257 91.5483 177.044L58.46 158.289L25.674 139.011C23.5525 137.764 22.2419 135.494 22.2223 133.033L21.92 95L22.2223 56.9675C22.2419 54.5064 23.5525 52.2364 25.674 50.989L58.46 31.7109L91.5483 12.9564Z" fill="url(#paint2_linear_730_476)" fill-opacity="0.8"/>
<path d="M98.2052 13.3914L131.287 32.1419L131.293 32.1459L164.073 51.42C166.043 52.5783 167.26 54.6862 167.278 56.9714L167.58 94.996V95.004L167.278 133.029C167.26 135.314 166.043 137.422 164.073 138.58L131.293 157.854L131.287 157.858L98.2051 176.609C96.217 177.735 93.783 177.735 91.7948 176.609L58.7134 157.858L58.7066 157.854L25.9275 138.58C23.9574 137.422 22.7405 135.314 22.7223 133.029L22.42 95.004V94.996L22.7223 56.9714C22.7405 54.6862 23.9574 52.5783 25.9275 51.42L58.7099 32.1439L58.7134 32.1419L91.7949 13.3914C93.783 12.2645 96.217 12.2645 98.2052 13.3914Z" stroke="url(#paint3_linear_730_476)" stroke-opacity="0.3"/>
</g>
<path d="M115.24 71.0098C115.24 82.6024 105.56 92 93.62 92C81.6796 92 72 82.6024 72 71.0098C72 59.4172 81.6796 50.0195 93.62 50.0195" stroke="white" stroke-width="1.59403" stroke-linecap="round"/>
<path d="M93.1592 54.9316V86.1937" stroke="white" stroke-width="1.59403" stroke-linecap="round"/>
<path d="M110.642 70.5635L75.6816 70.5635" stroke="white" stroke-width="1.59403" stroke-linecap="round"/>
<path d="M106.04 79.4951H80.28" stroke="white" stroke-width="1.59403" stroke-linecap="round"/>
<path d="M92.7002 62.0781L79.8202 62.0781" stroke="white" stroke-width="1.59403" stroke-linecap="round"/>
<path d="M88.5602 56.2725C88.5602 56.2725 81.6602 59.4369 81.6602 70.3595C81.6602 81.2821 88.5602 84.8549 88.5602 84.8549" stroke="white" stroke-width="1.59403" stroke-linecap="round"/>
<path d="M98.22 84.8541C98.22 84.8541 105.538 81.522 106.04 71.4561" stroke="white" stroke-width="1.59403" stroke-linecap="round"/>
<path d="M117.203 55.8252C117.203 60.7893 113.051 64.8534 107.88 64.8534H107.864H107.848H107.833H107.817H107.801H107.786H107.77H107.754H107.738H107.723H107.707H107.691H107.675H107.659H107.644H107.628H107.612H107.596H107.58H107.564H107.548H107.532H107.517H107.501H107.485H107.469H107.453H107.437H107.421H107.405H107.389H107.373H107.357H107.34H107.324H107.308H107.292H107.276H107.26H107.244H107.228H107.212H107.195H107.179H107.163H107.147H107.131H107.114H107.098H107.082H107.066H107.049H107.033H107.017H107H106.984H106.968H106.952H106.935H106.919H106.902H106.886H106.87H106.853H106.837H106.82H106.804H106.788H106.771H106.755H106.738H106.722H106.705H106.689H106.672H106.656H106.639H106.623H106.606H106.59H106.573H106.557H106.54H106.523H106.507H106.49H106.474H106.457H106.44H106.424H106.407H106.39H106.374H106.357H106.34H106.324H106.307H106.29H106.273H106.257H106.24H106.223H106.206H106.19H106.173H106.156H106.139H106.122H106.106H106.089H106.072H106.055H106.038H106.021H106.005H105.988H105.971H105.954H105.937H105.92H105.903H105.886H105.869H105.853H105.836H105.819H105.802H105.785H105.768H105.751H105.734H105.717H105.7H105.683H105.666H105.649H105.632H105.615H105.598H105.581H105.564H105.547H105.53H105.513H105.495H105.478H105.461H105.444H105.427H105.41H105.393H105.376H105.359H105.341H105.324H105.307H105.29H105.273H105.256H105.239H105.221H105.204H105.187H105.17H105.153H105.135H105.118H105.101H105.084H105.067H105.049H105.032H105.015H104.998H104.98H104.963H104.946H104.929H104.911H104.894H104.877H104.86H104.842H104.825H104.808H104.79H104.773H104.756H104.738H104.721H104.704H104.686H104.669H104.652H104.634H104.617H104.6H104.582H104.565H104.548H104.53H104.513H104.496H104.478H104.461H104.443H104.426H104.409H104.391H104.374H104.356H104.339H104.322H104.304H104.287H104.269H104.252H104.235H104.217H104.2H104.182H104.165H104.147H104.13H104.112H104.095H104.078H104.06H104.043H104.025H104.008H103.99H103.973H103.955H103.938H103.92H103.903H103.885H103.868H103.85H103.833H103.816H103.798H103.781H103.763H103.746H103.728H103.711H103.693H103.676H103.658H103.641H103.623H103.606H103.588H103.571H103.553H103.536H103.518H103.5H103.483H103.465H103.448H103.43H103.413H103.395H103.378H103.36H103.343H103.325H103.308H103.29H103.273H103.255H103.238H103.22H103.203H103.185H103.168H103.15H103.133H103.115H103.097H103.08H103.062H103.045H103.027H103.01H102.992H102.975H102.957H102.94H102.922H102.905H102.887H102.87H102.852H102.835H102.817H102.8H102.782H102.765H102.747H102.729H102.712H102.694H102.677H102.659H102.642H102.624H102.607H102.589H102.572H102.554H102.537H102.519H102.502H102.484H102.467H102.449H102.432H102.414H102.397H102.379H102.362H102.344H102.327H102.309H102.292H102.275H102.257H102.24H102.222H102.205H102.187H102.17H102.152H102.135H102.117H102.1H102.082H102.065H102.048H102.03H102.013H101.995H101.978H101.96H101.943H101.926H101.908H101.891H101.873H101.856H101.838H101.821H101.804H101.786H101.769H101.751H101.734H101.717H101.699H101.682H101.665H101.647H101.63H101.612H101.595H101.578H101.56H101.543H101.526H101.508H101.491H101.474H101.456H101.439H101.422H101.404H101.387H101.37H101.353H101.335H101.318H101.301H101.283H101.266H101.249H101.232H101.214H101.197H101.18H101.163H101.145H101.128H101.111H101.094H101.076H101.059H101.042H101.025H101.008H100.99H100.973H100.956H100.939H100.922H100.905H100.887H100.87H100.853H100.836H100.819H100.802H100.785H100.768H100.75H100.733H100.716H100.699H100.682H100.665H100.648H100.631H100.614H100.597H100.58H100.563H100.546H100.529H100.512H100.495H100.478H100.461H100.444H100.427H100.41H100.393H100.376H100.359H100.342H100.325H100.308H100.291H100.274H100.257H100.24H100.223H100.207H100.19H100.173H100.156H100.139H100.122H100.105H100.089H100.072H100.055H100.038H100.021H100.005H99.9879H99.9711H99.9544H99.9376H99.9209H99.9041H99.8874H99.8707H99.854H99.8373H99.8206H99.8039H99.7872H99.7706H99.7539H99.7373H99.7206H99.704H99.6874H99.6708H99.6542H99.6376H99.621H99.6045H99.5879H99.5713H99.5548H99.5383H99.5217H99.5052H99.4887H99.4722H99.4557H99.4393H99.4228H99.4064H99.3899H99.3735H99.3571H99.3406H99.3242H99.3078H99.2915H99.2751H99.2587H99.2424H99.226H99.2097H99.1934H99.1771C98.8329 64.8534 98.5568 64.5764 98.5568 64.235V64.2216V64.2082V64.1947V64.1812V64.1676V64.154V64.1404V64.1266V64.1129V64.0991V64.0852V64.0713V64.0574V64.0434V64.0293V64.0153V64.0011V63.987V63.9727V63.9585V63.9442V63.9298V63.9154V63.901V63.8865V63.872V63.8574V63.8428V63.8282V63.8135V63.7987V63.7839V63.7691V63.7543V63.7394V63.7244V63.7094V63.6944V63.6793V63.6642V63.6491V63.6339V63.6187V63.6034V63.5881V63.5727V63.5574V63.5419V63.5265V63.511V63.4954V63.4799V63.4643V63.4486V63.4329V63.4172V63.4014V63.3857V63.3698V63.354V63.3381V63.3221V63.3061V63.2901V63.2741V63.258V63.2419V63.2257V63.2096V63.1934V63.1771V63.1608V63.1445V63.1282V63.1118V63.0954V63.0789V63.0624V63.0459V63.0294V63.0128V62.9962V62.9796V62.9629V62.9462V62.9295V62.9127V62.896V62.8791V62.8623V62.8454V62.8285V62.8116V62.7946V62.7776V62.7606V62.7436V62.7265V62.7094V62.6923V62.6751V62.6579V62.6407V62.6235V62.6062V62.5889V62.5716V62.5543V62.5369V62.5195V62.5021V62.4847V62.4672V62.4497V62.4322V62.4146V62.3971V62.3795V62.3619V62.3443V62.3266V62.3089V62.2912V62.2735V62.2558V62.238V62.2202V62.2024V62.1846V62.1667V62.1489V62.131V62.1131V62.0951V62.0772V62.0592V62.0412V62.0232V62.0052V61.9871V61.9691V61.951V61.9329V61.9147V61.8966V61.8784V61.8603V61.8421V61.8239V61.8057V61.7874V61.7692V61.7509V61.7326V61.7143V61.696V61.6776V61.6593V61.6409V61.6225V61.6042V61.5857V61.5673V61.5489V61.5304V61.512V61.4935V61.475V61.4565V61.438V61.4195V61.401V61.3824V61.3638V61.3453V61.3267V61.3081V61.2895V61.2709V61.2523V61.2336V61.215V61.1963V61.1777V61.159V61.1403V61.1216V61.1029V61.0842V61.0655V61.0468V61.0281V61.0093V60.9906V60.9718V60.9531V60.9343V60.9155V60.8968V60.878V60.8592V60.8404V60.8216V60.8028V60.784V60.7652V60.7464V60.7275V60.7087V60.6899V60.6711V60.6522V60.6334V60.6145V60.5957V60.5768V60.558V60.5391V60.5203V60.5014V60.4826V60.4637V60.4449V60.426V60.4071V60.3883V60.3694V60.3506V60.3317V60.3128V60.294V60.2751V60.2563V60.2374V60.2185V60.1997V60.1808V60.162V60.1432V60.1243V60.1055V60.0866V60.0678V60.049V60.0301V60.0113V59.9925V59.9737V59.9549V59.9361V59.9173V59.8985V59.8797V59.8609V59.8421V59.8234V59.8046V59.7858V59.7671V59.7483V59.7296V59.7109V59.6921V59.6734V59.6547V59.636V59.6173V59.5987V59.58V59.5613V59.5427V59.524V59.5054V59.4868V59.4681V59.4495V59.4309V59.4124V59.3938V59.3752V59.3567V59.3381V59.3196V59.3011V59.2826V59.2641V59.2456V59.2272V59.2087V59.1903V59.1719V59.1535V59.1351V59.1167V59.0983V59.08V59.0616V59.0433V59.025V59.0067V58.9884V58.9702V58.9519V58.9337V58.9155V58.8973V58.8791V58.861V58.8428V58.8247V58.8066V58.7885V58.7704V58.7524V58.7344V58.7163V58.6983V58.6804V58.6624V58.6445V58.6266V58.6087V58.5908V58.5729V58.5551V58.5373V58.5195V58.5017V58.484V58.4663V58.4486V58.4309V58.4132V58.3956V58.378V58.3604V58.3428V58.3253V58.3078V58.2903V58.2728V58.2554V58.2379V58.2205V58.2032V58.1858V58.1685V58.1512V58.134V58.1167V58.0995V58.0823V58.0652V58.048V58.0309V58.0138V57.9968V57.9798V57.9628V57.9458V57.9289V57.912V57.8951V57.8782V57.8614V57.8446V57.8278V57.8111V57.7944V57.7777V57.7611V57.7445V57.7279V57.7114V57.6949V57.6784V57.6619V57.6455V57.6291V57.6128V57.5964V57.5802V57.5639V57.5477V57.5315V57.5153V57.4992V57.4831V57.4671V57.4511V57.4351V57.4192V57.4032V57.3874V57.3715V57.3557V57.34V57.3242V57.3086V57.2929V57.2773V57.2617V57.2462V57.2307V57.2152V57.1998V57.1844V57.169V57.1537V57.1384V57.1232V57.108V57.0929V57.0777V57.0627V57.0476V57.0326V57.0177V57.0028V56.9879V56.9731V56.9583V56.9436V56.9289V56.9142V56.8996V56.885V56.8705V56.856V56.8415V56.8271V56.8128V56.7985V56.7842V56.77V56.7558V56.7416V56.7276V56.7135V56.6995V56.6856V56.6717V56.6578V56.644V56.6302V56.6165V56.6028V56.5892V56.5756V56.5621V56.5486V56.5352V56.5218V56.5084V56.4951V56.4819V56.4687V56.4556V56.4425V56.4294V56.4164V56.4035V56.3906V56.3778V56.365V56.3522V56.3395V56.3269V56.3143V56.3018V56.2893V56.2769V56.2645V56.2522V56.2399V56.2277V56.2155V56.2034V56.1914V56.1794V56.1674V56.1555V56.1437V56.1319V56.1202V56.1085V56.0969V56.0853V56.0738V56.0624V56.051V56.0397V56.0284V56.0172V56.006V55.9949V55.9838V55.9729V55.9619V55.9511V55.9402V55.9295V55.9188V55.9082V55.8976V55.8871V55.8766V55.8662V55.8559V55.8456V55.8354V55.8252C98.5568 50.8611 102.708 46.797 107.88 46.797C113.051 46.797 117.203 50.8611 117.203 55.8252Z" stroke="white" stroke-width="1.59403"/>
<path d="M113.17 55.6027L111.1 53.6767M101.9 55.6027L107.008 51.0407C107.372 50.7155 107.924 50.7211 108.281 51.0537L111.1 53.6767M111.1 50.4668V53.6767" stroke="white" stroke-width="1.59403" stroke-linecap="round"/>
<path d="M111.1 56.4961V59.1238C111.1 59.6458 110.677 60.0689 110.155 60.0689H105.145C104.623 60.0689 104.2 59.6458 104.2 59.1238V56.4961" stroke="white" stroke-width="1.59403" stroke-linecap="round"/>
<path d="M44.6211 114.551C47.3164 114.551 49.3672 116.23 49.3672 118.613C49.3672 120.957 47.3164 122.656 44.6211 122.656C41.8672 122.656 39.8359 120.957 39.8359 118.613C39.8359 116.23 41.8672 114.551 44.6211 114.551ZM44.6211 116.582C43.2539 116.582 42.2383 117.324 42.2578 118.613C42.2383 119.883 43.2539 120.645 44.6211 120.645C45.9688 120.645 46.9648 119.883 46.9648 118.613C46.9648 117.324 45.9688 116.582 44.6211 116.582ZM54.4453 114.023V122.93H51.9453V114.023H54.4453ZM54.4453 123.672V128.496H44.9922V129.648H54.9336V131.602H42.5508V126.68H51.9648V125.586H42.5117V123.672H54.4453ZM61.3789 114.668V116.445H68.5078V114.668H70.9883V121.934H66.1836V123.438H73.0586V125.43H56.8477V123.438H63.6836V121.934H58.918V114.668H61.3789ZM61.3789 119.941H68.5078V118.359H61.3789V119.941ZM71.2227 129.492V131.484H58.8008V126.445H61.3008V129.492H71.2227ZM93.7227 114.023V124.297H91.2422V120.156H88.4297V118.125H91.2422V114.023H93.7227ZM93.7227 125.039V131.602H81.7695V125.039H93.7227ZM84.2695 126.992V129.609H91.2812V126.992H84.2695ZM88.9961 114.922V116.934H85.4609C85.5 118.955 86.7598 121.113 89.543 122.031L88.3125 124.004C86.3398 123.35 84.9824 122.061 84.2109 120.449C83.4199 122.227 82.0039 123.643 79.9141 124.316L78.6445 122.363C81.5156 121.445 82.8535 119.18 82.9219 116.934H79.3477V114.922H88.9961ZM112.297 127.734V129.824H96.0273V127.734H102.863V124.531H97.375V122.578H99.7578V117.5H97.2969V115.508H110.93V117.5H108.43V122.578H110.852V124.531H105.344V127.734H112.297ZM102.258 122.578H105.969V117.5H102.258V122.578ZM133.332 114.023V131.797H130.988V114.023H133.332ZM129.621 114.414V131.016H127.258V125.156H124.738V123.145H127.258V120.723H125.07C124.24 123.652 122.443 126.133 119.113 128.105L117.648 126.348C121.252 124.219 122.834 121.631 123.176 118.145H118.684V116.133H125.656C125.656 117.021 125.598 117.881 125.5 118.711H127.258V114.414H129.621ZM151.613 116.367V118.379H149.309V120.195H151.613V122.266H149.309V124.512H146.809V114.023H149.309V116.367H151.613ZM149.309 125.215V131.797H146.809V127.227H137.336V125.215H149.309ZM140.207 115C142.961 114.98 145.051 116.816 145.051 119.316C145.051 121.875 142.961 123.672 140.207 123.672C137.434 123.672 135.324 121.875 135.324 119.316C135.324 116.816 137.434 114.98 140.207 115ZM140.207 117.129C138.801 117.129 137.766 117.93 137.785 119.316C137.766 120.742 138.801 121.562 140.207 121.562C141.574 121.562 142.609 120.742 142.629 119.316C142.609 117.93 141.574 117.129 140.207 117.129Z" fill="white"/>
<defs>
<linearGradient id="paint0_linear_730_476" x1="91.3965" y1="124.148" x2="182.152" y2="116.492" gradientUnits="userSpaceOnUse">
<stop stop-color="#001A8E"/>
<stop offset="1" stop-color="#254598"/>
</linearGradient>
<linearGradient id="paint1_linear_730_476" x1="95" y1="0" x2="95" y2="190" gradientUnits="userSpaceOnUse">
<stop stop-color="white" stop-opacity="0.6"/>
<stop offset="1" stop-color="white"/>
</linearGradient>
<linearGradient id="paint2_linear_730_476" x1="91.8138" y1="120.773" x2="172.061" y2="114.003" gradientUnits="userSpaceOnUse">
<stop stop-color="#001A8E"/>
<stop offset="1" stop-color="#254598"/>
</linearGradient>
<linearGradient id="paint3_linear_730_476" x1="95" y1="11" x2="95" y2="179" gradientUnits="userSpaceOnUse">
<stop stop-color="white" stop-opacity="0.6"/>
<stop offset="1" stop-color="white"/>
</linearGradient>
</defs>
</svg>
