<svg width="190" height="190" viewBox="0 0 190 190" fill="none" xmlns="http://www.w3.org/2000/svg">
<g opacity="0.8">
<path d="M91.5483 1.95642C93.6894 0.742835 96.3106 0.742834 98.4517 1.95642L136.325 23.423L173.852 45.4889C175.974 46.7364 177.284 49.0064 177.304 51.4675L177.65 95L177.304 138.533C177.284 140.994 175.974 143.264 173.852 144.511L136.325 166.577L98.4517 188.044C96.3106 189.257 93.6894 189.257 91.5483 188.044L53.675 166.577L16.1477 144.511C14.0262 143.264 12.7156 140.994 12.696 138.533L12.35 95L12.696 51.4675C12.7156 49.0064 14.0262 46.7364 16.1477 45.489L53.675 23.423L91.5483 1.95642Z" fill="url(#paint0_linear_730_463)" fill-opacity="0.8"/>
<path d="M98.2052 2.39141L136.072 23.854L136.078 23.858L173.599 45.92C175.569 47.0783 176.786 49.1862 176.804 51.4714L177.15 94.996V95.004L176.804 138.529C176.786 140.814 175.569 142.922 173.599 144.08L136.078 166.142L136.072 166.146L98.2052 187.609C96.217 188.735 93.783 188.735 91.7948 187.609L53.9284 166.146L53.9216 166.142L16.4012 144.08C14.4312 142.922 13.2142 140.814 13.196 138.529L12.85 95.004V94.996L13.196 51.4714C13.2142 49.1862 14.4312 47.0783 16.4012 45.92L53.9249 23.8561L53.9284 23.854L91.7948 2.39141C93.783 1.26451 96.217 1.26451 98.2052 2.39141Z" stroke="url(#paint1_linear_730_463)" stroke-opacity="0.3"/>
</g>
<g opacity="0.8">
<path d="M91.5483 12.9564C93.6894 11.7428 96.3106 11.7428 98.4517 12.9564L131.54 31.7109L164.326 50.989C166.448 52.2364 167.758 54.5064 167.778 56.9675L168.08 95L167.778 133.033C167.758 135.494 166.448 137.764 164.326 139.011L131.54 158.289L98.4517 177.044C96.3106 178.257 93.6894 178.257 91.5483 177.044L58.46 158.289L25.674 139.011C23.5525 137.764 22.2419 135.494 22.2223 133.033L21.92 95L22.2223 56.9675C22.2419 54.5064 23.5525 52.2364 25.674 50.989L58.46 31.7109L91.5483 12.9564Z" fill="url(#paint2_linear_730_463)" fill-opacity="0.8"/>
<path d="M98.2052 13.3914L131.287 32.1419L131.293 32.1459L164.073 51.42C166.043 52.5783 167.26 54.6862 167.278 56.9714L167.58 94.996V95.004L167.278 133.029C167.26 135.314 166.043 137.422 164.073 138.58L131.293 157.854L131.287 157.858L98.2051 176.609C96.217 177.735 93.783 177.735 91.7948 176.609L58.7134 157.858L58.7066 157.854L25.9275 138.58C23.9574 137.422 22.7405 135.314 22.7223 133.029L22.42 95.004V94.996L22.7223 56.9714C22.7405 54.6862 23.9574 52.5783 25.9275 51.42L58.7099 32.1439L58.7134 32.1419L91.7949 13.3914C93.783 12.2645 96.217 12.2645 98.2052 13.3914Z" stroke="url(#paint3_linear_730_463)" stroke-opacity="0.3"/>
</g>
<path d="M54.8359 114.023V125.176H52.4727V120.449H51.0469V124.59H48.7227V114.355H51.0469V118.418H52.4727V114.023H54.8359ZM48.1953 115.859V117.793H39.4648V115.859H42.6094V114.18H45.0898V115.859H48.1953ZM43.8594 118.379C46.125 118.379 47.7266 119.629 47.7461 121.484C47.7266 123.32 46.125 124.57 43.8594 124.57C41.6328 124.57 40.0117 123.32 40.0117 121.484C40.0117 119.629 41.6328 118.379 43.8594 118.379ZM43.8594 120.176C42.8828 120.176 42.2383 120.664 42.2383 121.484C42.2383 122.305 42.8828 122.812 43.8594 122.793C44.8359 122.812 45.4805 122.305 45.5 121.484C45.4805 120.664 44.8359 120.176 43.8594 120.176ZM48.7617 125.332C52.6094 125.332 54.9141 126.504 54.9336 128.574C54.9141 130.625 52.6094 131.797 48.7617 131.797C44.9336 131.797 42.6094 130.625 42.6094 128.574C42.6094 126.504 44.9336 125.332 48.7617 125.332ZM48.7617 127.207C46.3594 127.207 45.0898 127.637 45.1094 128.574C45.0898 129.473 46.3594 129.922 48.7617 129.922C51.1836 129.922 52.4141 129.473 52.4141 128.574C52.4141 127.637 51.1836 127.207 48.7617 127.207ZM71.8281 114.023V124.57H69.3477V120.371H66.5742V118.359H69.3477V114.023H71.8281ZM65.7539 124.961C69.543 124.98 71.8672 126.23 71.8867 128.398C71.8672 130.547 69.543 131.816 65.7539 131.816C61.9648 131.816 59.6406 130.547 59.6406 128.398C59.6406 126.23 61.9648 124.98 65.7539 124.961ZM65.7539 126.875C63.3906 126.875 62.1211 127.363 62.1211 128.398C62.1211 129.414 63.3906 129.922 65.7539 129.922C68.1172 129.922 69.4062 129.414 69.4062 128.398C69.4062 127.363 68.1172 126.875 65.7539 126.875ZM67.1016 115.098V117.09H63.5664C63.625 119.16 64.875 121.25 67.6484 122.168L66.418 124.121C64.4551 123.486 63.1074 122.197 62.3359 120.586C61.5449 122.402 60.1289 123.867 58.0195 124.59L56.7305 122.617C59.6504 121.641 60.959 119.316 61.0273 117.09H57.4531V115.098H67.1016ZM85.4609 118.047C85.4609 121.387 86.8086 124.629 89.7773 125.918L88.2539 127.91C86.2812 126.943 84.9629 125.176 84.2305 122.988C83.4492 125.312 82.082 127.217 80.0508 128.223L78.4883 126.191C81.5352 124.824 82.9219 121.387 82.9414 118.047V115.391H85.4609V118.047ZM93.7422 114.023V131.836H91.2812V121.621H87.7852V119.609H91.2812V114.023H93.7422ZM102.57 118.047C102.551 121.23 103.918 124.453 106.77 125.82L105.266 127.812C103.361 126.875 102.082 125.117 101.34 122.969C100.568 125.273 99.1914 127.158 97.1797 128.145L95.6367 126.133C98.6445 124.746 100.07 121.348 100.07 118.047V115.391H102.57V118.047ZM110.051 114.023V120.879H112.668V122.988H110.051V131.797H107.551V114.023H110.051ZM124.855 117.539C124.855 119.668 126.164 121.836 129.094 122.715L127.824 124.668C125.832 124.043 124.426 122.764 123.625 121.152C122.814 122.9 121.369 124.307 119.289 125L118 123.047C120.949 122.09 122.316 119.785 122.316 117.539V117.285H118.664V115.293H128.43V117.285H124.855V117.539ZM132.805 114.043V126.895H130.305V114.043H132.805ZM133.273 129.492V131.484H120.891V125.723H123.41V129.492H133.273ZM150.48 114.023V125.176H148.117V120.449H146.691V124.59H144.367V114.355H146.691V118.418H148.117V114.023H150.48ZM143.84 115.859V117.793H135.109V115.859H138.254V114.18H140.734V115.859H143.84ZM139.504 118.379C141.77 118.379 143.371 119.629 143.391 121.484C143.371 123.32 141.77 124.57 139.504 124.57C137.277 124.57 135.656 123.32 135.656 121.484C135.656 119.629 137.277 118.379 139.504 118.379ZM139.504 120.176C138.527 120.176 137.883 120.664 137.883 121.484C137.883 122.305 138.527 122.812 139.504 122.793C140.48 122.812 141.125 122.305 141.145 121.484C141.125 120.664 140.48 120.176 139.504 120.176ZM144.406 125.332C148.254 125.332 150.559 126.504 150.578 128.574C150.559 130.625 148.254 131.797 144.406 131.797C140.578 131.797 138.254 130.625 138.254 128.574C138.254 126.504 140.578 125.332 144.406 125.332ZM144.406 127.207C142.004 127.207 140.734 127.637 140.754 128.574C140.734 129.473 142.004 129.922 144.406 129.922C146.828 129.922 148.059 129.473 148.059 128.574C148.059 127.637 146.828 127.207 144.406 127.207Z" fill="white"/>
<path d="M86.9336 59.2373H93.8645" stroke="white" stroke-width="1.50473" stroke-linecap="round"/>
<path d="M82.543 64.0879H98.253" stroke="white" stroke-width="1.50473" stroke-linecap="round"/>
<path d="M82.543 68.709H98.253" stroke="white" stroke-width="1.50473" stroke-linecap="round"/>
<path d="M104.723 74.4846V56.2333C104.723 54.7022 103.482 53.4609 101.951 53.4609H78.3856C76.8545 53.4609 75.6133 54.7022 75.6133 56.2333V88.1153C75.6133 89.6465 76.8545 90.8877 78.3856 90.8877H83.0062" stroke="white" stroke-width="1.50473"/>
<path d="M81.4867 53.2892L81.8546 49.5074C82.0029 47.9834 83.3584 46.8682 84.8824 47.0165L108.139 49.279C109.643 49.4253 110.752 50.7486 110.634 52.2548L108.87 74.7823" stroke="white" stroke-width="1.50473"/>
<path d="M113.211 76.5643V92.2743C113.211 93.3899 112.306 94.2943 111.191 94.2943H85.3153C84.1997 94.2943 83.2953 93.3899 83.2953 92.2743V80.7176C83.2953 79.602 84.1997 78.6976 85.3153 78.6976H92.557C93.425 78.6976 94.2625 78.3773 94.9089 77.7981L97.9653 75.0598C98.3358 74.7279 98.8158 74.5444 99.3132 74.5444H111.191C112.306 74.5444 113.211 75.4487 113.211 76.5643Z" stroke="white" stroke-width="1.50473"/>
<defs>
<linearGradient id="paint0_linear_730_463" x1="91.3965" y1="124.148" x2="182.152" y2="116.492" gradientUnits="userSpaceOnUse">
<stop stop-color="#001A8E"/>
<stop offset="1" stop-color="#254598"/>
</linearGradient>
<linearGradient id="paint1_linear_730_463" x1="95" y1="0" x2="95" y2="190" gradientUnits="userSpaceOnUse">
<stop stop-color="white" stop-opacity="0.6"/>
<stop offset="1" stop-color="white"/>
</linearGradient>
<linearGradient id="paint2_linear_730_463" x1="91.8138" y1="120.773" x2="172.061" y2="114.003" gradientUnits="userSpaceOnUse">
<stop stop-color="#001A8E"/>
<stop offset="1" stop-color="#254598"/>
</linearGradient>
<linearGradient id="paint3_linear_730_463" x1="95" y1="11" x2="95" y2="179" gradientUnits="userSpaceOnUse">
<stop stop-color="white" stop-opacity="0.6"/>
<stop offset="1" stop-color="white"/>
</linearGradient>
</defs>
</svg>
