<svg width="190" height="190" viewBox="0 0 190 190" fill="none" xmlns="http://www.w3.org/2000/svg">
<g opacity="0.8">
<path d="M91.5483 1.95642C93.6894 0.742835 96.3106 0.742834 98.4517 1.95642L136.325 23.423L173.852 45.4889C175.974 46.7364 177.284 49.0064 177.304 51.4675L177.65 95L177.304 138.533C177.284 140.994 175.974 143.264 173.852 144.511L136.325 166.577L98.4517 188.044C96.3106 189.257 93.6894 189.257 91.5483 188.044L53.675 166.577L16.1477 144.511C14.0262 143.264 12.7156 140.994 12.696 138.533L12.35 95L12.696 51.4675C12.7156 49.0064 14.0262 46.7364 16.1477 45.489L53.675 23.423L91.5483 1.95642Z" fill="url(#paint0_linear_730_494)" fill-opacity="0.8"/>
<path d="M98.2052 2.39141L136.072 23.854L136.078 23.858L173.599 45.92C175.569 47.0783 176.786 49.1862 176.804 51.4714L177.15 94.996V95.004L176.804 138.529C176.786 140.814 175.569 142.922 173.599 144.08L136.078 166.142L136.072 166.146L98.2052 187.609C96.217 188.735 93.783 188.735 91.7948 187.609L53.9284 166.146L53.9216 166.142L16.4012 144.08C14.4312 142.922 13.2142 140.814 13.196 138.529L12.85 95.004V94.996L13.196 51.4714C13.2142 49.1862 14.4312 47.0783 16.4012 45.92L53.9249 23.8561L53.9284 23.854L91.7948 2.39141C93.783 1.26451 96.217 1.26451 98.2052 2.39141Z" stroke="url(#paint1_linear_730_494)" stroke-opacity="0.3"/>
</g>
<g opacity="0.8">
<path d="M91.5483 12.9564C93.6894 11.7428 96.3106 11.7428 98.4517 12.9564L131.54 31.7109L164.326 50.989C166.448 52.2364 167.758 54.5064 167.778 56.9675L168.08 95L167.778 133.033C167.758 135.494 166.448 137.764 164.326 139.011L131.54 158.289L98.4517 177.044C96.3106 178.257 93.6894 178.257 91.5483 177.044L58.46 158.289L25.674 139.011C23.5525 137.764 22.2419 135.494 22.2223 133.033L21.92 95L22.2223 56.9675C22.2419 54.5064 23.5525 52.2364 25.674 50.989L58.46 31.7109L91.5483 12.9564Z" fill="url(#paint2_linear_730_494)" fill-opacity="0.8"/>
<path d="M98.2052 13.3914L131.287 32.1419L131.293 32.1459L164.073 51.42C166.043 52.5783 167.26 54.6862 167.278 56.9714L167.58 94.996V95.004L167.278 133.029C167.26 135.314 166.043 137.422 164.073 138.58L131.293 157.854L131.287 157.858L98.2051 176.609C96.217 177.735 93.783 177.735 91.7948 176.609L58.7134 157.858L58.7066 157.854L25.9275 138.58C23.9574 137.422 22.7405 135.314 22.7223 133.029L22.42 95.004V94.996L22.7223 56.9714C22.7405 54.6862 23.9574 52.5783 25.9275 51.42L58.7099 32.1439L58.7134 32.1419L91.7949 13.3914C93.783 12.2645 96.217 12.2645 98.2052 13.3914Z" stroke="url(#paint3_linear_730_494)" stroke-opacity="0.3"/>
</g>
<path d="M56.75 114.043V126.816H54.25V114.043H56.75ZM57.2188 129.492V131.484H44.8359V125.527H47.3555V129.492H57.2188ZM47.0039 115.176C49.7383 115.176 51.8672 117.051 51.8672 119.648C51.8672 122.305 49.7383 124.16 47.0039 124.16C44.2695 124.16 42.1406 122.305 42.1406 119.648C42.1406 117.051 44.2695 115.176 47.0039 115.176ZM47.0039 117.344C45.6172 117.324 44.5625 118.203 44.582 119.648C44.5625 121.133 45.6172 121.992 47.0039 121.992C48.3516 121.992 49.4062 121.133 49.4062 119.648C49.4062 118.203 48.3516 117.324 47.0039 117.344ZM66.3398 115.996V117.949H62.0625V120.781H65.6367V122.676H62.0625V125.859C63.9668 125.85 65.373 125.742 67.0234 125.469L67.2383 127.48C65.207 127.852 63.4883 127.871 60.8906 127.871H59.6992V115.996H66.3398ZM74.5625 114.023V131.797H72.1602V114.023H74.5625ZM70.793 114.336V130.996H68.4688V122.5H66.4766V120.508H68.4688V114.336H70.793ZM91.3398 114.023V131.836H88.8594V114.023H91.3398ZM85.832 115.508V122.363H79.9727V125.625C82.6777 125.615 84.9824 125.459 87.5898 125.039L87.8047 127.051C84.875 127.559 82.2383 127.676 78.9961 127.676H77.3945V120.391H83.293V117.52H77.375V115.508H85.832ZM98.625 115.273C101.027 115.273 102.814 117.256 103.176 120.449H106.262V114.023H108.723V131.836H106.262V122.441H103.195C102.932 125.859 101.105 127.949 98.625 127.949C95.9297 127.949 93.9961 125.508 94.0156 121.602C93.9961 117.734 95.9297 115.273 98.625 115.273ZM98.625 117.52C97.2969 117.52 96.3789 118.965 96.3984 121.602C96.3789 124.258 97.2969 125.684 98.625 125.684C99.9727 125.684 100.852 124.258 100.852 121.602C100.852 118.965 99.9727 117.52 98.625 117.52ZM122.531 118.047C122.531 121.309 124.016 124.59 127.023 125.859L125.559 127.852C123.527 126.934 122.121 125.166 121.32 122.969C120.51 125.361 119.055 127.295 116.887 128.281L115.383 126.211C118.488 124.902 119.992 121.504 120.012 118.047V115.391H122.531V118.047ZM130.5 114.023V131.836H127.98V114.023H130.5ZM140.91 125.098C144.797 125.098 147.238 126.328 147.258 128.457C147.238 130.547 144.797 131.797 140.91 131.797C137.062 131.797 134.582 130.547 134.582 128.457C134.582 126.328 137.062 125.098 140.91 125.098ZM140.91 126.953C138.469 126.953 137.062 127.461 137.062 128.457C137.062 129.414 138.469 129.902 140.91 129.902C143.352 129.902 144.777 129.414 144.777 128.457C144.777 127.461 143.352 126.953 140.91 126.953ZM147.16 114.824V116.27C147.16 117.676 147.16 119.199 146.652 121.035L144.211 120.801C144.602 119.189 144.65 117.988 144.68 116.777H134.758V114.824H147.16ZM149.074 121.953V123.965H132.941V121.953H138.996V118.848H141.457V121.953H149.074Z" fill="white"/>
<path d="M71 65.9014L92.8945 47.571C93.2881 47.2415 93.8623 47.2448 94.252 47.5789L105.127 56.9007M115.628 65.9014L105.127 56.9007M109.59 60.726V52.226C109.59 51.646 109.12 51.1759 108.54 51.1759H106.178C105.598 51.1759 105.127 51.646 105.127 52.226V56.9007" stroke="white" stroke-width="1.5" stroke-linecap="round"/>
<path d="M74.1514 67.4766V90.0532C74.1514 90.6331 74.6215 91.1032 75.2014 91.1032H86.7128M99.8585 91.1032H111.954C112.534 91.1032 113.004 90.6331 113.004 90.0532V67.4766M103.948 71.1518H107.572C108.152 71.1518 108.622 71.622 108.622 72.2019V80.6025C108.622 81.1824 108.152 81.6526 107.572 81.6526H94.7739C94.194 81.6526 93.7238 82.1227 93.7238 82.7026V84.8028" stroke="white" stroke-width="1.5" stroke-linecap="round"/>
<path d="M79.4004 71.1523L81.5005 71.1523" stroke="white" stroke-width="1.5" stroke-linecap="round"/>
<path d="M82.0254 69.5762H84.6575C85.2374 69.5762 85.7076 70.0463 85.7076 70.6262V73.2514C85.7076 73.8314 86.1777 74.3015 86.7576 74.3015H88.3397C88.9196 74.3015 89.3897 73.8314 89.3897 73.2514V70.6262C89.3897 70.0463 89.8599 69.5762 90.4398 69.5762H97.1202C97.7002 69.5762 98.1703 70.0463 98.1703 70.6262V71.4138C98.1703 71.9937 98.6404 72.4639 99.2204 72.4639H99.6694C100.249 72.4639 100.719 71.9937 100.719 71.4138V70.6262C100.719 70.0463 101.19 69.5762 101.77 69.5762H103.552" stroke="white" stroke-width="1.5" stroke-linecap="round"/>
<mask id="path-10-inside-1_730_494" fill="white">
<rect x="90.4277" y="84.8037" width="6.30045" height="12.6009" rx="1.05007"/>
</mask>
<rect x="90.4277" y="84.8037" width="6.30045" height="12.6009" rx="1.05007" stroke="white" stroke-width="3" mask="url(#path-10-inside-1_730_494)"/>
<rect x="81.7256" y="65.0752" width="22.1267" height="12.676" rx="2.40022" stroke="white" stroke-width="1.5"/>
<defs>
<linearGradient id="paint0_linear_730_494" x1="91.3965" y1="124.148" x2="182.152" y2="116.492" gradientUnits="userSpaceOnUse">
<stop stop-color="#001A8E"/>
<stop offset="1" stop-color="#254598"/>
</linearGradient>
<linearGradient id="paint1_linear_730_494" x1="95" y1="0" x2="95" y2="190" gradientUnits="userSpaceOnUse">
<stop stop-color="white" stop-opacity="0.6"/>
<stop offset="1" stop-color="white"/>
</linearGradient>
<linearGradient id="paint2_linear_730_494" x1="91.8138" y1="120.773" x2="172.061" y2="114.003" gradientUnits="userSpaceOnUse">
<stop stop-color="#001A8E"/>
<stop offset="1" stop-color="#254598"/>
</linearGradient>
<linearGradient id="paint3_linear_730_494" x1="95" y1="11" x2="95" y2="179" gradientUnits="userSpaceOnUse">
<stop stop-color="white" stop-opacity="0.6"/>
<stop offset="1" stop-color="white"/>
</linearGradient>
</defs>
</svg>
