<svg width="130" height="130" viewBox="0 0 130 130" fill="none" xmlns="http://www.w3.org/2000/svg">
<rect x="18" y="24.3857" width="90.4628" height="81.2319" rx="10" fill="#1741C0"/>
<path d="M57.3011 42.7399L55.779 36.956C55.5474 36.0758 55.9393 35.1501 56.7327 34.7039L61.7899 31.8592C62.3988 31.5167 63.1422 31.5167 63.751 31.8592L68.7394 34.6651C69.5643 35.1292 69.951 36.108 69.666 37.0105L67.8273 42.8331C67.5645 43.6652 66.7927 44.2309 65.9201 44.2309H59.2352C58.3267 44.2309 57.5323 43.6185 57.3011 42.7399Z" fill="white"/>
<path d="M57.459 50.1166L51.8376 91.6278C51.7476 92.2931 51.9973 92.9592 52.5025 93.4013L61.4534 101.233C62.2075 101.893 63.3334 101.893 64.0875 101.233L73.0284 93.41C73.5391 92.9632 73.7884 92.2878 73.6905 91.6163L67.6355 50.0964C67.4922 49.1137 66.6495 48.385 65.6564 48.385H59.4409C58.44 48.385 57.5933 49.1248 57.459 50.1166Z" fill="white"/>
<path d="M29.4884 23.1951L32.0832 18.2938C32.491 17.5235 33.3509 17.106 34.2085 17.2619L61.5879 22.24C62.5389 22.4129 63.2301 23.2411 63.2301 24.2077V30.6749C63.2301 31.3569 62.8826 31.9918 62.3082 32.3595L52.7527 38.475C52.1042 38.89 51.2751 38.896 50.6207 38.4903L30.2021 25.8307C29.3082 25.2765 28.9963 24.1247 29.4884 23.1951Z" fill="#3E76E5"/>
<path d="M96.0497 23.1951L93.4549 18.2938C93.047 17.5235 92.1872 17.106 91.3296 17.2619L63.9502 22.24C62.9992 22.4129 62.3079 23.2411 62.3079 24.2077V30.6749C62.3079 31.3569 62.6554 31.9918 63.2298 32.3595L72.7854 38.475C73.4339 38.89 74.263 38.896 74.9174 38.4903L95.336 25.8307C96.2299 25.2765 96.5418 24.1247 96.0497 23.1951Z" fill="#3E76E5"/>
<rect x="41.0762" y="67.7705" width="65.5394" height="40.616" rx="4" fill="#3E76E5"/>
<rect x="46.6162" y="72.3848" width="65.5394" height="40.616" rx="4" fill="#2450D4"/>
<circle cx="67.2705" cy="90.04" r="5" stroke="white" stroke-width="3"/>
<path d="M75.7705 104.54V104.04C75.7705 99.3456 71.9649 95.54 67.2705 95.54V95.54C62.5761 95.54 58.7705 99.3456 58.7705 104.04V104.54" stroke="white" stroke-width="3" stroke-linecap="round"/>
<path d="M81.6943 94.54H102.002" stroke="white" stroke-width="2" stroke-linecap="round"/>
<path d="M81.6943 88.0791H102.002" stroke="white" stroke-width="2" stroke-linecap="round"/>
<path d="M81.6943 101.002H102.002" stroke="white" stroke-width="2" stroke-linecap="round"/>
</svg>
