<svg width="130" height="130" viewBox="0 0 130 130" fill="none" xmlns="http://www.w3.org/2000/svg">
<path d="M38.6393 25.8415C40.9654 26.1738 44.6646 27.9612 47.4163 29.4745C49.0378 30.3664 50.8441 30.8927 52.6947 30.8927H74.3488C75.6004 30.8927 76.8405 30.662 77.9989 30.1882C83.3549 27.9973 90.8458 24.5594 88.029 24.157C84.1003 23.5957 82.9778 17.422 82.9778 16.8608C82.9778 16.2995 79.6103 17.4227 72.8753 16.3002C66.1404 15.1777 59.9666 10.6877 56.0379 16.3002C52.1091 21.9127 46.4967 19.1065 44.2518 20.229C42.0068 21.3515 34.7105 25.2802 38.6393 25.8415Z" fill="#2450D4"/>
<path d="M49.3739 28.2295C50.3679 28.3905 51.8015 29.0792 53.1182 29.8261C54.8978 30.8355 56.8762 31.4965 58.9222 31.4965H68.7058C70.1074 31.4965 71.4971 31.21 72.7608 30.6036C75.6714 29.2069 79.0071 27.3748 77.5574 27.14C75.3155 26.777 74.6749 22.7841 74.6749 22.4211C74.6749 22.0581 72.7533 22.7846 68.9101 22.0586C65.0669 21.3326 61.544 18.4286 59.3021 22.0586C57.0602 25.6885 53.8576 23.8735 52.5765 24.5995C51.2955 25.3255 47.132 27.8665 49.3739 28.2295Z" fill="#1741C0"/>
<path d="M26.8668 60.1207C26.8672 49.0151 39.3584 40.2446 46.7954 36.3866C48.0748 35.7229 49.4991 35.4258 50.9403 35.4258H76.2564C81.3076 35.4258 98.145 50.5795 97.5837 60.1207C97.2515 65.768 98.947 81.1851 100.534 93.5974C101.305 99.6338 96.6151 104.993 90.5583 105.583C77.9174 106.815 70.3795 109.474 61.103 107.266C49.3168 104.459 31.3241 109.576 25.7125 103.898C16.7325 94.812 26.8662 80.3257 26.8668 60.1207Z" fill="#2450D4"/>
<path d="M26.8668 60.1207C26.8672 49.0151 39.3584 40.2446 46.7954 36.3866C48.0748 35.7229 49.5015 35.4258 50.9428 35.4258H63.0532C61.6896 43.6048 49.7075 59.93 48.7555 72.3506L61.103 107.266C49.3168 104.459 31.3241 109.576 25.7125 103.898C16.7325 94.812 26.8662 80.3257 26.8668 60.1207Z" fill="#1741C0"/>
<rect x="49.8457" y="30.375" width="25.8174" height="5.61249" rx="1" fill="#1A195A"/>
<path fill-rule="evenodd" clip-rule="evenodd" d="M62.1927 92.1119C73.9715 92.1119 83.5201 82.5633 83.5201 70.7845C83.5201 59.0057 73.9715 49.457 62.1927 49.457C50.4139 49.457 40.8652 59.0057 40.8652 70.7845C40.8652 82.5633 50.4139 92.1119 62.1927 92.1119ZM58.7758 60.1813C58.6219 59.8058 58.2563 59.5605 57.8505 59.5605H54.7693C54.0409 59.5605 53.5569 60.3144 53.86 60.9767L58.6418 71.4233H55.5272C54.9749 71.4233 54.5272 71.871 54.5272 72.4233V73.377C54.5272 73.9293 54.9749 74.377 55.5272 74.377H59.7411V76.1588H55.5272C54.9749 76.1588 54.5272 76.6065 54.5272 77.1588V78.1125C54.5272 78.6648 54.9749 79.1125 55.5272 79.1125H59.7411V83.0514C59.7411 83.6037 60.1888 84.0514 60.7411 84.0514H63.8593C64.4116 84.0514 64.8593 83.6037 64.8593 83.0514V79.1125H68.6905C69.2428 79.1125 69.6905 78.6648 69.6905 78.1125V77.1588C69.6905 76.6065 69.2428 76.1588 68.6905 76.1588H64.8593V74.377H68.6905C69.2428 74.377 69.6905 73.9293 69.6905 73.377V72.4233C69.6905 71.871 69.2428 71.4233 68.6905 71.4233H66.0618L70.8677 60.9785C71.1725 60.316 70.6885 59.5605 69.9592 59.5605H66.882C66.4759 59.5605 66.1102 59.8061 65.9564 60.182L62.3701 68.9504L58.7758 60.1813Z" fill="white"/>
<path d="M92.6744 63.415L72.4999 70.6117C71.7035 70.8958 71.1719 71.6448 71.1719 72.4903L71.1719 90.7292C71.172 100.92 81.104 113.999 94.0459 113.999C106.988 113.999 116.017 100.92 116.017 90.7292L116.017 72.4713C116.017 71.6353 115.497 70.8924 114.713 70.6013L95.4109 63.4327C94.5292 63.1053 93.5603 63.099 92.6744 63.415Z" fill="#305BDD"/>
<path d="M94.0459 62.9258L72.4999 70.6117C71.7036 70.8958 71.1719 71.6448 71.1719 72.4903L71.1719 90.7292C71.172 100.92 81.1041 113.999 94.0459 113.999V62.9258Z" fill="#1741C0"/>
<path d="M93.9205 70.3994L77.4004 76.3699C77.4004 76.3699 77.4009 85.5505 77.4004 90.7434C77.3999 95.9362 84.5736 107.77 93.9205 107.77C103.267 107.77 109.789 97.1819 109.789 90.7434V76.3699L93.9205 70.3994Z" stroke="white" stroke-width="2" stroke-linecap="round"/>
<path fill-rule="evenodd" clip-rule="evenodd" d="M102.041 80.9937C102.797 81.4591 103.02 82.4294 102.539 83.1608L94.6031 95.2193C94.2931 95.6903 93.6552 95.812 93.1936 95.4883L85.0649 89.7873C84.3391 89.2783 84.1775 88.2967 84.7039 87.5949C85.2303 86.8931 86.2453 86.7368 86.971 87.2458L92.3068 90.988C92.7684 91.3118 93.4064 91.1901 93.7163 90.719L99.7995 81.4752C100.281 80.7438 101.284 80.5282 102.041 80.9937Z" fill="white"/>
</svg>
