<svg width="95" height="90" viewBox="0 0 95 90" fill="none" xmlns="http://www.w3.org/2000/svg">
<path d="M83 34V85C83 86.6569 81.6569 88 80 88H15C13.3431 88 12 86.6569 12 85V34" stroke="#0222B4" stroke-width="3"/>
<rect x="33.2588" y="33.2703" width="51.5361" height="13.4825" rx="2.18298" transform="rotate(45 33.2588 33.2703)" stroke="#0222B4" stroke-width="2.61958"/>
<path d="M38.4723 38.8486L34.543 42.778" stroke="#0222B4" stroke-width="2.61958" stroke-linecap="round"/>
<path d="M42.8385 43.2148L38.9092 47.1442" stroke="#0222B4" stroke-width="2.61958" stroke-linecap="round"/>
<path d="M60.3024 61.5518L56.373 65.4811" stroke="#0222B4" stroke-width="2.61958" stroke-linecap="round"/>
<path d="M64.6686 65.918L60.7393 69.8473" stroke="#0222B4" stroke-width="2.61958" stroke-linecap="round"/>
<path d="M62.1579 35.2582C61.3054 34.4057 59.9232 34.4057 59.0707 35.2582L29.5355 64.7934L26.7252 73.3843C26.1823 75.0439 27.7109 76.6376 29.3917 76.1643L39.0988 73.4307L68.5487 44.7787C69.4213 43.9298 69.4309 42.5312 68.5701 41.6704L62.1579 35.2582Z" fill="white" stroke="#0222B4" stroke-width="2.61958"/>
<path d="M62.1579 35.2582C61.3054 34.4057 59.9232 34.4057 59.0707 35.2582L55.7646 38.5643L65.2981 48.0979L68.6042 44.7918C69.4567 43.9393 69.4567 42.5571 68.6042 41.7046L62.1579 35.2582Z" stroke="#0222B4" stroke-width="2.61958"/>
<path fill-rule="evenodd" clip-rule="evenodd" d="M45.1201 12.7105C46.4426 11.8389 48.1549 11.8297 49.4867 12.6872L85.6567 35.9751C87.8503 37.2966 90.7914 36.7294 92.2258 34.7084C93.6601 32.6874 93.0445 29.9777 90.8508 28.6563L50.8966 2.99792C48.6463 1.64237 45.731 1.66993 43.5114 3.06774L4.06811 29.0178C1.90433 30.3805 1.34923 33.1012 2.82828 35.0947C4.30732 37.0881 7.26042 37.5995 9.42421 36.2369L45.1201 12.7105Z" stroke="#0222B4" stroke-width="3" stroke-linecap="round"/>
</svg>
