<svg width="542" height="404" viewBox="0 0 542 404" fill="none" xmlns="http://www.w3.org/2000/svg">
<g clip-path="url(#clip0_680_881)">
<circle cx="4.45745" cy="13.5004" r="4.45745" fill="#0222B4"/>
<path d="M33.3086 5.79688V21.4238H31.9902V13.2324H29.6875V20.6152H28.4219V6.14844H29.6875V12.0898H31.9902V5.79688H33.3086ZM26.3828 7.71289V8.85547H21.9004V16.3789C24.0537 16.3701 25.5479 16.291 27.2793 15.9395L27.4023 17.0996C25.5215 17.4863 23.9219 17.5566 21.5312 17.5566H20.5293V7.71289H26.3828ZM47.7227 5.81445V10.9648H50.0781V12.125H47.7227V17.5215H46.3516V5.81445H47.7227ZM44.8574 7.73047V8.85547H35.541V7.73047H39.5137V5.81445H40.8848V7.73047H44.8574ZM40.1992 9.7168C42.4316 9.7168 43.9434 10.8594 43.9609 12.6348C43.9434 14.3926 42.4316 15.5176 40.1992 15.5176C37.9492 15.5176 36.4199 14.3926 36.4375 12.6348C36.4199 10.8594 37.9492 9.7168 40.1992 9.7168ZM40.1992 10.8066C38.7227 10.8066 37.7383 11.5273 37.7559 12.6348C37.7383 13.7422 38.7227 14.4453 40.1992 14.4277C41.6582 14.4453 42.6426 13.7422 42.6602 12.6348C42.6426 11.5273 41.6582 10.8066 40.1992 10.8066ZM48.4434 19.9297V21.0898H37.9492V16.5898H39.3027V19.9297H48.4434ZM59.2188 7.16797V14.4102H51.8887V7.16797H59.2188ZM53.2422 8.31055V13.3027H57.8652V8.31055H53.2422ZM63.9648 5.81445V17.0469H62.5938V5.81445H63.9648ZM64.457 19.7539V20.8965H53.875V15.957H55.2461V19.7539H64.457ZM79.0469 6.57031V7.69531C79.0469 8.86426 79.0469 10.2617 78.6602 12.1426H80.9277V13.2676H74.4238V16.1504H79.1523V21.4238H77.7637V17.293H68.0957V16.1504H73.0527V13.2676H66.6191V12.1426H77.2715C77.6758 10.2266 77.6758 8.86426 77.6758 7.69531H68.4297V6.57031H79.0469Z" fill="#414141"/>
<circle cx="4.45745" cy="49.4155" r="4.45745" fill="#4D66DA"/>
<path d="M34.1875 49.0244V50.167H27.7363V51.8369C30.6895 51.96 32.4297 52.9268 32.4473 54.5791C32.4297 56.3193 30.4258 57.3037 27.0684 57.3037C23.6758 57.3037 21.6719 56.3193 21.6719 54.5791C21.6719 52.9268 23.4033 51.96 26.3828 51.8369V50.167H19.9492V49.0244H34.1875ZM27.0684 52.8916C24.5547 52.9092 23.0605 53.5244 23.0781 54.5791C23.0605 55.6162 24.5547 56.2314 27.0684 56.2314C29.5469 56.2314 31.0586 55.6162 31.0586 54.5791C31.0586 53.5244 29.5469 52.9092 27.0684 52.8916ZM32.9219 42.4502V43.5752H27.9648C28.0527 45.333 30.6367 46.6953 33.3965 46.9854L32.8867 48.0752C30.3291 47.7676 27.9297 46.625 27.0684 44.876C26.2158 46.625 23.8252 47.7676 21.25 48.0752L20.7578 46.9854C23.4648 46.6953 26.0664 45.333 26.1719 43.5752H21.25V42.4502H32.9219ZM47.9336 42.4854V43.6104C47.9336 44.7793 47.9336 46.1768 47.5469 48.0576H49.8145V49.1826H43.3105V52.0654H48.0391V57.3389H46.6504V53.208H36.9824V52.0654H41.9395V49.1826H35.5059V48.0576H46.1582C46.5625 46.1416 46.5625 44.7793 46.5625 43.6104H37.3164V42.4854H47.9336Z" fill="#414141"/>
<circle cx="4.45745" cy="85.3305" r="4.45745" fill="#7389F1"/>
<path d="M34.2402 86.5391V87.6816H30.4609V93.2539H29.0723V87.6816H25.0645V93.2539H23.6406V87.6816H19.9316V86.5391H34.2402ZM27.0508 78.2598C30.3379 78.2598 32.5527 79.5781 32.5527 81.6699C32.5527 83.7441 30.3379 85.0625 27.0508 85.0449C23.7637 85.0625 21.5488 83.7441 21.5488 81.6699C21.5488 79.5781 23.7637 78.2598 27.0508 78.2598ZM27.0508 79.3848C24.6074 79.3848 22.9551 80.2812 22.9727 81.6699C22.9551 83.0586 24.6074 83.9375 27.0508 83.9375C29.4766 83.9375 31.1465 83.0586 31.1465 81.6699C31.1465 80.2812 29.4766 79.3848 27.0508 79.3848ZM48.4609 77.6445V86.2227H47.0723V82.0391H44.1016V80.8965H47.0723V77.6445H48.4609ZM39.6016 86.9609V88.877H47.0898V86.9609H48.4609V93.043H38.2305V86.9609H39.6016ZM39.6016 91.918H47.0898V89.9844H39.6016V91.918ZM43.0996 78.2949V82.5137H37.5449V84.6758C40.1201 84.667 42.0537 84.5791 44.4004 84.2012L44.5234 85.3613C42.0625 85.7305 40.0586 85.8184 37.3516 85.8184H36.1738V81.4414H41.7637V79.4199H36.1387V78.2949H43.0996ZM59.7637 92.0059C57.2676 92.0059 55.7031 90.5117 55.7031 88.4551C55.7031 86.9082 56.7227 85.9678 58.2168 84.9219C57.3467 83.8848 56.7402 83.0059 56.7402 81.8809C56.7402 80.1582 57.9531 78.9805 59.834 78.9805C61.75 78.9805 62.9277 80.2109 62.9277 81.6523C62.9277 82.8652 62.2773 83.709 61.2402 84.4824L60.3086 85.1855L63.0508 88.5078C63.376 87.875 63.5781 87.1104 63.5781 86.2402H65.0371C65.0371 88.0068 64.501 89.0527 64.0176 89.6855L65.7754 91.8301H63.9648L63.0684 90.7578C62.2422 91.584 60.9414 92.0059 59.7637 92.0059ZM57.25 88.4551C57.25 89.6328 58.2344 90.6699 59.7285 90.6699C60.5898 90.6699 61.4688 90.3184 62.1719 89.668L59.1484 86.0469L58.709 86.3809C57.5664 87.207 57.25 88.0859 57.25 88.4551ZM58.252 81.8984C58.252 82.6016 58.7705 83.3135 59.3945 84.0605L60.2383 83.4453C60.9414 82.9707 61.416 82.5137 61.416 81.6523C61.416 81.0195 60.7832 80.2812 59.8867 80.2812C58.9199 80.2812 58.252 81.1074 58.252 81.8984ZM79.2051 79.1738V89.334H71.9805V79.1738H79.2051ZM73.334 80.2812V88.209H77.8516V80.2812H73.334ZM83.9512 77.627V93.2891H82.5625V77.627H83.9512ZM99.0508 78.4004V79.5254C99.0508 80.6943 99.0508 82.0918 98.6641 83.9727H100.932V85.0977H94.4277V87.9805H99.1562V93.2539H97.7676V89.123H88.0996V87.9805H93.0566V85.0977H86.623V83.9727H97.2754C97.6797 82.0566 97.6797 80.6943 97.6797 79.5254H88.4336V78.4004H99.0508Z" fill="#414141"/>
<circle cx="4.45745" cy="121.246" r="4.45745" fill="#96A8FF"/>
<path d="M33.3086 113.542V129.169H31.9902V120.978H29.6875V128.36H28.4219V113.894H29.6875V119.835H31.9902V113.542H33.3086ZM26.3828 115.458V116.601H21.9004V124.124C24.0537 124.115 25.5479 124.036 27.2793 123.685L27.4023 124.845C25.5215 125.231 23.9219 125.302 21.5312 125.302H20.5293V115.458H26.3828ZM43.3984 114.966V122.155H36.1738V114.966H43.3984ZM37.5273 116.091V121.048H42.0625V116.091H37.5273ZM47.7227 113.542V118.306H50.0781V119.466H47.7227V125.003H46.3516V113.542H47.7227ZM48.4434 127.675V128.835H37.9492V123.913H39.3027V127.675H48.4434Z" fill="#414141"/>
<circle cx="4.45745" cy="157.16" r="4.45745" fill="#B0BEFF"/>
<path d="M34.2051 157.19V158.298H19.9492V157.19H26.4004V155.362H21.7598V150.194H32.4297V151.302H23.1133V154.237H32.5352V155.362H27.7363V157.19H34.2051ZM27.0684 159.44C30.4258 159.44 32.4297 160.46 32.4473 162.253C32.4297 164.063 30.4258 165.065 27.0684 165.083C23.6934 165.065 21.6719 164.063 21.6719 162.253C21.6719 160.46 23.6934 159.44 27.0684 159.44ZM27.0684 160.53C24.5547 160.53 23.0605 161.181 23.0781 162.253C23.0605 163.343 24.5547 163.976 27.0684 163.976C29.5469 163.976 31.0586 163.343 31.0586 162.253C31.0586 161.181 29.5469 160.53 27.0684 160.53ZM47.7227 149.474V153.06H50.0957V154.22H47.7227V158.298H46.3516V149.474H47.7227ZM47.7227 159.159V164.872H37.8262V159.159H47.7227ZM39.1797 160.249V163.747H46.3867V160.249H39.1797ZM37.6504 150.265V155.942C39.874 155.934 42.168 155.758 44.6992 155.239L44.875 156.399C42.2207 156.927 39.8652 157.103 37.5098 157.103H36.2617V150.265H37.6504ZM55.2461 150.669C57.5488 150.687 59.1836 152.796 59.2012 156.118C59.1836 159.44 57.5488 161.55 55.2461 161.55C52.9258 161.55 51.3086 159.44 51.3086 156.118C51.3086 152.796 52.9258 150.687 55.2461 150.669ZM55.2461 151.899C53.6992 151.917 52.6094 153.569 52.6094 156.118C52.6094 158.667 53.6992 160.319 55.2461 160.319C56.8105 160.319 57.8652 158.667 57.8652 156.118C57.8652 153.569 56.8105 151.917 55.2461 151.899ZM63.1562 149.456V155.696H65.7754V156.892H63.1562V165.083H61.7852V149.456H63.1562ZM72.1738 153.657C72.1562 156.505 74.1074 159.388 76.4102 160.425L75.5664 161.515C73.791 160.645 72.2529 158.808 71.5059 156.575C70.7764 158.939 69.2383 160.908 67.4102 161.831L66.5312 160.671C68.8516 159.599 70.7852 156.628 70.8027 153.657V150.81H72.1738V153.657ZM79.5039 149.456V165.118H78.1152V149.456H79.5039ZM86.3594 150.669C88.6621 150.687 90.2969 152.796 90.3145 156.118C90.2969 159.44 88.6621 161.55 86.3594 161.55C84.0391 161.55 82.4219 159.44 82.4219 156.118C82.4219 152.796 84.0391 150.687 86.3594 150.669ZM86.3594 151.899C84.8125 151.917 83.7227 153.569 83.7227 156.118C83.7227 158.667 84.8125 160.319 86.3594 160.319C87.9238 160.319 88.9785 158.667 88.9785 156.118C88.9785 153.569 87.9238 151.917 86.3594 151.899ZM94.2695 149.456V155.696H96.8887V156.892H94.2695V165.083H92.8984V149.456H94.2695Z" fill="#414141"/>
<circle cx="4.45745" cy="193.075" r="4.45745" fill="#C9D3FF"/>
<path d="M32.8691 185.371V200.998H31.4805V185.371H32.8691ZM28.2461 187.076C28.2285 191.576 26.1367 195.549 20.8984 198.062L20.1426 196.938C24.3701 194.934 26.5234 191.937 26.8398 188.201H20.8633V187.076H28.2461ZM43.5215 186.795V187.955H37.5801V191.189H43.1699V192.314H37.5801V196.094C40.3926 196.094 42.3701 195.979 44.7168 195.584L44.875 196.727C42.4316 197.131 40.375 197.219 37.4219 197.236H36.1914V186.795H43.5215ZM47.5996 185.371V191.664H50.2188V192.842H47.5996V200.998H46.2285V185.371H47.5996Z" fill="#414141"/>
<path d="M507.718 160.729C504.858 123.844 488.119 89.4152 460.876 64.3854C433.632 39.3556 397.911 25.5867 360.917 25.8554L361.235 69.7075C387.131 69.5194 412.136 79.1576 431.206 96.6785C450.277 114.199 461.994 138.3 463.996 164.119L507.718 160.729Z" fill="#0222B4"/>
<path d="M507.718 160.354C509.971 189.413 503.486 218.482 489.096 243.827C474.705 269.173 453.067 289.638 426.959 302.594L407.465 263.312C425.74 254.243 440.887 239.917 450.96 222.175C461.034 204.433 465.573 184.085 463.996 163.744L507.718 160.354Z" fill="#4D66DA"/>
<path d="M216.439 158.008C219.908 121.012 237.335 86.7265 265.178 62.1203L294.218 94.9804C274.728 112.205 262.529 136.205 260.101 162.102L216.439 158.008Z" fill="#B0BEFF"/>
<path d="M426.774 302.686C402.456 314.711 375.272 319.732 348.263 317.187C321.254 314.641 295.486 304.63 273.843 288.273L300.284 253.288C315.434 264.737 333.471 271.745 352.378 273.527C371.284 275.309 390.313 271.794 407.335 263.376L426.774 302.686Z" fill="#7389F1"/>
<path d="M274.623 288.859C254.013 273.497 237.817 252.972 227.67 229.353C217.524 205.735 213.785 179.858 216.831 154.334L260.375 159.53C258.243 177.397 260.86 195.511 267.963 212.044C275.065 228.577 286.402 242.944 300.83 253.697L274.623 288.859Z" fill="#96A8FF"/>
<path d="M264.606 62.6292C291.296 38.7913 325.803 25.5723 361.589 25.4771L361.706 69.3301C336.656 69.3968 312.501 78.6501 293.817 95.3366L264.606 62.6292Z" fill="#CAD3FF"/>
<path d="M520.258 155.675C517.268 117.285 499.772 81.4508 471.296 55.3995C442.821 29.3481 405.485 15.0173 366.816 15.297" stroke="#0222B4" stroke-width="4.35294" stroke-linecap="square"/>
<path d="M519.8 163.977C522.155 194.212 515.376 224.458 500.332 250.83C485.289 277.202 462.668 298.496 435.375 311.977" stroke="#4D66DA" stroke-width="4.35294"/>
<path d="M205.758 153.095C209.243 116.147 226.753 81.9047 254.728 57.3301" stroke="#B0BEFF" stroke-width="4.35294"/>
<path d="M431.02 313.775C405.064 326.172 376.048 331.348 347.219 328.724C318.39 326.1 290.886 315.78 267.785 298.918" stroke="#7389F1" stroke-width="4.35294"/>
<path d="M263.433 294.565C242.842 279.156 226.663 258.567 216.526 234.876C206.389 211.184 202.654 185.228 205.697 159.624" stroke="#96A8FF" stroke-width="4.35294"/>
<path d="M259.078 52.9769C286.631 28.5384 322.254 14.9863 359.196 14.8887" stroke="#CAD3FF" stroke-width="4.35294"/>
<path d="M319.493 165.027L319.467 162.247L326.099 156.151C327.833 154.494 328.751 153.473 328.751 152.02C328.751 150.387 327.502 149.367 325.818 149.367C324.084 149.367 322.962 150.464 322.962 152.224H319.314C319.289 148.602 321.967 146.306 325.869 146.306C329.823 146.306 332.45 148.551 332.45 151.764C332.45 153.856 331.429 155.59 327.629 159.034L324.824 161.763V161.865H332.705V165.027H319.493ZM342.601 165.282C337.984 165.282 335.179 161.839 335.179 155.794C335.179 149.75 337.984 146.306 342.601 146.306C347.217 146.306 350.023 149.775 350.023 155.794C350.023 161.865 347.217 165.282 342.601 165.282ZM342.601 162.12C344.743 162.12 346.121 160.054 346.095 155.794C346.095 151.586 344.743 149.443 342.601 149.443C340.458 149.443 339.107 151.586 339.107 155.794C339.081 160.054 340.458 162.12 342.601 162.12ZM352.676 165.027L352.65 162.247L359.281 156.151C361.016 154.494 361.934 153.473 361.934 152.02C361.934 150.387 360.684 149.367 359.001 149.367C357.267 149.367 356.144 150.464 356.144 152.224H352.497C352.472 148.602 355.15 146.306 359.052 146.306C363.005 146.306 365.632 148.551 365.632 151.764C365.632 153.856 364.612 155.59 360.812 159.034L358.006 161.763V161.865H365.887V165.027H352.676ZM367.902 161.763V158.727L375.707 146.561H380.528V158.676H382.874V161.763H380.528V165.027H376.88V161.763H367.902ZM371.779 158.676H376.931V150.77H376.753L371.779 158.523V158.676ZM404.171 144.189V161.253H400.932V153.652H395.168V151.101H400.932V149.316H395.168V146.765H400.932V144.189H404.171ZM404.732 164.364V166.966H388.74V159.722H392.005V164.364H404.732ZM389.123 145.643V155.565C391.967 155.539 394.619 155.348 397.514 154.825L397.846 157.452C394.377 158.115 391.24 158.243 387.771 158.243H385.909V145.643H389.123ZM316.521 177.847V179.301C316.521 180.908 316.521 183.229 315.986 186.111L312.798 185.805C313.206 183.573 313.308 181.89 313.333 180.5H304.585V177.847H316.521ZM310.757 183.203V187.641C313.065 187.552 315.438 187.374 317.618 187.055L317.797 189.401C312.976 190.294 307.518 190.37 303.488 190.396L303.208 187.794C304.508 187.794 305.975 187.794 307.518 187.743V183.203H310.757ZM322.209 176.164V183.229H325.015V185.958H322.209V193.533H318.868V176.164H322.209ZM322.923 196.364V198.966H306.625V191.977H309.89V196.364H322.923ZM339.145 177.439V178.944C339.119 180.449 339.119 182.515 338.584 185.04L335.396 184.81C335.765 182.859 335.855 181.341 335.88 180.041H327.157V177.439H339.145ZM333.33 182.617V186.621C335.651 186.545 338.01 186.392 340.191 186.136L340.369 188.406C335.549 189.248 330.243 189.376 326.061 189.376L325.78 186.774C327.106 186.761 328.56 186.761 330.09 186.723V182.617H333.33ZM344.782 176.164V181.877H347.613V184.581H344.782V190.319H341.44V176.164H344.782ZM336.875 190.6C341.848 190.6 344.935 192.258 344.935 194.91C344.935 197.716 341.848 199.323 336.875 199.323C331.901 199.323 328.79 197.716 328.79 194.91C328.79 192.258 331.901 190.6 336.875 190.6ZM336.875 193.099C333.814 193.099 332.105 193.737 332.105 194.91C332.105 196.237 333.814 196.798 336.875 196.798C339.91 196.798 341.593 196.237 341.593 194.91C341.593 193.737 339.91 193.099 336.875 193.099ZM368.604 176.189V189.784H365.518V184.173H363.426V189.682H360.365V176.597H363.426V181.52H365.518V176.189H368.604ZM368.604 190.676V199.374H365.365V193.304H352.408V190.676H368.604ZM358.784 177.771C358.784 183.611 355.979 187.539 349.934 189.937L348.403 187.514C352.778 185.907 354.971 183.509 355.468 180.372H349.526V177.771H358.784ZM395.971 177.184V178.995C395.971 180.704 395.971 182.668 395.512 185.167H398.496V187.769H389.467V191.11H395.997V199.374H392.732V193.661H379.393V191.11H386.203V187.769H377.25V185.167H392.222C392.655 182.999 392.719 181.29 392.732 179.76H379.852V177.184H395.971ZM418.135 176.164V185.065H421.426V187.743H418.135V199.323H414.871V176.164H418.135ZM411.938 178.536C411.912 185.473 409.209 191.493 401.404 195.318L399.567 192.819C405.064 190.064 408.01 186.366 408.622 181.188H400.894V178.536H411.938Z" fill="#414141"/>
<path d="M510.666 256.295V269.021H508.012V258.809H507.941L505.023 260.637V258.299L508.17 256.295H510.666ZM518.4 269.197C515.5 269.197 513.408 267.668 513.408 265.594C513.408 263.994 514.639 262.693 516.221 262.447V262.359C514.85 262.096 513.9 260.936 513.9 259.547C513.9 257.561 515.799 256.119 518.4 256.119C521.002 256.119 522.9 257.561 522.918 259.547C522.9 260.953 521.934 262.096 520.598 262.359V262.447C522.145 262.693 523.393 263.994 523.393 265.594C523.393 267.668 521.301 269.197 518.4 269.197ZM518.4 267.176C519.736 267.176 520.633 266.42 520.633 265.33C520.633 264.223 519.701 263.414 518.4 263.414C517.1 263.414 516.15 264.223 516.168 265.33C516.15 266.42 517.047 267.176 518.4 267.176ZM518.4 261.551C519.525 261.551 520.334 260.83 520.334 259.811C520.334 258.826 519.543 258.123 518.4 258.123C517.258 258.123 516.484 258.809 516.484 259.811C516.484 260.83 517.275 261.551 518.4 261.551ZM526.381 269.18C525.555 269.18 524.887 268.512 524.904 267.703C524.887 266.895 525.555 266.244 526.381 266.244C527.154 266.244 527.84 266.895 527.84 267.703C527.84 268.512 527.154 269.18 526.381 269.18ZM534.326 256.119C536.963 256.137 539.459 257.701 539.459 262.324C539.477 266.648 537.42 269.197 534.221 269.197C531.654 269.197 529.914 267.598 529.65 265.436H532.252C532.463 266.367 533.201 266.93 534.221 266.93C535.961 266.93 536.875 265.383 536.875 262.834H536.77C536.172 263.959 534.924 264.627 533.5 264.627C531.215 264.627 529.527 262.904 529.51 260.531C529.51 257.965 531.443 256.102 534.326 256.119ZM534.344 258.193C533.043 258.193 532.076 259.195 532.094 260.461C532.094 261.709 533.025 262.693 534.326 262.693C535.609 262.693 536.611 261.674 536.611 260.443C536.594 259.23 535.645 258.193 534.344 258.193ZM544.592 262.658C542.693 262.658 541.656 261.27 541.656 259.266C541.656 257.244 542.729 255.855 544.592 255.855C546.508 255.855 547.51 257.244 547.527 259.266C547.51 261.287 546.473 262.658 544.592 262.658ZM544.592 261.094C545.348 261.094 545.717 260.355 545.734 259.266C545.717 258.176 545.383 257.42 544.592 257.42C543.836 257.42 543.449 258.193 543.449 259.266C543.449 260.355 543.854 261.094 544.592 261.094ZM553.17 269.443C551.289 269.443 550.252 268.055 550.252 266.051C550.252 264.029 551.324 262.641 553.17 262.641C555.086 262.641 556.105 264.029 556.123 266.051C556.105 268.072 555.068 269.443 553.17 269.443ZM553.17 267.879C553.943 267.879 554.312 267.158 554.33 266.051C554.312 264.961 553.979 264.205 553.17 264.223C552.432 264.223 552.045 264.979 552.045 266.051C552.045 267.158 552.449 267.879 553.17 267.879ZM543.484 269.021L552.238 256.295H554.207L545.453 269.021H543.484Z" fill="#4D66DA"/>
<path d="M477.885 37.2344L477.867 35.3184L482.438 31.1172C483.633 29.9746 484.266 29.2715 484.266 28.2695C484.266 27.1445 483.404 26.4414 482.244 26.4414C481.049 26.4414 480.275 27.1973 480.275 28.4102H477.762C477.744 25.9141 479.59 24.332 482.279 24.332C485.004 24.332 486.814 25.8789 486.814 28.0938C486.814 29.5352 486.111 30.7305 483.492 33.1035L481.559 34.9844V35.0547H486.99V37.2344H477.885ZM493.582 37.4102C490.787 37.4102 488.783 35.8633 488.73 33.6484H491.402C491.455 34.5977 492.369 35.2305 493.6 35.2305C494.865 35.2305 495.779 34.5098 495.762 33.4902C495.779 32.4531 494.848 31.7148 493.354 31.7148H492.176V29.7637H493.354C494.602 29.7637 495.48 29.0781 495.48 28.0762C495.48 27.1094 494.742 26.4414 493.617 26.4414C492.492 26.4414 491.561 27.0742 491.525 28.041H488.994C489.029 25.8438 491.016 24.332 493.617 24.332C496.271 24.332 498.047 25.8965 498.029 27.918C498.047 29.3418 497.045 30.3613 495.621 30.6074V30.7129C497.484 30.9414 498.521 32.084 498.504 33.666C498.521 35.8457 496.447 37.4102 493.582 37.4102ZM501.545 37.3926C500.719 37.3926 500.051 36.7246 500.068 35.916C500.051 35.1074 500.719 34.457 501.545 34.457C502.318 34.457 503.004 35.1074 503.004 35.916C503.004 36.7246 502.318 37.3926 501.545 37.3926ZM509.49 24.332C512.127 24.3496 514.623 25.9141 514.623 30.5371C514.641 34.8613 512.584 37.4102 509.385 37.4102C506.818 37.4102 505.078 35.8105 504.814 33.6484H507.416C507.627 34.5801 508.365 35.1426 509.385 35.1426C511.125 35.1426 512.039 33.5957 512.039 31.0469H511.934C511.336 32.1719 510.088 32.8398 508.664 32.8398C506.379 32.8398 504.691 31.1172 504.674 28.7441C504.674 26.1777 506.607 24.3145 509.49 24.332ZM509.508 26.4062C508.207 26.4062 507.24 27.4082 507.258 28.6738C507.258 29.9219 508.189 30.9062 509.49 30.9062C510.773 30.9062 511.775 29.8867 511.775 28.6562C511.758 27.4434 510.809 26.4062 509.508 26.4062ZM519.756 30.8711C517.857 30.8711 516.82 29.4824 516.82 27.4785C516.82 25.457 517.893 24.0684 519.756 24.0684C521.672 24.0684 522.674 25.457 522.691 27.4785C522.674 29.5 521.637 30.8711 519.756 30.8711ZM519.756 29.3066C520.512 29.3066 520.881 28.5684 520.898 27.4785C520.881 26.3887 520.547 25.6328 519.756 25.6328C519 25.6328 518.613 26.4062 518.613 27.4785C518.613 28.5684 519.018 29.3066 519.756 29.3066ZM528.334 37.6562C526.453 37.6562 525.416 36.2676 525.416 34.2637C525.416 32.2422 526.488 30.8535 528.334 30.8535C530.25 30.8535 531.27 32.2422 531.287 34.2637C531.27 36.2852 530.232 37.6562 528.334 37.6562ZM528.334 36.0918C529.107 36.0918 529.477 35.3711 529.494 34.2637C529.477 33.1738 529.143 32.418 528.334 32.4355C527.596 32.4355 527.209 33.1914 527.209 34.2637C527.209 35.3711 527.613 36.0918 528.334 36.0918ZM518.648 37.2344L527.402 24.5078H529.371L520.617 37.2344H518.648Z" fill="#4D66DA"/>
<path d="M158.721 254.167V266.894H156.066V256.681H155.996L153.078 258.509V256.171L156.225 254.167H158.721ZM166.596 267.069C163.959 267.052 161.463 265.487 161.463 260.829C161.463 256.54 163.52 253.991 166.701 253.991C169.268 253.991 171.008 255.608 171.271 257.7H168.67C168.459 256.804 167.721 256.259 166.701 256.259C164.979 256.259 164.064 257.823 164.047 260.319H164.17C164.75 259.194 166.016 258.526 167.422 258.526C169.707 258.526 171.412 260.249 171.412 262.64C171.412 265.224 169.461 267.087 166.596 267.069ZM166.578 264.978C167.879 264.978 168.846 263.993 168.846 262.71C168.846 261.444 167.914 260.442 166.613 260.442C165.312 260.442 164.328 261.462 164.311 262.71C164.328 263.958 165.277 264.978 166.578 264.978ZM174.26 267.052C173.434 267.052 172.766 266.384 172.783 265.575C172.766 264.767 173.434 264.116 174.26 264.116C175.033 264.116 175.719 264.767 175.719 265.575C175.719 266.384 175.033 267.052 174.26 267.052ZM177.582 264.644V262.552L182.961 254.167H186.283V262.517H187.9V264.644H186.283V266.894H183.77V264.644H177.582ZM180.254 262.517H183.805V257.067H183.682L180.254 262.411V262.517ZM192.963 260.53C191.064 260.53 190.027 259.142 190.027 257.138C190.027 255.116 191.1 253.728 192.963 253.728C194.879 253.728 195.881 255.116 195.898 257.138C195.881 259.159 194.844 260.53 192.963 260.53ZM192.963 258.966C193.719 258.966 194.088 258.228 194.105 257.138C194.088 256.048 193.754 255.292 192.963 255.292C192.207 255.292 191.82 256.065 191.82 257.138C191.82 258.228 192.225 258.966 192.963 258.966ZM201.541 267.315C199.66 267.315 198.623 265.927 198.623 263.923C198.623 261.901 199.695 260.513 201.541 260.513C203.457 260.513 204.477 261.901 204.494 263.923C204.477 265.944 203.439 267.315 201.541 267.315ZM201.541 265.751C202.314 265.751 202.684 265.03 202.701 263.923C202.684 262.833 202.35 262.077 201.541 262.095C200.803 262.095 200.416 262.851 200.416 263.923C200.416 265.03 200.82 265.751 201.541 265.751ZM191.855 266.894L200.609 254.167H202.578L193.824 266.894H191.855Z" fill="#96A8FF"/>
<path d="M155.529 86.0684V98.7949H152.875V88.582H152.805L149.887 90.4102V88.0723L153.033 86.0684H155.529ZM158.482 98.7949L158.465 96.8789L163.035 92.6777C164.23 91.5352 164.863 90.832 164.863 89.8301C164.863 88.7051 164.002 88.002 162.842 88.002C161.646 88.002 160.873 88.7578 160.873 89.9707H158.359C158.342 87.4746 160.188 85.8926 162.877 85.8926C165.602 85.8926 167.412 87.4395 167.412 89.6543C167.412 91.0957 166.709 92.291 164.09 94.6641L162.156 96.5449V96.6152H167.588V98.7949H158.482ZM171.016 98.9531C170.189 98.9531 169.521 98.2852 169.539 97.4766C169.521 96.668 170.189 96.0176 171.016 96.0176C171.789 96.0176 172.475 96.668 172.475 97.4766C172.475 98.2852 171.789 98.9531 171.016 98.9531ZM178.855 98.9707C176.061 98.9707 174.057 97.4238 174.004 95.209H176.676C176.729 96.1582 177.643 96.791 178.873 96.791C180.139 96.791 181.053 96.0703 181.035 95.0508C181.053 94.0137 180.121 93.2754 178.627 93.2754H177.449V91.3242H178.627C179.875 91.3242 180.754 90.6387 180.754 89.6367C180.754 88.6699 180.016 88.002 178.891 88.002C177.766 88.002 176.834 88.6348 176.799 89.6016H174.268C174.303 87.4043 176.289 85.8926 178.891 85.8926C181.545 85.8926 183.32 87.457 183.303 89.4785C183.32 90.9023 182.318 91.9219 180.895 92.168V92.2734C182.758 92.502 183.795 93.6445 183.777 95.2266C183.795 97.4062 181.721 98.9707 178.855 98.9707ZM188.98 92.4316C187.082 92.4316 186.045 91.043 186.045 89.0391C186.045 87.0176 187.117 85.6289 188.98 85.6289C190.896 85.6289 191.898 87.0176 191.916 89.0391C191.898 91.0605 190.861 92.4316 188.98 92.4316ZM188.98 90.8672C189.736 90.8672 190.105 90.1289 190.123 89.0391C190.105 87.9492 189.771 87.1934 188.98 87.1934C188.225 87.1934 187.838 87.9668 187.838 89.0391C187.838 90.1289 188.242 90.8672 188.98 90.8672ZM197.559 99.2168C195.678 99.2168 194.641 97.8281 194.641 95.8242C194.641 93.8027 195.713 92.4141 197.559 92.4141C199.475 92.4141 200.494 93.8027 200.512 95.8242C200.494 97.8457 199.457 99.2168 197.559 99.2168ZM197.559 97.6523C198.332 97.6523 198.701 96.9316 198.719 95.8242C198.701 94.7344 198.367 93.9785 197.559 93.9961C196.82 93.9961 196.434 94.752 196.434 95.8242C196.434 96.9316 196.838 97.6523 197.559 97.6523ZM187.873 98.7949L196.627 86.0684H198.596L189.842 98.7949H187.873Z" fill="#B0BEFF"/>
<path d="M253.412 6.27344V19H250.758V8.78711H250.688L247.77 10.6152V8.27734L250.916 6.27344H253.412ZM261.85 6.27344V19H259.195V8.78711H259.125L256.207 10.6152V8.27734L259.354 6.27344H261.85ZM265.664 19.1582C264.838 19.1582 264.17 18.4902 264.188 17.6816C264.17 16.873 264.838 16.2227 265.664 16.2227C266.438 16.2227 267.123 16.873 267.123 17.6816C267.123 18.4902 266.438 19.1582 265.664 19.1582ZM273.504 19.1758C270.709 19.1758 268.705 17.6289 268.652 15.4141H271.324C271.377 16.3633 272.291 16.9961 273.521 16.9961C274.787 16.9961 275.701 16.2754 275.684 15.2559C275.701 14.2188 274.77 13.4805 273.275 13.4805H272.098V11.5293H273.275C274.523 11.5293 275.402 10.8438 275.402 9.8418C275.402 8.875 274.664 8.20703 273.539 8.20703C272.414 8.20703 271.482 8.83984 271.447 9.80664H268.916C268.951 7.60938 270.938 6.09766 273.539 6.09766C276.193 6.09766 277.969 7.66211 277.951 9.68359C277.969 11.1074 276.967 12.127 275.543 12.373V12.4785C277.406 12.707 278.443 13.8496 278.426 15.4316C278.443 17.6113 276.369 19.1758 273.504 19.1758ZM283.629 12.6367C281.73 12.6367 280.693 11.248 280.693 9.24414C280.693 7.22266 281.766 5.83398 283.629 5.83398C285.545 5.83398 286.547 7.22266 286.564 9.24414C286.547 11.2656 285.51 12.6367 283.629 12.6367ZM283.629 11.0723C284.385 11.0723 284.754 10.334 284.771 9.24414C284.754 8.1543 284.42 7.39844 283.629 7.39844C282.873 7.39844 282.486 8.17188 282.486 9.24414C282.486 10.334 282.891 11.0723 283.629 11.0723ZM292.207 19.4219C290.326 19.4219 289.289 18.0332 289.289 16.0293C289.289 14.0078 290.361 12.6191 292.207 12.6191C294.123 12.6191 295.143 14.0078 295.16 16.0293C295.143 18.0508 294.105 19.4219 292.207 19.4219ZM292.207 17.8574C292.98 17.8574 293.35 17.1367 293.367 16.0293C293.35 14.9395 293.016 14.1836 292.207 14.2012C291.469 14.2012 291.082 14.957 291.082 16.0293C291.082 17.1367 291.486 17.8574 292.207 17.8574ZM282.521 19L291.275 6.27344H293.244L284.49 19H282.521Z" fill="#C9D3FF"/>
<path d="M339.373 348.217V360.943H336.719V350.73H336.648L333.73 352.559V350.221L336.877 348.217H339.373ZM342.818 360.943L348.18 350.467V350.379H341.939V348.217H350.922V350.414L345.561 360.943H342.818ZM352.029 361.102C351.203 361.102 350.535 360.434 350.553 359.625C350.535 358.816 351.203 358.166 352.029 358.166C352.803 358.166 353.488 358.816 353.488 359.625C353.488 360.434 352.803 361.102 352.029 361.102ZM355.562 360.943L355.545 359.027L360.115 354.826C361.311 353.684 361.943 352.98 361.943 351.979C361.943 350.854 361.082 350.15 359.922 350.15C358.727 350.15 357.953 350.906 357.953 352.119H355.439C355.422 349.623 357.268 348.041 359.957 348.041C362.682 348.041 364.492 349.588 364.492 351.803C364.492 353.244 363.789 354.439 361.17 356.812L359.236 358.693V358.764H364.668V360.943H355.562ZM369.889 354.58C367.99 354.58 366.953 353.191 366.953 351.188C366.953 349.166 368.025 347.777 369.889 347.777C371.805 347.777 372.807 349.166 372.824 351.188C372.807 353.209 371.77 354.58 369.889 354.58ZM369.889 353.016C370.645 353.016 371.014 352.277 371.031 351.188C371.014 350.098 370.68 349.342 369.889 349.342C369.133 349.342 368.746 350.115 368.746 351.188C368.746 352.277 369.15 353.016 369.889 353.016ZM378.467 361.365C376.586 361.365 375.549 359.977 375.549 357.973C375.549 355.951 376.621 354.562 378.467 354.562C380.383 354.562 381.402 355.951 381.42 357.973C381.402 359.994 380.365 361.365 378.467 361.365ZM378.467 359.801C379.24 359.801 379.609 359.08 379.627 357.973C379.609 356.883 379.275 356.127 378.467 356.145C377.729 356.145 377.342 356.9 377.342 357.973C377.342 359.08 377.746 359.801 378.467 359.801ZM368.781 360.943L377.535 348.217H379.504L370.75 360.943H368.781Z" fill="#7389F1"/>
</g>
<path opacity="0.5" d="M2.87411 388.249C2.87411 386.727 4.10775 385.506 5.63011 385.506C6.94249 385.506 8.04489 386.425 8.22863 387.659H7.08685C6.95562 387.029 6.32567 386.582 5.63011 386.582C4.71145 386.582 3.96339 387.331 3.96339 388.249C3.96339 389.168 4.71145 389.916 5.63011 389.916C6.32567 389.916 6.86375 389.47 6.99499 388.84H8.12364C7.95303 390.073 6.94249 390.992 5.63011 390.992C4.10775 390.992 2.87411 389.772 2.87411 388.249ZM5.57762 393.144C2.88724 393.144 0.669314 390.953 0.682438 388.249C0.682438 385.533 2.88724 383.354 5.57762 383.354C8.29424 383.354 10.4728 385.533 10.4728 388.249C10.4859 390.953 8.29424 393.144 5.57762 393.144ZM5.57762 392.055C7.69055 392.055 9.39664 390.349 9.38352 388.249C9.3704 386.136 7.67743 384.443 5.57762 384.443C3.49093 384.443 1.78484 386.149 1.77171 388.249C1.75859 390.336 3.47781 392.055 5.57762 392.055ZM19.2133 383.498H20.4075V390.283C20.4075 392.108 19.3314 393.131 17.6778 393.131C16.1029 393.131 14.9611 392.226 14.9611 390.756H16.1292C16.1292 391.556 16.7853 392.081 17.6778 392.081C18.6621 392.081 19.2133 391.465 19.2133 390.283V383.498ZM22.9273 393H21.6936L25.1715 383.498H26.4182L29.896 393H28.6493L27.7044 390.323H23.8853L22.9273 393ZM24.2397 389.286H27.3369L25.8276 385.034H25.7489L24.2397 389.286ZM31.1822 393V383.498H34.4106C36.6417 383.498 37.6522 384.824 37.6522 386.517C37.6522 388.197 36.6417 389.548 34.4237 389.548H32.3633V393H31.1822ZM32.3633 388.499H34.3712C35.8805 388.499 36.4842 387.645 36.4842 386.517C36.4842 385.375 35.8805 384.548 34.3581 384.548H32.3633V388.499ZM38.7546 393H37.521L40.9988 383.498H42.2455L45.7233 393H44.4766L43.5317 390.323H39.7126L38.7546 393ZM40.067 389.286H43.1642L41.655 385.034H41.5762L40.067 389.286ZM54.5557 383.498V393H53.427L48.2825 385.598H48.1906V393H47.0095V383.498H48.1512L53.2958 390.913H53.3876V383.498H54.5557ZM67.5745 383.498V393H66.4458L61.3013 385.598H61.2094V393H60.0283V383.498H61.1701L66.3146 390.913H66.4065V383.498H67.5745ZM70.0942 393H68.8606L72.3384 383.498H73.5852L77.063 393H75.8162L74.8713 390.323H71.0523L70.0942 393ZM71.4066 389.286H74.5038L72.9946 385.034H72.9159L71.4066 389.286ZM76.7086 384.548V383.498H83.8742V384.548H80.8951V393H79.7009V384.548H76.7086ZM86.6302 383.498V393H85.4491V383.498H86.6302ZM96.7618 388.249C96.7618 391.255 94.9901 393.131 92.5622 393.131C90.1212 393.131 88.3626 391.255 88.3626 388.249C88.3626 385.244 90.1212 383.367 92.5622 383.367C94.9901 383.367 96.7618 385.244 96.7618 388.249ZM95.62 388.249C95.62 385.795 94.2814 384.47 92.5622 384.47C90.843 384.47 89.5043 385.795 89.5043 388.249C89.5043 390.703 90.843 392.029 92.5622 392.029C94.2814 392.029 95.62 390.703 95.62 388.249ZM106.04 383.498V393H104.912L99.7672 385.598H99.6753V393H98.4942V383.498H99.6359L104.78 390.913H104.872V383.498H106.04ZM108.56 393H107.326L110.804 383.498H112.051L115.529 393H114.282L113.337 390.323H109.518L108.56 393ZM109.872 389.286H112.97L111.46 385.034H111.382L109.872 389.286ZM116.815 393V383.498H117.996V391.95H122.406V393H116.815ZM126.828 384.548V383.498H133.994V384.548H131.015V393H129.821V384.548H126.828ZM143.207 388.249C143.207 391.255 141.435 393.131 139.007 393.131C136.566 393.131 134.808 391.255 134.808 388.249C134.808 385.244 136.566 383.367 139.007 383.367C141.435 383.367 143.207 385.244 143.207 388.249ZM142.065 388.249C142.065 385.795 140.727 384.47 139.007 384.47C137.288 384.47 135.949 385.795 135.949 388.249C135.949 390.703 137.288 392.029 139.007 392.029C140.727 392.029 142.065 390.703 142.065 388.249ZM151.16 383.498H152.341V389.785C152.341 391.74 150.884 393.171 148.64 393.171C146.396 393.171 144.939 391.74 144.939 389.785V383.498H146.12V389.693C146.12 391.071 147.078 392.068 148.64 392.068C150.215 392.068 151.16 391.071 151.16 389.693V383.498ZM154.441 393V383.498H157.669C159.9 383.498 160.911 384.732 160.911 386.425C160.911 387.678 160.347 388.669 159.139 389.089L161.278 393H159.9L157.919 389.299L157.683 389.312H155.622V393H154.441ZM155.622 388.236H157.63C159.139 388.236 159.743 387.554 159.743 386.425C159.743 385.283 159.139 384.548 157.617 384.548H155.622V388.236ZM163.798 383.498V393H162.617V383.498H163.798ZM171.082 385.887C170.977 384.955 170.124 384.417 168.982 384.417C167.722 384.417 166.895 385.073 166.895 385.979C166.895 386.976 168.011 387.344 168.733 387.527L169.678 387.79C170.701 388.052 172.368 388.643 172.368 390.415C172.368 391.963 171.121 393.171 168.916 393.171C166.869 393.171 165.596 392.108 165.491 390.533H166.699C166.804 391.596 167.788 392.094 168.916 392.094C170.229 392.094 171.213 391.425 171.213 390.388C171.213 389.47 170.334 389.115 169.336 388.827L168.168 388.512C166.672 388.079 165.754 387.317 165.754 386.031C165.754 384.43 167.184 383.367 169.021 383.367C170.859 383.367 172.184 384.443 172.237 385.887H171.082ZM174.061 383.498H175.478L178.681 391.32H178.799L182.001 383.498H183.418V393H182.303V385.821H182.211L179.258 393H178.208L175.255 385.821H175.177V393H174.061V383.498ZM196.923 388.249C196.923 391.255 195.151 393.131 192.723 393.131C190.282 393.131 188.523 391.255 188.523 388.249C188.523 385.244 190.282 383.367 192.723 383.367C195.151 383.367 196.923 385.244 196.923 388.249ZM195.781 388.249C195.781 385.795 194.442 384.47 192.723 384.47C191.004 384.47 189.665 385.795 189.665 388.249C189.665 390.703 191.004 392.029 192.723 392.029C194.442 392.029 195.781 390.703 195.781 388.249ZM198.655 393V383.498H201.883C204.115 383.498 205.125 384.732 205.125 386.425C205.125 387.678 204.561 388.669 203.353 389.089L205.493 393H204.115L202.133 389.299L201.897 389.312H199.836V393H198.655ZM199.836 388.236H201.844C203.353 388.236 203.957 387.554 203.957 386.425C203.957 385.283 203.353 384.548 201.831 384.548H199.836V388.236ZM213.314 386.464C212.907 385.244 211.976 384.47 210.624 384.47C208.944 384.47 207.605 385.795 207.605 388.249C207.605 390.703 208.944 392.029 210.703 392.029C212.31 392.029 213.406 390.953 213.432 389.273H210.952V388.236H214.587V389.26C214.587 391.622 212.96 393.131 210.703 393.131C208.17 393.131 206.464 391.255 206.464 388.249C206.464 385.244 208.183 383.367 210.624 383.367C212.632 383.367 214.181 384.627 214.535 386.464H213.314ZM216.477 393H215.244L218.721 383.498H219.968L223.446 393H222.199L221.254 390.323H217.435L216.477 393ZM217.79 389.286H220.887L219.378 385.034H219.299L217.79 389.286ZM232.278 383.498V393H231.15L226.005 385.598H225.913V393H224.732V383.498H225.874L231.018 390.913H231.11V383.498H232.278ZM235.559 383.498V393H234.378V383.498H235.559ZM237.344 393V392.147L242.449 384.548H237.292V383.498H243.867V384.351L238.761 391.95H243.919V393H237.344ZM246.071 393H244.838L248.316 383.498H249.562L253.04 393H251.793L250.848 390.323H247.029L246.071 393ZM247.384 389.286H250.481L248.972 385.034H248.893L247.384 389.286ZM252.686 384.548V383.498H259.851V384.548H256.872V393H255.678V384.548H252.686ZM262.607 383.498V393H261.426V383.498H262.607ZM272.739 388.249C272.739 391.255 270.967 393.131 268.539 393.131C266.098 393.131 264.34 391.255 264.34 388.249C264.34 385.244 266.098 383.367 268.539 383.367C270.967 383.367 272.739 385.244 272.739 388.249ZM271.597 388.249C271.597 385.795 270.259 384.47 268.539 384.47C266.82 384.47 265.481 385.795 265.481 388.249C265.481 390.703 266.82 392.029 268.539 392.029C270.259 392.029 271.597 390.703 271.597 388.249ZM282.017 383.498V393H280.889L275.744 385.598H275.652V393H274.471V383.498H275.613L280.758 390.913H280.849V383.498H282.017Z" fill="#414141"/>
<defs>
<clipPath id="clip0_680_881">
<rect width="542" height="368" fill="white"/>
</clipPath>
</defs>
</svg>
