<svg width="396" height="128" viewBox="0 0 396 128" fill="none" xmlns="http://www.w3.org/2000/svg">
<g opacity="0.6">
<path d="M151.857 125.758L5.31996 67.8821C4.46092 67.5428 3.89648 66.713 3.89648 65.7894V61.5391C3.89648 60.2964 4.90384 59.2891 6.14648 59.2891H307.559C308.801 59.2891 309.809 60.2964 309.809 61.5391V65.7768C309.809 66.7067 309.237 67.5408 308.369 67.8758L158.405 125.783C156.297 126.597 153.959 126.588 151.857 125.758Z" fill="#5F75DA"/>
<path opacity="0.6" d="M308.374 67.8771L157.708 126.34C156.828 126.681 155.88 126.032 155.88 125.088V118.616C155.88 117.679 156.461 116.839 157.339 116.51L306.77 60.4302C308.241 59.8781 309.81 60.9655 309.81 62.5367V65.7795C309.81 66.7081 309.24 67.5412 308.374 67.8771Z" fill="#254598"/>
<path d="M5.52973 57.5925C55.5827 38.7718 145.057 5.09107 154.692 1.31761C155.236 1.10466 155.789 1.11351 156.337 1.31654L308.065 57.5798C310.016 58.3033 310.024 61.0603 308.077 61.7947L157.619 118.54C156.243 119.059 154.725 119.055 153.352 118.528L5.52975 61.7939C3.59762 61.0523 3.5926 58.3208 5.52973 57.5925Z" fill="url(#paint0_linear_722_524)" stroke="url(#paint1_linear_722_524)" stroke-opacity="0.3" stroke-width="0.75"/>
</g>
<path d="M257 61L358.75 61C359.993 61 361 62.0074 361 63.25L361 89" stroke="#ABC5EF" stroke-dasharray="1.5 1.5"/>
<circle cx="257.243" cy="61.7253" r="5.47046" fill="#ABC5EF" stroke="#ABC5EF" stroke-width="0.75"/>
<path d="M279.266 103.323V112.09H269.664V103.323H279.266ZM272.432 105.542V109.871H276.497V105.542H272.432ZM284.935 102.026V106.377H287.637V108.662H284.935V113.232H282.122V102.026H284.935ZM285.176 114.177V116.396H280.057C280.529 117.891 282.507 119.374 286.055 119.846L285.066 121.978C281.858 121.549 279.595 120.264 278.453 118.55C277.299 120.264 275.047 121.527 271.861 121.934L270.85 119.802C274.454 119.363 276.387 117.935 276.849 116.396H271.707V114.177H285.176ZM306.753 111.628V113.848H298.997V115.386H304.578V121.802H290.625V115.386H296.229V113.848H288.516V111.628H306.753ZM298.997 102.026V103.74H304.996V105.938H299.239C299.579 107.322 301.623 108.563 305.94 108.816L305.127 110.881C301.425 110.629 298.865 109.618 297.613 108.047C296.349 109.618 293.79 110.629 290.098 110.881L289.285 108.816C293.636 108.563 295.635 107.322 296.009 105.938H290.274V103.74H296.229V102.026H298.997ZM293.394 117.605V119.561H301.832V117.605H293.394ZM330.484 102.026V122.021H327.803V111.936H326.001V121.099H323.343V102.312H326.001V109.651H327.803V102.026H330.484ZM321.673 104.092V116.99H313.719V104.092H321.673ZM316.333 106.311V114.792H319.058V106.311H316.333ZM350.831 109.958V112.178H343.096V113.452H348.611V118.572H337.471V119.78H349.139V121.89H334.725V116.594H345.843V115.562H334.703V113.452H340.284V112.178H332.593V109.958H350.831ZM348.523 102.598V108.904H334.856V102.598H348.523ZM337.603 104.773V106.75H345.733V104.773H337.603ZM375.528 117.385V119.626H357.225V117.385H364.871V112.859H367.662V117.385H375.528ZM367.75 104.597C367.75 107.454 370.32 110.464 374.891 111.167L373.704 113.496C370.188 112.859 367.574 110.98 366.255 108.486C364.937 110.969 362.344 112.87 358.851 113.496L357.664 111.167C362.19 110.464 364.739 107.432 364.761 104.597V103.169H367.75V104.597ZM393.919 102.026V122.021H391.216V111.848H389.393V121.143H386.778V102.554H389.393V109.607H391.216V102.026H393.919ZM385.372 104.487C385.35 110.068 383.68 114.639 378.055 117.913L376.429 115.979C380.505 113.584 382.251 110.651 382.647 106.729H377.439V104.487H385.372Z" fill="white"/>
<defs>
<linearGradient id="paint0_linear_722_524" x1="156.853" y1="1" x2="156.853" y2="119.346" gradientUnits="userSpaceOnUse">
<stop stop-color="#001B94"/>
<stop offset="1" stop-color="#254598"/>
</linearGradient>
<linearGradient id="paint1_linear_722_524" x1="156.853" y1="1" x2="156.853" y2="119.346" gradientUnits="userSpaceOnUse">
<stop stop-color="white" stop-opacity="0.6"/>
<stop offset="1" stop-color="white"/>
</linearGradient>
</defs>
</svg>
