<svg width="399" height="198" viewBox="0 0 399 198" fill="none" xmlns="http://www.w3.org/2000/svg">
<path d="M11.2656 6.32275V15.0898H1.66357V6.32275H11.2656ZM4.43213 8.54199V12.8706H8.49707V8.54199H4.43213ZM16.9346 5.02637V9.37695H19.6372V11.6621H16.9346V16.2324H14.1221V5.02637H16.9346ZM17.1763 17.1772V19.3965H12.0566C12.5291 20.8906 14.5066 22.3738 18.0552 22.8462L17.0664 24.9775C13.8584 24.5491 11.5952 23.2637 10.4526 21.5498C9.29907 23.2637 7.04688 24.5271 3.86084 24.9336L2.8501 22.8022C6.45361 22.3628 8.38721 20.9346 8.84863 19.3965H3.70703V17.1772H17.1763ZM38.7534 14.6284V16.8477H30.9971V18.3857H36.5781V24.8018H22.6255V18.3857H28.2285V16.8477H20.5161V14.6284H38.7534ZM30.9971 5.02637V6.74023H36.9956V8.9375H31.2388C31.5793 10.3218 33.6228 11.5632 37.9404 11.8159L37.1274 13.8813C33.425 13.6287 30.8652 12.6179 29.6128 11.0469C28.3494 12.6179 25.7896 13.6287 22.0981 13.8813L21.2852 11.8159C25.6357 11.5632 27.6353 10.3218 28.0088 8.9375H22.2739V6.74023H28.2285V5.02637H30.9971ZM25.394 20.605V22.5605H33.8315V20.605H25.394ZM62.4399 5.02637V25.0215H59.7812V14.98H57.8477V24.0547H55.2769V5.35596H57.8477V12.7388H59.7812V5.02637H62.4399ZM53.1675 7.3335V9.59668H48.5312V18.1221C50.4648 18.1111 52.1787 18.0122 54.1123 17.6606L54.3101 19.9458C51.8711 20.4072 49.7397 20.4731 47.103 20.4951H45.7188V7.3335H53.1675ZM82.7866 13.5518V15.5952H75.0962V16.8477H80.6113V21.7256H69.4712V22.8242H81.1387V24.8896H66.7246V19.8359H77.8428V18.8472H66.7026V16.8477H72.3057V15.5952H64.6372V13.5518H82.7866ZM75.0742 5.00439V6.58643H81.0728V8.65186H75.4258C75.9751 9.81641 78.0186 10.7722 82.0615 10.937L81.2485 13.0024C77.5352 12.8267 74.9644 11.8818 73.6899 10.3657C72.4265 11.8818 69.8447 12.8267 66.1094 13.0024L65.3403 10.937C69.3503 10.7722 71.3828 9.81641 71.9541 8.65186H66.3511V6.58643H72.3057V5.00439H75.0742ZM96.5195 8.16846C96.5195 10.5854 97.9258 12.9146 101.09 13.9033L99.5957 16.0786C97.4753 15.3755 95.9922 14.0132 95.1353 12.2554C94.2673 14.2769 92.7183 15.8589 90.4331 16.6279L88.917 14.4307C92.2568 13.3101 93.6851 10.6514 93.707 7.90479V6.08105H96.5195V8.16846ZM105.089 5.02637V9.70654H107.792V12.0356H105.089V16.8916H102.276V5.02637H105.089ZM98.541 17.2871C102.672 17.2871 105.287 18.7153 105.287 21.1543C105.287 23.6152 102.672 25.0215 98.541 25.0215C94.3223 25.0215 91.6855 23.6152 91.6855 21.1543C91.6855 18.7153 94.3223 17.2871 98.541 17.2871ZM98.541 19.4844C95.9043 19.4844 94.4761 20.0557 94.498 21.1543C94.4761 22.2969 95.9043 22.8242 98.541 22.8242C101.134 22.8242 102.518 22.2969 102.518 21.1543C102.518 20.0557 101.134 19.4844 98.541 19.4844ZM124.535 5.02637V9.53076H127.237V11.8379H124.535V16.2544H121.722V5.02637H124.535ZM118.36 6.27881V8.49805H112.252V13.2661C115.866 13.2441 117.855 13.1123 120.096 12.6509L120.382 14.8481C117.877 15.4194 115.57 15.5073 111.131 15.5073H109.439V6.27881H118.36ZM124.535 17.0894V24.7798H111.461V17.0894H124.535ZM114.229 19.3086V22.5825H121.766V19.3086H114.229Z" fill="white"/>
<g opacity="0.8">
<path d="M236.65 196.659L90.1129 138.783C89.2539 138.444 88.6895 137.614 88.6895 136.691V132.44C88.6895 131.198 89.6968 130.19 90.9395 130.19H392.352C393.594 130.19 394.602 131.198 394.602 132.44V136.678C394.602 137.608 394.03 138.442 393.162 138.777L243.198 196.685C241.09 197.499 238.752 197.49 236.65 196.659Z" fill="#5F75DA"/>
<path opacity="0.6" d="M393.167 138.779L242.501 197.241C241.621 197.583 240.673 196.934 240.673 195.99V189.518C240.673 188.58 241.254 187.741 242.132 187.411L391.563 131.332C393.034 130.779 394.603 131.867 394.603 133.438V136.681C394.603 137.609 394.033 138.443 393.167 138.779Z" fill="#254598"/>
<path d="M90.3227 128.495C140.376 109.674 229.85 75.9934 239.485 72.22C240.029 72.007 240.582 72.0159 241.13 72.2189L392.858 128.482C394.809 129.206 394.817 131.963 392.87 132.697L242.412 189.443C241.036 189.962 239.518 189.957 238.145 189.43L90.3227 132.696C88.3906 131.955 88.3856 129.223 90.3227 128.495Z" fill="url(#paint0_linear_711_296)" stroke="url(#paint1_linear_711_296)" stroke-opacity="0.3" stroke-width="0.75"/>
</g>
<path d="M128 130H31.25C30.0074 130 29 128.993 29 127.75L29 34" stroke="#ABC5EF" stroke-dasharray="1.5 1.5"/>
<circle cx="5.84546" cy="5.84546" r="5.47046" transform="matrix(-1 0 0 1 133.691 124)" fill="#ABC5EF" stroke="#ABC5EF" stroke-width="0.75"/>
<defs>
<linearGradient id="paint0_linear_711_296" x1="241.646" y1="71.9023" x2="241.646" y2="190.248" gradientUnits="userSpaceOnUse">
<stop stop-color="#001B94"/>
<stop offset="1" stop-color="#254598"/>
</linearGradient>
<linearGradient id="paint1_linear_711_296" x1="241.646" y1="71.9023" x2="241.646" y2="190.248" gradientUnits="userSpaceOnUse">
<stop stop-color="white" stop-opacity="0.6"/>
<stop offset="1" stop-color="white"/>
</linearGradient>
</defs>
</svg>
