<svg width="542" height="404" viewBox="0 0 542 404" fill="none" xmlns="http://www.w3.org/2000/svg">
<circle cx="3.65614" cy="10.9999" r="3.65614" fill="#0222B4"/>
<path d="M19.0027 3.70075H20.0849V7.88337H19.0027V3.70075ZM19.0027 11.7296H20.0849V17.1553H19.0027V11.7296ZM17.9936 10.311V11.5395H21.1086V10.311H17.9936ZM17.9936 8.32211V9.55057H21.1086V8.32211H17.9936ZM16.9991 7.48851H22.1323V12.3731H16.9991V7.48851ZM16.5896 5.26558H22.4833V6.24542H16.5896V5.26558ZM16.4434 13.5869H22.4833V14.5668H16.4434V13.5869ZM23.2438 4.88534H28.6256V7.28377H27.6458V5.71894H23.2438V4.88534ZM22.4687 6.96203H29.8833V7.85413H22.4687V6.96203ZM22.3955 14.4498H29.9418V15.3419H22.3955V14.4498ZM25.0572 3.70075L26.0809 3.80312C26.0127 4.18336 25.9347 4.58798 25.8469 5.01696C25.7592 5.44595 25.6714 5.86031 25.5837 6.26005C25.496 6.65004 25.4131 6.99615 25.3351 7.29839H24.2967C24.3845 6.97665 24.4722 6.61104 24.56 6.20155C24.6575 5.78231 24.7452 5.35333 24.8232 4.91459C24.911 4.47585 24.989 4.07124 25.0572 3.70075ZM24.2675 9.3312V10.7498H28.0406V9.3312H24.2675ZM23.2438 8.5561H29.1082V11.5249H23.2438V8.5561ZM26.1102 11.2616H27.1339V17.1407H26.1102V11.2616ZM23.3608 12.3877H29.2983V13.1921H24.2967V14.9032H23.3608V12.3877ZM34.0074 6.64029H41.5245V7.62013H34.0074V6.64029ZM34.4169 9.71144H41.1735V10.662H34.4169V9.71144ZM33.8027 13.1336H41.8316V14.0696H33.8027V13.1336ZM37.181 6.9474H38.2193V13.6454H37.181V6.9474ZM39.126 11.3201L39.8426 10.9253C40.1254 11.1593 40.4032 11.4274 40.6762 11.7296C40.959 12.0319 41.1783 12.3 41.3343 12.534L40.5739 12.9873C40.4276 12.7533 40.218 12.4804 39.945 12.1684C39.672 11.8466 39.399 11.5639 39.126 11.3201ZM31.726 4.37348H43.8351V17.17H42.6798V5.3972H32.8375V17.17H31.726V4.37348ZM32.311 15.415H43.2063V16.4387H32.311V15.415Z" fill="#414141"/>
<circle cx="3.65614" cy="40.3124" r="3.65614" fill="#4D66DA"/>
<path d="M17.2467 35.6457H29.0341V42.5192H27.908V36.7133H18.3436V42.5923H17.2467V35.6457ZM17.8317 40.6034H28.5661V41.6856H17.8317V40.6034ZM22.5408 33.0279H23.6962V46.4678H22.5408V33.0279ZM34.0065 35.9528H41.5235V36.9326H34.0065V35.9528ZM34.416 39.0239H41.1725V39.9745H34.416V39.0239ZM33.8017 42.4461H41.8306V43.3821H33.8017V42.4461ZM37.18 36.2599H38.2183V42.9579H37.18V36.2599ZM39.1251 40.6326L39.8417 40.2378C40.1244 40.4718 40.4023 40.7399 40.6753 41.0421C40.958 41.3444 41.1774 41.6125 41.3334 41.8465L40.5729 42.2998C40.4266 42.0658 40.217 41.7929 39.944 41.4809C39.671 41.1591 39.398 40.8764 39.1251 40.6326ZM31.725 33.686H43.8342V46.4825H42.6788V34.7097H32.8365V46.4825H31.725V33.686ZM32.31 44.7275H43.2053V45.7512H32.31V44.7275Z" fill="#414141"/>
<circle cx="3.65614" cy="69.6249" r="3.65614" fill="#B0BEFF"/>
<path d="M21.3133 64.7534L22.3371 64.9289C22.0153 66.4596 21.5814 67.8831 21.0355 69.1993C20.4895 70.5058 19.8314 71.6075 19.0612 72.5044C19.0124 72.4459 18.9344 72.3728 18.8272 72.2851C18.7297 72.1973 18.6273 72.1096 18.52 72.0218C18.4128 71.9341 18.3202 71.8658 18.2422 71.8171C18.9929 70.9981 19.6218 69.9695 20.1287 68.7313C20.6455 67.4931 21.0403 66.1671 21.3133 64.7534ZM17.5987 72.9578H23.2876V73.9815H17.5987V72.9578ZM17.043 63.291H23.156V64.3147H18.0959V75.093H17.043V63.291ZM18.2129 66.7277L18.8564 66.055C19.3829 66.523 19.9143 67.0446 20.4505 67.6198C20.9867 68.1853 21.4791 68.7459 21.9276 69.3017C22.376 69.8476 22.7222 70.3449 22.9659 70.7934L22.2347 71.5831C21.9909 71.1346 21.6497 70.6227 21.211 70.0475C20.782 69.4723 20.3042 68.8971 19.7778 68.3218C19.2513 67.7368 18.7297 67.2055 18.2129 66.7277ZM24.209 64.9582H29.0351V65.9819H24.209V64.9582ZM26.1248 65.4408H26.6659V68.0586C26.6659 68.2926 26.6854 68.6143 26.7244 69.0238C26.7732 69.4333 26.8609 69.8915 26.9877 70.3985C27.1242 70.9055 27.3143 71.432 27.558 71.978C27.8115 72.5142 28.1332 73.026 28.5232 73.5135C28.9132 74.001 29.3958 74.43 29.9711 74.8005C29.9028 74.8785 29.8248 74.9711 29.7371 75.0784C29.6493 75.1954 29.5616 75.3124 29.4738 75.4294C29.3958 75.5463 29.3325 75.6487 29.2837 75.7365C28.7377 75.3757 28.2697 74.9467 27.8798 74.4495C27.4995 73.9523 27.1827 73.4404 26.9292 72.9139C26.6854 72.3874 26.4953 71.8902 26.3588 71.4222C26.2321 70.9542 26.1492 70.5691 26.1102 70.2669C26.0712 70.5789 25.9786 70.9689 25.8323 71.4368C25.6861 71.8951 25.4716 72.3826 25.1888 72.8993C24.9158 73.416 24.56 73.9279 24.1212 74.4349C23.6825 74.9321 23.1512 75.3709 22.5272 75.7511C22.4882 75.6731 22.4297 75.5756 22.3517 75.4586C22.2834 75.3514 22.2054 75.2392 22.1177 75.1222C22.0397 75.0052 21.9617 74.9126 21.8837 74.8444C22.5272 74.4739 23.0683 74.04 23.507 73.5428C23.9458 73.0455 24.3016 72.5288 24.5746 71.9926C24.8573 71.4563 25.067 70.9347 25.2035 70.4278C25.3497 69.9208 25.4472 69.4625 25.496 69.053C25.5545 68.6338 25.5837 68.3023 25.5837 68.0586V65.4408H26.1248ZM24.2675 62.3258L25.3643 62.5012C25.2473 63.3495 25.0913 64.1782 24.8963 64.9874C24.7111 65.7966 24.4917 66.5571 24.2382 67.2689C23.9945 67.9708 23.7069 68.5899 23.3754 69.1262C23.3071 69.0677 23.2194 68.9945 23.1122 68.9068C23.0049 68.8093 22.8928 68.7216 22.7758 68.6436C22.6588 68.5558 22.5564 68.4876 22.4687 68.4388C22.7904 67.9416 23.0634 67.3712 23.2876 66.7277C23.5216 66.0745 23.7166 65.3725 23.8726 64.6218C24.0384 63.8711 24.17 63.1057 24.2675 62.3258ZM28.6549 64.9582H28.8157L28.9912 64.8997L29.7371 65.1775C29.6591 65.626 29.5665 66.0891 29.4592 66.5669C29.3617 67.0446 29.2496 67.5077 29.1228 67.9562C29.0058 68.3949 28.8791 68.7801 28.7426 69.1115L27.9236 68.6874C28.0211 68.3754 28.1137 68.0245 28.2015 67.6345C28.299 67.2347 28.3867 66.8204 28.4647 66.3914C28.5427 65.9624 28.6061 65.5578 28.6549 65.1775V64.9582ZM31.3165 67.9708H44.23V69.0677H31.3165V67.9708ZM37.181 62.355H38.3363V75.795H37.181V62.355ZM42.3581 63.057L43.5426 63.5396C43.3087 63.9491 43.0552 64.3781 42.7822 64.8266C42.5092 65.275 42.2313 65.704 41.9486 66.1135C41.6658 66.523 41.4026 66.8789 41.1588 67.1811L40.2229 66.7424C40.4666 66.4206 40.7201 66.0453 40.9834 65.6163C41.2466 65.1873 41.5001 64.7486 41.7438 64.3001C41.9876 63.8516 42.1923 63.4372 42.3581 63.057ZM32.1647 63.6127L33.1592 63.1886C33.4517 63.5298 33.7344 63.9052 34.0074 64.3147C34.2804 64.7242 34.5242 65.1288 34.7387 65.5285C34.9629 65.9283 35.1335 66.2841 35.2505 66.5961L34.1683 67.0787C34.0708 66.7667 33.9148 66.4109 33.7003 66.0111C33.4956 65.6114 33.2567 65.2019 32.9837 64.7827C32.7205 64.3634 32.4475 63.9735 32.1647 63.6127ZM36.6399 68.5119L37.5905 68.8922C37.259 69.5162 36.869 70.1304 36.4205 70.7349C35.9818 71.3394 35.504 71.9146 34.9873 72.4606C34.4803 73.0065 33.9538 73.5038 33.4078 73.9523C32.8716 74.4008 32.3354 74.7907 31.7991 75.1222C31.7309 75.0345 31.648 74.9321 31.5505 74.8151C31.4628 74.6981 31.3653 74.586 31.258 74.4788C31.1605 74.3715 31.0679 74.2789 30.9802 74.2009C31.5164 73.9181 32.0526 73.572 32.5889 73.1625C33.1251 72.7433 33.6418 72.2802 34.1391 71.7732C34.646 71.2662 35.114 70.7397 35.543 70.1938C35.972 69.638 36.3376 69.0774 36.6399 68.5119ZM38.8335 68.4534C39.1455 68.9994 39.5209 69.5454 39.9596 70.0914C40.3984 70.6374 40.8761 71.159 41.3928 71.6562C41.9096 72.1535 42.4409 72.6068 42.9869 73.0163C43.5426 73.4258 44.0886 73.7719 44.6249 74.0546C44.5274 74.1229 44.425 74.2155 44.3177 74.3325C44.2203 74.4398 44.1228 74.5519 44.0253 74.6689C43.9278 74.7859 43.8498 74.8931 43.7913 74.9906C43.2453 74.6689 42.6944 74.2838 42.1387 73.8353C41.5927 73.377 41.0613 72.8798 40.5446 72.3436C40.0279 71.7976 39.5404 71.2321 39.0822 70.6471C38.6337 70.0524 38.2388 69.4528 37.8976 68.8483L38.8335 68.4534Z" fill="#414141"/>
<circle cx="3.65614" cy="98.9374" r="3.65614" fill="#B0BEFF"/>
<path d="M19.0017 103.396H27.2353V104.449H19.0017V103.396ZM18.4898 98.8628H27.8203V105.078H26.6503V99.9157H19.6159V105.107H18.4898V98.8628ZM21.4294 91.5944L22.6432 92.0185C22.3507 92.584 22.0241 93.1738 21.6633 93.7881C21.3124 94.3925 20.9565 94.9775 20.5958 95.543C20.235 96.0987 19.8889 96.5911 19.5574 97.0201L18.5922 96.6106C18.9237 96.1816 19.2649 95.6795 19.6159 95.1043C19.9669 94.5193 20.2984 93.9197 20.6104 93.3055C20.9321 92.6912 21.2051 92.1209 21.4294 91.5944ZM24.9539 93.9636L25.8167 93.3347C26.314 93.7247 26.8209 94.1634 27.3377 94.6509C27.8544 95.1286 28.3273 95.6161 28.7563 96.1134C29.195 96.6009 29.5411 97.0445 29.7946 97.4442L28.844 98.1754C28.61 97.7757 28.2785 97.3272 27.8495 96.83C27.4303 96.3327 26.9672 95.8355 26.4602 95.3383C25.9532 94.8313 25.4511 94.373 24.9539 93.9636ZM16.7641 96.1426C17.4563 96.1231 18.2461 96.0987 19.1333 96.0695C20.0205 96.0305 20.9662 95.9915 21.9705 95.9525C22.9844 95.9135 24.0179 95.8696 25.0709 95.8209C26.1336 95.7721 27.1817 95.7283 28.2151 95.6893L28.1566 96.7422C27.1329 96.8007 26.0995 96.8543 25.0562 96.9031C24.0228 96.9421 23.0088 96.986 22.0143 97.0347C21.0199 97.0835 20.0839 97.1273 19.2064 97.1663C18.3289 97.1956 17.5441 97.2248 16.8519 97.2541L16.7641 96.1426ZM40.3096 93.6857H41.3041V96.6106C41.3041 96.8446 41.2797 97.025 41.231 97.1517C41.1822 97.2785 41.0701 97.376 40.8946 97.4442C40.7289 97.5222 40.5144 97.5661 40.2511 97.5758C39.9977 97.5856 39.6857 97.5904 39.3152 97.5904C39.2957 97.4637 39.2518 97.3272 39.1836 97.181C39.1251 97.025 39.0617 96.8836 38.9934 96.7568C39.2664 96.7666 39.5053 96.7715 39.71 96.7715C39.9148 96.7715 40.0513 96.7666 40.1195 96.7568C40.2463 96.7568 40.3096 96.7032 40.3096 96.596V93.6857ZM41.8013 94.841L42.5911 94.3877C42.8446 94.6022 43.0932 94.841 43.3369 95.1043C43.5904 95.3578 43.8195 95.6161 44.0243 95.8794C44.229 96.1329 44.3899 96.3669 44.5069 96.5814L43.6587 97.0932C43.5514 96.869 43.3954 96.6252 43.1907 96.362C42.9859 96.0987 42.7617 95.8355 42.518 95.5723C42.284 95.2993 42.0451 95.0555 41.8013 94.841ZM35.9808 101.656H43.1468V102.534H35.9808V101.656ZM36.3756 99.8134H42.2986V98.7312H35.2934V97.8829H43.3516V100.676H36.3756V99.8134ZM36.01 99.8134H37.0922C37.0045 100.174 36.907 100.549 36.7998 100.939C36.6925 101.329 36.5853 101.71 36.478 102.08C36.3708 102.441 36.2684 102.768 36.1709 103.06L35.1326 102.899C35.2886 102.48 35.4445 101.988 35.6005 101.422C35.7663 100.847 35.9028 100.311 36.01 99.8134ZM42.8543 101.656H43.9512C43.9512 101.656 43.9463 101.715 43.9365 101.832C43.9268 101.949 43.9073 102.046 43.878 102.124C43.7318 102.914 43.5758 103.513 43.4101 103.923C43.2541 104.323 43.0737 104.615 42.8689 104.8C42.7324 104.898 42.5862 104.966 42.4302 105.005C42.284 105.054 42.1036 105.083 41.8891 105.093C41.7136 105.103 41.4504 105.107 41.0994 105.107C40.7484 105.107 40.373 105.093 39.9733 105.064C39.9635 104.927 39.9343 104.771 39.8855 104.596C39.8368 104.42 39.7734 104.264 39.6954 104.128C40.0757 104.167 40.4364 104.191 40.7776 104.201C41.1189 104.21 41.3529 104.215 41.4796 104.215C41.6259 104.215 41.738 104.206 41.816 104.186C41.9037 104.176 41.9817 104.147 42.05 104.098C42.1962 103.981 42.3327 103.743 42.4595 103.382C42.596 103.021 42.7276 102.49 42.8543 101.788V101.656ZM35.0741 92.9983H44.4338V93.9197H35.0741V92.9983ZM39.0666 91.6383H40.1634V93.4956H39.0666V91.6383ZM36.2733 94.3438L37.1946 94.5924C36.9704 95.0506 36.6779 95.4991 36.3171 95.9379C35.9662 96.3669 35.6054 96.7325 35.2349 97.0347C35.1862 96.9762 35.1131 96.9128 35.0156 96.8446C34.9181 96.7666 34.8157 96.6935 34.7084 96.6252C34.6109 96.5472 34.5232 96.4887 34.4452 96.4497C34.8254 96.1767 35.1716 95.8599 35.4835 95.4991C35.8053 95.1286 36.0685 94.7435 36.2733 94.3438ZM31.7689 92.5742L32.3978 91.7845C32.6903 91.9112 32.9974 92.0672 33.3191 92.2525C33.6409 92.428 33.9382 92.6132 34.2112 92.8082C34.4939 92.9935 34.7231 93.169 34.8986 93.3347L34.2551 94.2414C34.0796 94.0659 33.8505 93.8758 33.5677 93.6711C33.2947 93.4663 33.0022 93.2713 32.6903 93.0861C32.3783 92.8911 32.0711 92.7205 31.7689 92.5742ZM31.0231 96.5229L31.6373 95.7039C31.9298 95.8209 32.2369 95.9622 32.5586 96.128C32.8804 96.2937 33.1826 96.4692 33.4654 96.6545C33.7578 96.83 33.9918 97.0006 34.1673 97.1663L33.5385 98.0584C33.363 97.8927 33.1339 97.7172 32.8511 97.5319C32.5684 97.3467 32.2661 97.1663 31.9444 96.9908C31.6324 96.8056 31.3253 96.6496 31.0231 96.5229ZM31.4179 104.245C31.6519 103.864 31.9054 103.416 32.1784 102.899C32.4514 102.373 32.7293 101.817 33.012 101.232C33.2947 100.647 33.558 100.081 33.8017 99.5355L34.6646 100.194C34.4501 100.701 34.2112 101.232 33.948 101.788C33.6945 102.343 33.4312 102.889 33.1582 103.426C32.895 103.962 32.6366 104.459 32.3831 104.917L31.4179 104.245ZM37.9843 93.5687H38.9788V94.7825C38.9788 95.1043 38.9301 95.4553 38.8326 95.8355C38.7448 96.206 38.5644 96.5716 38.2915 96.9323C38.0282 97.2833 37.6285 97.6002 37.0922 97.8829C37.0337 97.8244 36.9557 97.7611 36.8583 97.6928C36.7705 97.6148 36.6779 97.5417 36.5804 97.4734C36.4829 97.4052 36.3903 97.3467 36.3025 97.298C36.79 97.064 37.1507 96.8007 37.3847 96.5082C37.6285 96.206 37.7893 95.9037 37.8673 95.6015C37.9453 95.2895 37.9843 95.0068 37.9843 94.7533V93.5687Z" fill="#414141"/>
<circle cx="3.65614" cy="128.25" r="3.65614" fill="#B0BEFF"/>
<path d="M16.809 122.355H29.5908V123.393H16.809V122.355ZM22.5564 120.98H23.6825V134.42H22.5564V120.98ZM22.2054 129.345L23.1268 129.755C22.7855 130.213 22.3858 130.661 21.9276 131.1C21.4693 131.539 20.977 131.953 20.4505 132.343C19.9337 132.724 19.3975 133.07 18.8418 133.382C18.286 133.694 17.7401 133.962 17.2038 134.186C17.1453 134.098 17.0722 133.996 16.9845 133.879C16.8967 133.762 16.8041 133.645 16.7066 133.528C16.6189 133.421 16.5311 133.333 16.4434 133.265C16.9698 133.079 17.5061 132.85 18.0521 132.577C18.6078 132.295 19.144 131.983 19.6608 131.641C20.1775 131.29 20.6552 130.92 21.094 130.53C21.5327 130.14 21.9032 129.745 22.2054 129.345ZM24.0481 129.36C24.3699 129.769 24.7501 130.169 25.1888 130.559C25.6373 130.939 26.1248 131.305 26.6513 131.656C27.1778 131.997 27.7189 132.309 28.2746 132.592C28.8304 132.865 29.3763 133.089 29.9126 133.265C29.8346 133.343 29.7468 133.435 29.6493 133.542C29.5518 133.659 29.4592 133.776 29.3715 133.893C29.2837 134.01 29.2057 134.118 29.1375 134.215C28.6012 134.001 28.0504 133.733 27.4849 133.411C26.9292 133.099 26.3832 132.748 25.8469 132.358C25.3205 131.968 24.8281 131.554 24.3699 131.115C23.9116 130.676 23.507 130.228 23.156 129.769L24.0481 129.36ZM19.1489 127.707V129.126H27.2801V127.707H19.1489ZM19.1489 125.499V126.888H27.2801V125.499H19.1489ZM18.0813 124.622H28.4062V130.003H18.0813V124.622ZM31.3458 122.428H44.23V123.466H31.3458V122.428ZM34.3584 128.307H41.2905V129.199H34.3584V128.307ZM34.0513 130.676H41.5537V131.597H34.0513V130.676ZM37.2102 128.731H38.2632V134.142H37.2102V128.731ZM32.1355 125.016H42.709V126.025H33.247V134.405H32.1355V125.016ZM42.3434 125.016H43.4549V133.133C43.4549 133.455 43.411 133.698 43.3233 133.864C43.2355 134.04 43.0698 134.166 42.826 134.244C42.5823 134.322 42.2508 134.371 41.8316 134.391C41.4123 134.41 40.9054 134.42 40.3106 134.42C40.2911 134.274 40.2424 134.108 40.1644 133.923C40.0864 133.737 40.0084 133.577 39.9304 133.44C40.2424 133.45 40.5397 133.455 40.8225 133.455C41.1052 133.464 41.3538 133.464 41.5683 133.455C41.7828 133.455 41.9291 133.455 42.0071 133.455C42.1436 133.445 42.2313 133.416 42.2703 133.367C42.3191 133.328 42.3434 133.25 42.3434 133.133V125.016ZM35.1043 126.523L35.9671 126.245C36.1621 126.498 36.3474 126.791 36.5229 127.122C36.6984 127.444 36.8251 127.727 36.9031 127.971L35.9818 128.292C35.9135 128.049 35.7965 127.761 35.6308 127.429C35.465 127.088 35.2895 126.786 35.1043 126.523ZM39.5648 126.216L40.5154 126.508C40.3204 126.888 40.1156 127.269 39.9011 127.649C39.6866 128.029 39.4819 128.356 39.2869 128.629L38.5118 128.38C38.6288 128.175 38.7507 127.946 38.8774 127.693C39.0139 127.439 39.1407 127.186 39.2577 126.932C39.3844 126.669 39.4868 126.43 39.5648 126.216ZM37.1663 120.965H38.3802V125.689H37.1663V120.965ZM47.078 132.707C49.9915 132.065 51.134 130.479 51.134 126.966V124.924H52.1766V126.966C52.1766 130.865 50.7342 132.922 47.5208 133.593L47.078 132.707ZM46.4925 124.053V123.11H57.875V124.053C57.3466 126.523 55.8613 128.28 53.5048 129.137L52.9764 128.223C55.1044 127.416 56.2969 126.095 56.7325 124.053H46.4925ZM60.6886 132.407C66.4584 132.265 69.4576 129.908 70.2431 124.909L71.2856 125.052C70.4002 130.579 67.0582 133.25 60.8314 133.436L60.6886 132.407ZM64.7446 127.894C63.0308 127.48 61.6597 127.237 60.1173 127.037L60.3172 126.095C61.8882 126.295 63.2593 126.538 64.9588 126.952L64.7446 127.894ZM65.5444 124.61C63.7877 124.21 62.3595 123.938 60.7171 123.753L60.9314 122.81C62.5738 122.996 64.0305 123.253 65.7729 123.653L65.5444 124.61ZM69.5861 124.438C69.1005 123.41 68.6578 122.681 68.1151 121.967L68.8863 121.468C69.4861 122.253 69.9432 123.039 70.4002 124.01L69.5861 124.438ZM71.6284 124.252C71.1714 123.21 70.7572 122.467 70.2574 121.739L71.0286 121.282C71.5998 122.096 72.014 122.881 72.4425 123.881L71.6284 124.252ZM74.4991 132.707C77.4125 132.065 78.5551 130.479 78.5551 126.966V124.924H79.5976V126.966C79.5976 130.865 78.1552 132.922 74.9418 133.593L74.4991 132.707ZM73.9135 124.053V123.11H85.2961V124.053C84.7677 126.523 83.2823 128.28 80.9259 129.137L80.3974 128.223C82.5254 127.416 83.7179 126.095 84.1535 124.053H73.9135Z" fill="#414141"/>
<circle cx="3.65614" cy="157.56" r="3.65614" fill="#B0BEFF"/>
<path d="M24.7118 162.76C21.7983 162.76 20.113 161.789 20.113 160.076C20.113 159.047 20.7271 158.155 21.8411 157.505L16.8996 157.905L16.8568 156.991C20.2059 156.312 23.505 154.798 25.2688 153.12H18.4421V152.192H26.8826V153.12C25.5115 154.491 22.8908 155.984 20.3415 156.862L28.2965 156.205L28.3251 157.133L25.5544 157.333C22.7694 157.548 21.227 158.49 21.227 159.89C21.227 161.147 22.4552 161.832 24.7689 161.832C25.483 161.832 26.0971 161.761 26.9826 161.618L27.1111 162.532C26.2542 162.689 25.5401 162.76 24.7118 162.76ZM37.7225 161.647C39.7933 161.418 41.3215 159.618 41.3215 157.333C41.3215 154.977 39.6362 153.377 37.1226 153.263C36.4085 159.304 35.166 162.232 33.2523 162.232C31.7098 162.232 30.4673 160.39 30.4673 158.105C30.4673 154.763 33.1809 152.292 36.8513 152.292C40.079 152.292 42.3641 154.263 42.3641 157.333C42.3641 160.133 40.5217 162.332 37.9938 162.603L37.7225 161.647ZM31.4528 158.105C31.4528 159.704 32.2954 161.161 33.1951 161.161C34.4234 161.161 35.4945 158.262 36.0658 153.306C33.4165 153.634 31.4528 155.627 31.4528 158.105ZM52.331 150.305H53.3694V160.469H52.331V150.305ZM47.2271 156.316L56.031 152.908L56.4405 153.874L47.6512 157.296L47.2271 156.316ZM49.0844 151.738H50.1666V161.508C50.1666 161.79 50.1958 162.005 50.2543 162.151C50.3128 162.297 50.4298 162.4 50.6053 162.458C50.7906 162.507 51.0538 162.531 51.3951 162.531C51.4926 162.531 51.6632 162.531 51.9069 162.531C52.1604 162.531 52.4431 162.531 52.7551 162.531C53.0671 162.531 53.384 162.531 53.7057 162.531C54.0275 162.531 54.3151 162.531 54.5686 162.531C54.8318 162.531 55.0268 162.531 55.1536 162.531C55.4558 162.531 55.6849 162.478 55.8409 162.37C55.9969 162.253 56.109 162.044 56.1773 161.742C56.2455 161.43 56.2943 160.986 56.3235 160.411C56.46 160.498 56.6258 160.586 56.8208 160.674C57.0158 160.752 57.1913 160.81 57.3472 160.849C57.2887 161.522 57.1913 162.058 57.0548 162.458C56.928 162.848 56.7184 163.126 56.4259 163.292C56.1432 163.458 55.7288 163.54 55.1828 163.54C55.1048 163.54 54.9342 163.54 54.671 163.54C54.4175 163.54 54.1201 163.54 53.7789 163.54C53.4376 163.54 53.0964 163.54 52.7551 163.54C52.4236 163.54 52.1263 163.54 51.863 163.54C51.6095 163.54 51.4438 163.54 51.3658 163.54C50.7808 163.54 50.3177 163.482 49.9765 163.365C49.645 163.248 49.411 163.043 49.2745 162.751C49.1477 162.458 49.0844 162.044 49.0844 161.508V151.738ZM55.6508 153.157H55.5338L55.7824 152.938L55.9872 152.777L56.7476 153.084L56.6891 153.274C56.6891 154.151 56.6843 154.961 56.6745 155.702C56.6648 156.443 56.6453 157.071 56.616 157.588C56.5965 158.095 56.5624 158.456 56.5136 158.67C56.4551 159.002 56.3479 159.246 56.1919 159.402C56.0457 159.558 55.8604 159.67 55.6362 159.738C55.4314 159.787 55.1877 159.821 54.9049 159.84C54.6222 159.85 54.3687 159.85 54.1445 159.84C54.1347 159.684 54.1055 159.509 54.0567 159.314C54.008 159.109 53.9495 158.943 53.8812 158.817C54.086 158.826 54.3005 158.831 54.5247 158.831C54.749 158.831 54.9049 158.831 54.9927 158.831C55.1194 158.831 55.2218 158.807 55.2998 158.758C55.3876 158.709 55.4558 158.588 55.5046 158.393C55.5436 158.237 55.5728 157.929 55.5923 157.471C55.6118 157.003 55.6264 156.408 55.6362 155.687C55.6459 154.956 55.6508 154.112 55.6508 153.157ZM47.1539 150.334L48.1777 150.642C47.8657 151.461 47.4952 152.275 47.0662 153.084C46.6372 153.883 46.1741 154.639 45.6769 155.351C45.1796 156.053 44.6678 156.677 44.1413 157.223C44.112 157.145 44.0584 157.037 43.9804 156.901C43.9122 156.764 43.8342 156.628 43.7464 156.491C43.6684 156.355 43.5953 156.248 43.527 156.17C44.0145 155.692 44.4825 155.141 44.931 154.517C45.3795 153.893 45.7939 153.225 46.1741 152.513C46.5641 151.792 46.8907 151.066 47.1539 150.334ZM45.6037 154.093L46.6713 153.04L46.686 153.055V163.701H45.6037V154.093Z" fill="#414141"/>
<path d="M485.717 160.729C482.857 123.844 466.118 89.4152 438.875 64.3854C411.631 39.3556 375.91 25.5867 338.916 25.8554L339.234 69.7075C365.13 69.5194 390.135 79.1576 409.205 96.6785C428.276 114.199 439.993 138.3 441.995 164.119L485.717 160.729Z" fill="#0222B4"/>
<path d="M485.717 160.354C487.97 189.413 481.485 218.482 467.095 243.827C452.704 269.173 431.066 289.638 404.958 302.594L385.464 263.312C403.739 254.243 418.886 239.917 428.959 222.175C439.033 204.433 443.572 184.085 441.995 163.744L485.717 160.354Z" fill="#4D66DA"/>
<path d="M194.438 158.008C197.907 121.012 215.334 86.7265 243.177 62.1203L272.217 94.9804C252.727 112.205 240.528 136.205 238.1 162.102L194.438 158.008Z" fill="#B0BEFF"/>
<path d="M404.773 302.686C380.455 314.711 353.271 319.732 326.262 317.187C299.253 314.641 273.485 304.63 251.842 288.273L278.283 253.288C293.433 264.737 311.47 271.745 330.377 273.527C349.283 275.309 368.312 271.794 385.334 263.376L404.773 302.686Z" fill="#7389F1"/>
<path d="M252.622 288.859C232.012 273.497 215.816 252.972 205.669 229.353C195.523 205.735 191.784 179.858 194.83 154.334L238.374 159.53C236.242 177.397 238.859 195.511 245.962 212.044C253.064 228.577 264.401 242.944 278.829 253.697L252.622 288.859Z" fill="#96A8FF"/>
<path d="M242.605 62.6292C269.295 38.7913 303.802 25.5723 339.588 25.4771L339.705 69.3301C314.655 69.3968 290.5 78.6501 271.816 95.3366L242.605 62.6292Z" fill="#CAD3FF"/>
<path d="M498.257 155.675C495.267 117.285 477.771 81.4508 449.295 55.3995C420.82 29.3481 383.484 15.0173 344.815 15.297" stroke="#0222B4" stroke-width="4.35294" stroke-linecap="square"/>
<path d="M497.799 163.977C500.154 194.212 493.375 224.458 478.331 250.83C463.288 277.202 440.667 298.496 413.374 311.977" stroke="#4D66DA" stroke-width="4.35294"/>
<path d="M183.756 153.095C187.241 116.147 204.751 81.9047 232.726 57.3301" stroke="#B0BEFF" stroke-width="4.35294"/>
<path d="M409.02 313.775C383.064 326.172 354.048 331.348 325.219 328.724C296.39 326.1 268.886 315.78 245.785 298.918" stroke="#7389F1" stroke-width="4.35294"/>
<path d="M241.433 294.564C220.842 279.155 204.663 258.566 194.526 234.875C184.389 211.183 180.654 185.227 183.697 159.623" stroke="#96A8FF" stroke-width="4.35294"/>
<path d="M237.08 52.9769C264.633 28.5384 300.256 14.9863 337.198 14.8887" stroke="#CAD3FF" stroke-width="4.35294"/>
<path d="M300.455 179L300.429 176.22L307.061 170.124C308.795 168.466 309.713 167.446 309.713 165.992C309.713 164.36 308.463 163.34 306.78 163.34C305.046 163.34 303.923 164.436 303.923 166.196H300.276C300.251 162.574 302.929 160.279 306.831 160.279C310.784 160.279 313.411 162.523 313.411 165.737C313.411 167.829 312.391 169.563 308.591 173.006L305.785 175.735V175.837H313.666V179H300.455ZM323.563 179.255C318.946 179.255 316.141 175.812 316.141 169.767C316.141 163.722 318.946 160.279 323.563 160.279C328.179 160.279 330.985 163.748 330.985 169.767C330.985 175.837 328.179 179.255 323.563 179.255ZM323.563 176.092C325.705 176.092 327.082 174.026 327.057 169.767C327.057 165.559 325.705 163.416 323.563 163.416C321.42 163.416 320.068 165.559 320.068 169.767C320.043 174.026 321.42 176.092 323.563 176.092ZM333.637 179L333.612 176.22L340.243 170.124C341.978 168.466 342.896 167.446 342.896 165.992C342.896 164.36 341.646 163.34 339.963 163.34C338.228 163.34 337.106 164.436 337.106 166.196H333.459C333.433 162.574 336.111 160.279 340.014 160.279C343.967 160.279 346.594 162.523 346.594 165.737C346.594 167.829 345.574 169.563 341.774 173.006L338.968 175.735V175.837H346.849V179H333.637ZM348.864 175.735V172.7L356.669 160.534H361.489V172.649H363.836V175.735H361.489V179H357.842V175.735H348.864ZM352.741 172.649H357.893V164.742H357.715L352.741 172.496V172.649ZM371.359 156.696L374.571 157.531C374.101 158.82 373.544 160.082 372.9 161.318C372.273 162.555 371.585 163.704 370.836 164.766C370.105 165.811 369.348 166.725 368.564 167.508C368.355 167.334 368.085 167.116 367.754 166.855C367.424 166.577 367.084 166.316 366.736 166.072C366.405 165.828 366.109 165.628 365.848 165.471C366.649 164.792 367.398 163.991 368.094 163.068C368.79 162.128 369.417 161.118 369.974 160.039C370.532 158.942 370.993 157.827 371.359 156.696ZM371.933 159.673H388.544V162.703H370.418L371.933 159.673ZM370.079 165.863H387.917V168.788H373.213V174.273H370.079V165.863ZM365.926 172.732H389.954V175.735H365.926V172.732ZM377.758 161.24H380.996V181.351H377.758V161.24Z" fill="#414141"/>
<path d="M488.314 256.986V269.021H485.804V259.363H485.737L482.978 261.092V258.881L485.953 256.986H488.314ZM495.628 269.188C492.885 269.188 490.907 267.741 490.907 265.78C490.907 264.267 492.071 263.037 493.567 262.804V262.721C492.27 262.472 491.373 261.375 491.373 260.061C491.373 258.183 493.168 256.82 495.628 256.82C498.089 256.82 499.884 258.183 499.901 260.061C499.884 261.391 498.97 262.472 497.706 262.721V262.804C499.169 263.037 500.349 264.267 500.349 265.78C500.349 267.741 498.371 269.188 495.628 269.188ZM495.628 267.276C496.892 267.276 497.74 266.561 497.74 265.53C497.74 264.483 496.858 263.719 495.628 263.719C494.398 263.719 493.5 264.483 493.517 265.53C493.5 266.561 494.348 267.276 495.628 267.276ZM495.628 261.956C496.692 261.956 497.457 261.275 497.457 260.311C497.457 259.38 496.709 258.715 495.628 258.715C494.548 258.715 493.816 259.363 493.816 260.311C493.816 261.275 494.564 261.956 495.628 261.956ZM503.176 269.171C502.394 269.171 501.762 268.539 501.779 267.775C501.762 267.01 502.394 266.395 503.176 266.395C503.907 266.395 504.555 267.01 504.555 267.775C504.555 268.539 503.907 269.171 503.176 269.171ZM510.689 256.82C513.183 256.836 515.544 258.316 515.544 262.688C515.56 266.777 513.615 269.188 510.59 269.188C508.163 269.188 506.517 267.675 506.268 265.63H508.728C508.927 266.511 509.626 267.043 510.59 267.043C512.235 267.043 513.1 265.58 513.1 263.17H513C512.435 264.234 511.255 264.866 509.908 264.866C507.747 264.866 506.151 263.236 506.135 260.992C506.135 258.565 507.963 256.803 510.689 256.82ZM510.706 258.781C509.476 258.781 508.562 259.729 508.578 260.926C508.578 262.106 509.459 263.037 510.689 263.037C511.903 263.037 512.851 262.073 512.851 260.909C512.834 259.762 511.936 258.781 510.706 258.781ZM520.398 263.004C518.602 263.004 517.622 261.69 517.622 259.795C517.622 257.884 518.636 256.57 520.398 256.57C522.21 256.57 523.157 257.884 523.174 259.795C523.157 261.707 522.176 263.004 520.398 263.004ZM520.398 261.524C521.113 261.524 521.462 260.826 521.478 259.795C521.462 258.765 521.146 258.05 520.398 258.05C519.683 258.05 519.317 258.781 519.317 259.795C519.317 260.826 519.7 261.524 520.398 261.524ZM528.51 269.42C526.731 269.42 525.751 268.107 525.751 266.212C525.751 264.3 526.765 262.987 528.51 262.987C530.322 262.987 531.286 264.3 531.303 266.212C531.286 268.124 530.305 269.42 528.51 269.42ZM528.51 267.941C529.242 267.941 529.591 267.259 529.607 266.212C529.591 265.181 529.275 264.467 528.51 264.483C527.812 264.483 527.446 265.198 527.446 266.212C527.446 267.259 527.829 267.941 528.51 267.941ZM519.35 269.021L527.629 256.986H529.491L521.212 269.021H519.35Z" fill="#4D66DA"/>
<path d="M455.83 37.2344L455.814 35.4224L460.136 31.4493C461.266 30.3688 461.865 29.7038 461.865 28.7563C461.865 27.6923 461.05 27.0274 459.953 27.0274C458.823 27.0274 458.091 27.7422 458.091 28.8892H455.714C455.697 26.5287 457.443 25.0325 459.986 25.0325C462.563 25.0325 464.275 26.4954 464.275 28.59C464.275 29.9532 463.61 31.0836 461.133 33.3278L459.305 35.1065V35.173H464.441V37.2344H455.83ZM470.675 37.4006C468.032 37.4006 466.137 35.9377 466.087 33.8431H468.614C468.664 34.7408 469.528 35.3393 470.692 35.3393C471.889 35.3393 472.753 34.6577 472.737 33.6935C472.753 32.7127 471.872 32.0145 470.459 32.0145H469.345V30.1693H470.459C471.64 30.1693 472.471 29.5209 472.471 28.5734C472.471 27.6591 471.773 27.0274 470.709 27.0274C469.645 27.0274 468.764 27.6258 468.73 28.5401H466.337C466.37 26.4622 468.248 25.0325 470.709 25.0325C473.219 25.0325 474.898 26.512 474.881 28.4238C474.898 29.7703 473.95 30.7345 472.604 30.9672V31.067C474.366 31.2831 475.347 32.3636 475.33 33.8597C475.347 35.9211 473.385 37.4006 470.675 37.4006ZM478.206 37.384C477.425 37.384 476.793 36.7523 476.81 35.9876C476.793 35.2229 477.425 34.6078 478.206 34.6078C478.937 34.6078 479.586 35.2229 479.586 35.9876C479.586 36.7523 478.937 37.384 478.206 37.384ZM485.72 25.0325C488.213 25.0492 490.574 26.5287 490.574 30.9007C490.591 34.9902 488.646 37.4006 485.62 37.4006C483.193 37.4006 481.547 35.8878 481.298 33.8431H483.758C483.958 34.7242 484.656 35.2561 485.62 35.2561C487.266 35.2561 488.13 33.7933 488.13 31.3828H488.031C487.465 32.4467 486.285 33.0784 484.939 33.0784C482.777 33.0784 481.182 31.4493 481.165 29.2051C481.165 26.778 482.994 25.0159 485.72 25.0325ZM485.737 26.9941C484.506 26.9941 483.592 27.9417 483.609 29.1386C483.609 30.3189 484.49 31.2498 485.72 31.2498C486.933 31.2498 487.881 30.2856 487.881 29.122C487.864 27.9749 486.967 26.9941 485.737 26.9941ZM495.428 31.2166C493.633 31.2166 492.652 29.9033 492.652 28.0082C492.652 26.0964 493.666 24.7832 495.428 24.7832C497.24 24.7832 498.188 26.0964 498.204 28.0082C498.188 29.9199 497.207 31.2166 495.428 31.2166ZM495.428 29.7371C496.143 29.7371 496.492 29.0389 496.509 28.0082C496.492 26.9775 496.176 26.2627 495.428 26.2627C494.713 26.2627 494.348 26.9941 494.348 28.0082C494.348 29.0389 494.73 29.7371 495.428 29.7371ZM503.541 37.6333C501.762 37.6333 500.781 36.3201 500.781 34.425C500.781 32.5132 501.795 31.1999 503.541 31.1999C505.353 31.1999 506.317 32.5132 506.333 34.425C506.317 36.3367 505.336 37.6333 503.541 37.6333ZM503.541 36.1538C504.272 36.1538 504.621 35.4723 504.638 34.425C504.621 33.3943 504.305 32.6795 503.541 32.6961C502.842 32.6961 502.477 33.4109 502.477 34.425C502.477 35.4723 502.859 36.1538 503.541 36.1538ZM494.381 37.2344L502.66 25.1988H504.521L496.243 37.2344H494.381Z" fill="#4D66DA"/>
<path d="M156.37 254.859V266.895H153.86V257.236H153.794L151.034 258.965V256.754L154.01 254.859H156.37ZM163.818 267.061C161.324 267.044 158.964 265.565 158.964 261.159C158.964 257.103 160.909 254.693 163.918 254.693C166.345 254.693 167.991 256.222 168.24 258.2H165.78C165.58 257.352 164.882 256.837 163.918 256.837C162.289 256.837 161.424 258.317 161.408 260.677H161.524C162.072 259.613 163.269 258.982 164.599 258.982C166.76 258.982 168.373 260.611 168.373 262.872C168.373 265.315 166.528 267.077 163.818 267.061ZM163.801 265.083C165.031 265.083 165.946 264.152 165.946 262.938C165.946 261.741 165.065 260.794 163.835 260.794C162.604 260.794 161.673 261.758 161.657 262.938C161.673 264.118 162.571 265.083 163.801 265.083ZM171.066 267.044C170.285 267.044 169.653 266.412 169.67 265.648C169.653 264.883 170.285 264.268 171.066 264.268C171.797 264.268 172.446 264.883 172.446 265.648C172.446 266.412 171.797 267.044 171.066 267.044ZM174.208 264.767V262.788L179.295 254.859H182.437V262.755H183.966V264.767H182.437V266.895H180.059V264.767H174.208ZM176.735 262.755H180.093V257.602H179.976L176.735 262.655V262.755ZM188.754 260.877C186.958 260.877 185.977 259.563 185.977 257.668C185.977 255.757 186.991 254.443 188.754 254.443C190.566 254.443 191.513 255.757 191.53 257.668C191.513 259.58 190.532 260.877 188.754 260.877ZM188.754 259.397C189.468 259.397 189.818 258.699 189.834 257.668C189.818 256.638 189.502 255.923 188.754 255.923C188.039 255.923 187.673 256.654 187.673 257.668C187.673 258.699 188.055 259.397 188.754 259.397ZM196.866 267.294C195.087 267.294 194.106 265.98 194.106 264.085C194.106 262.173 195.121 260.86 196.866 260.86C198.678 260.86 199.642 262.173 199.659 264.085C199.642 265.997 198.661 267.294 196.866 267.294ZM196.866 265.814C197.597 265.814 197.947 265.132 197.963 264.085C197.947 263.054 197.631 262.34 196.866 262.356C196.168 262.356 195.802 263.071 195.802 264.085C195.802 265.132 196.184 265.814 196.866 265.814ZM187.706 266.895L195.985 254.859H197.847L189.568 266.895H187.706Z" fill="#96A8FF"/>
<path d="M153.178 86.7593V98.7949H150.668V89.1365H150.601L147.842 90.8654V88.6544L150.818 86.7593H153.178ZM155.971 98.7949L155.954 96.9829L160.276 93.0099C161.407 91.9293 162.005 91.2644 162.005 90.3168C162.005 89.2529 161.191 88.5879 160.094 88.5879C158.963 88.5879 158.232 89.3027 158.232 90.4498H155.855C155.838 88.0892 157.583 86.5931 160.127 86.5931C162.704 86.5931 164.416 88.056 164.416 90.1506C164.416 91.5137 163.751 92.6441 161.274 94.8883L159.445 96.6671V96.7336H164.582V98.7949H155.971ZM167.824 98.9445C167.042 98.9445 166.411 98.3128 166.427 97.5481C166.411 96.7834 167.042 96.1684 167.824 96.1684C168.555 96.1684 169.203 96.7834 169.203 97.5481C169.203 98.3128 168.555 98.9445 167.824 98.9445ZM175.238 98.9612C172.595 98.9612 170.7 97.4983 170.65 95.4037H173.177C173.226 96.3014 174.091 96.8998 175.254 96.8998C176.451 96.8998 177.316 96.2182 177.299 95.2541C177.316 94.2733 176.435 93.5751 175.022 93.5751H173.908V91.7298H175.022C176.202 91.7298 177.033 91.0815 177.033 90.1339C177.033 89.2196 176.335 88.5879 175.271 88.5879C174.207 88.5879 173.326 89.1864 173.293 90.1007H170.899C170.932 88.0227 172.811 86.5931 175.271 86.5931C177.781 86.5931 179.46 88.0726 179.444 89.9843C179.46 91.3308 178.513 92.295 177.166 92.5278V92.6275C178.928 92.8436 179.909 93.9242 179.893 95.4203C179.909 97.4816 177.948 98.9612 175.238 98.9612ZM184.813 92.7771C183.018 92.7771 182.037 91.4638 182.037 89.5687C182.037 87.657 183.051 86.3437 184.813 86.3437C186.625 86.3437 187.573 87.657 187.589 89.5687C187.573 91.4805 186.592 92.7771 184.813 92.7771ZM184.813 91.2976C185.528 91.2976 185.877 90.5994 185.894 89.5687C185.877 88.5381 185.561 87.8232 184.813 87.8232C184.098 87.8232 183.733 88.5547 183.733 89.5687C183.733 90.5994 184.115 91.2976 184.813 91.2976ZM192.926 99.1939C191.147 99.1939 190.166 97.8806 190.166 95.9855C190.166 94.0738 191.18 92.7605 192.926 92.7605C194.738 92.7605 195.702 94.0738 195.718 95.9855C195.702 97.8972 194.721 99.1939 192.926 99.1939ZM192.926 97.7144C193.657 97.7144 194.006 97.0328 194.023 95.9855C194.006 94.9548 193.69 94.24 192.926 94.2566C192.227 94.2566 191.862 94.9715 191.862 95.9855C191.862 97.0328 192.244 97.7144 192.926 97.7144ZM183.766 98.7949L192.044 86.7593H193.906L185.628 98.7949H183.766Z" fill="#B0BEFF"/>
<path d="M251.059 6.96439V19H248.549V9.34159H248.482L245.723 11.0705V8.8595L248.698 6.96439H251.059ZM259.038 6.96439V19H256.528V9.34159H256.462L253.702 11.0705V8.8595L256.678 6.96439H259.038ZM262.646 19.1496C261.864 19.1496 261.233 18.5179 261.249 17.7532C261.233 16.9885 261.864 16.3734 262.646 16.3734C263.377 16.3734 264.026 16.9885 264.026 17.7532C264.026 18.5179 263.377 19.1496 262.646 19.1496ZM270.06 19.1662C267.417 19.1662 265.522 17.7033 265.472 15.6088H267.999C268.048 16.5064 268.913 17.1049 270.077 17.1049C271.273 17.1049 272.138 16.4233 272.121 15.4591C272.138 14.4783 271.257 13.7801 269.844 13.7801H268.73V11.9349H269.844C271.024 11.9349 271.855 11.2866 271.855 10.339C271.855 9.42471 271.157 8.79301 270.093 8.79301C269.029 8.79301 268.148 9.39146 268.115 10.3058H265.721C265.754 8.2278 267.633 6.79815 270.093 6.79815C272.603 6.79815 274.282 8.27767 274.266 10.1894C274.282 11.5359 273.335 12.5001 271.988 12.7328V12.8326C273.75 13.0487 274.731 14.1292 274.715 15.6254C274.731 17.6867 272.77 19.1662 270.06 19.1662ZM279.635 12.9822C277.84 12.9822 276.859 11.6689 276.859 9.77381C276.859 7.86207 277.873 6.5488 279.635 6.5488C281.447 6.5488 282.395 7.86207 282.411 9.77381C282.395 11.6855 281.414 12.9822 279.635 12.9822ZM279.635 11.5027C280.35 11.5027 280.699 10.8045 280.716 9.77381C280.699 8.74313 280.383 8.02831 279.635 8.02831C278.92 8.02831 278.555 8.75976 278.555 9.77381C278.555 10.8045 278.937 11.5027 279.635 11.5027ZM287.748 19.399C285.969 19.399 284.988 18.0857 284.988 16.1906C284.988 14.2788 286.002 12.9656 287.748 12.9656C289.56 12.9656 290.524 14.2788 290.54 16.1906C290.524 18.1023 289.543 19.399 287.748 19.399ZM287.748 17.9195C288.479 17.9195 288.828 17.2379 288.845 16.1906C288.828 15.1599 288.512 14.4451 287.748 14.4617C287.049 14.4617 286.684 15.1765 286.684 16.1906C286.684 17.2379 287.066 17.9195 287.748 17.9195ZM278.588 19L286.867 6.96439H288.728L280.45 19H278.588Z" fill="#C9D3FF"/>
<path d="M317.021 338.908V350.943H314.511V341.285H314.444L311.685 343.014V340.803L314.66 338.908H317.021ZM320.279 350.943L325.349 341.036V340.952H319.448V338.908H327.943V340.986L322.872 350.943H320.279ZM328.99 351.093C328.209 351.093 327.577 350.461 327.594 349.697C327.577 348.932 328.209 348.317 328.99 348.317C329.721 348.317 330.37 348.932 330.37 349.697C330.37 350.461 329.721 351.093 328.99 351.093ZM332.331 350.943L332.315 349.131L336.637 345.158C337.767 344.078 338.366 343.413 338.366 342.465C338.366 341.401 337.551 340.736 336.454 340.736C335.324 340.736 334.592 341.451 334.592 342.598H332.215C332.198 340.238 333.944 338.742 336.487 338.742C339.064 338.742 340.776 340.204 340.776 342.299C340.776 343.662 340.111 344.793 337.634 347.037L335.806 348.816V348.882H340.942V350.943H332.331ZM345.88 344.926C344.084 344.926 343.104 343.612 343.104 341.717C343.104 339.805 344.118 338.492 345.88 338.492C347.692 338.492 348.639 339.805 348.656 341.717C348.639 343.629 347.658 344.926 345.88 344.926ZM345.88 343.446C346.595 343.446 346.944 342.748 346.96 341.717C346.944 340.686 346.628 339.972 345.88 339.972C345.165 339.972 344.799 340.703 344.799 341.717C344.799 342.748 345.182 343.446 345.88 343.446ZM353.992 351.342C352.213 351.342 351.233 350.029 351.233 348.134C351.233 346.222 352.247 344.909 353.992 344.909C355.804 344.909 356.768 346.222 356.785 348.134C356.768 350.046 355.788 351.342 353.992 351.342ZM353.992 349.863C354.724 349.863 355.073 349.181 355.089 348.134C355.073 347.103 354.757 346.388 353.992 346.405C353.294 346.405 352.928 347.12 352.928 348.134C352.928 349.181 353.311 349.863 353.992 349.863ZM344.832 350.943L353.111 338.908H354.973L346.694 350.943H344.832Z" fill="#7389F1"/>
<path opacity="0.5" d="M2.87411 388.249C2.87411 386.727 4.10775 385.506 5.63011 385.506C6.94249 385.506 8.04489 386.425 8.22863 387.659H7.08685C6.95562 387.029 6.32567 386.582 5.63011 386.582C4.71145 386.582 3.96339 387.331 3.96339 388.249C3.96339 389.168 4.71145 389.916 5.63011 389.916C6.32567 389.916 6.86375 389.47 6.99499 388.84H8.12364C7.95303 390.073 6.94249 390.992 5.63011 390.992C4.10775 390.992 2.87411 389.772 2.87411 388.249ZM5.57762 393.144C2.88724 393.144 0.669314 390.953 0.682438 388.249C0.682438 385.533 2.88724 383.354 5.57762 383.354C8.29424 383.354 10.4728 385.533 10.4728 388.249C10.4859 390.953 8.29424 393.144 5.57762 393.144ZM5.57762 392.055C7.69055 392.055 9.39664 390.349 9.38352 388.249C9.3704 386.136 7.67743 384.443 5.57762 384.443C3.49093 384.443 1.78484 386.149 1.77171 388.249C1.75859 390.336 3.47781 392.055 5.57762 392.055ZM19.2133 383.498H20.4075V390.283C20.4075 392.108 19.3314 393.131 17.6778 393.131C16.1029 393.131 14.9611 392.226 14.9611 390.756H16.1292C16.1292 391.556 16.7853 392.081 17.6778 392.081C18.6621 392.081 19.2133 391.465 19.2133 390.283V383.498ZM22.9273 393H21.6936L25.1715 383.498H26.4182L29.896 393H28.6493L27.7044 390.323H23.8853L22.9273 393ZM24.2397 389.286H27.3369L25.8276 385.034H25.7489L24.2397 389.286ZM31.1822 393V383.498H34.4106C36.6417 383.498 37.6522 384.824 37.6522 386.517C37.6522 388.197 36.6417 389.548 34.4237 389.548H32.3633V393H31.1822ZM32.3633 388.499H34.3712C35.8805 388.499 36.4842 387.645 36.4842 386.517C36.4842 385.375 35.8805 384.548 34.3581 384.548H32.3633V388.499ZM38.7546 393H37.521L40.9988 383.498H42.2455L45.7233 393H44.4766L43.5317 390.323H39.7126L38.7546 393ZM40.067 389.286H43.1642L41.655 385.034H41.5762L40.067 389.286ZM54.5557 383.498V393H53.427L48.2825 385.598H48.1906V393H47.0095V383.498H48.1512L53.2958 390.913H53.3876V383.498H54.5557ZM67.5745 383.498V393H66.4458L61.3013 385.598H61.2094V393H60.0283V383.498H61.1701L66.3146 390.913H66.4065V383.498H67.5745ZM70.0942 393H68.8606L72.3384 383.498H73.5852L77.063 393H75.8162L74.8713 390.323H71.0523L70.0942 393ZM71.4066 389.286H74.5038L72.9946 385.034H72.9159L71.4066 389.286ZM76.7086 384.548V383.498H83.8742V384.548H80.8951V393H79.7009V384.548H76.7086ZM86.6302 383.498V393H85.4491V383.498H86.6302ZM96.7618 388.249C96.7618 391.255 94.9901 393.131 92.5622 393.131C90.1212 393.131 88.3626 391.255 88.3626 388.249C88.3626 385.244 90.1212 383.367 92.5622 383.367C94.9901 383.367 96.7618 385.244 96.7618 388.249ZM95.62 388.249C95.62 385.795 94.2814 384.47 92.5622 384.47C90.843 384.47 89.5043 385.795 89.5043 388.249C89.5043 390.703 90.843 392.029 92.5622 392.029C94.2814 392.029 95.62 390.703 95.62 388.249ZM106.04 383.498V393H104.912L99.7672 385.598H99.6753V393H98.4942V383.498H99.6359L104.78 390.913H104.872V383.498H106.04ZM108.56 393H107.326L110.804 383.498H112.051L115.529 393H114.282L113.337 390.323H109.518L108.56 393ZM109.872 389.286H112.97L111.46 385.034H111.382L109.872 389.286ZM116.815 393V383.498H117.996V391.95H122.406V393H116.815ZM126.828 384.548V383.498H133.994V384.548H131.015V393H129.821V384.548H126.828ZM143.207 388.249C143.207 391.255 141.435 393.131 139.007 393.131C136.566 393.131 134.808 391.255 134.808 388.249C134.808 385.244 136.566 383.367 139.007 383.367C141.435 383.367 143.207 385.244 143.207 388.249ZM142.065 388.249C142.065 385.795 140.727 384.47 139.007 384.47C137.288 384.47 135.949 385.795 135.949 388.249C135.949 390.703 137.288 392.029 139.007 392.029C140.727 392.029 142.065 390.703 142.065 388.249ZM151.16 383.498H152.341V389.785C152.341 391.74 150.884 393.171 148.64 393.171C146.396 393.171 144.939 391.74 144.939 389.785V383.498H146.12V389.693C146.12 391.071 147.078 392.068 148.64 392.068C150.215 392.068 151.16 391.071 151.16 389.693V383.498ZM154.441 393V383.498H157.669C159.9 383.498 160.911 384.732 160.911 386.425C160.911 387.678 160.347 388.669 159.139 389.089L161.278 393H159.9L157.919 389.299L157.683 389.312H155.622V393H154.441ZM155.622 388.236H157.63C159.139 388.236 159.743 387.554 159.743 386.425C159.743 385.283 159.139 384.548 157.617 384.548H155.622V388.236ZM163.798 383.498V393H162.617V383.498H163.798ZM171.082 385.887C170.977 384.955 170.124 384.417 168.982 384.417C167.722 384.417 166.895 385.073 166.895 385.979C166.895 386.976 168.011 387.344 168.733 387.527L169.678 387.79C170.701 388.052 172.368 388.643 172.368 390.415C172.368 391.963 171.121 393.171 168.916 393.171C166.869 393.171 165.596 392.108 165.491 390.533H166.699C166.804 391.596 167.788 392.094 168.916 392.094C170.229 392.094 171.213 391.425 171.213 390.388C171.213 389.47 170.334 389.115 169.336 388.827L168.168 388.512C166.672 388.079 165.754 387.317 165.754 386.031C165.754 384.43 167.184 383.367 169.021 383.367C170.859 383.367 172.184 384.443 172.237 385.887H171.082ZM174.061 383.498H175.478L178.681 391.32H178.799L182.001 383.498H183.418V393H182.303V385.821H182.211L179.258 393H178.208L175.255 385.821H175.177V393H174.061V383.498ZM196.923 388.249C196.923 391.255 195.151 393.131 192.723 393.131C190.282 393.131 188.523 391.255 188.523 388.249C188.523 385.244 190.282 383.367 192.723 383.367C195.151 383.367 196.923 385.244 196.923 388.249ZM195.781 388.249C195.781 385.795 194.442 384.47 192.723 384.47C191.004 384.47 189.665 385.795 189.665 388.249C189.665 390.703 191.004 392.029 192.723 392.029C194.442 392.029 195.781 390.703 195.781 388.249ZM198.655 393V383.498H201.883C204.115 383.498 205.125 384.732 205.125 386.425C205.125 387.678 204.561 388.669 203.353 389.089L205.493 393H204.115L202.133 389.299L201.897 389.312H199.836V393H198.655ZM199.836 388.236H201.844C203.353 388.236 203.957 387.554 203.957 386.425C203.957 385.283 203.353 384.548 201.831 384.548H199.836V388.236ZM213.314 386.464C212.907 385.244 211.976 384.47 210.624 384.47C208.944 384.47 207.605 385.795 207.605 388.249C207.605 390.703 208.944 392.029 210.703 392.029C212.31 392.029 213.406 390.953 213.432 389.273H210.952V388.236H214.587V389.26C214.587 391.622 212.96 393.131 210.703 393.131C208.17 393.131 206.464 391.255 206.464 388.249C206.464 385.244 208.183 383.367 210.624 383.367C212.632 383.367 214.181 384.627 214.535 386.464H213.314ZM216.477 393H215.244L218.721 383.498H219.968L223.446 393H222.199L221.254 390.323H217.435L216.477 393ZM217.79 389.286H220.887L219.378 385.034H219.299L217.79 389.286ZM232.278 383.498V393H231.15L226.005 385.598H225.913V393H224.732V383.498H225.874L231.018 390.913H231.11V383.498H232.278ZM235.559 383.498V393H234.378V383.498H235.559ZM237.344 393V392.147L242.449 384.548H237.292V383.498H243.867V384.351L238.761 391.95H243.919V393H237.344ZM246.071 393H244.838L248.316 383.498H249.562L253.04 393H251.793L250.848 390.323H247.029L246.071 393ZM247.384 389.286H250.481L248.972 385.034H248.893L247.384 389.286ZM252.686 384.548V383.498H259.851V384.548H256.872V393H255.678V384.548H252.686ZM262.607 383.498V393H261.426V383.498H262.607ZM272.739 388.249C272.739 391.255 270.967 393.131 268.539 393.131C266.098 393.131 264.34 391.255 264.34 388.249C264.34 385.244 266.098 383.367 268.539 383.367C270.967 383.367 272.739 385.244 272.739 388.249ZM271.597 388.249C271.597 385.795 270.259 384.47 268.539 384.47C266.82 384.47 265.481 385.795 265.481 388.249C265.481 390.703 266.82 392.029 268.539 392.029C270.259 392.029 271.597 390.703 271.597 388.249ZM282.017 383.498V393H280.889L275.744 385.598H275.652V393H274.471V383.498H275.613L280.758 390.913H280.849V383.498H282.017Z" fill="#414141"/>
</svg>
