<svg width="559" height="399" viewBox="0 0 559 399" fill="none" xmlns="http://www.w3.org/2000/svg">
<g clip-path="url(#clip0_853_1434)">
<circle cx="4.45745" cy="13.5004" r="4.45745" fill="#0222B4"/>
<path d="M23.2034 4.862H24.5354V10.01H23.2034V4.862ZM23.2034 14.744H24.5354V21.422H23.2034V14.744ZM21.9614 12.998V14.51H25.7954V12.998H21.9614ZM21.9614 10.55V12.062H25.7954V10.55H21.9614ZM20.7374 9.524H27.0554V15.536H20.7374V9.524ZM20.2334 6.788H27.4874V7.994H20.2334V6.788ZM20.0534 17.03H27.4874V18.236H20.0534V17.03ZM28.4234 6.32H35.0474V9.272H33.8414V7.346H28.4234V6.32ZM27.4694 8.876H36.5954V9.974H27.4694V8.876ZM27.3794 18.092H36.6674V19.19H27.3794V18.092ZM30.6554 4.862L31.9154 4.988C31.8314 5.456 31.7354 5.954 31.6274 6.482C31.5194 7.01 31.4114 7.52 31.3034 8.012C31.1954 8.492 31.0934 8.918 30.9974 9.29H29.7194C29.8274 8.894 29.9354 8.444 30.0434 7.94C30.1634 7.424 30.2714 6.896 30.3674 6.356C30.4754 5.816 30.5714 5.318 30.6554 4.862ZM29.6834 11.792V13.538H34.3274V11.792H29.6834ZM28.4234 10.838H35.6414V14.492H28.4234V10.838ZM31.9514 14.168H33.2114V21.404H31.9514V14.168ZM28.5674 15.554H35.8754V16.544H29.7194V18.65H28.5674V15.554ZM41.6714 8.48H50.9234V9.686H41.6714V8.48ZM42.1754 12.26H50.4914V13.43H42.1754V12.26ZM41.4194 16.472H51.3014V17.624H41.4194V16.472ZM45.5774 8.858H46.8554V17.102H45.5774V8.858ZM47.9714 14.24L48.8534 13.754C49.2014 14.042 49.5434 14.372 49.8794 14.744C50.2274 15.116 50.4974 15.446 50.6894 15.734L49.7534 16.292C49.5734 16.004 49.3154 15.668 48.9794 15.284C48.6434 14.888 48.3074 14.54 47.9714 14.24ZM38.8634 5.69H53.7674V21.44H52.3454V6.95H40.2314V21.44H38.8634V5.69ZM39.5834 19.28H52.9934V20.54H39.5834V19.28Z" fill="#414141"/>
<circle cx="4.45745" cy="49.4145" r="4.45745" fill="#4D66DA"/>
<path d="M21.0434 44.0161H35.5514V52.4761H34.1654V45.3301H22.3934V52.5661H21.0434V44.0161ZM21.7634 50.1181H34.9754V51.4501H21.7634V50.1181ZM27.5594 40.7941H28.9814V57.3361H27.5594V40.7941ZM41.6714 44.3941H50.9234V45.6001H41.6714V44.3941ZM42.1754 48.1741H50.4914V49.3441H42.1754V48.1741ZM41.4194 52.3861H51.3014V53.5381H41.4194V52.3861ZM45.5774 44.7721H46.8554V53.0161H45.5774V44.7721ZM47.9714 50.1541L48.8534 49.6681C49.2014 49.9561 49.5434 50.2861 49.8794 50.6581C50.2274 51.0301 50.4974 51.3601 50.6894 51.6481L49.7534 52.2061C49.5734 51.9181 49.3154 51.5821 48.9794 51.1981C48.6434 50.8021 48.3074 50.4541 47.9714 50.1541ZM38.8634 41.6041H53.7674V57.3541H52.3454V42.8641H40.2314V57.3541H38.8634V41.6041ZM39.5834 55.1941H52.9934V56.4541H39.5834V55.1941Z" fill="#414141"/>
<circle cx="4.45745" cy="85.3305" r="4.45745" fill="#7389F1"/>
<path d="M26.0474 79.6801L27.3074 79.8961C26.9114 81.7801 26.3774 83.5321 25.7054 85.1521C25.0334 86.7601 24.2234 88.1161 23.2754 89.2201C23.2154 89.1481 23.1194 89.0581 22.9874 88.9501C22.8674 88.8421 22.7414 88.7341 22.6094 88.6261C22.4774 88.5181 22.3634 88.4341 22.2674 88.3741C23.1914 87.3661 23.9654 86.1001 24.5894 84.5761C25.2254 83.0521 25.7114 81.4201 26.0474 79.6801ZM21.4754 89.7781H28.4774V91.0381H21.4754V89.7781ZM20.7914 77.8801H28.3154V79.1401H22.0874V92.4061H20.7914V77.8801ZM22.2314 82.1101L23.0234 81.2821C23.6714 81.8581 24.3254 82.5001 24.9854 83.2081C25.6454 83.9041 26.2514 84.5941 26.8034 85.2781C27.3554 85.9501 27.7814 86.5621 28.0814 87.1141L27.1814 88.0861C26.8814 87.5341 26.4614 86.9041 25.9214 86.1961C25.3934 85.4881 24.8054 84.7801 24.1574 84.0721C23.5094 83.3521 22.8674 82.6981 22.2314 82.1101ZM29.6114 79.9321H35.5514V81.1921H29.6114V79.9321ZM31.9694 80.5261H32.6354V83.7481C32.6354 84.0361 32.6594 84.4321 32.7074 84.9361C32.7674 85.4401 32.8754 86.0041 33.0314 86.6281C33.1994 87.2521 33.4334 87.9001 33.7334 88.5721C34.0454 89.2321 34.4414 89.8621 34.9214 90.4621C35.4014 91.0621 35.9954 91.5901 36.7034 92.0461C36.6194 92.1421 36.5234 92.2561 36.4154 92.3881C36.3074 92.5321 36.1994 92.6761 36.0914 92.8201C35.9954 92.9641 35.9174 93.0901 35.8574 93.1981C35.1854 92.7541 34.6094 92.2261 34.1294 91.6141C33.6614 91.0021 33.2714 90.3721 32.9594 89.7241C32.6594 89.0761 32.4254 88.4641 32.2574 87.8881C32.1014 87.3121 31.9994 86.8381 31.9514 86.4661C31.9034 86.8501 31.7894 87.3301 31.6094 87.9061C31.4294 88.4701 31.1654 89.0701 30.8174 89.7061C30.4814 90.3421 30.0434 90.9721 29.5034 91.5961C28.9634 92.2081 28.3094 92.7481 27.5414 93.2161C27.4934 93.1201 27.4214 93.0001 27.3254 92.8561C27.2414 92.7241 27.1454 92.5861 27.0374 92.4421C26.9414 92.2981 26.8454 92.1841 26.7494 92.1001C27.5414 91.6441 28.2074 91.1101 28.7474 90.4981C29.2874 89.8861 29.7254 89.2501 30.0614 88.5901C30.4094 87.9301 30.6674 87.2881 30.8354 86.6641C31.0154 86.0401 31.1354 85.4761 31.1954 84.9721C31.2674 84.4561 31.3034 84.0481 31.3034 83.7481V80.5261H31.9694ZM29.6834 76.6921L31.0334 76.9081C30.8894 77.9521 30.6974 78.9721 30.4574 79.9681C30.2294 80.9641 29.9594 81.9001 29.6474 82.7761C29.3474 83.6401 28.9934 84.4021 28.5854 85.0621C28.5014 84.9901 28.3934 84.9001 28.2614 84.7921C28.1294 84.6721 27.9914 84.5641 27.8474 84.4681C27.7034 84.3601 27.5774 84.2761 27.4694 84.2161C27.8654 83.6041 28.2014 82.9021 28.4774 82.1101C28.7654 81.3061 29.0054 80.4421 29.1974 79.5181C29.4014 78.5941 29.5634 77.6521 29.6834 76.6921ZM35.0834 79.9321H35.2814L35.4974 79.8601L36.4154 80.2021C36.3194 80.7541 36.2054 81.3241 36.0734 81.9121C35.9534 82.5001 35.8154 83.0701 35.6594 83.6221C35.5154 84.1621 35.3594 84.6361 35.1914 85.0441L34.1834 84.5221C34.3034 84.1381 34.4174 83.7061 34.5254 83.2261C34.6454 82.7341 34.7534 82.2241 34.8494 81.6961C34.9454 81.1681 35.0234 80.6701 35.0834 80.2021V79.9321ZM38.3594 83.6401H54.2534V84.9901H38.3594V83.6401ZM45.5774 76.7281H46.9994V93.2701H45.5774V76.7281ZM51.9494 77.5921L53.4074 78.1861C53.1194 78.6901 52.8074 79.2181 52.4714 79.7701C52.1354 80.3221 51.7934 80.8501 51.4454 81.3541C51.0974 81.8581 50.7734 82.2961 50.4734 82.6681L49.3214 82.1281C49.6214 81.7321 49.9334 81.2701 50.2574 80.7421C50.5814 80.2141 50.8934 79.6741 51.1934 79.1221C51.4934 78.5701 51.7454 78.0601 51.9494 77.5921ZM39.4034 78.2761L40.6274 77.7541C40.9874 78.1741 41.3354 78.6361 41.6714 79.1401C42.0074 79.6441 42.3074 80.1421 42.5714 80.6341C42.8474 81.1261 43.0574 81.5641 43.2014 81.9481L41.8694 82.5421C41.7494 82.1581 41.5574 81.7201 41.2934 81.2281C41.0414 80.7361 40.7474 80.2321 40.4114 79.7161C40.0874 79.2001 39.7514 78.7201 39.4034 78.2761ZM44.9114 84.3061L46.0814 84.7741C45.6734 85.5421 45.1934 86.2981 44.6414 87.0421C44.1014 87.7861 43.5134 88.4941 42.8774 89.1661C42.2534 89.8381 41.6054 90.4501 40.9334 91.0021C40.2734 91.5541 39.6134 92.0341 38.9534 92.4421C38.8694 92.3341 38.7674 92.2081 38.6474 92.0641C38.5394 91.9201 38.4194 91.7821 38.2874 91.6501C38.1674 91.5181 38.0534 91.4041 37.9454 91.3081C38.6054 90.9601 39.2654 90.5341 39.9254 90.0301C40.5854 89.5141 41.2214 88.9441 41.8334 88.3201C42.4574 87.6961 43.0334 87.0481 43.5614 86.3761C44.0894 85.6921 44.5394 85.0021 44.9114 84.3061ZM47.6114 84.2341C47.9954 84.9061 48.4574 85.5781 48.9974 86.2501C49.5374 86.9221 50.1254 87.5641 50.7614 88.1761C51.3974 88.7881 52.0514 89.3461 52.7234 89.8501C53.4074 90.3541 54.0794 90.7801 54.7394 91.1281C54.6194 91.2121 54.4934 91.3261 54.3614 91.4701C54.2414 91.6021 54.1214 91.7401 54.0014 91.8841C53.8814 92.0281 53.7854 92.1601 53.7134 92.2801C53.0414 91.8841 52.3634 91.4101 51.6794 90.8581C51.0074 90.2941 50.3534 89.6821 49.7174 89.0221C49.0814 88.3501 48.4814 87.6541 47.9174 86.9341C47.3654 86.2021 46.8794 85.4641 46.4594 84.7201L47.6114 84.2341Z" fill="#414141"/>
<circle cx="4.45745" cy="121.245" r="4.45745" fill="#96A8FF"/>
<path d="M23.2034 127.078H33.3374V128.374H23.2034V127.078ZM22.5734 121.498H34.0574V129.148H32.6174V122.794H23.9594V129.184H22.5734V121.498ZM26.1914 112.552L27.6854 113.074C27.3254 113.77 26.9234 114.496 26.4794 115.252C26.0474 115.996 25.6094 116.716 25.1654 117.412C24.7214 118.096 24.2954 118.702 23.8874 119.23L22.6994 118.726C23.1074 118.198 23.5274 117.58 23.9594 116.872C24.3914 116.152 24.7994 115.414 25.1834 114.658C25.5794 113.902 25.9154 113.2 26.1914 112.552ZM30.5294 115.468L31.5914 114.694C32.2034 115.174 32.8274 115.714 33.4634 116.314C34.0994 116.902 34.6814 117.502 35.2094 118.114C35.7494 118.714 36.1754 119.26 36.4874 119.752L35.3174 120.652C35.0294 120.16 34.6214 119.608 34.0934 118.996C33.5774 118.384 33.0074 117.772 32.3834 117.16C31.7594 116.536 31.1414 115.972 30.5294 115.468ZM20.4494 118.15C21.3014 118.126 22.2734 118.096 23.3654 118.06C24.4574 118.012 25.6214 117.964 26.8574 117.916C28.1054 117.868 29.3774 117.814 30.6734 117.754C31.9814 117.694 33.2714 117.64 34.5434 117.592L34.4714 118.888C33.2114 118.96 31.9394 119.026 30.6554 119.086C29.3834 119.134 28.1354 119.188 26.9114 119.248C25.6874 119.308 24.5354 119.362 23.4554 119.41C22.3754 119.446 21.4094 119.482 20.5574 119.518L20.4494 118.15ZM49.4294 115.126H50.6534V118.726C50.6534 119.014 50.6234 119.236 50.5634 119.392C50.5034 119.548 50.3654 119.668 50.1494 119.752C49.9454 119.848 49.6814 119.902 49.3574 119.914C49.0454 119.926 48.6614 119.932 48.2054 119.932C48.1814 119.776 48.1274 119.608 48.0434 119.428C47.9714 119.236 47.8934 119.062 47.8094 118.906C48.1454 118.918 48.4394 118.924 48.6914 118.924C48.9434 118.924 49.1114 118.918 49.1954 118.906C49.3514 118.906 49.4294 118.84 49.4294 118.708V115.126ZM51.2654 116.548L52.2374 115.99C52.5494 116.254 52.8554 116.548 53.1554 116.872C53.4674 117.184 53.7494 117.502 54.0014 117.826C54.2534 118.138 54.4514 118.426 54.5954 118.69L53.5514 119.32C53.4194 119.044 53.2274 118.744 52.9754 118.42C52.7234 118.096 52.4474 117.772 52.1474 117.448C51.8594 117.112 51.5654 116.812 51.2654 116.548ZM44.1014 124.936H52.9214V126.016H44.1014V124.936ZM44.5874 122.668H51.8774V121.336H43.2554V120.292H53.1734V123.73H44.5874V122.668ZM44.1374 122.668H45.4694C45.3614 123.112 45.2414 123.574 45.1094 124.054C44.9774 124.534 44.8454 125.002 44.7134 125.458C44.5814 125.902 44.4554 126.304 44.3354 126.664L43.0574 126.466C43.2494 125.95 43.4414 125.344 43.6334 124.648C43.8374 123.94 44.0054 123.28 44.1374 122.668ZM52.5614 124.936H53.9114C53.9114 124.936 53.9054 125.008 53.8934 125.152C53.8814 125.296 53.8574 125.416 53.8214 125.512C53.6414 126.484 53.4494 127.222 53.2454 127.726C53.0534 128.218 52.8314 128.578 52.5794 128.806C52.4114 128.926 52.2314 129.01 52.0394 129.058C51.8594 129.118 51.6374 129.154 51.3734 129.166C51.1574 129.178 50.8334 129.184 50.4014 129.184C49.9694 129.184 49.5074 129.166 49.0154 129.13C49.0034 128.962 48.9674 128.77 48.9074 128.554C48.8474 128.338 48.7694 128.146 48.6734 127.978C49.1414 128.026 49.5854 128.056 50.0054 128.068C50.4254 128.08 50.7134 128.086 50.8694 128.086C51.0494 128.086 51.1874 128.074 51.2834 128.05C51.3914 128.038 51.4874 128.002 51.5714 127.942C51.7514 127.798 51.9194 127.504 52.0754 127.06C52.2434 126.616 52.4054 125.962 52.5614 125.098V124.936ZM42.9854 114.28H54.5054V115.414H42.9854V114.28ZM47.8994 112.606H49.2494V114.892H47.8994V112.606ZM44.4614 115.936L45.5954 116.242C45.3194 116.806 44.9594 117.358 44.5154 117.898C44.0834 118.426 43.6394 118.876 43.1834 119.248C43.1234 119.176 43.0334 119.098 42.9134 119.014C42.7934 118.918 42.6674 118.828 42.5354 118.744C42.4154 118.648 42.3074 118.576 42.2114 118.528C42.6794 118.192 43.1054 117.802 43.4894 117.358C43.8854 116.902 44.2094 116.428 44.4614 115.936ZM38.9174 113.758L39.6914 112.786C40.0514 112.942 40.4294 113.134 40.8254 113.362C41.2214 113.578 41.5874 113.806 41.9234 114.046C42.2714 114.274 42.5534 114.49 42.7694 114.694L41.9774 115.81C41.7614 115.594 41.4794 115.36 41.1314 115.108C40.7954 114.856 40.4354 114.616 40.0514 114.388C39.6674 114.148 39.2894 113.938 38.9174 113.758ZM37.9994 118.618L38.7554 117.61C39.1154 117.754 39.4934 117.928 39.8894 118.132C40.2854 118.336 40.6574 118.552 41.0054 118.78C41.3654 118.996 41.6534 119.206 41.8694 119.41L41.0954 120.508C40.8794 120.304 40.5974 120.088 40.2494 119.86C39.9014 119.632 39.5294 119.41 39.1334 119.194C38.7494 118.966 38.3714 118.774 37.9994 118.618ZM38.4854 128.122C38.7734 127.654 39.0854 127.102 39.4214 126.466C39.7574 125.818 40.0994 125.134 40.4474 124.414C40.7954 123.694 41.1194 122.998 41.4194 122.326L42.4814 123.136C42.2174 123.76 41.9234 124.414 41.5994 125.098C41.2874 125.782 40.9634 126.454 40.6274 127.114C40.3034 127.774 39.9854 128.386 39.6734 128.95L38.4854 128.122ZM46.5674 114.982H47.7914V116.476C47.7914 116.872 47.7314 117.304 47.6114 117.772C47.5034 118.228 47.2814 118.678 46.9454 119.122C46.6214 119.554 46.1294 119.944 45.4694 120.292C45.3974 120.22 45.3014 120.142 45.1814 120.058C45.0734 119.962 44.9594 119.872 44.8394 119.788C44.7194 119.704 44.6054 119.632 44.4974 119.572C45.0974 119.284 45.5414 118.96 45.8294 118.6C46.1294 118.228 46.3274 117.856 46.4234 117.484C46.5194 117.1 46.5674 116.752 46.5674 116.44V114.982Z" fill="#414141"/>
<circle cx="4.45745" cy="157.161" r="4.45745" fill="#B0BEFF"/>
<path d="M20.5034 150.25H36.2354V151.528H20.5034V150.25ZM27.5774 148.558H28.9634V165.1H27.5774V148.558ZM27.1454 158.854L28.2794 159.358C27.8594 159.922 27.3674 160.474 26.8034 161.014C26.2394 161.554 25.6334 162.064 24.9854 162.544C24.3494 163.012 23.6894 163.438 23.0054 163.822C22.3214 164.206 21.6494 164.536 20.9894 164.812C20.9174 164.704 20.8274 164.578 20.7194 164.434C20.6114 164.29 20.4974 164.146 20.3774 164.002C20.2694 163.87 20.1614 163.762 20.0534 163.678C20.7014 163.45 21.3614 163.168 22.0334 162.832C22.7174 162.484 23.3774 162.1 24.0134 161.68C24.6494 161.248 25.2374 160.792 25.7774 160.312C26.3174 159.832 26.7734 159.346 27.1454 158.854ZM29.4134 158.872C29.8094 159.376 30.2774 159.868 30.8174 160.348C31.3694 160.816 31.9694 161.266 32.6174 161.698C33.2654 162.118 33.9314 162.502 34.6154 162.85C35.2994 163.186 35.9714 163.462 36.6314 163.678C36.5354 163.774 36.4274 163.888 36.3074 164.02C36.1874 164.164 36.0734 164.308 35.9654 164.452C35.8574 164.596 35.7614 164.728 35.6774 164.848C35.0174 164.584 34.3394 164.254 33.6434 163.858C32.9594 163.474 32.2874 163.042 31.6274 162.562C30.9794 162.082 30.3734 161.572 29.8094 161.032C29.2454 160.492 28.7474 159.94 28.3154 159.376L29.4134 158.872ZM23.3834 156.838V158.584H33.3914V156.838H23.3834ZM23.3834 154.12V155.83H33.3914V154.12H23.3834ZM22.0694 153.04H34.7774V159.664H22.0694V153.04ZM38.3954 150.34H54.2534V151.618H38.3954V150.34ZM42.1034 157.576H50.6354V158.674H42.1034V157.576ZM41.7254 160.492H50.9594V161.626H41.7254V160.492ZM45.6134 158.098H46.9094V164.758H45.6134V158.098ZM39.3674 153.526H52.3814V154.768H40.7354V165.082H39.3674V153.526ZM51.9314 153.526H53.2994V163.516C53.2994 163.912 53.2454 164.212 53.1374 164.416C53.0294 164.632 52.8254 164.788 52.5254 164.884C52.2254 164.98 51.8174 165.04 51.3014 165.064C50.7854 165.088 50.1614 165.1 49.4294 165.1C49.4054 164.92 49.3454 164.716 49.2494 164.488C49.1534 164.26 49.0574 164.062 48.9614 163.894C49.3454 163.906 49.7114 163.912 50.0594 163.912C50.4074 163.924 50.7134 163.924 50.9774 163.912C51.2414 163.912 51.4214 163.912 51.5174 163.912C51.6854 163.9 51.7934 163.864 51.8414 163.804C51.9014 163.756 51.9314 163.66 51.9314 163.516V153.526ZM43.0214 155.38L44.0834 155.038C44.3234 155.35 44.5514 155.71 44.7674 156.118C44.9834 156.514 45.1394 156.862 45.2354 157.162L44.1014 157.558C44.0174 157.258 43.8734 156.904 43.6694 156.496C43.4654 156.076 43.2494 155.704 43.0214 155.38ZM48.5114 155.002L49.6814 155.362C49.4414 155.83 49.1894 156.298 48.9254 156.766C48.6614 157.234 48.4094 157.636 48.1694 157.972L47.2154 157.666C47.3594 157.414 47.5094 157.132 47.6654 156.82C47.8334 156.508 47.9894 156.196 48.1334 155.884C48.2894 155.56 48.4154 155.266 48.5114 155.002ZM45.5594 148.54H47.0534V154.354H45.5594V148.54ZM57.7588 162.992C61.3447 162.201 62.751 160.25 62.751 155.926V153.412H64.0342V155.926C64.0342 160.725 62.2588 163.256 58.3037 164.082L57.7588 162.992ZM57.0381 152.34V151.18H71.0479V152.34C70.3975 155.381 68.5693 157.543 65.6689 158.598L65.0186 157.473C67.6377 156.479 69.1055 154.854 69.6416 152.34H57.0381ZM74.5107 162.623C81.6123 162.447 85.3037 159.547 86.2705 153.395L87.5537 153.57C86.4639 160.373 82.3506 163.66 74.6865 163.889L74.5107 162.623ZM79.5029 157.068C77.3936 156.559 75.7061 156.26 73.8076 156.014L74.0537 154.854C75.9873 155.1 77.6748 155.398 79.7666 155.908L79.5029 157.068ZM80.4873 153.025C78.3252 152.533 76.5674 152.199 74.5459 151.971L74.8096 150.811C76.8311 151.039 78.624 151.355 80.7686 151.848L80.4873 153.025ZM85.4619 152.814C84.8643 151.549 84.3193 150.652 83.6514 149.773L84.6006 149.158C85.3389 150.125 85.9014 151.092 86.4639 152.287L85.4619 152.814ZM87.9756 152.586C87.4131 151.303 86.9033 150.389 86.2881 149.492L87.2373 148.93C87.9404 149.932 88.4502 150.898 88.9775 152.129L87.9756 152.586ZM91.5088 162.992C95.0947 162.201 96.501 160.25 96.501 155.926V153.412H97.7842V155.926C97.7842 160.725 96.0088 163.256 92.0537 164.082L91.5088 162.992ZM90.7881 152.34V151.18H104.798V152.34C104.147 155.381 102.319 157.543 99.4189 158.598L98.7686 157.473C101.388 156.479 102.855 154.854 103.392 152.34H90.7881Z" fill="#414141"/>
<circle cx="4.45745" cy="193.075" r="4.45745" fill="#C9D3FF"/>
<path d="M30.2314 199.82C26.6455 199.82 24.5713 198.625 24.5713 196.516C24.5713 195.25 25.3271 194.151 26.6982 193.352L20.6162 193.844L20.5635 192.719C24.6855 191.884 28.7461 190.021 30.917 187.955H22.5146V186.812H32.9033V187.955C31.2158 189.643 27.9902 191.479 24.8525 192.561L34.6436 191.752L34.6787 192.895L31.2686 193.141C27.8408 193.404 25.9424 194.564 25.9424 196.287C25.9424 197.834 27.4541 198.678 30.3018 198.678C31.1807 198.678 31.9365 198.59 33.0264 198.414L33.1846 199.539C32.1299 199.732 31.251 199.82 30.2314 199.82ZM46.2451 198.449C48.7939 198.168 50.6748 195.953 50.6748 193.141C50.6748 190.24 48.6006 188.271 45.5068 188.131C44.6279 195.566 43.0986 199.17 40.7432 199.17C38.8447 199.17 37.3154 196.902 37.3154 194.09C37.3154 189.977 40.6553 186.936 45.1729 186.936C49.1455 186.936 51.958 189.361 51.958 193.141C51.958 196.586 49.6904 199.293 46.5791 199.627L46.2451 198.449ZM38.5283 194.09C38.5283 196.059 39.5654 197.852 40.6729 197.852C42.1846 197.852 43.5029 194.283 44.2061 188.184C40.9453 188.588 38.5283 191.04 38.5283 194.09ZM64.2254 184.49H65.5034V197H64.2254V184.49ZM57.9434 191.888L68.7794 187.694L69.2834 188.882L58.4654 193.094L57.9434 191.888ZM60.2294 186.254H61.5614V198.278C61.5614 198.626 61.5974 198.89 61.6694 199.07C61.7414 199.25 61.8854 199.376 62.1014 199.448C62.3294 199.508 62.6534 199.538 63.0734 199.538C63.1934 199.538 63.4034 199.538 63.7034 199.538C64.0154 199.538 64.3634 199.538 64.7474 199.538C65.1314 199.538 65.5214 199.538 65.9174 199.538C66.3134 199.538 66.6674 199.538 66.9794 199.538C67.3034 199.538 67.5434 199.538 67.6994 199.538C68.0714 199.538 68.3534 199.472 68.5454 199.34C68.7374 199.196 68.8754 198.938 68.9594 198.566C69.0434 198.182 69.1034 197.636 69.1394 196.928C69.3074 197.036 69.5114 197.144 69.7514 197.252C69.9914 197.348 70.2074 197.42 70.3994 197.468C70.3274 198.296 70.2074 198.956 70.0394 199.448C69.8834 199.928 69.6254 200.27 69.2654 200.474C68.9174 200.678 68.4074 200.78 67.7354 200.78C67.6394 200.78 67.4294 200.78 67.1054 200.78C66.7934 200.78 66.4274 200.78 66.0074 200.78C65.5874 200.78 65.1674 200.78 64.7474 200.78C64.3394 200.78 63.9734 200.78 63.6494 200.78C63.3374 200.78 63.1334 200.78 63.0374 200.78C62.3174 200.78 61.7474 200.708 61.3274 200.564C60.9194 200.42 60.6314 200.168 60.4634 199.808C60.3074 199.448 60.2294 198.938 60.2294 198.278V186.254ZM68.3114 188H68.1674L68.4734 187.73L68.7254 187.532L69.6614 187.91L69.5894 188.144C69.5894 189.224 69.5834 190.22 69.5714 191.132C69.5594 192.044 69.5354 192.818 69.4994 193.454C69.4754 194.078 69.4334 194.522 69.3734 194.786C69.3014 195.194 69.1694 195.494 68.9774 195.686C68.7974 195.878 68.5694 196.016 68.2934 196.1C68.0414 196.16 67.7414 196.202 67.3934 196.226C67.0454 196.238 66.7334 196.238 66.4574 196.226C66.4454 196.034 66.4094 195.818 66.3494 195.578C66.2894 195.326 66.2174 195.122 66.1334 194.966C66.3854 194.978 66.6494 194.984 66.9254 194.984C67.2014 194.984 67.3934 194.984 67.5014 194.984C67.6574 194.984 67.7834 194.954 67.8794 194.894C67.9874 194.834 68.0714 194.684 68.1314 194.444C68.1794 194.252 68.2154 193.874 68.2394 193.31C68.2634 192.734 68.2814 192.002 68.2934 191.114C68.3054 190.214 68.3114 189.176 68.3114 188ZM57.8534 184.526L59.1134 184.904C58.7294 185.912 58.2734 186.914 57.7454 187.91C57.2174 188.894 56.6474 189.824 56.0354 190.7C55.4234 191.564 54.7934 192.332 54.1454 193.004C54.1094 192.908 54.0434 192.776 53.9474 192.608C53.8634 192.44 53.7674 192.272 53.6594 192.104C53.5634 191.936 53.4734 191.804 53.3894 191.708C53.9894 191.12 54.5654 190.442 55.1174 189.674C55.6694 188.906 56.1794 188.084 56.6474 187.208C57.1274 186.32 57.5294 185.426 57.8534 184.526ZM55.9454 189.152L57.2594 187.856L57.2774 187.874V200.978H55.9454V189.152Z" fill="#414141"/>
<path d="M507.717 160.729C504.857 123.844 488.118 89.4152 460.875 64.3854C433.631 39.3556 397.91 25.5867 360.916 25.8554L361.234 69.7075C387.13 69.5194 412.135 79.1576 431.205 96.6785C450.276 114.199 461.993 138.3 463.995 164.119L507.717 160.729Z" fill="#0222B4"/>
<path d="M507.717 160.354C509.97 189.413 503.485 218.482 489.095 243.827C474.704 269.173 453.066 289.638 426.958 302.594L407.464 263.312C425.739 254.243 440.886 239.917 450.959 222.175C461.033 204.433 465.572 184.085 463.995 163.744L507.717 160.354Z" fill="#4D66DA"/>
<path d="M216.438 158.008C219.907 121.012 237.334 86.7265 265.177 62.1203L294.217 94.9804C274.727 112.205 262.528 136.205 260.1 162.102L216.438 158.008Z" fill="#B0BEFF"/>
<path d="M426.773 302.686C402.455 314.711 375.271 319.732 348.262 317.187C321.253 314.641 295.485 304.63 273.842 288.273L300.283 253.288C315.433 264.737 333.47 271.745 352.377 273.527C371.283 275.309 390.312 271.794 407.334 263.376L426.773 302.686Z" fill="#7389F1"/>
<path d="M274.622 288.859C254.012 273.497 237.816 252.972 227.669 229.353C217.523 205.735 213.784 179.858 216.83 154.334L260.374 159.53C258.242 177.397 260.859 195.511 267.962 212.044C275.064 228.577 286.401 242.944 300.829 253.697L274.622 288.859Z" fill="#96A8FF"/>
<path d="M264.605 62.6292C291.295 38.7913 325.802 25.5723 361.588 25.4771L361.705 69.3301C336.655 69.3968 312.5 78.6501 293.816 95.3366L264.605 62.6292Z" fill="#CAD3FF"/>
<path d="M520.257 155.675C517.267 117.285 499.771 81.4508 471.295 55.3995C442.82 29.3481 405.484 15.0173 366.815 15.297" stroke="#0222B4" stroke-width="4.35294" stroke-linecap="square"/>
<path d="M519.799 163.977C522.154 194.212 515.375 224.458 500.331 250.83C485.288 277.202 462.667 298.496 435.374 311.977" stroke="#4D66DA" stroke-width="4.35294"/>
<path d="M205.756 153.095C209.241 116.147 226.751 81.9047 254.726 57.3301" stroke="#B0BEFF" stroke-width="4.35294"/>
<path d="M431.02 313.775C405.064 326.172 376.048 331.348 347.219 328.724C318.39 326.1 290.886 315.78 267.785 298.918" stroke="#7389F1" stroke-width="4.35294"/>
<path d="M263.433 294.564C242.842 279.155 226.663 258.566 216.526 234.875C206.389 211.183 202.654 185.227 205.697 159.623" stroke="#96A8FF" stroke-width="4.35294"/>
<path d="M259.08 52.9769C286.633 28.5384 322.256 14.9863 359.198 14.8887" stroke="#CAD3FF" stroke-width="4.35294"/>
<path d="M317.455 149L317.429 146.22L324.061 140.124C325.795 138.466 326.713 137.446 326.713 135.992C326.713 134.36 325.463 133.34 323.78 133.34C322.046 133.34 320.923 134.436 320.923 136.196H317.276C317.251 132.574 319.929 130.279 323.831 130.279C327.784 130.279 330.411 132.523 330.411 135.737C330.411 137.829 329.391 139.563 325.591 143.006L322.785 145.735V145.837H330.666V149H317.455ZM340.563 149.255C335.946 149.255 333.141 145.812 333.141 139.767C333.141 133.722 335.946 130.279 340.563 130.279C345.179 130.279 347.985 133.748 347.985 139.767C347.985 145.837 345.179 149.255 340.563 149.255ZM340.563 146.092C342.705 146.092 344.082 144.026 344.057 139.767C344.057 135.559 342.705 133.416 340.563 133.416C338.42 133.416 337.068 135.559 337.068 139.767C337.043 144.026 338.42 146.092 340.563 146.092ZM350.637 149L350.612 146.22L357.243 140.124C358.978 138.466 359.896 137.446 359.896 135.992C359.896 134.36 358.646 133.34 356.963 133.34C355.228 133.34 354.106 134.436 354.106 136.196H350.459C350.433 132.574 353.111 130.279 357.014 130.279C360.967 130.279 363.594 132.523 363.594 135.737C363.594 137.829 362.574 139.563 358.774 143.006L355.968 145.735V145.837H363.849V149H350.637ZM365.864 145.735V142.7L373.669 130.534H378.489V142.649H380.836V145.735H378.489V149H374.842V145.735H365.864ZM369.741 142.649H374.893V134.742H374.715L369.741 142.496V142.649ZM388.359 126.696L391.571 127.531C391.101 128.82 390.544 130.082 389.9 131.318C389.273 132.555 388.585 133.704 387.836 134.766C387.105 135.811 386.348 136.725 385.564 137.508C385.355 137.334 385.085 137.116 384.754 136.855C384.424 136.577 384.084 136.316 383.736 136.072C383.405 135.828 383.109 135.628 382.848 135.471C383.649 134.792 384.398 133.991 385.094 133.068C385.79 132.128 386.417 131.118 386.974 130.039C387.532 128.942 387.993 127.827 388.359 126.696ZM388.933 129.673H405.544V132.703H387.418L388.933 129.673ZM387.079 135.863H404.917V138.788H390.213V144.273H387.079V135.863ZM382.926 142.732H406.954V145.735H382.926V142.732ZM394.758 131.24H397.996V151.351H394.758V131.24ZM303.927 158.852H307.166V164.572H303.927V158.852ZM308.837 169.299H311.971C311.971 169.299 311.971 169.378 311.971 169.534C311.971 169.691 311.971 169.874 311.971 170.083C311.971 170.292 311.963 170.457 311.945 170.579C311.858 172.46 311.771 174.07 311.684 175.411C311.614 176.752 311.527 177.866 311.423 178.754C311.336 179.642 311.214 180.347 311.057 180.869C310.918 181.392 310.752 181.775 310.561 182.019C310.247 182.402 309.917 182.672 309.568 182.828C309.238 182.985 308.855 183.098 308.419 183.168C308.036 183.237 307.54 183.272 306.931 183.272C306.321 183.29 305.686 183.281 305.024 183.246C305.007 182.811 304.911 182.306 304.737 181.731C304.563 181.174 304.345 180.687 304.084 180.269C304.676 180.321 305.215 180.356 305.703 180.373C306.208 180.391 306.6 180.399 306.878 180.399C307.087 180.399 307.261 180.373 307.401 180.321C307.54 180.269 307.679 180.173 307.819 180.034C307.993 179.825 308.141 179.363 308.263 178.649C308.384 177.918 308.489 176.847 308.576 175.437C308.68 174.009 308.767 172.146 308.837 169.848V169.299ZM302.073 165.303H305.311C305.259 166.957 305.155 168.629 304.998 170.318C304.859 172.007 304.597 173.644 304.214 175.228C303.831 176.812 303.265 178.301 302.517 179.694C301.785 181.07 300.802 182.297 299.565 183.377C299.322 182.959 298.973 182.524 298.521 182.071C298.085 181.618 297.659 181.244 297.241 180.948C298.373 180.042 299.252 178.989 299.879 177.788C300.523 176.569 300.993 175.272 301.289 173.896C301.585 172.503 301.777 171.075 301.864 169.613C301.951 168.15 302.02 166.714 302.073 165.303ZM298.599 163.214H312.911V166.165H298.599V163.214ZM303.718 169.299H310.091V172.198H303.718V169.299ZM289.51 166.818H297.607V169.195H289.51V166.818ZM289.615 159.636H297.554V161.986H289.615V159.636ZM289.51 170.396H297.607V172.747H289.51V170.396ZM288.256 163.136H298.207V165.617H288.256V163.136ZM290.947 174H297.554V181.966H290.947V179.485H294.864V176.482H290.947V174ZM289.432 174H292.096V182.985H289.432V174ZM317.613 160.393H335.843V182.985H332.474V163.553H320.825V183.037H317.613V160.393ZM319.807 169.169H333.858V172.251H319.807V169.169ZM319.807 178.153H333.884V181.313H319.807V178.153ZM345.95 162.613H352.349V165.591H345.95V162.613ZM356.867 158.878H360.132V183.298H356.867V158.878ZM343.051 170.37L344.644 168.02C345.289 168.368 345.968 168.777 346.682 169.247C347.413 169.717 348.101 170.187 348.745 170.657C349.389 171.128 349.911 171.58 350.312 172.016L348.614 174.653C348.249 174.218 347.752 173.748 347.126 173.243C346.499 172.721 345.828 172.207 345.115 171.702C344.401 171.197 343.713 170.753 343.051 170.37ZM346.264 158.774L349.398 159.427C348.945 161.185 348.379 162.874 347.7 164.494C347.039 166.113 346.281 167.61 345.428 168.986C344.592 170.344 343.687 171.528 342.712 172.538C342.538 172.346 342.285 172.129 341.954 171.885C341.641 171.624 341.319 171.371 340.988 171.128C340.657 170.866 340.361 170.666 340.1 170.527C341.075 169.639 341.954 168.585 342.738 167.367C343.521 166.148 344.209 164.807 344.801 163.344C345.393 161.864 345.881 160.341 346.264 158.774ZM355.248 165.147C355.771 166.104 356.397 167.053 357.129 167.993C357.877 168.916 358.704 169.796 359.61 170.631C360.515 171.467 361.473 172.224 362.483 172.904C363.51 173.583 364.546 174.166 365.591 174.653C365.364 174.862 365.103 175.132 364.807 175.463C364.511 175.776 364.233 176.107 363.971 176.456C363.71 176.786 363.493 177.091 363.319 177.37C362.222 176.795 361.159 176.107 360.132 175.306C359.122 174.505 358.156 173.617 357.233 172.642C356.31 171.667 355.457 170.631 354.674 169.534C353.907 168.437 353.22 167.306 352.61 166.139L355.248 165.147ZM351.461 162.613H352.062L352.61 162.509L354.674 163.214C354.151 166.574 353.359 169.552 352.297 172.146C351.252 174.74 349.972 176.952 348.458 178.78C346.943 180.591 345.245 182.036 343.365 183.116C343.191 182.889 342.955 182.619 342.659 182.306C342.363 182.01 342.05 181.714 341.719 181.418C341.406 181.139 341.119 180.922 340.857 180.765C342.72 179.79 344.375 178.51 345.82 176.926C347.265 175.324 348.466 173.391 349.424 171.128C350.382 168.864 351.061 166.261 351.461 163.318V162.613ZM372.303 164.128H385.205V166.844H372.303V164.128ZM373.008 169.325H384.631V171.963H373.008V169.325ZM372.042 175.071H385.649V177.631H372.042V175.071ZM377.291 164.99H380.191V176.429H377.291V164.99ZM381.026 172.799L383.011 171.78C383.394 172.146 383.795 172.573 384.213 173.06C384.631 173.53 384.944 173.948 385.153 174.314L383.063 175.489C382.855 175.124 382.55 174.688 382.149 174.183C381.766 173.678 381.392 173.217 381.026 172.799ZM367.811 159.845H389.88V183.298H386.537V162.718H370.997V183.298H367.811V159.845ZM369.561 179.12H388.078V182.019H369.561V179.12ZM402.808 159.427H406.413C406.378 160.158 406.317 161.098 406.23 162.248C406.143 163.397 405.977 164.676 405.734 166.087C405.507 167.48 405.159 168.942 404.689 170.475C404.219 172.007 403.575 173.539 402.756 175.071C401.955 176.586 400.928 178.04 399.674 179.433C398.438 180.808 396.932 182.036 395.156 183.116C394.877 182.715 394.494 182.288 394.007 181.836C393.537 181.383 393.04 180.974 392.518 180.608C394.259 179.633 395.722 178.519 396.906 177.265C398.09 176.012 399.056 174.697 399.805 173.321C400.554 171.928 401.128 170.536 401.529 169.143C401.929 167.732 402.216 166.4 402.391 165.147C402.565 163.893 402.669 162.77 402.704 161.777C402.739 160.785 402.774 160.001 402.808 159.427ZM406.282 160.132C406.299 160.463 406.334 160.985 406.387 161.699C406.439 162.413 406.543 163.266 406.7 164.259C406.857 165.251 407.092 166.331 407.405 167.497C407.736 168.646 408.171 169.83 408.711 171.049C409.251 172.268 409.921 173.461 410.722 174.627C411.523 175.794 412.489 176.873 413.621 177.866C414.77 178.858 416.111 179.72 417.643 180.452C417.138 180.817 416.668 181.244 416.233 181.731C415.815 182.219 415.475 182.68 415.214 183.116C413.612 182.315 412.211 181.366 411.009 180.269C409.825 179.154 408.807 177.953 407.954 176.664C407.118 175.359 406.421 174.035 405.864 172.695C405.307 171.354 404.854 170.039 404.506 168.751C404.175 167.445 403.923 166.235 403.749 165.12C403.575 164.006 403.453 163.04 403.383 162.221C403.331 161.403 403.287 160.811 403.252 160.445L406.282 160.132ZM432.242 178.526C435.66 178.092 438.006 175.338 438.006 171.716C438.006 168.234 435.724 165.901 432.344 165.391C430.827 176.46 428.722 180.872 425.05 180.872C421.81 180.872 419.362 177.48 419.362 173.017C419.362 166.768 424.208 162.304 430.992 162.304C436.961 162.304 441.271 165.799 441.271 171.716C441.271 176.919 438.006 180.847 433.186 181.459L432.242 178.526ZM422.423 173.017C422.423 175.236 423.672 177.531 424.871 177.531C426.478 177.531 427.996 173.119 429.028 165.518C425.241 166.309 422.423 169.357 422.423 173.017ZM327.002 211.754H344.841V214.81H327.002V211.754ZM334.106 192.087H337.345V213.634H334.106V192.087ZM325.461 205.224H328.648V216.351H325.461V205.224ZM343.169 205.224H346.434V216.324H343.169V205.224ZM326.48 194.281H329.614V200.758H342.098V194.255H345.389V203.814H326.48V194.281ZM356.124 198.512H367.746V200.758H356.124V198.512ZM356.124 202.325H367.746V204.598H356.124V202.325ZM366.336 194.307H369.6V212.511C369.6 213.417 369.496 214.113 369.287 214.601C369.078 215.106 368.677 215.497 368.085 215.776C367.511 216.037 366.788 216.203 365.918 216.272C365.047 216.342 363.985 216.368 362.731 216.351C362.679 216.037 362.592 215.68 362.47 215.28C362.366 214.879 362.235 214.479 362.078 214.078C361.939 213.695 361.791 213.356 361.634 213.06C362.174 213.095 362.714 213.121 363.254 213.138C363.811 213.138 364.298 213.138 364.716 213.138C365.152 213.121 365.465 213.112 365.656 213.112C365.9 213.112 366.074 213.068 366.179 212.981C366.283 212.894 366.336 212.729 366.336 212.485V194.307ZM350.247 206.661C351.675 206.591 353.346 206.513 355.262 206.426C357.194 206.339 359.24 206.234 361.399 206.112C363.576 205.991 365.726 205.869 367.85 205.747L367.824 208.411C365.804 208.585 363.767 208.759 361.713 208.933C359.658 209.09 357.682 209.238 355.784 209.377C353.904 209.516 352.206 209.638 350.691 209.743L350.247 206.661ZM370.906 199.661L373.962 201.124C372.343 203.631 370.392 205.851 368.112 207.784C365.848 209.699 363.349 211.353 360.616 212.746C357.882 214.122 355.009 215.254 351.997 216.142C351.858 215.88 351.657 215.567 351.396 215.201C351.135 214.853 350.865 214.505 350.587 214.157C350.325 213.808 350.082 213.512 349.855 213.269C352.902 212.503 355.758 211.501 358.422 210.265C361.086 209.012 363.48 207.505 365.604 205.747C367.728 203.971 369.496 201.942 370.906 199.661ZM360.381 191.722L364.246 192.14C363.846 192.94 363.41 193.724 362.94 194.49C362.488 195.256 362.07 195.9 361.687 196.423L358.892 195.848C359.188 195.239 359.475 194.56 359.754 193.811C360.032 193.045 360.241 192.348 360.381 191.722ZM354.112 194.307H367.38V196.997H357.273V208.071H354.112V194.307ZM381.536 197.128H394.438V199.844H381.536V197.128ZM382.241 202.325H393.864V204.963H382.241V202.325ZM381.275 208.071H394.882V210.631H381.275V208.071ZM386.524 197.99H389.424V209.429H386.524V197.99ZM390.259 205.799L392.244 204.78C392.627 205.146 393.028 205.573 393.446 206.06C393.864 206.53 394.177 206.948 394.386 207.314L392.296 208.489C392.088 208.124 391.783 207.688 391.382 207.183C390.999 206.678 390.625 206.217 390.259 205.799ZM377.044 192.845H399.113V216.298H395.77V195.718H380.23V216.298H377.044V192.845ZM378.794 212.12H397.311V215.019H378.794V212.12Z" fill="#414141"/>
<path d="M510.666 256.295V269.021H508.012V258.809H507.941L505.023 260.637V258.299L508.17 256.295H510.666ZM518.4 269.197C515.5 269.197 513.408 267.668 513.408 265.594C513.408 263.994 514.639 262.693 516.221 262.447V262.359C514.85 262.096 513.9 260.936 513.9 259.547C513.9 257.561 515.799 256.119 518.4 256.119C521.002 256.119 522.9 257.561 522.918 259.547C522.9 260.953 521.934 262.096 520.598 262.359V262.447C522.145 262.693 523.393 263.994 523.393 265.594C523.393 267.668 521.301 269.197 518.4 269.197ZM518.4 267.176C519.736 267.176 520.633 266.42 520.633 265.33C520.633 264.223 519.701 263.414 518.4 263.414C517.1 263.414 516.15 264.223 516.168 265.33C516.15 266.42 517.047 267.176 518.4 267.176ZM518.4 261.551C519.525 261.551 520.334 260.83 520.334 259.811C520.334 258.826 519.543 258.123 518.4 258.123C517.258 258.123 516.484 258.809 516.484 259.811C516.484 260.83 517.275 261.551 518.4 261.551ZM526.381 269.18C525.555 269.18 524.887 268.512 524.904 267.703C524.887 266.895 525.555 266.244 526.381 266.244C527.154 266.244 527.84 266.895 527.84 267.703C527.84 268.512 527.154 269.18 526.381 269.18ZM534.326 256.119C536.963 256.137 539.459 257.701 539.459 262.324C539.477 266.648 537.42 269.197 534.221 269.197C531.654 269.197 529.914 267.598 529.65 265.436H532.252C532.463 266.367 533.201 266.93 534.221 266.93C535.961 266.93 536.875 265.383 536.875 262.834H536.77C536.172 263.959 534.924 264.627 533.5 264.627C531.215 264.627 529.527 262.904 529.51 260.531C529.51 257.965 531.443 256.102 534.326 256.119ZM534.344 258.193C533.043 258.193 532.076 259.195 532.094 260.461C532.094 261.709 533.025 262.693 534.326 262.693C535.609 262.693 536.611 261.674 536.611 260.443C536.594 259.23 535.645 258.193 534.344 258.193ZM544.592 262.658C542.693 262.658 541.656 261.27 541.656 259.266C541.656 257.244 542.729 255.855 544.592 255.855C546.508 255.855 547.51 257.244 547.527 259.266C547.51 261.287 546.473 262.658 544.592 262.658ZM544.592 261.094C545.348 261.094 545.717 260.355 545.734 259.266C545.717 258.176 545.383 257.42 544.592 257.42C543.836 257.42 543.449 258.193 543.449 259.266C543.449 260.355 543.854 261.094 544.592 261.094ZM553.17 269.443C551.289 269.443 550.252 268.055 550.252 266.051C550.252 264.029 551.324 262.641 553.17 262.641C555.086 262.641 556.105 264.029 556.123 266.051C556.105 268.072 555.068 269.443 553.17 269.443ZM553.17 267.879C553.943 267.879 554.312 267.158 554.33 266.051C554.312 264.961 553.979 264.205 553.17 264.223C552.432 264.223 552.045 264.979 552.045 266.051C552.045 267.158 552.449 267.879 553.17 267.879ZM543.484 269.021L552.238 256.295H554.207L545.453 269.021H543.484Z" fill="#4D66DA"/>
<path d="M477.885 37.2344L477.867 35.3184L482.438 31.1172C483.633 29.9746 484.266 29.2715 484.266 28.2695C484.266 27.1445 483.404 26.4414 482.244 26.4414C481.049 26.4414 480.275 27.1973 480.275 28.4102H477.762C477.744 25.9141 479.59 24.332 482.279 24.332C485.004 24.332 486.814 25.8789 486.814 28.0938C486.814 29.5352 486.111 30.7305 483.492 33.1035L481.559 34.9844V35.0547H486.99V37.2344H477.885ZM493.582 37.4102C490.787 37.4102 488.783 35.8633 488.73 33.6484H491.402C491.455 34.5977 492.369 35.2305 493.6 35.2305C494.865 35.2305 495.779 34.5098 495.762 33.4902C495.779 32.4531 494.848 31.7148 493.354 31.7148H492.176V29.7637H493.354C494.602 29.7637 495.48 29.0781 495.48 28.0762C495.48 27.1094 494.742 26.4414 493.617 26.4414C492.492 26.4414 491.561 27.0742 491.525 28.041H488.994C489.029 25.8438 491.016 24.332 493.617 24.332C496.271 24.332 498.047 25.8965 498.029 27.918C498.047 29.3418 497.045 30.3613 495.621 30.6074V30.7129C497.484 30.9414 498.521 32.084 498.504 33.666C498.521 35.8457 496.447 37.4102 493.582 37.4102ZM501.545 37.3926C500.719 37.3926 500.051 36.7246 500.068 35.916C500.051 35.1074 500.719 34.457 501.545 34.457C502.318 34.457 503.004 35.1074 503.004 35.916C503.004 36.7246 502.318 37.3926 501.545 37.3926ZM509.49 24.332C512.127 24.3496 514.623 25.9141 514.623 30.5371C514.641 34.8613 512.584 37.4102 509.385 37.4102C506.818 37.4102 505.078 35.8105 504.814 33.6484H507.416C507.627 34.5801 508.365 35.1426 509.385 35.1426C511.125 35.1426 512.039 33.5957 512.039 31.0469H511.934C511.336 32.1719 510.088 32.8398 508.664 32.8398C506.379 32.8398 504.691 31.1172 504.674 28.7441C504.674 26.1777 506.607 24.3145 509.49 24.332ZM509.508 26.4062C508.207 26.4062 507.24 27.4082 507.258 28.6738C507.258 29.9219 508.189 30.9062 509.49 30.9062C510.773 30.9062 511.775 29.8867 511.775 28.6562C511.758 27.4434 510.809 26.4062 509.508 26.4062ZM519.756 30.8711C517.857 30.8711 516.82 29.4824 516.82 27.4785C516.82 25.457 517.893 24.0684 519.756 24.0684C521.672 24.0684 522.674 25.457 522.691 27.4785C522.674 29.5 521.637 30.8711 519.756 30.8711ZM519.756 29.3066C520.512 29.3066 520.881 28.5684 520.898 27.4785C520.881 26.3887 520.547 25.6328 519.756 25.6328C519 25.6328 518.613 26.4062 518.613 27.4785C518.613 28.5684 519.018 29.3066 519.756 29.3066ZM528.334 37.6562C526.453 37.6562 525.416 36.2676 525.416 34.2637C525.416 32.2422 526.488 30.8535 528.334 30.8535C530.25 30.8535 531.27 32.2422 531.287 34.2637C531.27 36.2852 530.232 37.6562 528.334 37.6562ZM528.334 36.0918C529.107 36.0918 529.477 35.3711 529.494 34.2637C529.477 33.1738 529.143 32.418 528.334 32.4355C527.596 32.4355 527.209 33.1914 527.209 34.2637C527.209 35.3711 527.613 36.0918 528.334 36.0918ZM518.648 37.2344L527.402 24.5078H529.371L520.617 37.2344H518.648Z" fill="#4D66DA"/>
<path d="M158.721 254.168V266.895H156.066V256.682H155.996L153.078 258.51V256.172L156.225 254.168H158.721ZM166.596 267.07C163.959 267.053 161.463 265.488 161.463 260.83C161.463 256.541 163.52 253.992 166.701 253.992C169.268 253.992 171.008 255.609 171.271 257.701H168.67C168.459 256.805 167.721 256.26 166.701 256.26C164.979 256.26 164.064 257.824 164.047 260.32H164.17C164.75 259.195 166.016 258.527 167.422 258.527C169.707 258.527 171.412 260.25 171.412 262.641C171.412 265.225 169.461 267.088 166.596 267.07ZM166.578 264.979C167.879 264.979 168.846 263.994 168.846 262.711C168.846 261.445 167.914 260.443 166.613 260.443C165.312 260.443 164.328 261.463 164.311 262.711C164.328 263.959 165.277 264.979 166.578 264.979ZM174.26 267.053C173.434 267.053 172.766 266.385 172.783 265.576C172.766 264.768 173.434 264.117 174.26 264.117C175.033 264.117 175.719 264.768 175.719 265.576C175.719 266.385 175.033 267.053 174.26 267.053ZM177.582 264.645V262.553L182.961 254.168H186.283V262.518H187.9V264.645H186.283V266.895H183.77V264.645H177.582ZM180.254 262.518H183.805V257.068H183.682L180.254 262.412V262.518ZM192.963 260.531C191.064 260.531 190.027 259.143 190.027 257.139C190.027 255.117 191.1 253.729 192.963 253.729C194.879 253.729 195.881 255.117 195.898 257.139C195.881 259.16 194.844 260.531 192.963 260.531ZM192.963 258.967C193.719 258.967 194.088 258.229 194.105 257.139C194.088 256.049 193.754 255.293 192.963 255.293C192.207 255.293 191.82 256.066 191.82 257.139C191.82 258.229 192.225 258.967 192.963 258.967ZM201.541 267.316C199.66 267.316 198.623 265.928 198.623 263.924C198.623 261.902 199.695 260.514 201.541 260.514C203.457 260.514 204.477 261.902 204.494 263.924C204.477 265.945 203.439 267.316 201.541 267.316ZM201.541 265.752C202.314 265.752 202.684 265.031 202.701 263.924C202.684 262.834 202.35 262.078 201.541 262.096C200.803 262.096 200.416 262.852 200.416 263.924C200.416 265.031 200.82 265.752 201.541 265.752ZM191.855 266.895L200.609 254.168H202.578L193.824 266.895H191.855Z" fill="#96A8FF"/>
<path d="M155.529 86.0684V98.7949H152.875V88.582H152.805L149.887 90.4102V88.0723L153.033 86.0684H155.529ZM158.482 98.7949L158.465 96.8789L163.035 92.6777C164.23 91.5352 164.863 90.832 164.863 89.8301C164.863 88.7051 164.002 88.002 162.842 88.002C161.646 88.002 160.873 88.7578 160.873 89.9707H158.359C158.342 87.4746 160.188 85.8926 162.877 85.8926C165.602 85.8926 167.412 87.4395 167.412 89.6543C167.412 91.0957 166.709 92.291 164.09 94.6641L162.156 96.5449V96.6152H167.588V98.7949H158.482ZM171.016 98.9531C170.189 98.9531 169.521 98.2852 169.539 97.4766C169.521 96.668 170.189 96.0176 171.016 96.0176C171.789 96.0176 172.475 96.668 172.475 97.4766C172.475 98.2852 171.789 98.9531 171.016 98.9531ZM178.855 98.9707C176.061 98.9707 174.057 97.4238 174.004 95.209H176.676C176.729 96.1582 177.643 96.791 178.873 96.791C180.139 96.791 181.053 96.0703 181.035 95.0508C181.053 94.0137 180.121 93.2754 178.627 93.2754H177.449V91.3242H178.627C179.875 91.3242 180.754 90.6387 180.754 89.6367C180.754 88.6699 180.016 88.002 178.891 88.002C177.766 88.002 176.834 88.6348 176.799 89.6016H174.268C174.303 87.4043 176.289 85.8926 178.891 85.8926C181.545 85.8926 183.32 87.457 183.303 89.4785C183.32 90.9023 182.318 91.9219 180.895 92.168V92.2734C182.758 92.502 183.795 93.6445 183.777 95.2266C183.795 97.4062 181.721 98.9707 178.855 98.9707ZM188.98 92.4316C187.082 92.4316 186.045 91.043 186.045 89.0391C186.045 87.0176 187.117 85.6289 188.98 85.6289C190.896 85.6289 191.898 87.0176 191.916 89.0391C191.898 91.0605 190.861 92.4316 188.98 92.4316ZM188.98 90.8672C189.736 90.8672 190.105 90.1289 190.123 89.0391C190.105 87.9492 189.771 87.1934 188.98 87.1934C188.225 87.1934 187.838 87.9668 187.838 89.0391C187.838 90.1289 188.242 90.8672 188.98 90.8672ZM197.559 99.2168C195.678 99.2168 194.641 97.8281 194.641 95.8242C194.641 93.8027 195.713 92.4141 197.559 92.4141C199.475 92.4141 200.494 93.8027 200.512 95.8242C200.494 97.8457 199.457 99.2168 197.559 99.2168ZM197.559 97.6523C198.332 97.6523 198.701 96.9316 198.719 95.8242C198.701 94.7344 198.367 93.9785 197.559 93.9961C196.82 93.9961 196.434 94.752 196.434 95.8242C196.434 96.9316 196.838 97.6523 197.559 97.6523ZM187.873 98.7949L196.627 86.0684H198.596L189.842 98.7949H187.873Z" fill="#B0BEFF"/>
<path d="M253.412 6.27344V19H250.758V8.78711H250.688L247.77 10.6152V8.27734L250.916 6.27344H253.412ZM261.85 6.27344V19H259.195V8.78711H259.125L256.207 10.6152V8.27734L259.354 6.27344H261.85ZM265.664 19.1582C264.838 19.1582 264.17 18.4902 264.188 17.6816C264.17 16.873 264.838 16.2227 265.664 16.2227C266.438 16.2227 267.123 16.873 267.123 17.6816C267.123 18.4902 266.438 19.1582 265.664 19.1582ZM273.504 19.1758C270.709 19.1758 268.705 17.6289 268.652 15.4141H271.324C271.377 16.3633 272.291 16.9961 273.521 16.9961C274.787 16.9961 275.701 16.2754 275.684 15.2559C275.701 14.2188 274.77 13.4805 273.275 13.4805H272.098V11.5293H273.275C274.523 11.5293 275.402 10.8438 275.402 9.8418C275.402 8.875 274.664 8.20703 273.539 8.20703C272.414 8.20703 271.482 8.83984 271.447 9.80664H268.916C268.951 7.60938 270.938 6.09766 273.539 6.09766C276.193 6.09766 277.969 7.66211 277.951 9.68359C277.969 11.1074 276.967 12.127 275.543 12.373V12.4785C277.406 12.707 278.443 13.8496 278.426 15.4316C278.443 17.6113 276.369 19.1758 273.504 19.1758ZM283.629 12.6367C281.73 12.6367 280.693 11.248 280.693 9.24414C280.693 7.22266 281.766 5.83398 283.629 5.83398C285.545 5.83398 286.547 7.22266 286.564 9.24414C286.547 11.2656 285.51 12.6367 283.629 12.6367ZM283.629 11.0723C284.385 11.0723 284.754 10.334 284.771 9.24414C284.754 8.1543 284.42 7.39844 283.629 7.39844C282.873 7.39844 282.486 8.17188 282.486 9.24414C282.486 10.334 282.891 11.0723 283.629 11.0723ZM292.207 19.4219C290.326 19.4219 289.289 18.0332 289.289 16.0293C289.289 14.0078 290.361 12.6191 292.207 12.6191C294.123 12.6191 295.143 14.0078 295.16 16.0293C295.143 18.0508 294.105 19.4219 292.207 19.4219ZM292.207 17.8574C292.98 17.8574 293.35 17.1367 293.367 16.0293C293.35 14.9395 293.016 14.1836 292.207 14.2012C291.469 14.2012 291.082 14.957 291.082 16.0293C291.082 17.1367 291.486 17.8574 292.207 17.8574ZM282.521 19L291.275 6.27344H293.244L284.49 19H282.521Z" fill="#C9D3FF"/>
<path d="M339.373 348.217V360.943H336.719V350.73H336.648L333.73 352.559V350.221L336.877 348.217H339.373ZM342.818 360.943L348.18 350.467V350.379H341.939V348.217H350.922V350.414L345.561 360.943H342.818ZM352.029 361.102C351.203 361.102 350.535 360.434 350.553 359.625C350.535 358.816 351.203 358.166 352.029 358.166C352.803 358.166 353.488 358.816 353.488 359.625C353.488 360.434 352.803 361.102 352.029 361.102ZM355.562 360.943L355.545 359.027L360.115 354.826C361.311 353.684 361.943 352.98 361.943 351.979C361.943 350.854 361.082 350.15 359.922 350.15C358.727 350.15 357.953 350.906 357.953 352.119H355.439C355.422 349.623 357.268 348.041 359.957 348.041C362.682 348.041 364.492 349.588 364.492 351.803C364.492 353.244 363.789 354.439 361.17 356.812L359.236 358.693V358.764H364.668V360.943H355.562ZM369.889 354.58C367.99 354.58 366.953 353.191 366.953 351.188C366.953 349.166 368.025 347.777 369.889 347.777C371.805 347.777 372.807 349.166 372.824 351.188C372.807 353.209 371.77 354.58 369.889 354.58ZM369.889 353.016C370.645 353.016 371.014 352.277 371.031 351.188C371.014 350.098 370.68 349.342 369.889 349.342C369.133 349.342 368.746 350.115 368.746 351.188C368.746 352.277 369.15 353.016 369.889 353.016ZM378.467 361.365C376.586 361.365 375.549 359.977 375.549 357.973C375.549 355.951 376.621 354.562 378.467 354.562C380.383 354.562 381.402 355.951 381.42 357.973C381.402 359.994 380.365 361.365 378.467 361.365ZM378.467 359.801C379.24 359.801 379.609 359.08 379.627 357.973C379.609 356.883 379.275 356.127 378.467 356.145C377.729 356.145 377.342 356.9 377.342 357.973C377.342 359.08 377.746 359.801 378.467 359.801ZM368.781 360.943L377.535 348.217H379.504L370.75 360.943H368.781Z" fill="#7389F1"/>
</g>
<path opacity="0.5" d="M2.87411 388.249C2.87411 386.727 4.10775 385.506 5.63011 385.506C6.94249 385.506 8.04489 386.425 8.22863 387.659H7.08685C6.95562 387.029 6.32567 386.582 5.63011 386.582C4.71145 386.582 3.96339 387.331 3.96339 388.249C3.96339 389.168 4.71145 389.916 5.63011 389.916C6.32567 389.916 6.86375 389.47 6.99499 388.84H8.12364C7.95303 390.073 6.94249 390.992 5.63011 390.992C4.10775 390.992 2.87411 389.772 2.87411 388.249ZM5.57762 393.144C2.88724 393.144 0.669314 390.953 0.682438 388.249C0.682438 385.533 2.88724 383.354 5.57762 383.354C8.29424 383.354 10.4728 385.533 10.4728 388.249C10.4859 390.953 8.29424 393.144 5.57762 393.144ZM5.57762 392.055C7.69055 392.055 9.39664 390.349 9.38352 388.249C9.3704 386.136 7.67743 384.443 5.57762 384.443C3.49093 384.443 1.78484 386.149 1.77171 388.249C1.75859 390.336 3.47781 392.055 5.57762 392.055ZM19.2133 383.498H20.4075V390.283C20.4075 392.108 19.3314 393.131 17.6778 393.131C16.1029 393.131 14.9611 392.226 14.9611 390.756H16.1292C16.1292 391.556 16.7853 392.081 17.6778 392.081C18.6621 392.081 19.2133 391.465 19.2133 390.283V383.498ZM22.9273 393H21.6936L25.1715 383.498H26.4182L29.896 393H28.6493L27.7044 390.323H23.8853L22.9273 393ZM24.2397 389.286H27.3369L25.8276 385.034H25.7489L24.2397 389.286ZM31.1822 393V383.498H34.4106C36.6417 383.498 37.6522 384.824 37.6522 386.517C37.6522 388.197 36.6417 389.548 34.4237 389.548H32.3633V393H31.1822ZM32.3633 388.499H34.3712C35.8805 388.499 36.4842 387.645 36.4842 386.517C36.4842 385.375 35.8805 384.548 34.3581 384.548H32.3633V388.499ZM38.7546 393H37.521L40.9988 383.498H42.2455L45.7233 393H44.4766L43.5317 390.323H39.7126L38.7546 393ZM40.067 389.286H43.1642L41.655 385.034H41.5762L40.067 389.286ZM54.5557 383.498V393H53.427L48.2825 385.598H48.1906V393H47.0095V383.498H48.1512L53.2958 390.913H53.3876V383.498H54.5557ZM67.5745 383.498V393H66.4458L61.3013 385.598H61.2094V393H60.0283V383.498H61.1701L66.3146 390.913H66.4065V383.498H67.5745ZM70.0942 393H68.8606L72.3384 383.498H73.5852L77.063 393H75.8162L74.8713 390.323H71.0523L70.0942 393ZM71.4066 389.286H74.5038L72.9946 385.034H72.9159L71.4066 389.286ZM76.7086 384.548V383.498H83.8742V384.548H80.8951V393H79.7009V384.548H76.7086ZM86.6302 383.498V393H85.4491V383.498H86.6302ZM96.7618 388.249C96.7618 391.255 94.9901 393.131 92.5622 393.131C90.1212 393.131 88.3626 391.255 88.3626 388.249C88.3626 385.244 90.1212 383.367 92.5622 383.367C94.9901 383.367 96.7618 385.244 96.7618 388.249ZM95.62 388.249C95.62 385.795 94.2814 384.47 92.5622 384.47C90.843 384.47 89.5043 385.795 89.5043 388.249C89.5043 390.703 90.843 392.029 92.5622 392.029C94.2814 392.029 95.62 390.703 95.62 388.249ZM106.04 383.498V393H104.912L99.7672 385.598H99.6753V393H98.4942V383.498H99.6359L104.78 390.913H104.872V383.498H106.04ZM108.56 393H107.326L110.804 383.498H112.051L115.529 393H114.282L113.337 390.323H109.518L108.56 393ZM109.872 389.286H112.97L111.46 385.034H111.382L109.872 389.286ZM116.815 393V383.498H117.996V391.95H122.406V393H116.815ZM126.828 384.548V383.498H133.994V384.548H131.015V393H129.821V384.548H126.828ZM143.207 388.249C143.207 391.255 141.435 393.131 139.007 393.131C136.566 393.131 134.808 391.255 134.808 388.249C134.808 385.244 136.566 383.367 139.007 383.367C141.435 383.367 143.207 385.244 143.207 388.249ZM142.065 388.249C142.065 385.795 140.727 384.47 139.007 384.47C137.288 384.47 135.949 385.795 135.949 388.249C135.949 390.703 137.288 392.029 139.007 392.029C140.727 392.029 142.065 390.703 142.065 388.249ZM151.16 383.498H152.341V389.785C152.341 391.74 150.884 393.171 148.64 393.171C146.396 393.171 144.939 391.74 144.939 389.785V383.498H146.12V389.693C146.12 391.071 147.078 392.068 148.64 392.068C150.215 392.068 151.16 391.071 151.16 389.693V383.498ZM154.441 393V383.498H157.669C159.9 383.498 160.911 384.732 160.911 386.425C160.911 387.678 160.347 388.669 159.139 389.089L161.278 393H159.9L157.919 389.299L157.683 389.312H155.622V393H154.441ZM155.622 388.236H157.63C159.139 388.236 159.743 387.554 159.743 386.425C159.743 385.283 159.139 384.548 157.617 384.548H155.622V388.236ZM163.798 383.498V393H162.617V383.498H163.798ZM171.082 385.887C170.977 384.955 170.124 384.417 168.982 384.417C167.722 384.417 166.895 385.073 166.895 385.979C166.895 386.976 168.011 387.344 168.733 387.527L169.678 387.79C170.701 388.052 172.368 388.643 172.368 390.415C172.368 391.963 171.121 393.171 168.916 393.171C166.869 393.171 165.596 392.108 165.491 390.533H166.699C166.804 391.596 167.788 392.094 168.916 392.094C170.229 392.094 171.213 391.425 171.213 390.388C171.213 389.47 170.334 389.115 169.336 388.827L168.168 388.512C166.672 388.079 165.754 387.317 165.754 386.031C165.754 384.43 167.184 383.367 169.021 383.367C170.859 383.367 172.184 384.443 172.237 385.887H171.082ZM174.061 383.498H175.478L178.681 391.32H178.799L182.001 383.498H183.418V393H182.303V385.821H182.211L179.258 393H178.208L175.255 385.821H175.177V393H174.061V383.498ZM196.923 388.249C196.923 391.255 195.151 393.131 192.723 393.131C190.282 393.131 188.523 391.255 188.523 388.249C188.523 385.244 190.282 383.367 192.723 383.367C195.151 383.367 196.923 385.244 196.923 388.249ZM195.781 388.249C195.781 385.795 194.442 384.47 192.723 384.47C191.004 384.47 189.665 385.795 189.665 388.249C189.665 390.703 191.004 392.029 192.723 392.029C194.442 392.029 195.781 390.703 195.781 388.249ZM198.655 393V383.498H201.883C204.115 383.498 205.125 384.732 205.125 386.425C205.125 387.678 204.561 388.669 203.353 389.089L205.493 393H204.115L202.133 389.299L201.897 389.312H199.836V393H198.655ZM199.836 388.236H201.844C203.353 388.236 203.957 387.554 203.957 386.425C203.957 385.283 203.353 384.548 201.831 384.548H199.836V388.236ZM213.314 386.464C212.907 385.244 211.976 384.47 210.624 384.47C208.944 384.47 207.605 385.795 207.605 388.249C207.605 390.703 208.944 392.029 210.703 392.029C212.31 392.029 213.406 390.953 213.432 389.273H210.952V388.236H214.587V389.26C214.587 391.622 212.96 393.131 210.703 393.131C208.17 393.131 206.464 391.255 206.464 388.249C206.464 385.244 208.183 383.367 210.624 383.367C212.632 383.367 214.181 384.627 214.535 386.464H213.314ZM216.477 393H215.244L218.721 383.498H219.968L223.446 393H222.199L221.254 390.323H217.435L216.477 393ZM217.79 389.286H220.887L219.378 385.034H219.299L217.79 389.286ZM232.278 383.498V393H231.15L226.005 385.598H225.913V393H224.732V383.498H225.874L231.018 390.913H231.11V383.498H232.278ZM235.559 383.498V393H234.378V383.498H235.559ZM237.344 393V392.147L242.449 384.548H237.292V383.498H243.867V384.351L238.761 391.95H243.919V393H237.344ZM246.071 393H244.838L248.316 383.498H249.562L253.04 393H251.793L250.848 390.323H247.029L246.071 393ZM247.384 389.286H250.481L248.972 385.034H248.893L247.384 389.286ZM252.686 384.548V383.498H259.851V384.548H256.872V393H255.678V384.548H252.686ZM262.607 383.498V393H261.426V383.498H262.607ZM272.739 388.249C272.739 391.255 270.967 393.131 268.539 393.131C266.098 393.131 264.34 391.255 264.34 388.249C264.34 385.244 266.098 383.367 268.539 383.367C270.967 383.367 272.739 385.244 272.739 388.249ZM271.597 388.249C271.597 385.795 270.259 384.47 268.539 384.47C266.82 384.47 265.481 385.795 265.481 388.249C265.481 390.703 266.82 392.029 268.539 392.029C270.259 392.029 271.597 390.703 271.597 388.249ZM282.017 383.498V393H280.889L275.744 385.598H275.652V393H274.471V383.498H275.613L280.758 390.913H280.849V383.498H282.017Z" fill="#414141"/>
<defs>
<clipPath id="clip0_853_1434">
<rect width="559" height="368" fill="white"/>
</clipPath>
</defs>
</svg>
