<svg width="396" height="128" viewBox="0 0 396 128" fill="none" xmlns="http://www.w3.org/2000/svg">
<g opacity="0.6">
<path d="M151.857 125.758L5.31996 67.8821C4.46092 67.5428 3.89648 66.713 3.89648 65.7894V61.5391C3.89648 60.2964 4.90384 59.2891 6.14648 59.2891H307.559C308.801 59.2891 309.809 60.2964 309.809 61.5391V65.7768C309.809 66.7067 309.237 67.5408 308.369 67.8758L158.405 125.783C156.297 126.597 153.959 126.588 151.857 125.758Z" fill="#5F75DA"/>
<path opacity="0.6" d="M308.374 67.8771L157.708 126.34C156.828 126.681 155.88 126.032 155.88 125.088V118.616C155.88 117.679 156.461 116.839 157.339 116.51L306.77 60.4302C308.241 59.8781 309.81 60.9655 309.81 62.5367V65.7795C309.81 66.7081 309.24 67.5412 308.374 67.8771Z" fill="#254598"/>
<path d="M5.52973 57.5925C55.5827 38.7718 145.057 5.09107 154.692 1.31761C155.236 1.10466 155.789 1.11351 156.337 1.31654L308.065 57.5798C310.016 58.3033 310.024 61.0603 308.077 61.7947L157.619 118.54C156.243 119.059 154.725 119.055 153.352 118.528L5.52975 61.7939C3.59762 61.0523 3.5926 58.3208 5.52973 57.5925Z" fill="url(#paint0_linear_792_72)" stroke="url(#paint1_linear_792_72)" stroke-opacity="0.3" stroke-width="0.75"/>
</g>
<path d="M257 61L358.75 61C359.993 61 361 62.0074 361 63.25L361 89" stroke="#ABC5EF" stroke-dasharray="1.5 1.5"/>
<circle cx="257.243" cy="61.7244" r="5.47046" fill="#ABC5EF" stroke="#ABC5EF" stroke-width="0.75"/>
<path d="M159.886 115.627C163.39 113.782 167.016 111.013 169.993 107.893H159.644V105.366H171.575V102.356H174.388V105.366H178.431V107.893H174.388V117.034C174.388 120.308 173.97 120.659 170.257 120.659C169.224 120.659 168.235 120.593 166.741 120.439L166.873 117.935C168.213 118.066 169.29 118.154 169.971 118.154C171.399 118.154 171.575 118.044 171.575 117.034V109.937C168.455 113.221 165.005 115.902 161.336 117.935L159.886 115.627ZM181.727 113.342V110.75H197.898V113.342H181.727ZM203.436 118.462C206.907 118.077 209.852 116.836 212.027 114.968C210.192 113.573 208.5 112.397 206.885 111.409L208.621 109.167C210.489 110.31 212.28 111.562 213.96 112.859C215.048 111.31 215.751 109.497 215.982 107.52H208.204C206.786 109.629 204.897 111.497 202.579 113.079L200.689 111.101C203.721 108.948 206.336 105.652 207.5 102.444L210.423 102.927C210.203 103.608 209.95 104.279 209.654 104.927H215.169C214.751 104.235 214.323 103.597 213.829 102.949L215.542 101.917C216.29 102.861 216.916 103.828 217.498 104.927H218.838C218.377 104.059 217.916 103.29 217.366 102.51L219.124 101.587C220.003 102.861 220.662 104.092 221.321 105.63L219.542 106.443C219.366 106.047 219.19 105.663 219.014 105.3V106.157C219.014 114.177 213.125 120.11 204.314 121.055L203.436 118.462ZM223.914 113.342V110.75H240.086V113.342H223.914ZM243.646 118.308C247.26 116.836 250.248 114.814 252.566 112.266C250.523 110.75 248.359 109.431 245.887 108.201L247.688 105.916C250.105 107.113 252.314 108.442 254.368 109.958C255.741 107.937 256.774 105.652 257.466 103.103L260.345 103.872C259.697 106.707 258.444 109.409 256.741 111.804C258.499 113.32 260.18 114.99 261.817 116.858L259.751 119.011C258.115 117.166 256.521 115.551 254.874 114.111C252.259 116.99 248.93 119.297 245.206 120.725L243.646 118.308ZM264.959 111.079C270.694 110.266 277.813 106.663 281.548 102.686L283.394 104.751C281.68 106.531 279.318 108.245 276.692 109.695V121.187H273.616V111.233C270.87 112.463 268.013 113.364 265.42 113.738L264.959 111.079ZM298.775 108.596C298.116 107.124 297.391 105.85 296.424 104.465L298.313 103.455C299.28 104.839 300.005 106.113 300.687 107.629L298.775 108.596ZM302.159 107.388C301.521 105.916 300.818 104.641 299.896 103.257L301.763 102.29C302.686 103.718 303.411 104.993 304.048 106.531L302.159 107.388ZM303.279 115.43C299.324 114.089 295.38 112.947 291.875 112.112V121.187H288.865V102.883H291.875V109.189C295.82 110.101 300.203 111.354 304.18 112.705L303.279 115.43ZM317.438 100.875L319.891 101.347C319.606 102.592 319.261 103.807 318.856 104.992C318.451 106.162 317.986 107.257 317.461 108.277C316.936 109.282 316.366 110.167 315.751 110.932C315.616 110.782 315.421 110.617 315.166 110.437C314.911 110.242 314.648 110.055 314.378 109.875C314.123 109.68 313.906 109.522 313.726 109.402C314.326 108.742 314.858 107.962 315.323 107.062C315.803 106.162 316.216 105.187 316.561 104.137C316.921 103.072 317.213 101.985 317.438 100.875ZM324.998 104.385H327.563C327.563 104.385 327.556 104.467 327.541 104.632C327.541 104.782 327.541 104.955 327.541 105.15C327.541 105.345 327.533 105.495 327.518 105.6C327.413 108.135 327.301 110.287 327.181 112.057C327.076 113.827 326.956 115.29 326.821 116.445C326.701 117.585 326.558 118.485 326.393 119.145C326.228 119.79 326.041 120.255 325.831 120.54C325.561 120.915 325.291 121.185 325.021 121.35C324.751 121.515 324.428 121.635 324.053 121.71C323.738 121.77 323.356 121.8 322.906 121.8C322.456 121.815 321.983 121.808 321.488 121.778C321.458 121.388 321.376 120.945 321.241 120.45C321.121 119.955 320.956 119.52 320.746 119.145C321.166 119.19 321.556 119.22 321.916 119.235C322.276 119.235 322.561 119.235 322.771 119.235C322.951 119.235 323.093 119.205 323.198 119.145C323.318 119.085 323.446 118.972 323.581 118.807C323.731 118.627 323.873 118.252 324.008 117.682C324.143 117.097 324.271 116.265 324.391 115.185C324.511 114.105 324.616 112.732 324.706 111.067C324.811 109.387 324.908 107.355 324.998 104.97V104.385ZM318.113 104.385H326.146V106.882H316.898L318.113 104.385ZM319.711 105.195L321.668 106.162C321.368 107.452 320.956 108.772 320.431 110.122C319.906 111.457 319.291 112.71 318.586 113.88C317.896 115.05 317.146 116.017 316.336 116.782C316.081 116.542 315.758 116.28 315.368 115.995C314.978 115.695 314.603 115.455 314.243 115.275C314.903 114.765 315.518 114.135 316.088 113.385C316.658 112.62 317.176 111.787 317.641 110.887C318.106 109.972 318.511 109.035 318.856 108.075C319.201 107.1 319.486 106.14 319.711 105.195ZM322.838 105.465L324.931 106.432C324.646 107.887 324.286 109.342 323.851 110.797C323.431 112.252 322.921 113.647 322.321 114.982C321.736 116.317 321.061 117.547 320.296 118.672C319.531 119.782 318.676 120.72 317.731 121.485C317.476 121.23 317.138 120.953 316.718 120.653C316.313 120.353 315.923 120.105 315.548 119.91C316.523 119.205 317.401 118.335 318.181 117.3C318.976 116.25 319.673 115.087 320.273 113.812C320.873 112.522 321.383 111.172 321.803 109.762C322.223 108.337 322.568 106.905 322.838 105.465ZM306.436 113.16C307.171 112.98 308.003 112.77 308.933 112.53C309.878 112.29 310.868 112.027 311.903 111.742C312.953 111.442 313.996 111.15 315.031 110.865L315.368 113.227C313.958 113.677 312.518 114.127 311.048 114.577C309.593 115.012 308.273 115.402 307.088 115.747L306.436 113.16ZM310.463 100.897H312.938V122.025H310.463V100.897ZM307.493 102.18L309.766 102.54C309.661 103.53 309.533 104.527 309.383 105.532C309.233 106.522 309.053 107.46 308.843 108.345C308.633 109.23 308.393 110.01 308.123 110.685C307.988 110.58 307.801 110.452 307.561 110.302C307.321 110.137 307.081 109.98 306.841 109.83C306.601 109.665 306.391 109.545 306.211 109.47C306.451 108.855 306.653 108.157 306.818 107.377C306.998 106.582 307.141 105.742 307.246 104.857C307.366 103.957 307.448 103.065 307.493 102.18ZM308.123 105.24H314.828V107.805H307.606L308.123 105.24ZM341.536 101.167H344.281V122.003H341.536V101.167ZM337.711 102.135L340.321 102.652C340.111 103.672 339.856 104.685 339.556 105.69C339.256 106.695 338.918 107.64 338.543 108.525C338.183 109.395 337.801 110.16 337.396 110.82C337.231 110.685 336.998 110.535 336.698 110.37C336.413 110.205 336.121 110.047 335.821 109.897C335.536 109.732 335.281 109.612 335.056 109.537C335.461 108.937 335.836 108.24 336.181 107.445C336.526 106.635 336.826 105.78 337.081 104.88C337.336 103.965 337.546 103.05 337.711 102.135ZM338.588 105.24H349.006V107.895H337.913L338.588 105.24ZM335.438 111.787H350.063V114.42H335.438V111.787ZM333.773 100.965L336.338 101.775C335.858 103.035 335.296 104.31 334.651 105.6C334.006 106.875 333.301 108.082 332.536 109.222C331.786 110.362 331.006 111.367 330.196 112.237C330.106 112.012 329.978 111.727 329.813 111.382C329.648 111.022 329.468 110.662 329.273 110.302C329.078 109.942 328.898 109.65 328.733 109.425C329.408 108.735 330.053 107.94 330.668 107.04C331.298 106.14 331.876 105.172 332.401 104.137C332.941 103.102 333.398 102.045 333.773 100.965ZM331.546 107.197L334.111 104.632V104.655V121.98H331.546V107.197ZM362.618 118.65H370.358V121.013H362.618V118.65ZM361.358 112.44H371.686V121.89H369.076V114.802H363.833V121.98H361.358V112.44ZM360.548 101.932H370.853V104.407H360.548V101.932ZM369.616 101.932H372.136C372.136 101.932 372.128 102.06 372.113 102.315C372.113 102.555 372.106 102.757 372.091 102.922C372.046 104.482 371.993 105.765 371.933 106.77C371.873 107.76 371.791 108.532 371.686 109.087C371.581 109.642 371.431 110.04 371.236 110.28C371.011 110.565 370.763 110.775 370.493 110.91C370.238 111.03 369.923 111.112 369.548 111.157C369.263 111.202 368.873 111.232 368.378 111.247C367.883 111.247 367.358 111.24 366.803 111.225C366.788 110.835 366.706 110.407 366.556 109.942C366.421 109.477 366.248 109.072 366.038 108.727C366.503 108.772 366.946 108.802 367.366 108.817C367.786 108.817 368.101 108.817 368.311 108.817C368.491 108.817 368.633 108.81 368.738 108.795C368.843 108.765 368.948 108.697 369.053 108.592C369.158 108.457 369.241 108.172 369.301 107.737C369.376 107.287 369.436 106.627 369.481 105.757C369.541 104.887 369.586 103.74 369.616 102.315V101.932ZM363.788 102.967H366.443C366.353 103.912 366.211 104.82 366.016 105.69C365.836 106.545 365.558 107.355 365.183 108.12C364.823 108.87 364.321 109.56 363.676 110.19C363.031 110.805 362.213 111.345 361.223 111.81C361.073 111.495 360.841 111.142 360.526 110.752C360.226 110.347 359.933 110.025 359.648 109.785C360.488 109.425 361.163 109.005 361.673 108.525C362.198 108.03 362.596 107.497 362.866 106.927C363.151 106.342 363.353 105.712 363.473 105.037C363.608 104.362 363.713 103.672 363.788 102.967ZM354.878 100.897L357.218 101.775C356.918 102.345 356.603 102.937 356.273 103.552C355.943 104.167 355.621 104.752 355.306 105.307C354.991 105.862 354.691 106.342 354.406 106.747L352.606 105.982C352.876 105.517 353.153 104.992 353.438 104.407C353.723 103.822 353.993 103.222 354.248 102.607C354.503 101.992 354.713 101.422 354.878 100.897ZM357.466 103.575L359.671 104.565C359.131 105.42 358.538 106.32 357.893 107.265C357.248 108.195 356.603 109.095 355.958 109.965C355.313 110.82 354.706 111.57 354.136 112.215L352.561 111.337C352.981 110.827 353.416 110.257 353.866 109.627C354.316 108.982 354.758 108.315 355.193 107.625C355.643 106.92 356.063 106.222 356.453 105.532C356.843 104.827 357.181 104.175 357.466 103.575ZM351.413 106.23L352.718 104.385C353.108 104.73 353.506 105.112 353.911 105.532C354.331 105.937 354.713 106.35 355.058 106.77C355.418 107.175 355.688 107.542 355.868 107.872L354.496 109.965C354.316 109.605 354.053 109.207 353.708 108.772C353.378 108.337 353.011 107.895 352.606 107.445C352.201 106.995 351.803 106.59 351.413 106.23ZM356.813 108.93L358.591 108.187C358.876 108.697 359.153 109.245 359.423 109.83C359.708 110.4 359.948 110.962 360.143 111.517C360.353 112.057 360.496 112.545 360.571 112.98L358.658 113.835C358.583 113.4 358.448 112.905 358.253 112.35C358.073 111.78 357.856 111.195 357.601 110.595C357.346 109.995 357.083 109.44 356.813 108.93ZM351.391 110.797C352.426 110.767 353.663 110.722 355.103 110.662C356.543 110.602 358.006 110.542 359.491 110.482L359.468 112.62C358.073 112.725 356.686 112.822 355.306 112.912C353.941 113.002 352.711 113.085 351.616 113.16L351.391 110.797ZM357.286 114.532L359.176 113.925C359.461 114.57 359.731 115.275 359.986 116.04C360.256 116.79 360.458 117.45 360.593 118.02L358.591 118.74C358.486 118.17 358.306 117.495 358.051 116.715C357.796 115.92 357.541 115.192 357.286 114.532ZM352.381 114.105L354.608 114.51C354.488 115.59 354.308 116.655 354.068 117.705C353.828 118.755 353.551 119.64 353.236 120.36C353.086 120.255 352.883 120.135 352.628 120C352.373 119.88 352.111 119.76 351.841 119.64C351.586 119.52 351.361 119.43 351.166 119.37C351.496 118.695 351.758 117.892 351.953 116.962C352.148 116.017 352.291 115.065 352.381 114.105ZM354.901 111.99H357.263V122.025H354.901V111.99ZM384.488 103.597C383.918 104.542 383.168 105.502 382.238 106.477C381.308 107.452 380.266 108.382 379.111 109.267C377.971 110.137 376.771 110.902 375.511 111.562C375.406 111.337 375.256 111.09 375.061 110.82C374.866 110.55 374.663 110.28 374.453 110.01C374.243 109.74 374.041 109.515 373.846 109.335C375.181 108.69 376.433 107.895 377.603 106.95C378.788 106.005 379.838 105 380.753 103.935C381.668 102.855 382.388 101.82 382.913 100.83H385.816C386.401 101.775 387.053 102.667 387.773 103.507C388.508 104.347 389.281 105.12 390.091 105.825C390.916 106.515 391.778 107.13 392.678 107.67C393.578 108.21 394.486 108.66 395.401 109.02C395.056 109.365 394.733 109.762 394.433 110.212C394.133 110.647 393.863 111.075 393.623 111.495C392.423 110.88 391.238 110.145 390.068 109.29C388.898 108.435 387.826 107.52 386.851 106.545C385.891 105.555 385.103 104.572 384.488 103.597ZM386.986 109.132H389.798V122.003H386.986V109.132ZM379.223 109.245H382.013V112.035C382.013 112.83 381.961 113.67 381.856 114.555C381.766 115.425 381.556 116.302 381.226 117.188C380.911 118.073 380.423 118.927 379.763 119.752C379.118 120.578 378.241 121.335 377.131 122.025C376.966 121.83 376.748 121.605 376.478 121.35C376.223 121.11 375.953 120.87 375.668 120.63C375.383 120.405 375.121 120.225 374.881 120.09C375.856 119.505 376.636 118.875 377.221 118.2C377.806 117.525 378.241 116.835 378.526 116.13C378.811 115.41 378.998 114.697 379.088 113.992C379.178 113.287 379.223 112.612 379.223 111.967V109.245Z" fill="white"/>
<defs>
<linearGradient id="paint0_linear_792_72" x1="156.853" y1="1" x2="156.853" y2="119.346" gradientUnits="userSpaceOnUse">
<stop stop-color="#001B94"/>
<stop offset="1" stop-color="#254598"/>
</linearGradient>
<linearGradient id="paint1_linear_792_72" x1="156.853" y1="1" x2="156.853" y2="119.346" gradientUnits="userSpaceOnUse">
<stop stop-color="white" stop-opacity="0.6"/>
<stop offset="1" stop-color="white"/>
</linearGradient>
</defs>
</svg>
