<svg width="408" height="179" viewBox="0 0 408 179" fill="none" xmlns="http://www.w3.org/2000/svg">
<path d="M169.481 17.51H189.979V19.7825H169.481V17.51ZM170.021 5.3825H189.416V7.61H170.021V5.3825ZM182.441 16.0925H185.096V22.415C185.096 23.06 185.006 23.555 184.826 23.9C184.661 24.245 184.346 24.5075 183.881 24.6875C183.416 24.8525 182.846 24.95 182.171 24.98C181.496 25.025 180.701 25.0475 179.786 25.0475C179.726 24.6725 179.614 24.2675 179.449 23.8325C179.299 23.3975 179.134 23.015 178.954 22.685C179.359 22.685 179.764 22.6925 180.169 22.7075C180.589 22.7225 180.956 22.73 181.271 22.73C181.601 22.73 181.826 22.73 181.946 22.73C182.141 22.715 182.269 22.685 182.329 22.64C182.404 22.58 182.441 22.475 182.441 22.325V16.0925ZM178.301 3.8975H180.956V15.35H178.301V3.8975ZM172.699 20.9075L174.724 19.49C175.129 19.76 175.541 20.075 175.961 20.435C176.396 20.795 176.801 21.155 177.176 21.515C177.566 21.86 177.874 22.19 178.099 22.505L175.916 24.1025C175.721 23.7875 175.444 23.4425 175.084 23.0675C174.724 22.6925 174.334 22.3175 173.914 21.9425C173.509 21.5525 173.104 21.2075 172.699 20.9075ZM174.184 13.325V14.4725H185.254V13.325H174.184ZM174.184 10.445V11.5925H185.254V10.445H174.184ZM171.641 8.6225H187.909V16.3175H171.641V8.6225ZM194.096 8.15H199.721V10.0625H194.096V8.15ZM204.491 8.15H210.161V10.0625H204.491V8.15ZM209.081 4.775H211.826V21.74C211.826 22.52 211.729 23.12 211.534 23.54C211.339 23.975 211.001 24.2975 210.521 24.5075C210.026 24.7325 209.396 24.8675 208.631 24.9125C207.866 24.9725 206.936 25.0025 205.841 25.0025C205.811 24.7475 205.744 24.4475 205.639 24.1025C205.534 23.7725 205.414 23.435 205.279 23.09C205.159 22.76 205.024 22.475 204.874 22.235C205.354 22.265 205.841 22.2875 206.336 22.3025C206.831 22.3025 207.266 22.3025 207.641 22.3025C208.031 22.3025 208.301 22.3025 208.451 22.3025C208.691 22.3025 208.856 22.2575 208.946 22.1675C209.036 22.0775 209.081 21.9275 209.081 21.7175V4.775ZM194.299 4.775H201.386V13.5275H194.299V11.345H198.866V6.9575H194.299V4.775ZM210.544 4.775V6.9575H205.504V11.4125H210.544V13.5725H202.939V4.775H210.544ZM192.769 4.775H195.446V25.025H192.769V4.775ZM223.301 3.8975H226.091V7.115H223.301V3.8975ZM215.179 5.675H234.349V10.7375H231.581V8.1275H217.834V10.7375H215.179V5.675ZM218.621 9.545H230.771V11.84H218.621V9.545ZM220.804 13.5725L222.896 12.3575C223.961 13.0925 224.816 13.9175 225.461 14.8325C226.106 15.7325 226.579 16.655 226.879 17.6C227.179 18.53 227.321 19.43 227.306 20.3C227.291 21.155 227.149 21.92 226.879 22.595C226.609 23.255 226.226 23.765 225.731 24.125C225.311 24.485 224.891 24.7325 224.471 24.8675C224.066 25.0025 223.564 25.07 222.964 25.07C222.694 25.085 222.394 25.085 222.064 25.07C221.734 25.055 221.396 25.04 221.051 25.025C221.036 24.65 220.969 24.215 220.849 23.72C220.729 23.24 220.541 22.8125 220.286 22.4375C220.706 22.4675 221.096 22.4975 221.456 22.5275C221.831 22.5425 222.161 22.55 222.446 22.55C222.731 22.55 222.986 22.52 223.211 22.46C223.436 22.4 223.639 22.2725 223.819 22.0775C224.089 21.8675 224.284 21.545 224.404 21.11C224.539 20.66 224.584 20.135 224.539 19.535C224.509 18.92 224.359 18.275 224.089 17.6C223.834 16.91 223.436 16.22 222.896 15.53C222.371 14.84 221.674 14.1875 220.804 13.5725ZM224.381 10.13L226.609 11.075C225.814 11.885 224.854 12.62 223.729 13.28C222.604 13.925 221.404 14.495 220.129 14.99C218.869 15.485 217.616 15.8975 216.371 16.2275C216.281 16.0475 216.154 15.83 215.989 15.575C215.824 15.305 215.651 15.035 215.471 14.765C215.291 14.495 215.126 14.2775 214.976 14.1125C216.191 13.8725 217.391 13.565 218.576 13.19C219.776 12.815 220.879 12.3725 221.884 11.8625C222.889 11.3375 223.721 10.76 224.381 10.13ZM222.626 14.6075L224.359 15.8225C223.744 16.3025 222.994 16.7975 222.109 17.3075C221.224 17.8175 220.301 18.29 219.341 18.725C218.396 19.16 217.504 19.5275 216.664 19.8275C216.514 19.5275 216.311 19.175 216.056 18.77C215.801 18.365 215.554 18.035 215.314 17.78C215.914 17.63 216.551 17.4425 217.226 17.2175C217.916 16.9775 218.591 16.715 219.251 16.43C219.926 16.145 220.556 15.8525 221.141 15.5525C221.726 15.2375 222.221 14.9225 222.626 14.6075ZM224.449 16.7675L226.294 18.14C225.694 18.71 224.981 19.28 224.156 19.85C223.346 20.42 222.469 20.9675 221.524 21.4925C220.594 22.0025 219.649 22.475 218.689 22.91C217.729 23.345 216.806 23.7125 215.921 24.0125C215.756 23.6675 215.539 23.285 215.269 22.865C215.014 22.43 214.759 22.0625 214.504 21.7625C215.389 21.5525 216.304 21.2675 217.249 20.9075C218.194 20.5475 219.116 20.1425 220.016 19.6925C220.916 19.2425 221.749 18.77 222.514 18.275C223.279 17.765 223.924 17.2625 224.449 16.7675ZM227.846 10.5125C228.221 12.0875 228.731 13.565 229.376 14.945C230.021 16.325 230.824 17.54 231.784 18.59C232.759 19.64 233.914 20.465 235.249 21.065C235.054 21.245 234.836 21.47 234.596 21.74C234.356 22.01 234.124 22.295 233.899 22.595C233.689 22.895 233.509 23.165 233.359 23.405C231.949 22.64 230.741 21.65 229.736 20.435C228.731 19.205 227.899 17.795 227.239 16.205C226.579 14.6 226.031 12.86 225.596 10.985L227.846 10.5125ZM232.256 11.975L234.349 13.7975C233.839 14.1875 233.291 14.585 232.706 14.99C232.121 15.38 231.544 15.7475 230.974 16.0925C230.404 16.4225 229.871 16.7225 229.376 16.9925L227.666 15.35C228.131 15.08 228.641 14.7575 229.196 14.3825C229.766 13.9925 230.321 13.5875 230.861 13.1675C231.401 12.7475 231.866 12.35 232.256 11.975ZM249.987 22.9561C246.142 22.9561 243.439 21.1982 243.439 18.7373C243.439 17.2871 244.362 15.749 246.208 14.2109L248.295 15.771C246.867 16.9575 246.274 17.7485 246.274 18.5176C246.274 19.6382 247.68 20.3633 249.987 20.3633C251.35 20.3633 253.151 20.1436 255.019 19.792L255.415 22.3188C253.569 22.7363 251.635 22.9561 249.987 22.9561ZM244.428 10.3218V7.729H255.239V10.3218H244.428ZM239.155 23.813C238.441 20.9346 238.133 18.188 238.144 15.0459C238.133 11.9038 238.441 9.15723 239.155 6.27881L242.055 6.6084C241.385 9.33301 241.088 12.0796 241.088 15.0459C241.088 18.0122 241.385 20.7588 242.055 23.4395L239.155 23.813ZM263.544 23.835C260.051 23.835 258.117 22.3188 258.117 19.5942C258.117 16.8257 260.029 15.3535 263.544 15.3535C264.423 15.3535 265.291 15.4414 266.181 15.6172V5.59766H269.06V8.89355H276.333V11.3325H269.06V16.584C271.147 17.4958 273.476 18.957 276.398 21.1323L274.641 23.1318C272.52 21.4509 270.697 20.2095 269.06 19.3306C268.917 22.3958 267.137 23.835 263.544 23.835ZM260.842 19.5942C260.842 20.8027 261.677 21.396 263.413 21.396C265.324 21.396 266.181 20.6489 266.181 18.957V18.166C265.269 17.9133 264.401 17.7925 263.544 17.7925C261.699 17.7925 260.842 18.3638 260.842 19.5942ZM288.242 24.0547C284.023 24.0547 281.606 22.6045 281.606 20.1216C281.606 18.0122 283.474 16.7378 286.594 16.7378C289.472 16.7378 290.9 17.7925 290.9 19.8799C290.9 20.4182 290.802 21.0005 290.637 21.5938C293.12 21.1433 294.306 19.9568 294.306 17.9463C294.306 15.6611 292.724 14.6504 289.077 14.6504C287.033 14.6504 285.473 15.002 284.023 15.8149L281.32 17.3311L280.178 15.1118L290.922 9.31104H281.43V6.8501H296.02V9.31104L289.956 12.585L290.659 12.563C294.877 12.563 297.272 14.4307 297.272 17.7925C297.272 21.7915 294.021 24.0547 288.242 24.0547ZM284.265 20.0996C284.265 21.2202 285.517 21.8135 287.89 21.8135H288C288.286 21.0994 288.417 20.572 288.417 20.1655C288.417 19.2646 287.758 18.8252 286.396 18.8252C285.012 18.8252 284.265 19.2866 284.265 20.0996ZM303.638 12.155H315.81V14.765H303.638V12.155ZM314.91 12.155H317.745C317.745 12.155 317.745 12.23 317.745 12.38C317.745 12.515 317.745 12.68 317.745 12.875C317.745 13.055 317.738 13.205 317.723 13.325C317.663 15.02 317.595 16.4825 317.52 17.7125C317.445 18.9275 317.355 19.94 317.25 20.75C317.16 21.56 317.048 22.205 316.913 22.685C316.778 23.165 316.613 23.525 316.418 23.765C316.118 24.125 315.803 24.38 315.473 24.53C315.158 24.68 314.783 24.785 314.348 24.845C313.973 24.905 313.478 24.935 312.863 24.935C312.248 24.95 311.603 24.9425 310.928 24.9125C310.913 24.5075 310.823 24.0425 310.658 23.5175C310.493 23.0075 310.29 22.565 310.05 22.19C310.68 22.235 311.265 22.265 311.805 22.28C312.345 22.295 312.75 22.3025 313.02 22.3025C313.23 22.3025 313.403 22.2875 313.538 22.2575C313.673 22.2125 313.808 22.1225 313.943 21.9875C314.123 21.7925 314.265 21.365 314.37 20.705C314.49 20.03 314.595 19.04 314.685 17.735C314.775 16.415 314.85 14.7125 314.91 12.6275V12.155ZM306.158 4.1675L309.083 5.0225C308.528 6.3275 307.86 7.5875 307.08 8.8025C306.315 10.0175 305.483 11.135 304.583 12.155C303.698 13.175 302.775 14.06 301.815 14.81C301.65 14.615 301.425 14.3825 301.14 14.1125C300.855 13.8275 300.563 13.55 300.263 13.28C299.978 13.01 299.723 12.7925 299.498 12.6275C300.428 11.9975 301.313 11.2475 302.153 10.3775C303.008 9.4925 303.78 8.525 304.47 7.475C305.16 6.41 305.723 5.3075 306.158 4.1675ZM314.73 4.1225C315.09 4.8425 315.525 5.5775 316.035 6.3275C316.545 7.0775 317.1 7.8125 317.7 8.5325C318.315 9.2375 318.938 9.905 319.568 10.535C320.213 11.165 320.843 11.7125 321.458 12.1775C321.218 12.3575 320.948 12.5975 320.648 12.8975C320.363 13.1825 320.085 13.475 319.815 13.775C319.56 14.075 319.343 14.3525 319.163 14.6075C318.533 14.0225 317.895 13.37 317.25 12.65C316.605 11.915 315.968 11.1425 315.338 10.3325C314.723 9.5075 314.138 8.66 313.583 7.79C313.028 6.905 312.525 6.035 312.075 5.18L314.73 4.1225ZM307.643 12.92H310.59C310.485 14.18 310.313 15.41 310.073 16.61C309.833 17.81 309.435 18.9425 308.88 20.0075C308.34 21.0725 307.553 22.0475 306.518 22.9325C305.498 23.8025 304.148 24.545 302.468 25.16C302.363 24.905 302.213 24.6275 302.018 24.3275C301.823 24.0275 301.613 23.7275 301.388 23.4275C301.163 23.1425 300.938 22.895 300.713 22.685C302.228 22.205 303.428 21.6125 304.313 20.9075C305.198 20.1875 305.865 19.4075 306.315 18.5675C306.765 17.7125 307.073 16.805 307.238 15.845C307.418 14.885 307.553 13.91 307.643 12.92ZM333.833 11.48H343.62V14.0225H333.833V11.48ZM332.483 5.45L335.7 6.35C335.67 6.56 335.475 6.695 335.115 6.755V12.0425C335.115 12.9425 335.07 13.9475 334.98 15.0575C334.905 16.1525 334.755 17.2925 334.53 18.4775C334.305 19.6475 333.968 20.795 333.518 21.92C333.083 23.03 332.498 24.05 331.763 24.98C331.643 24.785 331.455 24.5675 331.2 24.3275C330.96 24.1025 330.705 23.885 330.435 23.675C330.165 23.465 329.918 23.315 329.693 23.225C330.323 22.4 330.825 21.515 331.2 20.57C331.575 19.61 331.853 18.635 332.033 17.645C332.213 16.655 332.333 15.68 332.393 14.72C332.453 13.745 332.483 12.845 332.483 12.02V5.45ZM340.65 4.1225L342.923 6.2375C342.053 6.5825 341.108 6.9125 340.088 7.2275C339.068 7.5275 338.033 7.79 336.983 8.015C335.933 8.24 334.905 8.4275 333.9 8.5775C333.84 8.2625 333.72 7.8875 333.54 7.4525C333.375 7.0175 333.203 6.6575 333.023 6.3725C333.953 6.1925 334.883 5.99 335.812 5.765C336.743 5.525 337.628 5.2625 338.468 4.9775C339.308 4.6925 340.035 4.4075 340.65 4.1225ZM338.04 12.2675H340.718V25.0025H338.04V12.2675ZM322.763 8.5325H331.155V11.075H322.763V8.5325ZM325.845 3.875H328.433V25.0025H325.845V3.875ZM325.733 10.265L327.308 10.805C327.143 11.72 326.925 12.6575 326.655 13.6175C326.4 14.5775 326.1 15.5225 325.755 16.4525C325.425 17.3825 325.065 18.2525 324.675 19.0625C324.285 19.8575 323.873 20.5475 323.438 21.1325C323.318 20.7425 323.13 20.3075 322.875 19.8275C322.62 19.3475 322.38 18.9425 322.155 18.6125C322.56 18.1175 322.943 17.54 323.303 16.88C323.663 16.22 323.993 15.5225 324.293 14.7875C324.608 14.0375 324.885 13.28 325.125 12.515C325.38 11.735 325.583 10.985 325.733 10.265ZM328.23 12.245C328.38 12.395 328.605 12.665 328.905 13.055C329.22 13.43 329.55 13.835 329.895 14.27C330.24 14.705 330.548 15.11 330.818 15.485C331.103 15.86 331.305 16.13 331.425 16.295L329.895 18.4325C329.76 18.0875 329.565 17.69 329.31 17.24C329.055 16.79 328.785 16.3325 328.5 15.8675C328.215 15.3875 327.938 14.9375 327.668 14.5175C327.413 14.0975 327.195 13.745 327.015 13.46L328.23 12.245ZM347.546 21.5278C351.677 21.0444 353.764 19.1108 353.764 15.749V15.3535H345.217V12.7607H363.938V15.3535H356.796V15.749C356.796 20.583 353.632 23.6592 348.205 24.1206L347.546 21.5278ZM347.282 9.37695V6.78418H357.961L357.741 6.49854L359.587 5.46582C360.532 6.78418 361.257 8.03662 361.938 9.53076L360.07 10.4976C359.752 9.81641 359.444 9.19019 359.104 8.58594V9.37695H347.282ZM363.366 9.61865C362.685 8.05859 362.026 6.8501 361.169 5.57568L362.993 4.60889C363.894 5.94922 364.575 7.22363 365.234 8.73975L363.366 9.61865ZM367.805 16.3423V13.7495H383.977V16.3423H367.805ZM389.975 21.2422C393.392 20.8796 396.303 19.6602 398.479 17.8364C396.611 16.4082 394.875 15.1997 393.249 14.189L394.985 11.9697C396.875 13.1453 398.72 14.4197 400.434 15.7271C401.577 14.167 402.313 12.3323 402.543 10.3218H394.545C393.117 12.4202 391.239 14.2878 388.92 15.8809L387.031 13.9033C390.085 11.728 392.678 8.43213 393.864 5.22412L396.787 5.70752C396.567 6.39966 396.303 7.06982 395.996 7.729H405.554V8.95947C405.554 16.9575 399.687 22.9121 390.854 23.835L389.975 21.2422Z" fill="white"/>
<g opacity="0.9">
<path d="M151.9 177.223L5.36293 119.347C4.50389 119.008 3.93945 118.178 3.93945 117.254V113.004C3.93945 111.761 4.94681 110.754 6.18945 110.754H307.602C308.844 110.754 309.852 111.761 309.852 113.004V117.242C309.852 118.172 309.28 119.006 308.412 119.341L158.448 177.248C156.34 178.062 154.002 178.053 151.9 177.223Z" fill="#5F75DA"/>
<path opacity="0.6" d="M308.416 119.342L157.75 177.805C156.87 178.146 155.922 177.497 155.922 176.553V170.081C155.922 169.144 156.503 168.304 157.381 167.975L306.812 111.895C308.283 111.343 309.852 112.43 309.852 114.002V117.244C309.852 118.173 309.282 119.006 308.416 119.342Z" fill="#254598"/>
<path d="M5.52973 108.592C55.5827 89.7718 145.057 56.0911 154.692 52.3176C155.236 52.1047 155.789 52.1135 156.337 52.3165L308.065 108.58C310.016 109.303 310.024 112.06 308.077 112.795L157.619 169.54C156.243 170.059 154.725 170.055 153.352 169.528L5.52975 112.794C3.59762 112.052 3.5926 109.321 5.52973 108.592Z" fill="url(#paint0_linear_792_90)" stroke="url(#paint1_linear_792_90)" stroke-opacity="0.3" stroke-width="0.75"/>
</g>
<path d="M118.988 97.148H121.964V100.964H118.988V97.148ZM110.204 99.212H130.772V104.372H127.796V101.732H113.06V104.372H110.204V99.212ZM112.364 103.652H128.852V105.98H112.364V103.652ZM110.012 111.236H131.108V113.732H110.012V111.236ZM112.748 107.42H128.348V109.724H112.748V107.42ZM121.916 111.74C122.636 113.324 123.78 114.564 125.348 115.46C126.916 116.356 128.948 116.932 131.444 117.188C131.156 117.492 130.844 117.892 130.508 118.388C130.188 118.884 129.932 119.324 129.74 119.708C127.916 119.42 126.34 118.964 125.012 118.34C123.684 117.732 122.556 116.932 121.628 115.94C120.716 114.932 119.956 113.716 119.348 112.292L121.916 111.74ZM118.916 102.284H121.82V108.956C121.82 109.788 121.732 110.62 121.556 111.452C121.396 112.284 121.092 113.092 120.644 113.876C120.212 114.644 119.596 115.38 118.796 116.084C118.012 116.788 117.012 117.436 115.796 118.028C114.58 118.636 113.1 119.18 111.356 119.66C111.244 119.436 111.084 119.18 110.876 118.892C110.684 118.62 110.468 118.34 110.228 118.052C110.004 117.764 109.78 117.524 109.556 117.332C111.22 116.948 112.612 116.516 113.732 116.036C114.868 115.556 115.772 115.036 116.444 114.476C117.132 113.916 117.652 113.332 118.004 112.724C118.356 112.1 118.596 111.476 118.724 110.852C118.852 110.212 118.916 109.564 118.916 108.908V102.284ZM136.772 100.436V103.556H139.7V100.436H136.772ZM134.348 98.036H142.292V105.98H134.348V98.036ZM137.444 104.996H139.964V116.036H137.444V104.996ZM134.228 107.684H136.508V116.828H134.228V107.684ZM133.148 116.012C133.948 115.852 134.868 115.668 135.908 115.46C136.964 115.236 138.068 114.996 139.22 114.74C140.388 114.468 141.548 114.196 142.7 113.924L142.964 116.42C141.364 116.836 139.748 117.236 138.116 117.62C136.484 118.02 135.012 118.38 133.7 118.7L133.148 116.012ZM138.596 108.812H142.604V111.284H138.596V108.812ZM142.844 101.324L154.676 100.22L154.916 102.62L143.108 103.796L142.844 101.324ZM143.54 105.02L154.148 103.988L154.412 106.316L143.804 107.42L143.54 105.02ZM142.916 108.884L155.516 107.636L155.804 110.036L143.18 111.356L142.916 108.884ZM146.132 97.148H149.036C148.988 99.18 149.02 101.156 149.132 103.076C149.244 104.996 149.412 106.788 149.636 108.452C149.876 110.116 150.164 111.58 150.5 112.844C150.852 114.108 151.244 115.092 151.676 115.796C152.124 116.5 152.604 116.852 153.116 116.852C153.372 116.852 153.564 116.652 153.692 116.252C153.82 115.852 153.916 115.124 153.98 114.068C154.268 114.404 154.612 114.708 155.012 114.98C155.412 115.252 155.78 115.46 156.116 115.604C155.972 116.676 155.764 117.508 155.492 118.1C155.236 118.692 154.9 119.1 154.484 119.324C154.068 119.548 153.524 119.66 152.852 119.66C151.972 119.66 151.188 119.364 150.5 118.772C149.828 118.196 149.244 117.388 148.748 116.348C148.268 115.308 147.86 114.076 147.524 112.652C147.188 111.228 146.916 109.684 146.708 108.02C146.5 106.34 146.348 104.58 146.252 102.74C146.172 100.9 146.132 99.036 146.132 97.148ZM149.708 98.756L151.268 97.028C151.652 97.204 152.052 97.412 152.468 97.652C152.884 97.876 153.284 98.116 153.668 98.372C154.052 98.612 154.364 98.836 154.604 99.044L152.972 100.964C152.748 100.724 152.452 100.476 152.084 100.22C151.716 99.964 151.316 99.708 150.884 99.452C150.468 99.196 150.076 98.964 149.708 98.756ZM152.396 110.684L154.82 111.788C153.972 112.988 152.956 114.076 151.772 115.052C150.588 116.012 149.292 116.852 147.884 117.572C146.476 118.308 145.004 118.924 143.468 119.42C143.292 119.052 143.044 118.644 142.724 118.196C142.404 117.748 142.076 117.364 141.74 117.044C143.18 116.644 144.572 116.148 145.916 115.556C147.276 114.948 148.508 114.244 149.612 113.444C150.732 112.628 151.66 111.708 152.396 110.684ZM166.628 98.228H176.9V100.7H166.628V98.228ZM167.516 111.116H178.724V113.636H167.516V111.116ZM166.076 116.468H179.732V118.988H166.076V116.468ZM176.084 98.228H176.612L177.14 98.108L179.06 98.948C178.436 100.836 177.556 102.468 176.42 103.844C175.284 105.22 173.956 106.372 172.436 107.3C170.916 108.212 169.252 108.948 167.444 109.508C167.284 109.156 167.044 108.748 166.724 108.284C166.42 107.804 166.132 107.412 165.86 107.108C167.476 106.692 168.964 106.1 170.324 105.332C171.7 104.548 172.884 103.596 173.876 102.476C174.884 101.356 175.62 100.084 176.084 98.66V98.228ZM170.348 100.388C171.18 102.02 172.436 103.42 174.116 104.588C175.812 105.74 177.796 106.564 180.068 107.06C179.78 107.332 179.46 107.7 179.108 108.164C178.772 108.628 178.508 109.036 178.316 109.388C175.9 108.732 173.812 107.716 172.052 106.34C170.308 104.964 168.908 103.252 167.852 101.204L170.348 100.388ZM171.596 108.236H174.428V118.076H171.596V108.236ZM160.82 97.124L163.316 98.06C162.996 98.668 162.66 99.3 162.308 99.956C161.956 100.612 161.612 101.236 161.276 101.828C160.94 102.42 160.62 102.932 160.316 103.364L158.396 102.548C158.684 102.052 158.98 101.492 159.284 100.868C159.588 100.244 159.876 99.604 160.148 98.948C160.42 98.292 160.644 97.684 160.82 97.124ZM163.58 99.98L165.932 101.036C165.356 101.948 164.724 102.908 164.036 103.916C163.348 104.908 162.66 105.868 161.972 106.796C161.284 107.708 160.636 108.508 160.028 109.196L158.348 108.26C158.796 107.716 159.26 107.108 159.74 106.436C160.22 105.748 160.692 105.036 161.156 104.3C161.636 103.548 162.084 102.804 162.5 102.068C162.916 101.316 163.276 100.62 163.58 99.98ZM157.124 102.812L158.516 100.844C158.932 101.212 159.356 101.62 159.788 102.068C160.236 102.5 160.644 102.94 161.012 103.388C161.396 103.82 161.684 104.212 161.876 104.564L160.412 106.796C160.22 106.412 159.94 105.988 159.572 105.524C159.22 105.06 158.828 104.588 158.396 104.108C157.964 103.628 157.54 103.196 157.124 102.812ZM162.884 105.692L164.78 104.9C165.084 105.444 165.38 106.028 165.668 106.652C165.972 107.26 166.228 107.86 166.436 108.452C166.66 109.028 166.812 109.548 166.892 110.012L164.852 110.924C164.772 110.46 164.628 109.932 164.42 109.34C164.228 108.732 163.996 108.108 163.724 107.468C163.452 106.828 163.172 106.236 162.884 105.692ZM157.1 107.684C158.204 107.652 159.524 107.604 161.06 107.54C162.596 107.476 164.156 107.412 165.74 107.348L165.716 109.628C164.228 109.74 162.748 109.844 161.276 109.94C159.82 110.036 158.508 110.124 157.34 110.204L157.1 107.684ZM163.388 111.668L165.404 111.02C165.708 111.708 165.996 112.46 166.268 113.276C166.556 114.076 166.772 114.78 166.916 115.388L164.78 116.156C164.668 115.548 164.476 114.828 164.204 113.996C163.932 113.148 163.66 112.372 163.388 111.668ZM158.156 111.212L160.532 111.644C160.404 112.796 160.212 113.932 159.956 115.052C159.7 116.172 159.404 117.116 159.068 117.884C158.908 117.772 158.692 117.644 158.42 117.5C158.148 117.372 157.868 117.244 157.58 117.116C157.308 116.988 157.068 116.892 156.86 116.828C157.212 116.108 157.492 115.252 157.7 114.26C157.908 113.252 158.06 112.236 158.156 111.212ZM160.844 108.956H163.364V119.66H160.844V108.956ZM194.468 108.62V110.828H200.612V108.62H194.468ZM192.116 106.532H203.06V112.916H192.116V106.532ZM197.348 99.62C196.996 100.26 196.54 100.932 195.98 101.636C195.42 102.34 194.788 103.012 194.084 103.652C193.396 104.292 192.668 104.852 191.9 105.332C191.772 104.98 191.58 104.58 191.324 104.132C191.068 103.668 190.82 103.292 190.58 103.004C191.348 102.572 192.076 102.028 192.764 101.372C193.468 100.716 194.1 100.02 194.66 99.284C195.22 98.532 195.668 97.812 196.004 97.124H198.524C198.988 97.844 199.524 98.564 200.132 99.284C200.74 99.988 201.388 100.628 202.076 101.204C202.764 101.764 203.46 102.22 204.164 102.572C203.908 102.892 203.644 103.292 203.372 103.772C203.116 104.236 202.9 104.66 202.724 105.044C202.036 104.628 201.356 104.124 200.684 103.532C200.012 102.924 199.388 102.284 198.812 101.612C198.236 100.94 197.748 100.276 197.348 99.62ZM196.22 104.012H198.764V108.716C198.764 109.676 198.692 110.66 198.548 111.668C198.42 112.66 198.132 113.644 197.684 114.62C197.252 115.58 196.612 116.492 195.764 117.356C194.916 118.22 193.78 119.004 192.356 119.708C192.228 119.5 192.06 119.268 191.852 119.012C191.66 118.772 191.452 118.524 191.228 118.268C191.004 118.028 190.796 117.836 190.604 117.692C191.868 117.1 192.868 116.452 193.604 115.748C194.356 115.028 194.916 114.276 195.284 113.492C195.668 112.692 195.916 111.884 196.028 111.068C196.156 110.252 196.22 109.452 196.22 108.668V104.012ZM199.004 111.668C199.436 112.916 200.076 114.052 200.924 115.076C201.788 116.084 202.836 116.844 204.068 117.356C203.86 117.532 203.636 117.748 203.396 118.004C203.172 118.276 202.956 118.556 202.748 118.844C202.54 119.132 202.364 119.396 202.22 119.636C200.876 118.916 199.764 117.908 198.884 116.612C198.02 115.316 197.332 113.852 196.82 112.22L199.004 111.668ZM193.772 103.028H201.188V105.26H193.772V103.028ZM183.74 101.636H190.748V103.82H183.74V101.636ZM183.74 105.284H190.748V107.444H183.74V105.284ZM182.372 108.932H190.604V111.164H182.372V108.932ZM186.38 99.356H188.66V110.156H186.38V99.356ZM187.172 112.244L188.3 111.884C188.54 112.348 188.764 112.868 188.972 113.444C189.196 114.02 189.348 114.516 189.428 114.932L188.252 115.364C188.172 114.948 188.028 114.444 187.82 113.852C187.628 113.26 187.412 112.724 187.172 112.244ZM185.612 112.58L186.836 112.364C187.044 112.972 187.22 113.644 187.364 114.38C187.508 115.1 187.596 115.716 187.628 116.228L186.356 116.492C186.324 115.964 186.236 115.34 186.092 114.62C185.964 113.884 185.804 113.204 185.612 112.58ZM183.956 112.7L185.204 112.58C185.332 113.284 185.412 114.052 185.444 114.884C185.476 115.7 185.484 116.404 185.468 116.996L184.148 117.188C184.196 116.58 184.196 115.86 184.148 115.028C184.116 114.196 184.052 113.42 183.956 112.7ZM182.18 112.196L183.764 112.508C183.732 113.244 183.668 113.972 183.572 114.692C183.492 115.412 183.356 116.084 183.164 116.708C182.988 117.316 182.74 117.844 182.42 118.292L180.956 117.5C181.244 117.084 181.468 116.604 181.628 116.06C181.788 115.5 181.908 114.892 181.988 114.236C182.084 113.564 182.148 112.884 182.18 112.196ZM182.372 98.012H191.228V100.34H184.748V110.468H182.372V98.012ZM189.356 108.932H191.708C191.708 108.932 191.708 109.052 191.708 109.292C191.708 109.532 191.7 109.732 191.684 109.892C191.62 111.828 191.54 113.396 191.444 114.596C191.348 115.796 191.236 116.724 191.108 117.38C190.98 118.02 190.82 118.46 190.628 118.7C190.436 118.972 190.228 119.164 190.004 119.276C189.78 119.404 189.516 119.492 189.212 119.54C188.972 119.588 188.66 119.612 188.276 119.612C187.908 119.628 187.516 119.628 187.1 119.612C187.084 119.26 187.02 118.876 186.908 118.46C186.796 118.044 186.652 117.684 186.476 117.38C186.796 117.412 187.084 117.436 187.34 117.452C187.596 117.468 187.804 117.476 187.964 117.476C188.092 117.476 188.204 117.452 188.3 117.404C188.396 117.356 188.492 117.276 188.588 117.164C188.716 117.004 188.82 116.66 188.9 116.132C188.996 115.604 189.076 114.796 189.14 113.708C189.22 112.62 189.292 111.164 189.356 109.34V108.932Z" fill="white"/>
<circle cx="5.84546" cy="5.84546" r="5.47046" transform="matrix(1 0 0 -1 251.397 112.621)" fill="#ABC5EF" stroke="#ABC5EF" stroke-width="0.75"/>
<path d="M257.75 107H359C360.243 107 361.25 105.993 361.25 104.75L361.25 45.5" stroke="#ABC5EF" stroke-dasharray="1.5 1.5"/>
<defs>
<linearGradient id="paint0_linear_792_90" x1="156.853" y1="52" x2="156.853" y2="170.346" gradientUnits="userSpaceOnUse">
<stop stop-color="#001B94"/>
<stop offset="1" stop-color="#254598"/>
</linearGradient>
<linearGradient id="paint1_linear_792_90" x1="156.853" y1="52" x2="156.853" y2="170.346" gradientUnits="userSpaceOnUse">
<stop stop-color="white" stop-opacity="0.6"/>
<stop offset="1" stop-color="white"/>
</linearGradient>
</defs>
</svg>
