<svg width="409" height="237" viewBox="0 0 409 237" fill="none" xmlns="http://www.w3.org/2000/svg">
<path d="M1.71387 18.6274C5.21851 16.7817 8.84399 14.0132 11.8213 10.8931H1.47217V8.36621H13.4033V5.35596H16.2158V8.36621H20.2588V10.8931H16.2158V20.0337C16.2158 23.3076 15.7983 23.6592 12.085 23.6592C11.0522 23.6592 10.0635 23.5933 8.56934 23.4395L8.70117 20.9346C10.0415 21.0664 11.1182 21.1543 11.7993 21.1543C13.2275 21.1543 13.4033 21.0444 13.4033 20.0337V12.9365C10.2832 16.2214 6.8335 18.9021 3.16406 20.9346L1.71387 18.6274ZM23.5547 16.3423V13.7495H39.7266V16.3423H23.5547ZM45.2637 21.4619C48.7354 21.0774 51.6797 19.8359 53.855 17.9683C52.0203 16.573 50.3284 15.3975 48.7134 14.4087L50.4492 12.1675C52.3169 13.3101 54.1077 14.5625 55.7886 15.8589C56.8762 14.3098 57.5793 12.4971 57.8101 10.5195H50.0317C48.6145 12.6289 46.7249 14.4966 44.4067 16.0786L42.5171 14.1011C45.5493 11.9478 48.1641 8.65186 49.3286 5.44385L52.251 5.92725C52.0312 6.6084 51.7786 7.27856 51.4819 7.92676H56.9971C56.5796 7.23462 56.1511 6.59741 55.6567 5.94922L57.3706 4.9165C58.1177 5.86133 58.7439 6.82812 59.3262 7.92676H60.6665C60.2051 7.05884 59.7437 6.28979 59.1943 5.50977L60.9521 4.58691C61.8311 5.86133 62.4902 7.0918 63.1494 8.62988L61.3696 9.44287C61.1938 9.04736 61.0181 8.66284 60.8423 8.30029V9.15723C60.8423 17.1772 54.9536 23.1099 46.1426 24.0547L45.2637 21.4619ZM65.7422 16.3423V13.7495H81.9141V16.3423H65.7422ZM85.4736 21.3081C89.0881 19.8359 92.0764 17.8145 94.3945 15.2656C92.3511 13.7495 90.1868 12.4312 87.7148 11.2007L89.5166 8.91553C91.9336 10.113 94.1418 11.4424 96.1963 12.9585C97.5696 10.937 98.6023 8.65186 99.2944 6.10303L102.173 6.87207C101.525 9.70654 100.272 12.4092 98.5693 14.8042C100.327 16.3203 102.008 17.9902 103.645 19.8579L101.58 22.0112C99.9426 20.1655 98.3496 18.5505 96.7017 17.1113C94.0869 19.9897 90.7581 22.2969 87.0337 23.7251L85.4736 21.3081ZM106.787 14.0791C112.522 13.2661 119.641 9.6626 123.376 5.68555L125.222 7.75098C123.508 9.53076 121.146 11.2446 118.521 12.6948V24.1865H115.444V14.2329C112.698 15.4634 109.841 16.3643 107.249 16.7378L106.787 14.0791ZM140.603 11.5962C139.944 10.124 139.219 8.84961 138.252 7.46533L140.142 6.45459C141.108 7.83887 141.833 9.11328 142.515 10.6294L140.603 11.5962ZM143.987 10.3877C143.35 8.91553 142.646 7.64111 141.724 6.25684L143.591 5.29004C144.514 6.71826 145.239 7.99268 145.876 9.53076L143.987 10.3877ZM145.107 18.4297C141.152 17.0894 137.208 15.9468 133.704 15.1118V24.1865H130.693V5.8833H133.704V12.1895C137.648 13.1013 142.031 14.3538 146.008 15.7051L145.107 18.4297ZM15.5025 34.2125H17.8425V39.995H15.5025V34.2125ZM5.5125 49.625H7.425V54.4175H5.5125V49.625ZM11.9475 52.2125C12.9975 52.0925 14.2575 51.92 15.7275 51.695C17.1975 51.47 18.6825 51.2375 20.1825 50.9975L20.34 53.2925C18.99 53.5625 17.625 53.8175 16.245 54.0575C14.88 54.3125 13.6425 54.545 12.5325 54.755L11.9475 52.2125ZM18.3825 48.725L20.4075 48.2525C20.6775 48.9125 20.925 49.6175 21.15 50.3675C21.375 51.1175 21.5625 51.8525 21.7125 52.5725C21.8775 53.2775 21.9825 53.9 22.0275 54.44L19.845 55.0025C19.815 54.4775 19.7325 53.8475 19.5975 53.1125C19.4625 52.3925 19.29 51.65 19.08 50.885C18.87 50.12 18.6375 49.4 18.3825 48.725ZM14.5125 40.445V45.1475H18.9675V40.445H14.5125ZM12.3975 38.15H21.195V47.4425H12.3975V38.15ZM4.5675 39.5675V40.9625H8.4825V39.5675H4.5675ZM2.2725 37.79H10.935V42.695H2.2725V37.79ZM1.215 34.7525H11.925V36.98H1.215V34.7525ZM3.96 49.1075H9.0225V50.8625H3.96V49.1075ZM1.35 43.55H10.575V45.4625H3.3975V54.9575H1.35V43.55ZM9.63 43.55H11.745V52.775C11.745 53.24 11.6925 53.615 11.5875 53.9C11.4825 54.2 11.28 54.44 10.98 54.62C10.68 54.785 10.32 54.8825 9.9 54.9125C9.495 54.9575 9.015 54.98 8.46 54.98C8.445 54.695 8.3775 54.365 8.2575 53.99C8.1525 53.615 8.0325 53.285 7.8975 53C8.2125 53.015 8.505 53.0225 8.775 53.0225C9.06 53.0225 9.255 53.0225 9.36 53.0225C9.54 53.0225 9.63 52.925 9.63 52.73V43.55ZM6.93 44.5625H8.46V46.61C8.46 46.79 8.475 46.9025 8.505 46.9475C8.535 46.9775 8.61 46.9925 8.73 46.9925C8.76 46.9925 8.8125 46.9925 8.8875 46.9925C8.9625 46.9925 9.0375 46.9925 9.1125 46.9925C9.2025 46.9925 9.2625 46.9925 9.2925 46.9925C9.4275 46.9925 9.51 46.985 9.54 46.97C9.585 46.94 9.6225 46.88 9.6525 46.79C9.7875 46.91 9.99 47.0225 10.26 47.1275C10.53 47.2175 10.7775 47.285 11.0025 47.33C10.9125 47.735 10.7475 48.02 10.5075 48.185C10.2825 48.35 9.9675 48.4325 9.5625 48.4325C9.4725 48.4325 9.36 48.4325 9.225 48.4325C9.09 48.4325 8.955 48.4325 8.82 48.4325C8.685 48.4325 8.58 48.4325 8.505 48.4325C7.86 48.4325 7.4325 48.3125 7.2225 48.0725C7.0275 47.8175 6.93 47.3375 6.93 46.6325V44.5625ZM15.7275 39.0275H17.685V46.2275H17.865V52.595H15.525V46.2275H15.7275V39.0275ZM4.5675 44.4275H6.0525V45.35C6.0525 45.785 6.015 46.235 5.94 46.7C5.865 47.15 5.7075 47.5925 5.4675 48.0275C5.2275 48.4625 4.845 48.86 4.32 49.22C4.185 49.04 3.9825 48.845 3.7125 48.635C3.4425 48.425 3.2175 48.26 3.0375 48.14C3.4875 47.885 3.8175 47.5925 4.0275 47.2625C4.2525 46.9325 4.395 46.595 4.455 46.25C4.53 45.905 4.5675 45.59 4.5675 45.305V44.4275ZM24.2775 36.0575L25.47 34.2125C25.98 34.3325 26.5275 34.49 27.1125 34.685C27.6975 34.865 28.2675 35.06 28.8225 35.27C29.3925 35.465 29.865 35.6525 30.24 35.8325L29.025 37.88C28.665 37.7 28.215 37.4975 27.675 37.2725C27.135 37.0325 26.565 36.8075 25.965 36.5975C25.365 36.3875 24.8025 36.2075 24.2775 36.0575ZM23.2875 39.86C24.1125 39.71 25.1025 39.5 26.2575 39.23C27.4275 38.96 28.605 38.69 29.79 38.42L30.0375 40.535C29.0625 40.85 28.0725 41.15 27.0675 41.435C26.0775 41.705 25.155 41.96 24.3 42.2L23.2875 39.86ZM33.255 35.3825H41.895V37.295H31.7475L33.255 35.3825ZM41.265 35.3825H41.6475L42.0525 35.2925L43.83 35.765C43.545 36.365 43.2075 36.98 42.8175 37.61C42.4425 38.24 42.075 38.765 41.715 39.185L39.6 38.5325C39.9 38.1725 40.2075 37.73 40.5225 37.205C40.8375 36.665 41.085 36.1625 41.265 35.6975V35.3825ZM35.5725 36.1925H37.98C37.875 36.9875 37.695 37.715 37.44 38.375C37.185 39.02 36.81 39.5975 36.315 40.1075C35.835 40.6025 35.1825 41.0375 34.3575 41.4125C33.5475 41.7875 32.505 42.1025 31.23 42.3575C31.125 42.0725 30.9525 41.7425 30.7125 41.3675C30.4725 40.9775 30.24 40.67 30.015 40.445C31.095 40.265 31.98 40.0475 32.67 39.7925C33.36 39.5375 33.8925 39.245 34.2675 38.915C34.6575 38.57 34.95 38.1725 35.145 37.7225C35.34 37.2725 35.4825 36.7625 35.5725 36.1925ZM37.845 36.755C37.935 37.175 38.085 37.58 38.295 37.97C38.52 38.36 38.8575 38.72 39.3075 39.05C39.7575 39.365 40.3875 39.65 41.1975 39.905C42.0075 40.145 43.05 40.34 44.325 40.49C44.07 40.76 43.815 41.1125 43.56 41.5475C43.305 41.9825 43.11 42.3725 42.975 42.7175C41.58 42.4925 40.4325 42.1775 39.5325 41.7725C38.6475 41.3675 37.95 40.91 37.44 40.4C36.945 39.89 36.5625 39.3425 36.2925 38.7575C36.0375 38.1575 35.835 37.565 35.685 36.98L37.845 36.755ZM33.1875 33.875L35.5725 34.28C35.1375 35.165 34.6275 36.02 34.0425 36.845C33.4575 37.655 32.7375 38.405 31.8825 39.095C31.6425 38.855 31.32 38.615 30.915 38.375C30.525 38.135 30.165 37.9475 29.835 37.8125C30.66 37.2425 31.35 36.6125 31.905 35.9225C32.46 35.2175 32.8875 34.535 33.1875 33.875ZM28.9575 46.1375V47.0825H38.745V46.1375H28.9575ZM28.9575 48.6125V49.6025H38.745V48.6125H28.9575ZM28.9575 43.64V44.6075H38.745V43.64H28.9575ZM26.3475 42.0425H41.4675V51.2H26.3475V42.0425ZM35.01 52.3925L37.26 51.11C38.07 51.395 38.8875 51.7025 39.7125 52.0325C40.5525 52.3475 41.3475 52.67 42.0975 53C42.8625 53.315 43.5075 53.6 44.0325 53.855L40.8825 55.07C40.4625 54.83 39.9375 54.5525 39.3075 54.2375C38.6775 53.9225 37.995 53.6 37.26 53.27C36.54 52.955 35.79 52.6625 35.01 52.3925ZM30.0375 51.02L32.49 52.145C31.89 52.535 31.185 52.9175 30.375 53.2925C29.565 53.6675 28.7325 54.005 27.8775 54.305C27.0225 54.62 26.2125 54.8825 25.4475 55.0925C25.2825 54.9125 25.08 54.695 24.84 54.44C24.615 54.2 24.375 53.9525 24.12 53.6975C23.865 53.4575 23.64 53.2625 23.445 53.1125C24.24 52.9625 25.0425 52.7825 25.8525 52.5725C26.6775 52.3625 27.45 52.1225 28.17 51.8525C28.905 51.5825 29.5275 51.305 30.0375 51.02ZM56.745 40.4225H64.8V42.875H56.745V40.4225ZM56.745 45.755H64.8V48.185H56.745V45.755ZM56.745 51.065H64.8V53.5175H56.745V51.065ZM55.4625 35.09H66.06V54.6875H63.36V37.655H58.05V54.8225H55.4625V35.09ZM46.0125 38.5325H54.6525V41.075H46.0125V38.5325ZM49.2525 33.875H51.84V55.0025H49.2525V33.875ZM49.1175 40.265L50.715 40.8275C50.535 41.7425 50.31 42.6875 50.04 43.6625C49.77 44.6225 49.4625 45.5675 49.1175 46.4975C48.7725 47.4125 48.3975 48.275 47.9925 49.085C47.5875 49.88 47.16 50.5625 46.71 51.1325C46.59 50.7575 46.4025 50.33 46.1475 49.85C45.8925 49.355 45.6525 48.9425 45.4275 48.6125C45.8325 48.1175 46.2225 47.54 46.5975 46.88C46.9725 46.22 47.3175 45.5225 47.6325 44.7875C47.9625 44.0375 48.255 43.28 48.51 42.515C48.765 41.735 48.9675 40.985 49.1175 40.265ZM51.66 42.245C51.825 42.395 52.065 42.6575 52.38 43.0325C52.695 43.3925 53.025 43.79 53.37 44.225C53.73 44.66 54.06 45.065 54.36 45.44C54.675 45.8 54.8925 46.055 55.0125 46.205L53.46 48.3875C53.295 48.0575 53.085 47.6675 52.83 47.2175C52.575 46.7675 52.2975 46.31 51.9975 45.845C51.6975 45.38 51.405 44.9375 51.12 44.5175C50.85 44.0975 50.6175 43.745 50.4225 43.46L51.66 42.245ZM81.495 40.1975L83.16 38.42C83.805 38.78 84.51 39.1925 85.275 39.6575C86.055 40.1225 86.7975 40.595 87.5025 41.075C88.2225 41.54 88.8075 41.96 89.2575 42.335L87.4575 44.3825C87.0525 43.9775 86.505 43.5275 85.815 43.0325C85.125 42.5375 84.3975 42.0425 83.6325 41.5475C82.8675 41.0525 82.155 40.6025 81.495 40.1975ZM83.0475 43.4375H84.3975V46.8575C84.3975 47.1575 84.4425 47.5025 84.5325 47.8925C84.6225 48.2825 84.7725 48.7025 84.9825 49.1525C85.2075 49.5875 85.515 50.0225 85.905 50.4575C86.295 50.8775 86.7825 51.29 87.3675 51.695C87.9525 52.085 88.65 52.4375 89.46 52.7525C89.235 53.0675 88.965 53.45 88.65 53.9C88.335 54.35 88.0875 54.7325 87.9075 55.0475C87.2025 54.7775 86.565 54.4325 85.995 54.0125C85.44 53.5925 84.96 53.15 84.555 52.685C84.15 52.205 83.82 51.74 83.565 51.29C83.31 50.825 83.13 50.42 83.025 50.075C82.905 50.42 82.7025 50.8175 82.4175 51.2675C82.1475 51.7175 81.7875 52.1825 81.3375 52.6625C80.8875 53.1275 80.355 53.5625 79.74 53.9675C79.14 54.3875 78.45 54.7475 77.67 55.0475C77.565 54.8375 77.4225 54.59 77.2425 54.305C77.0775 54.035 76.8975 53.765 76.7025 53.495C76.5075 53.24 76.3275 53.0225 76.1625 52.8425C77.0325 52.5425 77.775 52.19 78.39 51.785C79.02 51.38 79.545 50.96 79.965 50.525C80.385 50.075 80.715 49.6325 80.955 49.1975C81.21 48.7475 81.3825 48.32 81.4725 47.915C81.5775 47.51 81.63 47.1575 81.63 46.8575V43.4375H83.0475ZM81.8325 33.875H84.4875C84.4275 35.225 84.3075 36.455 84.1275 37.565C83.9625 38.675 83.6625 39.6725 83.2275 40.5575C82.8075 41.4275 82.185 42.1925 81.36 42.8525C80.55 43.5125 79.4625 44.0825 78.0975 44.5625C77.9775 44.2325 77.7675 43.8575 77.4675 43.4375C77.1675 43.0025 76.875 42.665 76.59 42.425C77.775 42.065 78.705 41.63 79.38 41.12C80.055 40.595 80.5575 39.9875 80.8875 39.2975C81.2325 38.5925 81.465 37.7975 81.585 36.9125C81.705 36.0125 81.7875 35 81.8325 33.875ZM78.525 35.225L80.73 35.6525C80.625 36.4175 80.4225 37.1825 80.1225 37.9475C79.8225 38.7125 79.425 39.35 78.93 39.86L76.8375 38.9375C77.2425 38.5325 77.595 37.985 77.895 37.295C78.195 36.605 78.405 35.915 78.525 35.225ZM78.255 44.99L80.6175 45.4625C80.4675 46.3325 80.2125 47.1875 79.8525 48.0275C79.5075 48.8525 79.0575 49.5425 78.5025 50.0975L76.2975 48.9725C76.7775 48.5525 77.1825 47.975 77.5125 47.24C77.8575 46.505 78.105 45.755 78.255 44.99ZM86.4675 35.0675L89.055 35.8775C88.68 36.5525 88.2975 37.22 87.9075 37.88C87.5325 38.525 87.1875 39.08 86.8725 39.545L84.8475 38.78C85.0425 38.45 85.245 38.0675 85.455 37.6325C85.665 37.1975 85.86 36.755 86.04 36.305C86.22 35.855 86.3625 35.4425 86.4675 35.0675ZM86.6025 44.8325L89.2575 45.665C88.8525 46.355 88.44 47.0525 88.02 47.7575C87.615 48.4625 87.2325 49.055 86.8725 49.535L84.78 48.77C85.005 48.41 85.23 48.005 85.455 47.555C85.68 47.09 85.89 46.6175 86.085 46.1375C86.295 45.6575 86.4675 45.2225 86.6025 44.8325ZM69.2325 40.7825H76.0275V42.83H69.2325V40.7825ZM69.3225 34.595H75.9825V36.62H69.3225V34.595ZM69.2325 43.865H76.0275V45.89H69.2325V43.865ZM68.175 37.61H76.77V39.7475H68.175V37.61ZM70.4025 46.97H76.0725V53.8325H70.4025V51.695H73.755V49.1075H70.4025V46.97ZM69.1875 46.97H71.46V54.71H69.1875V46.97Z" fill="white"/>
<g opacity="0.8">
<path d="M246.65 235.66L100.113 177.784C99.2539 177.445 98.6895 176.615 98.6895 175.692V171.441C98.6895 170.199 99.6968 169.191 100.939 169.191H402.352C403.594 169.191 404.602 170.199 404.602 171.441V175.679C404.602 176.609 404.03 177.443 403.162 177.778L253.198 235.686C251.09 236.5 248.752 236.491 246.65 235.66Z" fill="#5F75DA"/>
<path opacity="0.6" d="M403.167 177.779L252.501 236.242C251.621 236.584 250.673 235.935 250.673 234.991V228.519C250.673 227.581 251.254 226.742 252.132 226.412L401.563 170.332C403.034 169.78 404.603 170.868 404.603 172.439V175.682C404.603 176.61 404.033 177.444 403.167 177.779Z" fill="#254598"/>
<path d="M100.323 167.495C150.376 148.674 239.85 114.993 249.485 111.22C250.029 111.007 250.582 111.016 251.13 111.219L402.858 167.482C404.809 168.206 404.817 170.963 402.87 171.697L252.412 228.443C251.036 228.962 249.518 228.957 248.145 228.43L100.323 171.696C98.3906 170.955 98.3856 168.223 100.323 167.495Z" fill="url(#paint0_linear_729_5219)" stroke="url(#paint1_linear_729_5219)" stroke-opacity="0.3" stroke-width="0.75"/>
</g>
<path d="M138 169H41.25C40.0074 169 39 167.993 39 166.75L39 73" stroke="#ABC5EF" stroke-dasharray="1.5 1.5"/>
<circle cx="5.84546" cy="5.84546" r="5.47046" transform="matrix(-1 0 0 1 143.691 163)" fill="#ABC5EF" stroke="#ABC5EF" stroke-width="0.75"/>
<defs>
<linearGradient id="paint0_linear_729_5219" x1="251.646" y1="110.902" x2="251.646" y2="229.248" gradientUnits="userSpaceOnUse">
<stop stop-color="#001B94"/>
<stop offset="1" stop-color="#254598"/>
</linearGradient>
<linearGradient id="paint1_linear_729_5219" x1="251.646" y1="110.902" x2="251.646" y2="229.248" gradientUnits="userSpaceOnUse">
<stop stop-color="white" stop-opacity="0.6"/>
<stop offset="1" stop-color="white"/>
</linearGradient>
</defs>
</svg>
