<svg width="454" height="198" viewBox="0 0 454 198" fill="none" xmlns="http://www.w3.org/2000/svg">
<path d="M1.88574 18.6274C5.39038 16.7817 9.01587 14.0132 11.9932 10.8931H1.64404V8.36621H13.5752V5.35596H16.3877V8.36621H20.4307V10.8931H16.3877V20.0337C16.3877 23.3076 15.9702 23.6592 12.2568 23.6592C11.2241 23.6592 10.2354 23.5933 8.74121 23.4395L8.87305 20.9346C10.2134 21.0664 11.29 21.1543 11.9712 21.1543C13.3994 21.1543 13.5752 21.0444 13.5752 20.0337V12.9365C10.4551 16.2214 7.00537 18.9021 3.33594 20.9346L1.88574 18.6274ZM23.7266 16.3423V13.7495H39.8984V16.3423H23.7266ZM45.4355 21.4619C48.9072 21.0774 51.8516 19.8359 54.0269 17.9683C52.1921 16.573 50.5002 15.3975 48.8853 14.4087L50.6211 12.1675C52.4888 13.3101 54.2795 14.5625 55.9604 15.8589C57.0481 14.3098 57.7512 12.4971 57.9819 10.5195H50.2036C48.7864 12.6289 46.8967 14.4966 44.5786 16.0786L42.689 14.1011C45.7212 11.9478 48.3359 8.65186 49.5005 5.44385L52.4229 5.92725C52.2031 6.6084 51.9504 7.27856 51.6538 7.92676H57.1689C56.7515 7.23462 56.323 6.59741 55.8286 5.94922L57.5425 4.9165C58.2896 5.86133 58.9158 6.82812 59.498 7.92676H60.8384C60.377 7.05884 59.9155 6.28979 59.3662 5.50977L61.124 4.58691C62.0029 5.86133 62.6621 7.0918 63.3213 8.62988L61.5415 9.44287C61.3657 9.04736 61.1899 8.66284 61.0142 8.30029V9.15723C61.0142 17.1772 55.1255 23.1099 46.3145 24.0547L45.4355 21.4619ZM65.9141 16.3423V13.7495H82.0859V16.3423H65.9141ZM85.6455 21.3081C89.26 19.8359 92.2483 17.8145 94.5664 15.2656C92.5229 13.7495 90.3586 12.4312 87.8867 11.2007L89.6885 8.91553C92.1055 10.113 94.3137 11.4424 96.3682 12.9585C97.7415 10.937 98.7742 8.65186 99.4663 6.10303L102.345 6.87207C101.697 9.70654 100.444 12.4092 98.7412 14.8042C100.499 16.3203 102.18 17.9902 103.817 19.8579L101.751 22.0112C100.115 20.1655 98.5215 18.5505 96.8735 17.1113C94.2588 19.9897 90.9299 22.2969 87.2056 23.7251L85.6455 21.3081ZM106.959 14.0791C112.694 13.2661 119.813 9.6626 123.548 5.68555L125.394 7.75098C123.68 9.53076 121.318 11.2446 118.692 12.6948V24.1865H115.616V14.2329C112.87 15.4634 110.013 16.3643 107.42 16.7378L106.959 14.0791ZM140.775 11.5962C140.116 10.124 139.391 8.84961 138.424 7.46533L140.313 6.45459C141.28 7.83887 142.005 9.11328 142.687 10.6294L140.775 11.5962ZM144.159 10.3877C143.521 8.91553 142.818 7.64111 141.896 6.25684L143.763 5.29004C144.686 6.71826 145.411 7.99268 146.048 9.53076L144.159 10.3877ZM145.279 18.4297C141.324 17.0894 137.38 15.9468 133.875 15.1118V24.1865H130.865V5.8833H133.875V12.1895C137.82 13.1013 142.203 14.3538 146.18 15.7051L145.279 18.4297ZM163.331 4.2125H165.671V9.995H163.331V4.2125ZM153.341 19.625H155.253V24.4175H153.341V19.625ZM159.776 22.2125C160.826 22.0925 162.086 21.92 163.556 21.695C165.026 21.47 166.511 21.2375 168.011 20.9975L168.168 23.2925C166.818 23.5625 165.453 23.8175 164.073 24.0575C162.708 24.3125 161.471 24.545 160.361 24.755L159.776 22.2125ZM166.211 18.725L168.236 18.2525C168.506 18.9125 168.753 19.6175 168.978 20.3675C169.203 21.1175 169.391 21.8525 169.541 22.5725C169.706 23.2775 169.811 23.9 169.856 24.44L167.673 25.0025C167.643 24.4775 167.561 23.8475 167.426 23.1125C167.291 22.3925 167.118 21.65 166.908 20.885C166.698 20.12 166.466 19.4 166.211 18.725ZM162.341 10.445V15.1475H166.796V10.445H162.341ZM160.226 8.15H169.023V17.4425H160.226V8.15ZM152.396 9.5675V10.9625H156.311V9.5675H152.396ZM150.101 7.79H158.763V12.695H150.101V7.79ZM149.043 4.7525H159.753V6.98H149.043V4.7525ZM151.788 19.1075H156.851V20.8625H151.788V19.1075ZM149.178 13.55H158.403V15.4625H151.226V24.9575H149.178V13.55ZM157.458 13.55H159.573V22.775C159.573 23.24 159.521 23.615 159.416 23.9C159.311 24.2 159.108 24.44 158.808 24.62C158.508 24.785 158.148 24.8825 157.728 24.9125C157.323 24.9575 156.843 24.98 156.288 24.98C156.273 24.695 156.206 24.365 156.086 23.99C155.981 23.615 155.861 23.285 155.726 23C156.041 23.015 156.333 23.0225 156.603 23.0225C156.888 23.0225 157.083 23.0225 157.188 23.0225C157.368 23.0225 157.458 22.925 157.458 22.73V13.55ZM154.758 14.5625H156.288V16.61C156.288 16.79 156.303 16.9025 156.333 16.9475C156.363 16.9775 156.438 16.9925 156.558 16.9925C156.588 16.9925 156.641 16.9925 156.716 16.9925C156.791 16.9925 156.866 16.9925 156.941 16.9925C157.031 16.9925 157.091 16.9925 157.121 16.9925C157.256 16.9925 157.338 16.985 157.368 16.97C157.413 16.94 157.451 16.88 157.481 16.79C157.616 16.91 157.818 17.0225 158.088 17.1275C158.358 17.2175 158.606 17.285 158.831 17.33C158.741 17.735 158.576 18.02 158.336 18.185C158.111 18.35 157.796 18.4325 157.391 18.4325C157.301 18.4325 157.188 18.4325 157.053 18.4325C156.918 18.4325 156.783 18.4325 156.648 18.4325C156.513 18.4325 156.408 18.4325 156.333 18.4325C155.688 18.4325 155.261 18.3125 155.051 18.0725C154.856 17.8175 154.758 17.3375 154.758 16.6325V14.5625ZM163.556 9.0275H165.513V16.2275H165.693V22.595H163.353V16.2275H163.556V9.0275ZM152.396 14.4275H153.881V15.35C153.881 15.785 153.843 16.235 153.768 16.7C153.693 17.15 153.536 17.5925 153.296 18.0275C153.056 18.4625 152.673 18.86 152.148 19.22C152.013 19.04 151.811 18.845 151.541 18.635C151.271 18.425 151.046 18.26 150.866 18.14C151.316 17.885 151.646 17.5925 151.856 17.2625C152.081 16.9325 152.223 16.595 152.283 16.25C152.358 15.905 152.396 15.59 152.396 15.305V14.4275ZM172.106 6.0575L173.298 4.2125C173.808 4.3325 174.356 4.49 174.941 4.685C175.526 4.865 176.096 5.06 176.651 5.27C177.221 5.465 177.693 5.6525 178.068 5.8325L176.853 7.88C176.493 7.7 176.043 7.4975 175.503 7.2725C174.963 7.0325 174.393 6.8075 173.793 6.5975C173.193 6.3875 172.631 6.2075 172.106 6.0575ZM171.116 9.86C171.941 9.71 172.931 9.5 174.086 9.23C175.256 8.96 176.433 8.69 177.618 8.42L177.866 10.535C176.891 10.85 175.901 11.15 174.896 11.435C173.906 11.705 172.983 11.96 172.128 12.2L171.116 9.86ZM181.083 5.3825H189.723V7.295H179.576L181.083 5.3825ZM189.093 5.3825H189.476L189.881 5.2925L191.658 5.765C191.373 6.365 191.036 6.98 190.646 7.61C190.271 8.24 189.903 8.765 189.543 9.185L187.428 8.5325C187.728 8.1725 188.036 7.73 188.351 7.205C188.666 6.665 188.913 6.1625 189.093 5.6975V5.3825ZM183.401 6.1925H185.808C185.703 6.9875 185.523 7.715 185.268 8.375C185.013 9.02 184.638 9.5975 184.143 10.1075C183.663 10.6025 183.011 11.0375 182.186 11.4125C181.376 11.7875 180.333 12.1025 179.058 12.3575C178.953 12.0725 178.781 11.7425 178.541 11.3675C178.301 10.9775 178.068 10.67 177.843 10.445C178.923 10.265 179.808 10.0475 180.498 9.7925C181.188 9.5375 181.721 9.245 182.096 8.915C182.486 8.57 182.778 8.1725 182.973 7.7225C183.168 7.2725 183.311 6.7625 183.401 6.1925ZM185.673 6.755C185.763 7.175 185.913 7.58 186.123 7.97C186.348 8.36 186.686 8.72 187.136 9.05C187.586 9.365 188.216 9.65 189.026 9.905C189.836 10.145 190.878 10.34 192.153 10.49C191.898 10.76 191.643 11.1125 191.388 11.5475C191.133 11.9825 190.938 12.3725 190.803 12.7175C189.408 12.4925 188.261 12.1775 187.361 11.7725C186.476 11.3675 185.778 10.91 185.268 10.4C184.773 9.89 184.391 9.3425 184.121 8.7575C183.866 8.1575 183.663 7.565 183.513 6.98L185.673 6.755ZM181.016 3.875L183.401 4.28C182.966 5.165 182.456 6.02 181.871 6.845C181.286 7.655 180.566 8.405 179.711 9.095C179.471 8.855 179.148 8.615 178.743 8.375C178.353 8.135 177.993 7.9475 177.663 7.8125C178.488 7.2425 179.178 6.6125 179.733 5.9225C180.288 5.2175 180.716 4.535 181.016 3.875ZM176.786 16.1375V17.0825H186.573V16.1375H176.786ZM176.786 18.6125V19.6025H186.573V18.6125H176.786ZM176.786 13.64V14.6075H186.573V13.64H176.786ZM174.176 12.0425H189.296V21.2H174.176V12.0425ZM182.838 22.3925L185.088 21.11C185.898 21.395 186.716 21.7025 187.541 22.0325C188.381 22.3475 189.176 22.67 189.926 23C190.691 23.315 191.336 23.6 191.861 23.855L188.711 25.07C188.291 24.83 187.766 24.5525 187.136 24.2375C186.506 23.9225 185.823 23.6 185.088 23.27C184.368 22.955 183.618 22.6625 182.838 22.3925ZM177.866 21.02L180.318 22.145C179.718 22.535 179.013 22.9175 178.203 23.2925C177.393 23.6675 176.561 24.005 175.706 24.305C174.851 24.62 174.041 24.8825 173.276 25.0925C173.111 24.9125 172.908 24.695 172.668 24.44C172.443 24.2 172.203 23.9525 171.948 23.6975C171.693 23.4575 171.468 23.2625 171.273 23.1125C172.068 22.9625 172.871 22.7825 173.681 22.5725C174.506 22.3625 175.278 22.1225 175.998 21.8525C176.733 21.5825 177.356 21.305 177.866 21.02ZM204.573 10.4225H212.628V12.875H204.573V10.4225ZM204.573 15.755H212.628V18.185H204.573V15.755ZM204.573 21.065H212.628V23.5175H204.573V21.065ZM203.291 5.09H213.888V24.6875H211.188V7.655H205.878V24.8225H203.291V5.09ZM193.841 8.5325H202.481V11.075H193.841V8.5325ZM197.081 3.875H199.668V25.0025H197.081V3.875ZM196.946 10.265L198.543 10.8275C198.363 11.7425 198.138 12.6875 197.868 13.6625C197.598 14.6225 197.291 15.5675 196.946 16.4975C196.601 17.4125 196.226 18.275 195.821 19.085C195.416 19.88 194.988 20.5625 194.538 21.1325C194.418 20.7575 194.231 20.33 193.976 19.85C193.721 19.355 193.481 18.9425 193.256 18.6125C193.661 18.1175 194.051 17.54 194.426 16.88C194.801 16.22 195.146 15.5225 195.461 14.7875C195.791 14.0375 196.083 13.28 196.338 12.515C196.593 11.735 196.796 10.985 196.946 10.265ZM199.488 12.245C199.653 12.395 199.893 12.6575 200.208 13.0325C200.523 13.3925 200.853 13.79 201.198 14.225C201.558 14.66 201.888 15.065 202.188 15.44C202.503 15.8 202.721 16.055 202.841 16.205L201.288 18.3875C201.123 18.0575 200.913 17.6675 200.658 17.2175C200.403 16.7675 200.126 16.31 199.826 15.845C199.526 15.38 199.233 14.9375 198.948 14.5175C198.678 14.0975 198.446 13.745 198.251 13.46L199.488 12.245ZM229.323 10.1975L230.988 8.42C231.633 8.78 232.338 9.1925 233.103 9.6575C233.883 10.1225 234.626 10.595 235.331 11.075C236.051 11.54 236.636 11.96 237.086 12.335L235.286 14.3825C234.881 13.9775 234.333 13.5275 233.643 13.0325C232.953 12.5375 232.226 12.0425 231.461 11.5475C230.696 11.0525 229.983 10.6025 229.323 10.1975ZM230.876 13.4375H232.226V16.8575C232.226 17.1575 232.271 17.5025 232.361 17.8925C232.451 18.2825 232.601 18.7025 232.811 19.1525C233.036 19.5875 233.343 20.0225 233.733 20.4575C234.123 20.8775 234.611 21.29 235.196 21.695C235.781 22.085 236.478 22.4375 237.288 22.7525C237.063 23.0675 236.793 23.45 236.478 23.9C236.163 24.35 235.916 24.7325 235.736 25.0475C235.031 24.7775 234.393 24.4325 233.823 24.0125C233.268 23.5925 232.788 23.15 232.383 22.685C231.978 22.205 231.648 21.74 231.393 21.29C231.138 20.825 230.958 20.42 230.853 20.075C230.733 20.42 230.531 20.8175 230.246 21.2675C229.976 21.7175 229.616 22.1825 229.166 22.6625C228.716 23.1275 228.183 23.5625 227.568 23.9675C226.968 24.3875 226.278 24.7475 225.498 25.0475C225.393 24.8375 225.251 24.59 225.071 24.305C224.906 24.035 224.726 23.765 224.531 23.495C224.336 23.24 224.156 23.0225 223.991 22.8425C224.861 22.5425 225.603 22.19 226.218 21.785C226.848 21.38 227.373 20.96 227.793 20.525C228.213 20.075 228.543 19.6325 228.783 19.1975C229.038 18.7475 229.211 18.32 229.301 17.915C229.406 17.51 229.458 17.1575 229.458 16.8575V13.4375H230.876ZM229.661 3.875H232.316C232.256 5.225 232.136 6.455 231.956 7.565C231.791 8.675 231.491 9.6725 231.056 10.5575C230.636 11.4275 230.013 12.1925 229.188 12.8525C228.378 13.5125 227.291 14.0825 225.926 14.5625C225.806 14.2325 225.596 13.8575 225.296 13.4375C224.996 13.0025 224.703 12.665 224.418 12.425C225.603 12.065 226.533 11.63 227.208 11.12C227.883 10.595 228.386 9.9875 228.716 9.2975C229.061 8.5925 229.293 7.7975 229.413 6.9125C229.533 6.0125 229.616 5 229.661 3.875ZM226.353 5.225L228.558 5.6525C228.453 6.4175 228.251 7.1825 227.951 7.9475C227.651 8.7125 227.253 9.35 226.758 9.86L224.666 8.9375C225.071 8.5325 225.423 7.985 225.723 7.295C226.023 6.605 226.233 5.915 226.353 5.225ZM226.083 14.99L228.446 15.4625C228.296 16.3325 228.041 17.1875 227.681 18.0275C227.336 18.8525 226.886 19.5425 226.331 20.0975L224.126 18.9725C224.606 18.5525 225.011 17.975 225.341 17.24C225.686 16.505 225.933 15.755 226.083 14.99ZM234.296 5.0675L236.883 5.8775C236.508 6.5525 236.126 7.22 235.736 7.88C235.361 8.525 235.016 9.08 234.701 9.545L232.676 8.78C232.871 8.45 233.073 8.0675 233.283 7.6325C233.493 7.1975 233.688 6.755 233.868 6.305C234.048 5.855 234.191 5.4425 234.296 5.0675ZM234.431 14.8325L237.086 15.665C236.681 16.355 236.268 17.0525 235.848 17.7575C235.443 18.4625 235.061 19.055 234.701 19.535L232.608 18.77C232.833 18.41 233.058 18.005 233.283 17.555C233.508 17.09 233.718 16.6175 233.913 16.1375C234.123 15.6575 234.296 15.2225 234.431 14.8325ZM217.061 10.7825H223.856V12.83H217.061V10.7825ZM217.151 4.595H223.811V6.62H217.151V4.595ZM217.061 13.865H223.856V15.89H217.061V13.865ZM216.003 7.61H224.598V9.7475H216.003V7.61ZM218.231 16.97H223.901V23.8325H218.231V21.695H221.583V19.1075H218.231V16.97ZM217.016 16.97H219.288V24.71H217.016V16.97Z" fill="white"/>
<g opacity="0.8">
<path d="M291.65 196.66L145.113 138.784C144.254 138.445 143.689 137.615 143.689 136.692V132.441C143.689 131.199 144.697 130.191 145.939 130.191H447.352C448.594 130.191 449.602 131.199 449.602 132.441V136.679C449.602 137.609 449.03 138.443 448.162 138.778L298.198 196.686C296.09 197.5 293.752 197.491 291.65 196.66Z" fill="#5F75DA"/>
<path opacity="0.6" d="M448.167 138.779L297.501 197.242C296.621 197.584 295.673 196.935 295.673 195.991V189.519C295.673 188.581 296.254 187.742 297.132 187.412L446.563 131.332C448.034 130.78 449.603 131.868 449.603 133.439V136.682C449.603 137.61 449.033 138.444 448.167 138.779Z" fill="#254598"/>
<path d="M145.323 128.495C195.376 109.674 284.85 75.9934 294.485 72.22C295.029 72.007 295.582 72.0159 296.13 72.2189L447.858 128.482C449.809 129.206 449.817 131.963 447.87 132.697L297.412 189.443C296.036 189.962 294.518 189.957 293.145 189.43L145.323 132.696C143.391 131.955 143.386 129.223 145.323 128.495Z" fill="url(#paint0_linear_792_82)" stroke="url(#paint1_linear_792_82)" stroke-opacity="0.3" stroke-width="0.75"/>
</g>
<path d="M183 130H86.25C85.0074 130 84 128.993 84 127.75L84 34" stroke="#ABC5EF" stroke-dasharray="1.5 1.5"/>
<circle cx="5.84546" cy="5.84546" r="5.47046" transform="matrix(-1 0 0 1 188.691 124)" fill="#ABC5EF" stroke="#ABC5EF" stroke-width="0.75"/>
<defs>
<linearGradient id="paint0_linear_792_82" x1="296.646" y1="71.9023" x2="296.646" y2="190.248" gradientUnits="userSpaceOnUse">
<stop stop-color="#001B94"/>
<stop offset="1" stop-color="#254598"/>
</linearGradient>
<linearGradient id="paint1_linear_792_82" x1="296.646" y1="71.9023" x2="296.646" y2="190.248" gradientUnits="userSpaceOnUse">
<stop stop-color="white" stop-opacity="0.6"/>
<stop offset="1" stop-color="white"/>
</linearGradient>
</defs>
</svg>
