<svg width="411" height="131" viewBox="0 0 411 131" fill="none" xmlns="http://www.w3.org/2000/svg">
<path d="M1.7775 106.247H18.54V108.812H1.7775V106.247ZM2.0025 110.41H15.3225V112.772H2.0025V110.41ZM17.5725 106.247H20.3625V122.605C20.3625 123.37 20.2725 123.97 20.0925 124.405C19.9275 124.855 19.605 125.2 19.125 125.44C18.66 125.68 18.06 125.83 17.325 125.89C16.59 125.95 15.7125 125.973 14.6925 125.958C14.6625 125.688 14.6025 125.373 14.5125 125.013C14.4225 124.668 14.3175 124.315 14.1975 123.955C14.0775 123.595 13.95 123.287 13.815 123.032C14.25 123.062 14.685 123.085 15.12 123.1C15.555 123.1 15.945 123.1 16.29 123.1C16.635 123.085 16.8825 123.077 17.0325 123.077C17.2425 123.077 17.385 123.04 17.46 122.965C17.535 122.89 17.5725 122.747 17.5725 122.537V106.247ZM3.15 114.437H5.7825V123.73H3.15V114.437ZM5.49 114.437H14.13V122.087H5.49V119.77H11.475V116.755H5.49V114.437ZM29.4525 113.897H44.055V116.462H29.4525V113.897ZM30.5775 108.115H42.975V110.702H30.5775V108.115ZM35.28 104.875H38.07V115.765H35.28V104.875ZM29.475 122.38C30.48 122.335 31.6425 122.282 32.9625 122.222C34.2975 122.162 35.7075 122.087 37.1925 121.997C38.6925 121.907 40.185 121.825 41.67 121.75L41.6475 124.203C40.2525 124.308 38.8425 124.42 37.4175 124.54C36.0075 124.66 34.65 124.765 33.345 124.855C32.055 124.945 30.8775 125.035 29.8125 125.125L29.475 122.38ZM38.0925 119.275L40.41 118.037C40.98 118.697 41.535 119.417 42.075 120.197C42.63 120.977 43.1325 121.75 43.5825 122.515C44.0325 123.28 44.37 123.985 44.595 124.63L42.03 126.025C41.835 125.41 41.5275 124.713 41.1075 123.932C40.6875 123.152 40.215 122.357 39.69 121.547C39.165 120.722 38.6325 119.965 38.0925 119.275ZM33.525 115.72L36.54 116.507C36.21 117.362 35.85 118.24 35.46 119.14C35.085 120.04 34.7025 120.895 34.3125 121.705C33.9375 122.515 33.5775 123.235 33.2325 123.865L30.825 123.077C31.065 122.582 31.3125 122.035 31.5675 121.435C31.8225 120.82 32.07 120.182 32.31 119.522C32.565 118.862 32.79 118.21 32.985 117.565C33.195 116.905 33.375 116.29 33.525 115.72ZM24.435 106.967L25.92 104.965C26.415 105.145 26.9325 105.362 27.4725 105.617C28.0125 105.872 28.53 106.142 29.025 106.427C29.52 106.712 29.925 106.99 30.24 107.26L28.665 109.465C28.365 109.195 27.975 108.91 27.495 108.61C27.03 108.295 26.5275 107.995 25.9875 107.71C25.4475 107.41 24.93 107.162 24.435 106.967ZM23.1525 113.087L24.5475 111.04C25.0275 111.205 25.545 111.407 26.1 111.647C26.655 111.887 27.18 112.142 27.675 112.412C28.185 112.667 28.5975 112.915 28.9125 113.155L27.4275 115.427C27.1275 115.172 26.73 114.902 26.235 114.617C25.755 114.332 25.245 114.055 24.705 113.785C24.165 113.515 23.6475 113.282 23.1525 113.087ZM23.76 123.977C24.15 123.407 24.57 122.732 25.02 121.952C25.485 121.172 25.95 120.347 26.415 119.477C26.895 118.607 27.345 117.737 27.765 116.867L29.79 118.6C29.43 119.38 29.04 120.182 28.62 121.007C28.215 121.817 27.795 122.62 27.36 123.415C26.94 124.21 26.52 124.975 26.1 125.71L23.76 123.977ZM48.915 118.735H63.9225V126.07H61.1775V120.445H51.525V126.093H48.915V118.735ZM50.2875 121.277H62.145V122.83H50.2875V121.277ZM50.2875 123.707H62.145V125.418H50.2875V123.707ZM54.7875 104.807H57.51V117.385H54.7875V104.807ZM48.42 106.225H63.81V112.93H48.1725V111.332H61.1325V107.822H48.42V106.225ZM46.1025 108.632H66.3975V110.5H46.1025V108.632ZM47.6775 113.717H64.7325V115.337H47.6775V113.717ZM46.08 116.17H66.3975V118.037H46.08V116.17ZM69.795 122.29H87.84V124.99H69.795V122.29ZM68.5575 111.647H89.055V114.302H68.5575V111.647ZM77.265 104.92H80.1675V124.18H77.265V104.92ZM101.003 109.892H111.758V112.48H101.003V109.892ZM91.035 108.362H101.745V110.86H91.035V108.362ZM106.673 104.875H109.35V122.65C109.35 123.415 109.268 124.008 109.103 124.428C108.938 124.863 108.638 125.193 108.203 125.418C107.768 125.658 107.213 125.815 106.538 125.89C105.863 125.965 105.053 126.003 104.108 126.003C104.093 125.733 104.04 125.425 103.95 125.08C103.86 124.735 103.755 124.383 103.635 124.023C103.515 123.677 103.395 123.37 103.275 123.1C103.905 123.13 104.49 123.145 105.03 123.145C105.57 123.145 105.938 123.145 106.133 123.145C106.328 123.145 106.463 123.115 106.538 123.055C106.628 122.98 106.673 122.845 106.673 122.65V104.875ZM100.778 115.315L102.938 114.28C103.298 114.775 103.643 115.307 103.973 115.877C104.318 116.447 104.618 117.01 104.873 117.565C105.128 118.105 105.315 118.607 105.435 119.072L103.095 120.242C102.99 119.807 102.818 119.305 102.578 118.735C102.353 118.165 102.083 117.58 101.768 116.98C101.453 116.38 101.123 115.825 100.778 115.315ZM91.4625 114.032L93.375 112.48C94.035 113.2 94.7175 113.965 95.4225 114.775C96.1275 115.585 96.81 116.41 97.47 117.25C98.145 118.09 98.745 118.907 99.27 119.702C99.795 120.482 100.223 121.21 100.553 121.885L98.415 123.73C98.115 123.055 97.71 122.312 97.2 121.502C96.69 120.692 96.1125 119.852 95.4675 118.982C94.8375 118.112 94.1775 117.257 93.4875 116.417C92.8125 115.562 92.1375 114.767 91.4625 114.032ZM94.9725 104.897H97.56V109.892H94.9725V104.897ZM97.425 111.31L100.058 111.67C99.6825 113.845 99.1575 115.825 98.4825 117.61C97.8075 119.38 96.96 120.955 95.94 122.335C94.92 123.7 93.6825 124.87 92.2275 125.845C92.1225 125.665 91.9575 125.44 91.7325 125.17C91.5225 124.9 91.2975 124.63 91.0575 124.36C90.8175 124.105 90.6 123.895 90.405 123.73C91.785 122.935 92.94 121.937 93.87 120.737C94.8 119.522 95.55 118.127 96.12 116.552C96.705 114.977 97.14 113.23 97.425 111.31ZM122.13 114.415H124.808V122.245C124.808 122.665 124.853 122.927 124.943 123.032C125.048 123.137 125.25 123.19 125.55 123.19C125.64 123.19 125.76 123.19 125.91 123.19C126.075 123.19 126.255 123.19 126.45 123.19C126.645 123.19 126.825 123.19 126.99 123.19C127.155 123.19 127.283 123.19 127.373 123.19C127.598 123.19 127.77 123.107 127.89 122.942C128.01 122.762 128.093 122.41 128.138 121.885C128.198 121.36 128.243 120.58 128.273 119.545C128.468 119.695 128.7 119.845 128.97 119.995C129.255 120.145 129.548 120.272 129.848 120.377C130.148 120.482 130.41 120.572 130.635 120.647C130.56 121.922 130.418 122.92 130.208 123.64C130.013 124.36 129.713 124.863 129.308 125.148C128.903 125.448 128.34 125.598 127.62 125.598C127.515 125.598 127.343 125.598 127.103 125.598C126.878 125.598 126.63 125.598 126.36 125.598C126.105 125.598 125.865 125.598 125.64 125.598C125.415 125.598 125.243 125.598 125.123 125.598C124.328 125.598 123.713 125.493 123.278 125.283C122.858 125.088 122.558 124.743 122.378 124.248C122.213 123.752 122.13 123.092 122.13 122.267V114.415ZM118.935 116.147L121.365 116.665C121.29 117.52 121.185 118.405 121.05 119.32C120.915 120.235 120.735 121.105 120.51 121.93C120.3 122.74 120.023 123.452 119.678 124.068L117.293 122.987C117.608 122.402 117.87 121.742 118.08 121.007C118.305 120.272 118.485 119.485 118.62 118.645C118.755 117.805 118.86 116.972 118.935 116.147ZM122.288 111.895L124.11 110.117C124.71 110.402 125.355 110.732 126.045 111.107C126.735 111.482 127.395 111.872 128.025 112.277C128.655 112.682 129.173 113.057 129.578 113.402L127.643 115.427C127.283 115.067 126.795 114.677 126.18 114.257C125.58 113.822 124.935 113.402 124.245 112.997C123.57 112.577 122.918 112.21 122.288 111.895ZM129.173 116.462L131.58 115.54C132.03 116.305 132.465 117.137 132.885 118.037C133.305 118.922 133.665 119.792 133.965 120.647C134.28 121.487 134.49 122.252 134.595 122.942L131.94 124.045C131.865 123.37 131.685 122.597 131.4 121.727C131.13 120.842 130.8 119.95 130.41 119.05C130.02 118.135 129.608 117.272 129.173 116.462ZM123.053 104.875H125.865V108.992H123.053V104.875ZM116.258 107.53H134.033V110.095H116.258V107.53ZM114.998 107.53H117.698V113.2C117.698 114.115 117.66 115.127 117.585 116.237C117.525 117.332 117.413 118.465 117.248 119.635C117.083 120.79 116.843 121.915 116.528 123.01C116.228 124.105 115.823 125.095 115.312 125.98C115.148 125.83 114.915 125.65 114.615 125.44C114.33 125.245 114.038 125.05 113.738 124.855C113.438 124.675 113.183 124.54 112.973 124.45C113.438 123.64 113.805 122.755 114.075 121.795C114.345 120.835 114.54 119.852 114.66 118.847C114.795 117.842 114.885 116.86 114.93 115.9C114.975 114.925 114.998 114.025 114.998 113.2V107.53Z" fill="white"/>
<g opacity="0.6">
<path d="M248.857 125.758L102.32 67.8821C101.461 67.5428 100.896 66.713 100.896 65.7894V61.5391C100.896 60.2964 101.904 59.2891 103.146 59.2891H404.559C405.801 59.2891 406.809 60.2964 406.809 61.5391V65.7768C406.809 66.7067 406.237 67.5408 405.369 67.8758L255.405 125.783C253.297 126.597 250.959 126.588 248.857 125.758Z" fill="#5F75DA"/>
<path opacity="0.6" d="M405.374 67.8771L254.708 126.34C253.828 126.681 252.88 126.032 252.88 125.088V118.616C252.88 117.679 253.461 116.839 254.339 116.51L403.77 60.4302C405.241 59.8781 406.81 60.9655 406.81 62.5367V65.7795C406.81 66.7081 406.24 67.5412 405.374 67.8771Z" fill="#254598"/>
<path d="M102.53 57.5925C152.583 38.7718 242.057 5.09107 251.692 1.31761C252.236 1.10466 252.789 1.11351 253.337 1.31654L405.065 57.5798C407.016 58.3033 407.024 61.0603 405.077 61.7947L254.619 118.54C253.243 119.059 251.725 119.055 250.352 118.528L102.53 61.7939C100.598 61.0523 100.593 58.3208 102.53 57.5925Z" fill="url(#paint0_linear_792_63)" stroke="url(#paint1_linear_792_63)" stroke-opacity="0.3" stroke-width="0.75"/>
</g>
<path d="M125 57L24.25 57C23.0074 57 22 58.0074 22 59.25L22 93" stroke="#ABC5EF" stroke-dasharray="1.5 1.5"/>
<circle cx="5.84546" cy="5.84546" r="5.47046" transform="matrix(-1 0 0 1 131.5 50.8789)" fill="#ABC5EF" stroke="#ABC5EF" stroke-width="0.75"/>
<defs>
<linearGradient id="paint0_linear_792_63" x1="253.853" y1="1" x2="253.853" y2="119.346" gradientUnits="userSpaceOnUse">
<stop stop-color="#001B94"/>
<stop offset="1" stop-color="#254598"/>
</linearGradient>
<linearGradient id="paint1_linear_792_63" x1="253.853" y1="1" x2="253.853" y2="119.346" gradientUnits="userSpaceOnUse">
<stop stop-color="white" stop-opacity="0.6"/>
<stop offset="1" stop-color="white"/>
</linearGradient>
</defs>
</svg>
