<svg width="904" height="403" viewBox="0 0 904 403" fill="none" xmlns="http://www.w3.org/2000/svg">
<path d="M782 6.5C781.724 6.5 781.5 6.72386 781.5 7C781.5 7.27614 781.724 7.5 782 7.5V6.5ZM782 7V7.5C782.004 7.5 782.008 7.5 782.012 7.5C782.017 7.5 782.021 7.5 782.025 7.5C782.029 7.5 782.034 7.5 782.038 7.5C782.042 7.5 782.047 7.5 782.051 7.5C782.055 7.5 782.06 7.5 782.064 7.5C782.069 7.5 782.074 7.5 782.078 7.5C782.083 7.5 782.087 7.5 782.092 7.5C782.097 7.5 782.102 7.5 782.106 7.5C782.111 7.5 782.116 7.5 782.121 7.5C782.126 7.5 782.131 7.5 782.136 7.5C782.141 7.5 782.146 7.5 782.151 7.5C782.156 7.5 782.161 7.5 782.166 7.5C782.171 7.5 782.176 7.5 782.182 7.5C782.187 7.5 782.192 7.5 782.197 7.5C782.203 7.5 782.208 7.5 782.214 7.5C782.219 7.5 782.224 7.5 782.23 7.5C782.235 7.5 782.241 7.5 782.247 7.5C782.252 7.5 782.258 7.5 782.263 7.5C782.269 7.5 782.275 7.5 782.281 7.5C782.286 7.5 782.292 7.5 782.298 7.5C782.304 7.5 782.31 7.5 782.316 7.5C782.322 7.5 782.328 7.5 782.334 7.5C782.34 7.5 782.346 7.5 782.352 7.5C782.358 7.5 782.364 7.5 782.37 7.5C782.376 7.5 782.383 7.5 782.389 7.5C782.395 7.5 782.402 7.5 782.408 7.5C782.414 7.5 782.421 7.5 782.427 7.5C782.434 7.5 782.44 7.5 782.447 7.5C782.453 7.5 782.46 7.5 782.466 7.5C782.473 7.5 782.48 7.5 782.486 7.5C782.493 7.5 782.5 7.5 782.506 7.5C782.513 7.5 782.52 7.5 782.527 7.5C782.534 7.5 782.541 7.5 782.548 7.5C782.555 7.5 782.562 7.5 782.569 7.5C782.576 7.5 782.583 7.5 782.59 7.5C782.597 7.5 782.604 7.5 782.611 7.5C782.618 7.5 782.626 7.5 782.633 7.5C782.64 7.5 782.647 7.5 782.655 7.5C782.662 7.5 782.67 7.5 782.677 7.5C782.684 7.5 782.692 7.5 782.699 7.5C782.707 7.5 782.714 7.5 782.722 7.5C782.73 7.5 782.737 7.5 782.745 7.5C782.753 7.5 782.76 7.5 782.768 7.5C782.776 7.5 782.784 7.5 782.791 7.5C782.799 7.5 782.807 7.5 782.815 7.5C782.823 7.5 782.831 7.5 782.839 7.5C782.847 7.5 782.855 7.5 782.863 7.5C782.871 7.5 782.879 7.5 782.887 7.5C782.895 7.5 782.904 7.5 782.912 7.5C782.92 7.5 782.928 7.5 782.937 7.5C782.945 7.5 782.953 7.5 782.962 7.5C782.97 7.5 782.978 7.5 782.987 7.5C782.995 7.5 783.004 7.5 783.012 7.5C783.021 7.5 783.029 7.5 783.038 7.5C783.047 7.5 783.055 7.5 783.064 7.5C783.073 7.5 783.081 7.5 783.09 7.5C783.099 7.5 783.108 7.5 783.116 7.5C783.125 7.5 783.134 7.5 783.143 7.5C783.152 7.5 783.161 7.5 783.17 7.5C783.179 7.5 783.188 7.5 783.197 7.5C783.206 7.5 783.215 7.5 783.224 7.5C783.233 7.5 783.243 7.5 783.252 7.5C783.261 7.5 783.27 7.5 783.28 7.5C783.289 7.5 783.298 7.5 783.307 7.5C783.317 7.5 783.326 7.5 783.336 7.5C783.345 7.5 783.355 7.5 783.364 7.5C783.374 7.5 783.383 7.5 783.393 7.5C783.402 7.5 783.412 7.5 783.421 7.5C783.431 7.5 783.441 7.5 783.451 7.5C783.46 7.5 783.47 7.5 783.48 7.5C783.49 7.5 783.499 7.5 783.509 7.5C783.519 7.5 783.529 7.5 783.539 7.5C783.549 7.5 783.559 7.5 783.569 7.5C783.579 7.5 783.589 7.5 783.599 7.5C783.609 7.5 783.619 7.5 783.629 7.5C783.639 7.5 783.65 7.5 783.66 7.5C783.67 7.5 783.68 7.5 783.691 7.5C783.701 7.5 783.711 7.5 783.722 7.5C783.732 7.5 783.742 7.5 783.753 7.5C783.763 7.5 783.774 7.5 783.784 7.5C783.795 7.5 783.805 7.5 783.816 7.5C783.826 7.5 783.837 7.5 783.847 7.5C783.858 7.5 783.869 7.5 783.879 7.5C783.89 7.5 783.901 7.5 783.912 7.5C783.922 7.5 783.933 7.5 783.944 7.5C783.955 7.5 783.966 7.5 783.977 7.5C783.987 7.5 783.998 7.5 784.009 7.5C784.02 7.5 784.031 7.5 784.042 7.5C784.053 7.5 784.064 7.5 784.076 7.5C784.087 7.5 784.098 7.5 784.109 7.5C784.12 7.5 784.131 7.5 784.143 7.5C784.154 7.5 784.165 7.5 784.176 7.5C784.188 7.5 784.199 7.5 784.21 7.5C784.222 7.5 784.233 7.5 784.245 7.5C784.256 7.5 784.267 7.5 784.279 7.5C784.29 7.5 784.302 7.5 784.313 7.5C784.325 7.5 784.337 7.5 784.348 7.5C784.36 7.5 784.371 7.5 784.383 7.5C784.395 7.5 784.407 7.5 784.418 7.5C784.43 7.5 784.442 7.5 784.454 7.5C784.465 7.5 784.477 7.5 784.489 7.5C784.501 7.5 784.513 7.5 784.525 7.5C784.537 7.5 784.549 7.5 784.561 7.5C784.573 7.5 784.585 7.5 784.597 7.5C784.609 7.5 784.621 7.5 784.633 7.5C784.645 7.5 784.657 7.5 784.67 7.5C784.682 7.5 784.694 7.5 784.706 7.5C784.718 7.5 784.731 7.5 784.743 7.5C784.755 7.5 784.768 7.5 784.78 7.5C784.792 7.5 784.805 7.5 784.817 7.5C784.83 7.5 784.842 7.5 784.855 7.5C784.867 7.5 784.88 7.5 784.892 7.5C784.905 7.5 784.917 7.5 784.93 7.5C784.942 7.5 784.955 7.5 784.968 7.5C784.98 7.5 784.993 7.5 785.006 7.5C785.019 7.5 785.031 7.5 785.044 7.5C785.057 7.5 785.07 7.5 785.082 7.5C785.095 7.5 785.108 7.5 785.121 7.5C785.134 7.5 785.147 7.5 785.16 7.5C785.173 7.5 785.186 7.5 785.199 7.5C785.212 7.5 785.225 7.5 785.238 7.5C785.251 7.5 785.264 7.5 785.277 7.5C785.29 7.5 785.303 7.5 785.317 7.5C785.33 7.5 785.343 7.5 785.356 7.5C785.37 7.5 785.383 7.5 785.396 7.5C785.409 7.5 785.423 7.5 785.436 7.5C785.449 7.5 785.463 7.5 785.476 7.5C785.49 7.5 785.503 7.5 785.516 7.5C785.53 7.5 785.543 7.5 785.557 7.5C785.57 7.5 785.584 7.5 785.598 7.5C785.611 7.5 785.625 7.5 785.638 7.5C785.652 7.5 785.666 7.5 785.679 7.5C785.693 7.5 785.707 7.5 785.72 7.5C785.734 7.5 785.748 7.5 785.762 7.5C785.775 7.5 785.789 7.5 785.803 7.5C785.817 7.5 785.831 7.5 785.845 7.5C785.859 7.5 785.872 7.5 785.886 7.5C785.9 7.5 785.914 7.5 785.928 7.5C785.942 7.5 785.956 7.5 785.97 7.5C785.984 7.5 785.998 7.5 786.013 7.5C786.027 7.5 786.041 7.5 786.055 7.5C786.069 7.5 786.083 7.5 786.097 7.5C786.112 7.5 786.126 7.5 786.14 7.5C786.154 7.5 786.169 7.5 786.183 7.5C786.197 7.5 786.212 7.5 786.226 7.5C786.24 7.5 786.255 7.5 786.269 7.5C786.283 7.5 786.298 7.5 786.312 7.5C786.327 7.5 786.341 7.5 786.356 7.5C786.37 7.5 786.385 7.5 786.399 7.5C786.414 7.5 786.428 7.5 786.443 7.5C786.458 7.5 786.472 7.5 786.487 7.5C786.502 7.5 786.516 7.5 786.531 7.5C786.546 7.5 786.56 7.5 786.575 7.5C786.59 7.5 786.605 7.5 786.619 7.5C786.634 7.5 786.649 7.5 786.664 7.5C786.679 7.5 786.694 7.5 786.708 7.5C786.723 7.5 786.738 7.5 786.753 7.5C786.768 7.5 786.783 7.5 786.798 7.5C786.813 7.5 786.828 7.5 786.843 7.5C786.858 7.5 786.873 7.5 786.888 7.5C786.903 7.5 786.918 7.5 786.933 7.5C786.949 7.5 786.964 7.5 786.979 7.5C786.994 7.5 787.009 7.5 787.024 7.5C787.04 7.5 787.055 7.5 787.07 7.5C787.085 7.5 787.101 7.5 787.116 7.5C787.131 7.5 787.146 7.5 787.162 7.5C787.177 7.5 787.192 7.5 787.208 7.5C787.223 7.5 787.239 7.5 787.254 7.5C787.269 7.5 787.285 7.5 787.3 7.5C787.316 7.5 787.331 7.5 787.347 7.5C787.362 7.5 787.378 7.5 787.393 7.5C787.409 7.5 787.425 7.5 787.44 7.5C787.456 7.5 787.471 7.5 787.487 7.5C787.503 7.5 787.518 7.5 787.534 7.5C787.55 7.5 787.565 7.5 787.581 7.5C787.597 7.5 787.613 7.5 787.628 7.5C787.644 7.5 787.66 7.5 787.676 7.5C787.691 7.5 787.707 7.5 787.723 7.5C787.739 7.5 787.755 7.5 787.771 7.5C787.787 7.5 787.803 7.5 787.818 7.5C787.834 7.5 787.85 7.5 787.866 7.5C787.882 7.5 787.898 7.5 787.914 7.5C787.93 7.5 787.946 7.5 787.962 7.5C787.978 7.5 787.994 7.5 788.01 7.5C788.027 7.5 788.043 7.5 788.059 7.5C788.075 7.5 788.091 7.5 788.107 7.5C788.123 7.5 788.14 7.5 788.156 7.5C788.172 7.5 788.188 7.5 788.204 7.5C788.221 7.5 788.237 7.5 788.253 7.5C788.269 7.5 788.286 7.5 788.302 7.5C788.318 7.5 788.335 7.5 788.351 7.5C788.367 7.5 788.384 7.5 788.4 7.5C788.416 7.5 788.433 7.5 788.449 7.5C788.466 7.5 788.482 7.5 788.499 7.5C788.515 7.5 788.532 7.5 788.548 7.5C788.565 7.5 788.581 7.5 788.598 7.5C788.614 7.5 788.631 7.5 788.647 7.5C788.664 7.5 788.68 7.5 788.697 7.5C788.714 7.5 788.73 7.5 788.747 7.5C788.763 7.5 788.78 7.5 788.797 7.5C788.813 7.5 788.83 7.5 788.847 7.5C788.863 7.5 788.88 7.5 788.897 7.5C788.914 7.5 788.93 7.5 788.947 7.5C788.964 7.5 788.981 7.5 788.997 7.5C789.014 7.5 789.031 7.5 789.048 7.5C789.065 7.5 789.082 7.5 789.098 7.5C789.115 7.5 789.132 7.5 789.149 7.5C789.166 7.5 789.183 7.5 789.2 7.5C789.217 7.5 789.234 7.5 789.251 7.5C789.268 7.5 789.285 7.5 789.302 7.5C789.319 7.5 789.336 7.5 789.353 7.5C789.37 7.5 789.387 7.5 789.404 7.5C789.421 7.5 789.438 7.5 789.455 7.5C789.472 7.5 789.489 7.5 789.506 7.5C789.523 7.5 789.54 7.5 789.558 7.5C789.575 7.5 789.592 7.5 789.609 7.5C789.626 7.5 789.643 7.5 789.661 7.5C789.678 7.5 789.695 7.5 789.712 7.5C789.73 7.5 789.747 7.5 789.764 7.5C789.781 7.5 789.799 7.5 789.816 7.5C789.833 7.5 789.85 7.5 789.868 7.5C789.885 7.5 789.902 7.5 789.92 7.5C789.937 7.5 789.955 7.5 789.972 7.5C789.989 7.5 790.007 7.5 790.024 7.5C790.041 7.5 790.059 7.5 790.076 7.5C790.094 7.5 790.111 7.5 790.129 7.5C790.146 7.5 790.164 7.5 790.181 7.5C790.198 7.5 790.216 7.5 790.233 7.5C790.251 7.5 790.269 7.5 790.286 7.5C790.304 7.5 790.321 7.5 790.339 7.5C790.356 7.5 790.374 7.5 790.391 7.5C790.409 7.5 790.427 7.5 790.444 7.5C790.462 7.5 790.479 7.5 790.497 7.5C790.515 7.5 790.532 7.5 790.55 7.5C790.568 7.5 790.585 7.5 790.603 7.5C790.621 7.5 790.638 7.5 790.656 7.5C790.674 7.5 790.692 7.5 790.709 7.5C790.727 7.5 790.745 7.5 790.762 7.5C790.78 7.5 790.798 7.5 790.816 7.5C790.834 7.5 790.851 7.5 790.869 7.5C790.887 7.5 790.905 7.5 790.923 7.5C790.94 7.5 790.958 7.5 790.976 7.5C790.994 7.5 791.012 7.5 791.03 7.5C791.048 7.5 791.065 7.5 791.083 7.5C791.101 7.5 791.119 7.5 791.137 7.5C791.155 7.5 791.173 7.5 791.191 7.5C791.209 7.5 791.227 7.5 791.245 7.5C791.262 7.5 791.28 7.5 791.298 7.5C791.316 7.5 791.334 7.5 791.352 7.5C791.37 7.5 791.388 7.5 791.406 7.5C791.424 7.5 791.442 7.5 791.46 7.5C791.478 7.5 791.497 7.5 791.515 7.5C791.533 7.5 791.551 7.5 791.569 7.5C791.587 7.5 791.605 7.5 791.623 7.5C791.641 7.5 791.659 7.5 791.677 7.5C791.695 7.5 791.713 7.5 791.732 7.5C791.75 7.5 791.768 7.5 791.786 7.5C791.804 7.5 791.822 7.5 791.84 7.5C791.859 7.5 791.877 7.5 791.895 7.5C791.913 7.5 791.931 7.5 791.95 7.5C791.968 7.5 791.986 7.5 792.004 7.5C792.022 7.5 792.041 7.5 792.059 7.5C792.077 7.5 792.095 7.5 792.113 7.5C792.132 7.5 792.15 7.5 792.168 7.5C792.186 7.5 792.205 7.5 792.223 7.5C792.241 7.5 792.26 7.5 792.278 7.5C792.296 7.5 792.314 7.5 792.333 7.5C792.351 7.5 792.369 7.5 792.388 7.5C792.406 7.5 792.424 7.5 792.443 7.5C792.461 7.5 792.479 7.5 792.498 7.5C792.516 7.5 792.534 7.5 792.553 7.5C792.571 7.5 792.59 7.5 792.608 7.5C792.626 7.5 792.645 7.5 792.663 7.5C792.681 7.5 792.7 7.5 792.718 7.5C792.737 7.5 792.755 7.5 792.773 7.5C792.792 7.5 792.81 7.5 792.829 7.5C792.847 7.5 792.866 7.5 792.884 7.5C792.902 7.5 792.921 7.5 792.939 7.5C792.958 7.5 792.976 7.5 792.995 7.5C793.013 7.5 793.032 7.5 793.05 7.5C793.069 7.5 793.087 7.5 793.106 7.5C793.124 7.5 793.142 7.5 793.161 7.5C793.179 7.5 793.198 7.5 793.216 7.5C793.235 7.5 793.254 7.5 793.272 7.5C793.291 7.5 793.309 7.5 793.328 7.5C793.346 7.5 793.365 7.5 793.383 7.5C793.402 7.5 793.42 7.5 793.439 7.5C793.457 7.5 793.476 7.5 793.494 7.5C793.513 7.5 793.532 7.5 793.55 7.5C793.569 7.5 793.587 7.5 793.606 7.5C793.624 7.5 793.643 7.5 793.662 7.5C793.68 7.5 793.699 7.5 793.717 7.5C793.736 7.5 793.754 7.5 793.773 7.5C793.792 7.5 793.81 7.5 793.829 7.5C793.847 7.5 793.866 7.5 793.885 7.5C793.903 7.5 793.922 7.5 793.94 7.5C793.959 7.5 793.978 7.5 793.996 7.5C794.015 7.5 794.034 7.5 794.052 7.5C794.071 7.5 794.089 7.5 794.108 7.5C794.127 7.5 794.145 7.5 794.164 7.5C794.183 7.5 794.201 7.5 794.22 7.5C794.239 7.5 794.257 7.5 794.276 7.5C794.294 7.5 794.313 7.5 794.332 7.5C794.35 7.5 794.369 7.5 794.388 7.5C794.406 7.5 794.425 7.5 794.444 7.5C794.462 7.5 794.481 7.5 794.5 7.5C794.518 7.5 794.537 7.5 794.556 7.5C794.574 7.5 794.593 7.5 794.612 7.5C794.63 7.5 794.649 7.5 794.668 7.5C794.686 7.5 794.705 7.5 794.724 7.5C794.742 7.5 794.761 7.5 794.78 7.5C794.798 7.5 794.817 7.5 794.836 7.5C794.854 7.5 794.873 7.5 794.892 7.5C794.91 7.5 794.929 7.5 794.948 7.5C794.967 7.5 794.985 7.5 795.004 7.5C795.023 7.5 795.041 7.5 795.06 7.5C795.079 7.5 795.097 7.5 795.116 7.5C795.135 7.5 795.153 7.5 795.172 7.5C795.191 7.5 795.209 7.5 795.228 7.5C795.247 7.5 795.265 7.5 795.284 7.5C795.303 7.5 795.322 7.5 795.34 7.5C795.359 7.5 795.378 7.5 795.396 7.5C795.415 7.5 795.434 7.5 795.452 7.5C795.471 7.5 795.49 7.5 795.508 7.5C795.527 7.5 795.546 7.5 795.564 7.5C795.583 7.5 795.602 7.5 795.62 7.5C795.639 7.5 795.658 7.5 795.676 7.5C795.695 7.5 795.714 7.5 795.732 7.5C795.751 7.5 795.77 7.5 795.788 7.5C795.807 7.5 795.826 7.5 795.844 7.5C795.863 7.5 795.882 7.5 795.9 7.5C795.919 7.5 795.938 7.5 795.956 7.5C795.975 7.5 795.994 7.5 796.012 7.5C796.031 7.5 796.05 7.5 796.068 7.5C796.087 7.5 796.106 7.5 796.124 7.5C796.143 7.5 796.162 7.5 796.18 7.5C796.199 7.5 796.218 7.5 796.236 7.5C796.255 7.5 796.273 7.5 796.292 7.5C796.311 7.5 796.329 7.5 796.348 7.5C796.367 7.5 796.385 7.5 796.404 7.5C796.422 7.5 796.441 7.5 796.46 7.5C796.478 7.5 796.497 7.5 796.515 7.5C796.534 7.5 796.553 7.5 796.571 7.5C796.59 7.5 796.608 7.5 796.627 7.5C796.646 7.5 796.664 7.5 796.683 7.5C796.701 7.5 796.72 7.5 796.739 7.5C796.757 7.5 796.776 7.5 796.794 7.5C796.813 7.5 796.831 7.5 796.85 7.5C796.869 7.5 796.887 7.5 796.906 7.5C796.924 7.5 796.943 7.5 796.961 7.5C796.98 7.5 796.998 7.5 797.017 7.5C797.035 7.5 797.054 7.5 797.072 7.5C797.091 7.5 797.109 7.5 797.128 7.5C797.147 7.5 797.165 7.5 797.184 7.5C797.202 7.5 797.221 7.5 797.239 7.5C797.258 7.5 797.276 7.5 797.294 7.5C797.313 7.5 797.331 7.5 797.35 7.5C797.368 7.5 797.387 7.5 797.405 7.5C797.424 7.5 797.442 7.5 797.461 7.5C797.479 7.5 797.498 7.5 797.516 7.5C797.534 7.5 797.553 7.5 797.571 7.5C797.59 7.5 797.608 7.5 797.627 7.5C797.645 7.5 797.663 7.5 797.682 7.5C797.7 7.5 797.719 7.5 797.737 7.5C797.755 7.5 797.774 7.5 797.792 7.5C797.81 7.5 797.829 7.5 797.847 7.5C797.865 7.5 797.884 7.5 797.902 7.5C797.921 7.5 797.939 7.5 797.957 7.5C797.976 7.5 797.994 7.5 798.012 7.5C798.03 7.5 798.049 7.5 798.067 7.5C798.085 7.5 798.104 7.5 798.122 7.5C798.14 7.5 798.159 7.5 798.177 7.5C798.195 7.5 798.213 7.5 798.232 7.5C798.25 7.5 798.268 7.5 798.286 7.5C798.305 7.5 798.323 7.5 798.341 7.5C798.359 7.5 798.377 7.5 798.396 7.5C798.414 7.5 798.432 7.5 798.45 7.5C798.468 7.5 798.487 7.5 798.505 7.5C798.523 7.5 798.541 7.5 798.559 7.5C798.577 7.5 798.596 7.5 798.614 7.5C798.632 7.5 798.65 7.5 798.668 7.5C798.686 7.5 798.704 7.5 798.722 7.5C798.741 7.5 798.759 7.5 798.777 7.5C798.795 7.5 798.813 7.5 798.831 7.5C798.849 7.5 798.867 7.5 798.885 7.5C798.903 7.5 798.921 7.5 798.939 7.5C798.957 7.5 798.975 7.5 798.993 7.5C799.011 7.5 799.029 7.5 799.047 7.5C799.065 7.5 799.083 7.5 799.101 7.5C799.119 7.5 799.137 7.5 799.155 7.5C799.173 7.5 799.191 7.5 799.209 7.5C799.227 7.5 799.245 7.5 799.263 7.5C799.281 7.5 799.298 7.5 799.316 7.5C799.334 7.5 799.352 7.5 799.37 7.5C799.388 7.5 799.406 7.5 799.423 7.5C799.441 7.5 799.459 7.5 799.477 7.5C799.495 7.5 799.513 7.5 799.53 7.5C799.548 7.5 799.566 7.5 799.584 7.5C799.601 7.5 799.619 7.5 799.637 7.5C799.655 7.5 799.672 7.5 799.69 7.5C799.708 7.5 799.726 7.5 799.743 7.5C799.761 7.5 799.779 7.5 799.796 7.5C799.814 7.5 799.832 7.5 799.849 7.5C799.867 7.5 799.885 7.5 799.902 7.5C799.92 7.5 799.938 7.5 799.955 7.5C799.973 7.5 799.99 7.5 800.008 7.5C800.025 7.5 800.043 7.5 800.061 7.5C800.078 7.5 800.096 7.5 800.113 7.5C800.131 7.5 800.148 7.5 800.166 7.5C800.183 7.5 800.201 7.5 800.218 7.5C800.236 7.5 800.253 7.5 800.271 7.5C800.288 7.5 800.305 7.5 800.323 7.5C800.34 7.5 800.358 7.5 800.375 7.5C800.393 7.5 800.41 7.5 800.427 7.5C800.445 7.5 800.462 7.5 800.479 7.5C800.497 7.5 800.514 7.5 800.531 7.5C800.549 7.5 800.566 7.5 800.583 7.5C800.6 7.5 800.618 7.5 800.635 7.5C800.652 7.5 800.669 7.5 800.687 7.5C800.704 7.5 800.721 7.5 800.738 7.5C800.756 7.5 800.773 7.5 800.79 7.5C800.807 7.5 800.824 7.5 800.841 7.5C800.858 7.5 800.876 7.5 800.893 7.5C800.91 7.5 800.927 7.5 800.944 7.5C800.961 7.5 800.978 7.5 800.995 7.5C801.012 7.5 801.029 7.5 801.046 7.5C801.063 7.5 801.08 7.5 801.097 7.5C801.114 7.5 801.131 7.5 801.148 7.5C801.165 7.5 801.182 7.5 801.199 7.5C801.216 7.5 801.233 7.5 801.25 7.5C801.267 7.5 801.283 7.5 801.3 7.5C801.317 7.5 801.334 7.5 801.351 7.5C801.368 7.5 801.384 7.5 801.401 7.5C801.418 7.5 801.435 7.5 801.452 7.5C801.468 7.5 801.485 7.5 801.502 7.5C801.519 7.5 801.535 7.5 801.552 7.5C801.569 7.5 801.585 7.5 801.602 7.5C801.619 7.5 801.635 7.5 801.652 7.5C801.668 7.5 801.685 7.5 801.702 7.5C801.718 7.5 801.735 7.5 801.751 7.5C801.768 7.5 801.784 7.5 801.801 7.5C801.817 7.5 801.834 7.5 801.85 7.5C801.867 7.5 801.883 7.5 801.9 7.5C801.916 7.5 801.933 7.5 801.949 7.5C801.966 7.5 801.982 7.5 801.998 7.5C802.015 7.5 802.031 7.5 802.047 7.5C802.064 7.5 802.08 7.5 802.096 7.5C802.113 7.5 802.129 7.5 802.145 7.5C802.161 7.5 802.178 7.5 802.194 7.5C802.21 7.5 802.226 7.5 802.243 7.5C802.259 7.5 802.275 7.5 802.291 7.5C802.307 7.5 802.323 7.5 802.339 7.5C802.356 7.5 802.372 7.5 802.388 7.5C802.404 7.5 802.42 7.5 802.436 7.5C802.452 7.5 802.468 7.5 802.484 7.5C802.5 7.5 802.516 7.5 802.532 7.5C802.548 7.5 802.564 7.5 802.58 7.5C802.596 7.5 802.611 7.5 802.627 7.5C802.643 7.5 802.659 7.5 802.675 7.5C802.691 7.5 802.706 7.5 802.722 7.5C802.738 7.5 802.754 7.5 802.77 7.5C802.785 7.5 802.801 7.5 802.817 7.5C802.833 7.5 802.848 7.5 802.864 7.5C802.88 7.5 802.895 7.5 802.911 7.5C802.926 7.5 802.942 7.5 802.958 7.5C802.973 7.5 802.989 7.5 803.004 7.5C803.02 7.5 803.035 7.5 803.051 7.5C803.066 7.5 803.082 7.5 803.097 7.5C803.113 7.5 803.128 7.5 803.144 7.5C803.159 7.5 803.174 7.5 803.19 7.5C803.205 7.5 803.221 7.5 803.236 7.5C803.251 7.5 803.266 7.5 803.282 7.5C803.297 7.5 803.312 7.5 803.328 7.5C803.343 7.5 803.358 7.5 803.373 7.5C803.388 7.5 803.404 7.5 803.419 7.5C803.434 7.5 803.449 7.5 803.464 7.5C803.479 7.5 803.494 7.5 803.509 7.5C803.524 7.5 803.539 7.5 803.554 7.5C803.569 7.5 803.584 7.5 803.599 7.5C803.614 7.5 803.629 7.5 803.644 7.5C803.659 7.5 803.674 7.5 803.689 7.5C803.704 7.5 803.719 7.5 803.733 7.5C803.748 7.5 803.763 7.5 803.778 7.5C803.793 7.5 803.807 7.5 803.822 7.5C803.837 7.5 803.852 7.5 803.866 7.5C803.881 7.5 803.896 7.5 803.91 7.5C803.925 7.5 803.939 7.5 803.954 7.5C803.969 7.5 803.983 7.5 803.998 7.5C804.012 7.5 804.027 7.5 804.041 7.5C804.056 7.5 804.07 7.5 804.085 7.5C804.099 7.5 804.113 7.5 804.128 7.5C804.142 7.5 804.157 7.5 804.171 7.5C804.185 7.5 804.2 7.5 804.214 7.5C804.228 7.5 804.242 7.5 804.257 7.5C804.271 7.5 804.285 7.5 804.299 7.5C804.313 7.5 804.328 7.5 804.342 7.5C804.356 7.5 804.37 7.5 804.384 7.5C804.398 7.5 804.412 7.5 804.426 7.5C804.44 7.5 804.454 7.5 804.468 7.5C804.482 7.5 804.496 7.5 804.51 7.5C804.524 7.5 804.538 7.5 804.552 7.5C804.566 7.5 804.58 7.5 804.593 7.5C804.607 7.5 804.621 7.5 804.635 7.5C804.649 7.5 804.662 7.5 804.676 7.5C804.69 7.5 804.703 7.5 804.717 7.5C804.731 7.5 804.744 7.5 804.758 7.5C804.772 7.5 804.785 7.5 804.799 7.5C804.812 7.5 804.826 7.5 804.839 7.5C804.853 7.5 804.866 7.5 804.88 7.5C804.893 7.5 804.907 7.5 804.92 7.5C804.933 7.5 804.947 7.5 804.96 7.5C804.973 7.5 804.987 7.5 805 7.5V7V6.5C804.987 6.5 804.973 6.5 804.96 6.5C804.947 6.5 804.933 6.5 804.92 6.5C804.907 6.5 804.893 6.5 804.88 6.5C804.866 6.5 804.853 6.5 804.839 6.5C804.826 6.5 804.812 6.5 804.799 6.5C804.785 6.5 804.772 6.5 804.758 6.5C804.744 6.5 804.731 6.5 804.717 6.5C804.703 6.5 804.69 6.5 804.676 6.5C804.662 6.5 804.649 6.5 804.635 6.5C804.621 6.5 804.607 6.5 804.593 6.5C804.58 6.5 804.566 6.5 804.552 6.5C804.538 6.5 804.524 6.5 804.51 6.5C804.496 6.5 804.482 6.5 804.468 6.5C804.454 6.5 804.44 6.5 804.426 6.5C804.412 6.5 804.398 6.5 804.384 6.5C804.37 6.5 804.356 6.5 804.342 6.5C804.328 6.5 804.313 6.5 804.299 6.5C804.285 6.5 804.271 6.5 804.257 6.5C804.242 6.5 804.228 6.5 804.214 6.5C804.2 6.5 804.185 6.5 804.171 6.5C804.157 6.5 804.142 6.5 804.128 6.5C804.113 6.5 804.099 6.5 804.085 6.5C804.07 6.5 804.056 6.5 804.041 6.5C804.027 6.5 804.012 6.5 803.998 6.5C803.983 6.5 803.969 6.5 803.954 6.5C803.939 6.5 803.925 6.5 803.91 6.5C803.896 6.5 803.881 6.5 803.866 6.5C803.852 6.5 803.837 6.5 803.822 6.5C803.807 6.5 803.793 6.5 803.778 6.5C803.763 6.5 803.748 6.5 803.733 6.5C803.719 6.5 803.704 6.5 803.689 6.5C803.674 6.5 803.659 6.5 803.644 6.5C803.629 6.5 803.614 6.5 803.599 6.5C803.584 6.5 803.569 6.5 803.554 6.5C803.539 6.5 803.524 6.5 803.509 6.5C803.494 6.5 803.479 6.5 803.464 6.5C803.449 6.5 803.434 6.5 803.419 6.5C803.404 6.5 803.388 6.5 803.373 6.5C803.358 6.5 803.343 6.5 803.328 6.5C803.312 6.5 803.297 6.5 803.282 6.5C803.266 6.5 803.251 6.5 803.236 6.5C803.221 6.5 803.205 6.5 803.19 6.5C803.174 6.5 803.159 6.5 803.144 6.5C803.128 6.5 803.113 6.5 803.097 6.5C803.082 6.5 803.066 6.5 803.051 6.5C803.035 6.5 803.02 6.5 803.004 6.5C802.989 6.5 802.973 6.5 802.958 6.5C802.942 6.5 802.926 6.5 802.911 6.5C802.895 6.5 802.88 6.5 802.864 6.5C802.848 6.5 802.833 6.5 802.817 6.5C802.801 6.5 802.785 6.5 802.77 6.5C802.754 6.5 802.738 6.5 802.722 6.5C802.706 6.5 802.691 6.5 802.675 6.5C802.659 6.5 802.643 6.5 802.627 6.5C802.611 6.5 802.596 6.5 802.58 6.5C802.564 6.5 802.548 6.5 802.532 6.5C802.516 6.5 802.5 6.5 802.484 6.5C802.468 6.5 802.452 6.5 802.436 6.5C802.42 6.5 802.404 6.5 802.388 6.5C802.372 6.5 802.356 6.5 802.339 6.5C802.323 6.5 802.307 6.5 802.291 6.5C802.275 6.5 802.259 6.5 802.243 6.5C802.226 6.5 802.21 6.5 802.194 6.5C802.178 6.5 802.161 6.5 802.145 6.5C802.129 6.5 802.113 6.5 802.096 6.5C802.08 6.5 802.064 6.5 802.047 6.5C802.031 6.5 802.015 6.5 801.998 6.5C801.982 6.5 801.966 6.5 801.949 6.5C801.933 6.5 801.916 6.5 801.9 6.5C801.883 6.5 801.867 6.5 801.85 6.5C801.834 6.5 801.817 6.5 801.801 6.5C801.784 6.5 801.768 6.5 801.751 6.5C801.735 6.5 801.718 6.5 801.702 6.5C801.685 6.5 801.668 6.5 801.652 6.5C801.635 6.5 801.619 6.5 801.602 6.5C801.585 6.5 801.569 6.5 801.552 6.5C801.535 6.5 801.519 6.5 801.502 6.5C801.485 6.5 801.468 6.5 801.452 6.5C801.435 6.5 801.418 6.5 801.401 6.5C801.384 6.5 801.368 6.5 801.351 6.5C801.334 6.5 801.317 6.5 801.3 6.5C801.283 6.5 801.267 6.5 801.25 6.5C801.233 6.5 801.216 6.5 801.199 6.5C801.182 6.5 801.165 6.5 801.148 6.5C801.131 6.5 801.114 6.5 801.097 6.5C801.08 6.5 801.063 6.5 801.046 6.5C801.029 6.5 801.012 6.5 800.995 6.5C800.978 6.5 800.961 6.5 800.944 6.5C800.927 6.5 800.91 6.5 800.893 6.5C800.876 6.5 800.858 6.5 800.841 6.5C800.824 6.5 800.807 6.5 800.79 6.5C800.773 6.5 800.756 6.5 800.738 6.5C800.721 6.5 800.704 6.5 800.687 6.5C800.669 6.5 800.652 6.5 800.635 6.5C800.618 6.5 800.6 6.5 800.583 6.5C800.566 6.5 800.549 6.5 800.531 6.5C800.514 6.5 800.497 6.5 800.479 6.5C800.462 6.5 800.445 6.5 800.427 6.5C800.41 6.5 800.393 6.5 800.375 6.5C800.358 6.5 800.34 6.5 800.323 6.5C800.305 6.5 800.288 6.5 800.271 6.5C800.253 6.5 800.236 6.5 800.218 6.5C800.201 6.5 800.183 6.5 800.166 6.5C800.148 6.5 800.131 6.5 800.113 6.5C800.096 6.5 800.078 6.5 800.061 6.5C800.043 6.5 800.025 6.5 800.008 6.5C799.99 6.5 799.973 6.5 799.955 6.5C799.938 6.5 799.92 6.5 799.902 6.5C799.885 6.5 799.867 6.5 799.849 6.5C799.832 6.5 799.814 6.5 799.796 6.5C799.779 6.5 799.761 6.5 799.743 6.5C799.726 6.5 799.708 6.5 799.69 6.5C799.672 6.5 799.655 6.5 799.637 6.5C799.619 6.5 799.601 6.5 799.584 6.5C799.566 6.5 799.548 6.5 799.53 6.5C799.513 6.5 799.495 6.5 799.477 6.5C799.459 6.5 799.441 6.5 799.423 6.5C799.406 6.5 799.388 6.5 799.37 6.5C799.352 6.5 799.334 6.5 799.316 6.5C799.298 6.5 799.281 6.5 799.263 6.5C799.245 6.5 799.227 6.5 799.209 6.5C799.191 6.5 799.173 6.5 799.155 6.5C799.137 6.5 799.119 6.5 799.101 6.5C799.083 6.5 799.065 6.5 799.047 6.5C799.029 6.5 799.011 6.5 798.993 6.5C798.975 6.5 798.957 6.5 798.939 6.5C798.921 6.5 798.903 6.5 798.885 6.5C798.867 6.5 798.849 6.5 798.831 6.5C798.813 6.5 798.795 6.5 798.777 6.5C798.759 6.5 798.741 6.5 798.722 6.5C798.704 6.5 798.686 6.5 798.668 6.5C798.65 6.5 798.632 6.5 798.614 6.5C798.596 6.5 798.577 6.5 798.559 6.5C798.541 6.5 798.523 6.5 798.505 6.5C798.487 6.5 798.468 6.5 798.45 6.5C798.432 6.5 798.414 6.5 798.396 6.5C798.377 6.5 798.359 6.5 798.341 6.5C798.323 6.5 798.305 6.5 798.286 6.5C798.268 6.5 798.25 6.5 798.232 6.5C798.213 6.5 798.195 6.5 798.177 6.5C798.159 6.5 798.14 6.5 798.122 6.5C798.104 6.5 798.085 6.5 798.067 6.5C798.049 6.5 798.03 6.5 798.012 6.5C797.994 6.5 797.976 6.5 797.957 6.5C797.939 6.5 797.921 6.5 797.902 6.5C797.884 6.5 797.865 6.5 797.847 6.5C797.829 6.5 797.81 6.5 797.792 6.5C797.774 6.5 797.755 6.5 797.737 6.5C797.719 6.5 797.7 6.5 797.682 6.5C797.663 6.5 797.645 6.5 797.627 6.5C797.608 6.5 797.59 6.5 797.571 6.5C797.553 6.5 797.534 6.5 797.516 6.5C797.498 6.5 797.479 6.5 797.461 6.5C797.442 6.5 797.424 6.5 797.405 6.5C797.387 6.5 797.368 6.5 797.35 6.5C797.331 6.5 797.313 6.5 797.294 6.5C797.276 6.5 797.258 6.5 797.239 6.5C797.221 6.5 797.202 6.5 797.184 6.5C797.165 6.5 797.147 6.5 797.128 6.5C797.109 6.5 797.091 6.5 797.072 6.5C797.054 6.5 797.035 6.5 797.017 6.5C796.998 6.5 796.98 6.5 796.961 6.5C796.943 6.5 796.924 6.5 796.906 6.5C796.887 6.5 796.869 6.5 796.85 6.5C796.831 6.5 796.813 6.5 796.794 6.5C796.776 6.5 796.757 6.5 796.739 6.5C796.72 6.5 796.701 6.5 796.683 6.5C796.664 6.5 796.646 6.5 796.627 6.5C796.608 6.5 796.59 6.5 796.571 6.5C796.553 6.5 796.534 6.5 796.515 6.5C796.497 6.5 796.478 6.5 796.46 6.5C796.441 6.5 796.422 6.5 796.404 6.5C796.385 6.5 796.367 6.5 796.348 6.5C796.329 6.5 796.311 6.5 796.292 6.5C796.273 6.5 796.255 6.5 796.236 6.5C796.218 6.5 796.199 6.5 796.18 6.5C796.162 6.5 796.143 6.5 796.124 6.5C796.106 6.5 796.087 6.5 796.068 6.5C796.05 6.5 796.031 6.5 796.012 6.5C795.994 6.5 795.975 6.5 795.956 6.5C795.938 6.5 795.919 6.5 795.9 6.5C795.882 6.5 795.863 6.5 795.844 6.5C795.826 6.5 795.807 6.5 795.788 6.5C795.77 6.5 795.751 6.5 795.732 6.5C795.714 6.5 795.695 6.5 795.676 6.5C795.658 6.5 795.639 6.5 795.62 6.5C795.602 6.5 795.583 6.5 795.564 6.5C795.546 6.5 795.527 6.5 795.508 6.5C795.49 6.5 795.471 6.5 795.452 6.5C795.434 6.5 795.415 6.5 795.396 6.5C795.378 6.5 795.359 6.5 795.34 6.5C795.322 6.5 795.303 6.5 795.284 6.5C795.265 6.5 795.247 6.5 795.228 6.5C795.209 6.5 795.191 6.5 795.172 6.5C795.153 6.5 795.135 6.5 795.116 6.5C795.097 6.5 795.079 6.5 795.06 6.5C795.041 6.5 795.023 6.5 795.004 6.5C794.985 6.5 794.967 6.5 794.948 6.5C794.929 6.5 794.91 6.5 794.892 6.5C794.873 6.5 794.854 6.5 794.836 6.5C794.817 6.5 794.798 6.5 794.78 6.5C794.761 6.5 794.742 6.5 794.724 6.5C794.705 6.5 794.686 6.5 794.668 6.5C794.649 6.5 794.63 6.5 794.612 6.5C794.593 6.5 794.574 6.5 794.556 6.5C794.537 6.5 794.518 6.5 794.5 6.5C794.481 6.5 794.462 6.5 794.444 6.5C794.425 6.5 794.406 6.5 794.388 6.5C794.369 6.5 794.35 6.5 794.332 6.5C794.313 6.5 794.294 6.5 794.276 6.5C794.257 6.5 794.239 6.5 794.22 6.5C794.201 6.5 794.183 6.5 794.164 6.5C794.145 6.5 794.127 6.5 794.108 6.5C794.089 6.5 794.071 6.5 794.052 6.5C794.034 6.5 794.015 6.5 793.996 6.5C793.978 6.5 793.959 6.5 793.94 6.5C793.922 6.5 793.903 6.5 793.885 6.5C793.866 6.5 793.847 6.5 793.829 6.5C793.81 6.5 793.792 6.5 793.773 6.5C793.754 6.5 793.736 6.5 793.717 6.5C793.699 6.5 793.68 6.5 793.662 6.5C793.643 6.5 793.624 6.5 793.606 6.5C793.587 6.5 793.569 6.5 793.55 6.5C793.532 6.5 793.513 6.5 793.494 6.5C793.476 6.5 793.457 6.5 793.439 6.5C793.42 6.5 793.402 6.5 793.383 6.5C793.365 6.5 793.346 6.5 793.328 6.5C793.309 6.5 793.291 6.5 793.272 6.5C793.254 6.5 793.235 6.5 793.216 6.5C793.198 6.5 793.179 6.5 793.161 6.5C793.142 6.5 793.124 6.5 793.106 6.5C793.087 6.5 793.069 6.5 793.05 6.5C793.032 6.5 793.013 6.5 792.995 6.5C792.976 6.5 792.958 6.5 792.939 6.5C792.921 6.5 792.902 6.5 792.884 6.5C792.866 6.5 792.847 6.5 792.829 6.5C792.81 6.5 792.792 6.5 792.773 6.5C792.755 6.5 792.737 6.5 792.718 6.5C792.7 6.5 792.681 6.5 792.663 6.5C792.645 6.5 792.626 6.5 792.608 6.5C792.59 6.5 792.571 6.5 792.553 6.5C792.534 6.5 792.516 6.5 792.498 6.5C792.479 6.5 792.461 6.5 792.443 6.5C792.424 6.5 792.406 6.5 792.388 6.5C792.369 6.5 792.351 6.5 792.333 6.5C792.314 6.5 792.296 6.5 792.278 6.5C792.26 6.5 792.241 6.5 792.223 6.5C792.205 6.5 792.186 6.5 792.168 6.5C792.15 6.5 792.132 6.5 792.113 6.5C792.095 6.5 792.077 6.5 792.059 6.5C792.041 6.5 792.022 6.5 792.004 6.5C791.986 6.5 791.968 6.5 791.95 6.5C791.931 6.5 791.913 6.5 791.895 6.5C791.877 6.5 791.859 6.5 791.84 6.5C791.822 6.5 791.804 6.5 791.786 6.5C791.768 6.5 791.75 6.5 791.732 6.5C791.713 6.5 791.695 6.5 791.677 6.5C791.659 6.5 791.641 6.5 791.623 6.5C791.605 6.5 791.587 6.5 791.569 6.5C791.551 6.5 791.533 6.5 791.515 6.5C791.497 6.5 791.478 6.5 791.46 6.5C791.442 6.5 791.424 6.5 791.406 6.5C791.388 6.5 791.37 6.5 791.352 6.5C791.334 6.5 791.316 6.5 791.298 6.5C791.28 6.5 791.262 6.5 791.245 6.5C791.227 6.5 791.209 6.5 791.191 6.5C791.173 6.5 791.155 6.5 791.137 6.5C791.119 6.5 791.101 6.5 791.083 6.5C791.065 6.5 791.048 6.5 791.03 6.5C791.012 6.5 790.994 6.5 790.976 6.5C790.958 6.5 790.94 6.5 790.923 6.5C790.905 6.5 790.887 6.5 790.869 6.5C790.851 6.5 790.834 6.5 790.816 6.5C790.798 6.5 790.78 6.5 790.762 6.5C790.745 6.5 790.727 6.5 790.709 6.5C790.692 6.5 790.674 6.5 790.656 6.5C790.638 6.5 790.621 6.5 790.603 6.5C790.585 6.5 790.568 6.5 790.55 6.5C790.532 6.5 790.515 6.5 790.497 6.5C790.479 6.5 790.462 6.5 790.444 6.5C790.427 6.5 790.409 6.5 790.391 6.5C790.374 6.5 790.356 6.5 790.339 6.5C790.321 6.5 790.304 6.5 790.286 6.5C790.269 6.5 790.251 6.5 790.233 6.5C790.216 6.5 790.198 6.5 790.181 6.5C790.164 6.5 790.146 6.5 790.129 6.5C790.111 6.5 790.094 6.5 790.076 6.5C790.059 6.5 790.041 6.5 790.024 6.5C790.007 6.5 789.989 6.5 789.972 6.5C789.955 6.5 789.937 6.5 789.92 6.5C789.902 6.5 789.885 6.5 789.868 6.5C789.85 6.5 789.833 6.5 789.816 6.5C789.799 6.5 789.781 6.5 789.764 6.5C789.747 6.5 789.73 6.5 789.712 6.5C789.695 6.5 789.678 6.5 789.661 6.5C789.643 6.5 789.626 6.5 789.609 6.5C789.592 6.5 789.575 6.5 789.558 6.5C789.54 6.5 789.523 6.5 789.506 6.5C789.489 6.5 789.472 6.5 789.455 6.5C789.438 6.5 789.421 6.5 789.404 6.5C789.387 6.5 789.37 6.5 789.353 6.5C789.336 6.5 789.319 6.5 789.302 6.5C789.285 6.5 789.268 6.5 789.251 6.5C789.234 6.5 789.217 6.5 789.2 6.5C789.183 6.5 789.166 6.5 789.149 6.5C789.132 6.5 789.115 6.5 789.098 6.5C789.082 6.5 789.065 6.5 789.048 6.5C789.031 6.5 789.014 6.5 788.997 6.5C788.981 6.5 788.964 6.5 788.947 6.5C788.93 6.5 788.914 6.5 788.897 6.5C788.88 6.5 788.863 6.5 788.847 6.5C788.83 6.5 788.813 6.5 788.797 6.5C788.78 6.5 788.763 6.5 788.747 6.5C788.73 6.5 788.714 6.5 788.697 6.5C788.68 6.5 788.664 6.5 788.647 6.5C788.631 6.5 788.614 6.5 788.598 6.5C788.581 6.5 788.565 6.5 788.548 6.5C788.532 6.5 788.515 6.5 788.499 6.5C788.482 6.5 788.466 6.5 788.449 6.5C788.433 6.5 788.416 6.5 788.4 6.5C788.384 6.5 788.367 6.5 788.351 6.5C788.335 6.5 788.318 6.5 788.302 6.5C788.286 6.5 788.269 6.5 788.253 6.5C788.237 6.5 788.221 6.5 788.204 6.5C788.188 6.5 788.172 6.5 788.156 6.5C788.14 6.5 788.123 6.5 788.107 6.5C788.091 6.5 788.075 6.5 788.059 6.5C788.043 6.5 788.027 6.5 788.01 6.5C787.994 6.5 787.978 6.5 787.962 6.5C787.946 6.5 787.93 6.5 787.914 6.5C787.898 6.5 787.882 6.5 787.866 6.5C787.85 6.5 787.834 6.5 787.818 6.5C787.803 6.5 787.787 6.5 787.771 6.5C787.755 6.5 787.739 6.5 787.723 6.5C787.707 6.5 787.691 6.5 787.676 6.5C787.66 6.5 787.644 6.5 787.628 6.5C787.613 6.5 787.597 6.5 787.581 6.5C787.565 6.5 787.55 6.5 787.534 6.5C787.518 6.5 787.503 6.5 787.487 6.5C787.471 6.5 787.456 6.5 787.44 6.5C787.425 6.5 787.409 6.5 787.393 6.5C787.378 6.5 787.362 6.5 787.347 6.5C787.331 6.5 787.316 6.5 787.3 6.5C787.285 6.5 787.269 6.5 787.254 6.5C787.239 6.5 787.223 6.5 787.208 6.5C787.192 6.5 787.177 6.5 787.162 6.5C787.146 6.5 787.131 6.5 787.116 6.5C787.101 6.5 787.085 6.5 787.07 6.5C787.055 6.5 787.04 6.5 787.024 6.5C787.009 6.5 786.994 6.5 786.979 6.5C786.964 6.5 786.949 6.5 786.933 6.5C786.918 6.5 786.903 6.5 786.888 6.5C786.873 6.5 786.858 6.5 786.843 6.5C786.828 6.5 786.813 6.5 786.798 6.5C786.783 6.5 786.768 6.5 786.753 6.5C786.738 6.5 786.723 6.5 786.708 6.5C786.694 6.5 786.679 6.5 786.664 6.5C786.649 6.5 786.634 6.5 786.619 6.5C786.605 6.5 786.59 6.5 786.575 6.5C786.56 6.5 786.546 6.5 786.531 6.5C786.516 6.5 786.502 6.5 786.487 6.5C786.472 6.5 786.458 6.5 786.443 6.5C786.428 6.5 786.414 6.5 786.399 6.5C786.385 6.5 786.37 6.5 786.356 6.5C786.341 6.5 786.327 6.5 786.312 6.5C786.298 6.5 786.283 6.5 786.269 6.5C786.255 6.5 786.24 6.5 786.226 6.5C786.212 6.5 786.197 6.5 786.183 6.5C786.169 6.5 786.154 6.5 786.14 6.5C786.126 6.5 786.112 6.5 786.097 6.5C786.083 6.5 786.069 6.5 786.055 6.5C786.041 6.5 786.027 6.5 786.013 6.5C785.998 6.5 785.984 6.5 785.97 6.5C785.956 6.5 785.942 6.5 785.928 6.5C785.914 6.5 785.9 6.5 785.886 6.5C785.872 6.5 785.859 6.5 785.845 6.5C785.831 6.5 785.817 6.5 785.803 6.5C785.789 6.5 785.775 6.5 785.762 6.5C785.748 6.5 785.734 6.5 785.72 6.5C785.707 6.5 785.693 6.5 785.679 6.5C785.666 6.5 785.652 6.5 785.638 6.5C785.625 6.5 785.611 6.5 785.598 6.5C785.584 6.5 785.57 6.5 785.557 6.5C785.543 6.5 785.53 6.5 785.516 6.5C785.503 6.5 785.49 6.5 785.476 6.5C785.463 6.5 785.449 6.5 785.436 6.5C785.423 6.5 785.409 6.5 785.396 6.5C785.383 6.5 785.37 6.5 785.356 6.5C785.343 6.5 785.33 6.5 785.317 6.5C785.303 6.5 785.29 6.5 785.277 6.5C785.264 6.5 785.251 6.5 785.238 6.5C785.225 6.5 785.212 6.5 785.199 6.5C785.186 6.5 785.173 6.5 785.16 6.5C785.147 6.5 785.134 6.5 785.121 6.5C785.108 6.5 785.095 6.5 785.082 6.5C785.07 6.5 785.057 6.5 785.044 6.5C785.031 6.5 785.019 6.5 785.006 6.5C784.993 6.5 784.98 6.5 784.968 6.5C784.955 6.5 784.942 6.5 784.93 6.5C784.917 6.5 784.905 6.5 784.892 6.5C784.88 6.5 784.867 6.5 784.855 6.5C784.842 6.5 784.83 6.5 784.817 6.5C784.805 6.5 784.792 6.5 784.78 6.5C784.768 6.5 784.755 6.5 784.743 6.5C784.731 6.5 784.718 6.5 784.706 6.5C784.694 6.5 784.682 6.5 784.67 6.5C784.657 6.5 784.645 6.5 784.633 6.5C784.621 6.5 784.609 6.5 784.597 6.5C784.585 6.5 784.573 6.5 784.561 6.5C784.549 6.5 784.537 6.5 784.525 6.5C784.513 6.5 784.501 6.5 784.489 6.5C784.477 6.5 784.465 6.5 784.454 6.5C784.442 6.5 784.43 6.5 784.418 6.5C784.407 6.5 784.395 6.5 784.383 6.5C784.371 6.5 784.36 6.5 784.348 6.5C784.337 6.5 784.325 6.5 784.313 6.5C784.302 6.5 784.29 6.5 784.279 6.5C784.267 6.5 784.256 6.5 784.245 6.5C784.233 6.5 784.222 6.5 784.21 6.5C784.199 6.5 784.188 6.5 784.176 6.5C784.165 6.5 784.154 6.5 784.143 6.5C784.131 6.5 784.12 6.5 784.109 6.5C784.098 6.5 784.087 6.5 784.076 6.5C784.064 6.5 784.053 6.5 784.042 6.5C784.031 6.5 784.02 6.5 784.009 6.5C783.998 6.5 783.987 6.5 783.977 6.5C783.966 6.5 783.955 6.5 783.944 6.5C783.933 6.5 783.922 6.5 783.912 6.5C783.901 6.5 783.89 6.5 783.879 6.5C783.869 6.5 783.858 6.5 783.847 6.5C783.837 6.5 783.826 6.5 783.816 6.5C783.805 6.5 783.795 6.5 783.784 6.5C783.774 6.5 783.763 6.5 783.753 6.5C783.742 6.5 783.732 6.5 783.722 6.5C783.711 6.5 783.701 6.5 783.691 6.5C783.68 6.5 783.67 6.5 783.66 6.5C783.65 6.5 783.639 6.5 783.629 6.5C783.619 6.5 783.609 6.5 783.599 6.5C783.589 6.5 783.579 6.5 783.569 6.5C783.559 6.5 783.549 6.5 783.539 6.5C783.529 6.5 783.519 6.5 783.509 6.5C783.499 6.5 783.49 6.5 783.48 6.5C783.47 6.5 783.46 6.5 783.451 6.5C783.441 6.5 783.431 6.5 783.421 6.5C783.412 6.5 783.402 6.5 783.393 6.5C783.383 6.5 783.374 6.5 783.364 6.5C783.355 6.5 783.345 6.5 783.336 6.5C783.326 6.5 783.317 6.5 783.307 6.5C783.298 6.5 783.289 6.5 783.28 6.5C783.27 6.5 783.261 6.5 783.252 6.5C783.243 6.5 783.233 6.5 783.224 6.5C783.215 6.5 783.206 6.5 783.197 6.5C783.188 6.5 783.179 6.5 783.17 6.5C783.161 6.5 783.152 6.5 783.143 6.5C783.134 6.5 783.125 6.5 783.116 6.5C783.108 6.5 783.099 6.5 783.09 6.5C783.081 6.5 783.073 6.5 783.064 6.5C783.055 6.5 783.047 6.5 783.038 6.5C783.029 6.5 783.021 6.5 783.012 6.5C783.004 6.5 782.995 6.5 782.987 6.5C782.978 6.5 782.97 6.5 782.962 6.5C782.953 6.5 782.945 6.5 782.937 6.5C782.928 6.5 782.92 6.5 782.912 6.5C782.904 6.5 782.895 6.5 782.887 6.5C782.879 6.5 782.871 6.5 782.863 6.5C782.855 6.5 782.847 6.5 782.839 6.5C782.831 6.5 782.823 6.5 782.815 6.5C782.807 6.5 782.799 6.5 782.791 6.5C782.784 6.5 782.776 6.5 782.768 6.5C782.76 6.5 782.753 6.5 782.745 6.5C782.737 6.5 782.73 6.5 782.722 6.5C782.714 6.5 782.707 6.5 782.699 6.5C782.692 6.5 782.684 6.5 782.677 6.5C782.67 6.5 782.662 6.5 782.655 6.5C782.647 6.5 782.64 6.5 782.633 6.5C782.626 6.5 782.618 6.5 782.611 6.5C782.604 6.5 782.597 6.5 782.59 6.5C782.583 6.5 782.576 6.5 782.569 6.5C782.562 6.5 782.555 6.5 782.548 6.5C782.541 6.5 782.534 6.5 782.527 6.5C782.52 6.5 782.513 6.5 782.506 6.5C782.5 6.5 782.493 6.5 782.486 6.5C782.48 6.5 782.473 6.5 782.466 6.5C782.46 6.5 782.453 6.5 782.447 6.5C782.44 6.5 782.434 6.5 782.427 6.5C782.421 6.5 782.414 6.5 782.408 6.5C782.402 6.5 782.395 6.5 782.389 6.5C782.383 6.5 782.376 6.5 782.37 6.5C782.364 6.5 782.358 6.5 782.352 6.5C782.346 6.5 782.34 6.5 782.334 6.5C782.328 6.5 782.322 6.5 782.316 6.5C782.31 6.5 782.304 6.5 782.298 6.5C782.292 6.5 782.286 6.5 782.281 6.5C782.275 6.5 782.269 6.5 782.263 6.5C782.258 6.5 782.252 6.5 782.247 6.5C782.241 6.5 782.235 6.5 782.23 6.5C782.224 6.5 782.219 6.5 782.214 6.5C782.208 6.5 782.203 6.5 782.197 6.5C782.192 6.5 782.187 6.5 782.182 6.5C782.176 6.5 782.171 6.5 782.166 6.5C782.161 6.5 782.156 6.5 782.151 6.5C782.146 6.5 782.141 6.5 782.136 6.5C782.131 6.5 782.126 6.5 782.121 6.5C782.116 6.5 782.111 6.5 782.106 6.5C782.102 6.5 782.097 6.5 782.092 6.5C782.087 6.5 782.083 6.5 782.078 6.5C782.074 6.5 782.069 6.5 782.064 6.5C782.06 6.5 782.055 6.5 782.051 6.5C782.047 6.5 782.042 6.5 782.038 6.5C782.034 6.5 782.029 6.5 782.025 6.5C782.021 6.5 782.017 6.5 782.012 6.5C782.008 6.5 782.004 6.5 782 6.5V7Z" fill="#526CE9"/>
<circle cx="805" cy="7" r="2.5" fill="white" stroke="#526CE9"/>
<path d="M820.168 4.21094C822.383 4.22266 823.977 5.30078 823.977 6.94141C823.977 8.49414 822.594 9.52539 820.613 9.64844V11.8398H824.961V12.6133H815.422V11.8398H819.711V9.64844C817.736 9.51953 816.359 8.48828 816.359 6.94141C816.359 5.30078 817.953 4.22266 820.168 4.21094ZM820.168 4.97266C818.48 4.97266 817.25 5.76953 817.25 6.94141C817.25 8.14844 818.48 8.92188 820.168 8.93359C821.855 8.92188 823.086 8.14844 823.086 6.94141C823.086 5.76953 821.855 4.97266 820.168 4.97266ZM829.285 6.33203C829.285 8.17188 830.504 10.0586 831.98 10.7852L831.418 11.5234C830.27 10.9199 829.309 9.68945 828.852 8.24219C828.383 9.7832 827.398 11.0957 826.227 11.7227L825.641 10.9844C827.164 10.2344 828.371 8.23047 828.383 6.33203V4.43359H829.285V6.33203ZM833.855 3.53125V7.76172H835.602V8.55859H833.855V13.9492H832.941V3.53125H833.855ZM841.566 4.62109C841.555 7.63281 840.535 10.3867 836.785 12.2266L836.27 11.5234C838.232 10.5742 839.41 9.36719 840.043 7.96094L836.469 8.30078L836.316 7.49219L840.324 7.22266C840.506 6.63672 840.611 6.02148 840.652 5.38281H836.844V4.62109H841.566ZM844.227 3.53125V7.77344H845.914V8.54688H844.227V13.9492H843.312V3.53125H844.227ZM855.395 4.32812V5.08984H854.328V8.41797C854.814 8.38867 855.283 8.34766 855.734 8.28906L855.781 8.99219C853.754 9.30859 851.375 9.33203 849.688 9.33203L849.57 8.55859L850.918 8.54688V5.08984H849.863V4.32812H855.395ZM858.184 3.53125V9.96484H857.258V8.03125H855.5V7.26953H857.258V6.16797H855.5V5.40625H857.258V3.53125H858.184ZM854.727 10.1875C856.906 10.1875 858.219 10.8672 858.219 12.0508C858.219 13.2461 856.906 13.9258 854.727 13.9258C852.547 13.9258 851.234 13.2461 851.234 12.0508C851.234 10.8672 852.547 10.1875 854.727 10.1875ZM854.727 10.9023C853.121 10.9023 852.137 11.3359 852.148 12.0508C852.137 12.7773 853.121 13.1992 854.727 13.1992C856.332 13.1992 857.305 12.7773 857.305 12.0508C857.305 11.3359 856.332 10.9023 854.727 10.9023ZM851.809 8.53516C852.342 8.52344 852.893 8.50586 853.438 8.47656V5.08984H851.809V8.53516ZM868.203 4.10547V4.89062C868.203 5.72266 868.203 6.70117 867.957 8.00781H869.457V8.76953H866.785V11.2891H865.895V8.76953H863.984V11.2891H863.082V8.76953H859.918V8.00781H867.043C867.289 6.68945 867.289 5.72266 867.289 4.89062V4.85547H861.125V4.10547H868.203ZM868.484 12.9531V13.7266H861.09V10.4688H862.004V12.9531H868.484ZM881.902 3.54297V9.49609H880.988V3.54297H881.902ZM881.902 10.0586V13.8086H875.129V10.0586H881.902ZM876.031 10.8086V13.0586H881V10.8086H876.031ZM876.277 4.09375C877.859 4.09375 879.008 5.07812 879.008 6.53125C879.008 7.96094 877.859 8.95703 876.277 8.95703C874.695 8.95703 873.547 7.96094 873.547 6.53125C873.547 5.07812 874.695 4.09375 876.277 4.09375ZM876.277 4.87891C875.211 4.86719 874.438 5.55859 874.449 6.53125C874.438 7.49219 875.211 8.17188 876.277 8.17188C877.332 8.17188 878.105 7.49219 878.105 6.53125C878.105 5.55859 877.332 4.86719 876.277 4.87891ZM892.578 3.53125V13.9492H891.699V8.48828H890.164V13.4102H889.32V3.76562H890.164V7.72656H891.699V3.53125H892.578ZM887.961 4.80859V5.57031H884.973V10.5859C886.408 10.5801 887.404 10.5273 888.559 10.293L888.641 11.0664C887.387 11.3242 886.32 11.3711 884.727 11.3711H884.059V4.80859H887.961ZM903.582 11.8867V12.6602H894.043V11.8867H896.727V9.90625H895.238V6.69531H901.473V5.06641H895.215V4.30469H902.375V7.45703H896.152V9.14453H902.621V9.90625H900.992V11.8867H903.582ZM897.629 11.8867H900.09V9.90625H897.629V11.8867Z" fill="#414141"/>
<path d="M782 30.5C781.724 30.5 781.5 30.7239 781.5 31C781.5 31.2761 781.724 31.5 782 31.5V30.5ZM782 31V31.5H805V31V30.5H782V31Z" fill="#FF8C8C"/>
<circle cx="805" cy="31" r="2.5" fill="white" stroke="#FF8C8C"/>
<path d="M820.168 28.2109C822.383 28.2227 823.977 29.3008 823.977 30.9414C823.977 32.4941 822.594 33.5254 820.613 33.6484V35.8398H824.961V36.6133H815.422V35.8398H819.711V33.6484C817.736 33.5195 816.359 32.4883 816.359 30.9414C816.359 29.3008 817.953 28.2227 820.168 28.2109ZM820.168 28.9727C818.48 28.9727 817.25 29.7695 817.25 30.9414C817.25 32.1484 818.48 32.9219 820.168 32.9336C821.855 32.9219 823.086 32.1484 823.086 30.9414C823.086 29.7695 821.855 28.9727 820.168 28.9727ZM829.285 30.332C829.285 32.1719 830.504 34.0586 831.98 34.7852L831.418 35.5234C830.27 34.9199 829.309 33.6895 828.852 32.2422C828.383 33.7832 827.398 35.0957 826.227 35.7227L825.641 34.9844C827.164 34.2344 828.371 32.2305 828.383 30.332V28.4336H829.285V30.332ZM833.855 27.5312V31.7617H835.602V32.5586H833.855V37.9492H832.941V27.5312H833.855ZM841.566 28.6211C841.555 31.6328 840.535 34.3867 836.785 36.2266L836.27 35.5234C838.232 34.5742 839.41 33.3672 840.043 31.9609L836.469 32.3008L836.316 31.4922L840.324 31.2227C840.506 30.6367 840.611 30.0215 840.652 29.3828H836.844V28.6211H841.566ZM844.227 27.5312V31.7734H845.914V32.5469H844.227V37.9492H843.312V27.5312H844.227ZM855.395 28.3281V29.0898H854.328V32.418C854.814 32.3887 855.283 32.3477 855.734 32.2891L855.781 32.9922C853.754 33.3086 851.375 33.332 849.688 33.332L849.57 32.5586L850.918 32.5469V29.0898H849.863V28.3281H855.395ZM858.184 27.5312V33.9648H857.258V32.0312H855.5V31.2695H857.258V30.168H855.5V29.4062H857.258V27.5312H858.184ZM854.727 34.1875C856.906 34.1875 858.219 34.8672 858.219 36.0508C858.219 37.2461 856.906 37.9258 854.727 37.9258C852.547 37.9258 851.234 37.2461 851.234 36.0508C851.234 34.8672 852.547 34.1875 854.727 34.1875ZM854.727 34.9023C853.121 34.9023 852.137 35.3359 852.148 36.0508C852.137 36.7773 853.121 37.1992 854.727 37.1992C856.332 37.1992 857.305 36.7773 857.305 36.0508C857.305 35.3359 856.332 34.9023 854.727 34.9023ZM851.809 32.5352C852.342 32.5234 852.893 32.5059 853.438 32.4766V29.0898H851.809V32.5352ZM868.203 28.1055V28.8906C868.203 29.7227 868.203 30.7012 867.957 32.0078H869.457V32.7695H866.785V35.2891H865.895V32.7695H863.984V35.2891H863.082V32.7695H859.918V32.0078H867.043C867.289 30.6895 867.289 29.7227 867.289 28.8906V28.8555H861.125V28.1055H868.203ZM868.484 36.9531V37.7266H861.09V34.4688H862.004V36.9531H868.484ZM878.012 34.1172C880.25 34.1172 881.668 34.8203 881.668 36.0273C881.668 37.2227 880.25 37.9258 878.012 37.9258C875.785 37.9258 874.367 37.2227 874.367 36.0273C874.367 34.8203 875.785 34.1172 878.012 34.1172ZM878.012 34.8203C876.348 34.832 875.27 35.2891 875.281 36.0273C875.27 36.7539 876.348 37.1992 878.012 37.1992C879.676 37.1992 880.742 36.7539 880.754 36.0273C880.742 35.2891 879.676 34.832 878.012 34.8203ZM881.586 28.0703V28.9492C881.586 29.793 881.586 30.6367 881.293 31.7148L880.391 31.6094C880.672 30.5312 880.672 29.7695 880.672 28.9492V28.8203H874.438V28.0703H881.586ZM882.793 32.3945V33.1445H873.312V32.3945H877.238V30.3789H878.141V32.3945H882.793ZM892.262 27.5312V32.9336H891.359V27.5312H892.262ZM892.273 33.4609V35.957H886.426V37.082H892.648V37.832H885.523V35.2422H891.359V34.1992H885.5V33.4609H892.273ZM887.363 28.6328C887.352 30.1094 888.477 31.4102 890.023 31.9141L889.566 32.6289C888.348 32.2129 887.375 31.3398 886.906 30.2148C886.438 31.4277 885.459 32.3828 884.223 32.8281L883.742 32.1016C885.312 31.5508 886.426 30.168 886.426 28.6328V27.8359H887.363V28.6328ZM903.57 32.2891V33.0039H900.992V33.9531H902.375V36.168H896.117V37.1641H902.715V37.832H895.191V35.5234H901.461V34.6328H895.18V33.9531H896.621V33.0039H894.031V32.2891H903.57ZM902.34 27.8477V29.9922H896.188V30.8828H902.527V31.5508H895.273V29.3711H901.414V28.5039H895.238V27.8477H902.34ZM897.523 33.9531H900.078V33.0039H897.523V33.9531Z" fill="#414141"/>
<rect x="28" y="366" width="876" height="1" fill="#D9D9D9"/>
<rect x="28" y="280" width="876" height="1" fill="#D9D9D9"/>
<rect x="28" y="323" width="876" height="1" fill="#D9D9D9"/>
<rect x="28" y="235" width="876" height="1" fill="#D9D9D9"/>
<rect x="28" y="190" width="876" height="1" fill="#D9D9D9"/>
<rect x="28" y="145" width="876" height="1" fill="#D9D9D9"/>
<rect x="28" y="100" width="876" height="1" fill="#D9D9D9"/>
<path opacity="0.5" d="M75 291L213.5 294.5L335.5 301.5L459.5 286.5L585.5 218L712 175.5L838 129.5V366.5H75V291Z" fill="url(#paint0_linear_680_873)"/>
<path d="M75 291L213.5 294.5L335.5 301.5L459.5 286.5L585.5 218L712 175.5L838 129.5" stroke="#526CE9"/>
<path d="M77.4327 291.5C77.4327 292.611 76.546 293.5 75.4664 293.5C74.3867 293.5 73.5 292.611 73.5 291.5C73.5 290.389 74.3867 289.5 75.4664 289.5C76.546 289.5 77.4327 290.389 77.4327 291.5Z" fill="white" stroke="#526CE9"/>
<path d="M215.433 294.5C215.433 295.611 214.546 296.5 213.466 296.5C212.387 296.5 211.5 295.611 211.5 294.5C211.5 293.389 212.387 292.5 213.466 292.5C214.546 292.5 215.433 293.389 215.433 294.5Z" fill="white" stroke="#526CE9"/>
<path d="M337.433 301.5C337.433 302.611 336.546 303.5 335.466 303.5C334.387 303.5 333.5 302.611 333.5 301.5C333.5 300.389 334.387 299.5 335.466 299.5C336.546 299.5 337.433 300.389 337.433 301.5Z" fill="white" stroke="#526CE9"/>
<path d="M461.433 286.5C461.433 287.611 460.546 288.5 459.466 288.5C458.387 288.5 457.5 287.611 457.5 286.5C457.5 285.389 458.387 284.5 459.466 284.5C460.546 284.5 461.433 285.389 461.433 286.5Z" fill="white" stroke="#526CE9"/>
<path d="M587.433 217.5C587.433 218.611 586.546 219.5 585.466 219.5C584.387 219.5 583.5 218.611 583.5 217.5C583.5 216.389 584.387 215.5 585.466 215.5C586.546 215.5 587.433 216.389 587.433 217.5Z" fill="white" stroke="#526CE9"/>
<path d="M713.433 175.5C713.433 176.611 712.546 177.5 711.466 177.5C710.387 177.5 709.5 176.611 709.5 175.5C709.5 174.389 710.387 173.5 711.466 173.5C712.546 173.5 713.433 174.389 713.433 175.5Z" fill="white" stroke="#526CE9"/>
<path d="M839.433 129.5C839.433 130.611 838.546 131.5 837.466 131.5C836.387 131.5 835.5 130.611 835.5 129.5C835.5 128.389 836.387 127.5 837.466 127.5C838.546 127.5 839.433 128.389 839.433 129.5Z" fill="white" stroke="#526CE9"/>
<path d="M74.5 124L213.5 116.5L335.5 134.5L459.5 168.5L585.5 173L711 182.5L837 204" stroke="#FF8C8C"/>
<path opacity="0.5" d="M213.5 116.5L74.5 124V365.5H837V204L711 182.5L585.5 173L459.5 168.5L335.5 134.5L213.5 116.5Z" fill="url(#paint1_linear_680_873)"/>
<path d="M77.4327 123.5C77.4327 124.611 76.546 125.5 75.4664 125.5C74.3867 125.5 73.5 124.611 73.5 123.5C73.5 122.389 74.3867 121.5 75.4664 121.5C76.546 121.5 77.4327 122.389 77.4327 123.5Z" fill="white" stroke="#FF8C8C"/>
<path d="M215.433 116.5C215.433 117.611 214.546 118.5 213.466 118.5C212.387 118.5 211.5 117.611 211.5 116.5C211.5 115.389 212.387 114.5 213.466 114.5C214.546 114.5 215.433 115.389 215.433 116.5Z" fill="white" stroke="#FF8C8C"/>
<path d="M337.433 134.5C337.433 135.611 336.546 136.5 335.466 136.5C334.387 136.5 333.5 135.611 333.5 134.5C333.5 133.389 334.387 132.5 335.466 132.5C336.546 132.5 337.433 133.389 337.433 134.5Z" fill="white" stroke="#FF8C8C"/>
<path d="M461.433 168.5C461.433 169.611 460.546 170.5 459.466 170.5C458.387 170.5 457.5 169.611 457.5 168.5C457.5 167.389 458.387 166.5 459.466 166.5C460.546 166.5 461.433 167.389 461.433 168.5Z" fill="white" stroke="#FF8C8C"/>
<path d="M587.433 172.5C587.433 173.611 586.546 174.5 585.466 174.5C584.387 174.5 583.5 173.611 583.5 172.5C583.5 171.389 584.387 170.5 585.466 170.5C586.546 170.5 587.433 171.389 587.433 172.5Z" fill="white" stroke="#FF8C8C"/>
<path d="M713.433 182.5C713.433 183.611 712.546 184.5 711.466 184.5C710.387 184.5 709.5 183.611 709.5 182.5C709.5 181.389 710.387 180.5 711.466 180.5C712.546 180.5 713.433 181.389 713.433 182.5Z" fill="white" stroke="#FF8C8C"/>
<path d="M839.433 203.5C839.433 204.611 838.546 205.5 837.466 205.5C836.387 205.5 835.5 204.611 835.5 203.5C835.5 202.389 836.387 201.5 837.466 201.5C838.546 201.5 839.433 202.389 839.433 203.5Z" fill="white" stroke="#FF8C8C"/>
<path d="M40.0625 399L40.0469 397.969L43.9062 393.906C45.25 392.484 45.8906 391.719 45.8906 390.672C45.8906 389.516 44.9062 388.75 43.6406 388.75C42.2969 388.75 41.4375 389.609 41.4375 390.875H40.1094C40.0938 388.875 41.6406 387.531 43.6875 387.531C45.7344 387.531 47.2031 388.906 47.2031 390.672C47.2031 391.938 46.6094 392.922 44.6094 394.984L42.0156 397.656V397.75H47.4062V399H40.0625ZM53.1562 399.156C50.6406 399.156 49.2031 397.047 49.2031 393.344C49.2031 389.672 50.6719 387.531 53.1562 387.531C55.6406 387.531 57.1094 389.672 57.1094 393.344C57.1094 397.047 55.6562 399.156 53.1562 399.156ZM53.1562 397.906C54.7812 397.906 55.7344 396.266 55.7344 393.344C55.7344 390.422 54.7812 388.75 53.1562 388.75C51.5312 388.75 50.5625 390.422 50.5625 393.344C50.5625 396.266 51.5156 397.906 53.1562 397.906ZM58.9844 399L58.9688 397.969L62.8281 393.906C64.1719 392.484 64.8125 391.719 64.8125 390.672C64.8125 389.516 63.8281 388.75 62.5625 388.75C61.2188 388.75 60.3594 389.609 60.3594 390.875H59.0312C59.0156 388.875 60.5625 387.531 62.6094 387.531C64.6562 387.531 66.125 388.906 66.125 390.672C66.125 391.938 65.5312 392.922 63.5312 394.984L60.9375 397.656V397.75H66.3281V399H58.9844ZM68.375 399L68.3594 397.969L72.2188 393.906C73.5625 392.484 74.2031 391.719 74.2031 390.672C74.2031 389.516 73.2188 388.75 71.9531 388.75C70.6094 388.75 69.75 389.609 69.75 390.875H68.4219C68.4062 388.875 69.9531 387.531 72 387.531C74.0469 387.531 75.5156 388.906 75.5156 390.672C75.5156 391.938 74.9219 392.922 72.9219 394.984L70.3281 397.656V397.75H75.7188V399H68.375ZM85.9219 388.625C85.9219 390.516 87.3594 392.25 89.375 392.938L88.7031 393.906C87.1641 393.344 85.9531 392.195 85.3438 390.75C84.75 392.383 83.5156 393.672 81.8906 394.297L81.2344 393.312C83.3125 392.531 84.7031 390.672 84.7188 388.531V387.094H85.9219V388.625ZM92.1406 386.375V390H94.2344V391.031H92.1406V394.828H90.9219V386.375H92.1406ZM87.6875 395.188C90.5469 395.188 92.2656 396.109 92.2656 397.703C92.2656 399.328 90.5469 400.234 87.6875 400.234C84.8281 400.234 83.0781 399.328 83.0781 397.703C83.0781 396.109 84.8281 395.188 87.6875 395.188ZM87.6875 396.172C85.5938 396.172 84.2969 396.75 84.3125 397.703C84.2969 398.688 85.5938 399.25 87.6875 399.266C89.7969 399.25 91.0781 398.688 91.0781 397.703C91.0781 396.75 89.7969 396.172 87.6875 396.172ZM105.969 386.391V390.594H108.062V391.625H105.969V396.594H104.75V386.391H105.969ZM106.609 398.938V399.969H97.2812V395.594H98.4844V398.938H106.609ZM96.9062 387.391V389.734H100.953V387.391H102.172V394.25H95.7031V387.391H96.9062ZM96.9062 393.25H100.953V390.703H96.9062V393.25ZM120.422 386.375V400.266H119.188V386.375H120.422ZM116.312 387.891C116.297 391.891 114.438 395.422 109.781 397.656L109.109 396.656C112.867 394.875 114.781 392.211 115.062 388.891H109.75V387.891H116.312Z" fill="#414141"/>
<path d="M166.062 399L166.047 397.969L169.906 393.906C171.25 392.484 171.891 391.719 171.891 390.672C171.891 389.516 170.906 388.75 169.641 388.75C168.297 388.75 167.438 389.609 167.438 390.875H166.109C166.094 388.875 167.641 387.531 169.688 387.531C171.734 387.531 173.203 388.906 173.203 390.672C173.203 391.938 172.609 392.922 170.609 394.984L168.016 397.656V397.75H173.406V399H166.062ZM179.156 399.156C176.641 399.156 175.203 397.047 175.203 393.344C175.203 389.672 176.672 387.531 179.156 387.531C181.641 387.531 183.109 389.672 183.109 393.344C183.109 397.047 181.656 399.156 179.156 399.156ZM179.156 397.906C180.781 397.906 181.734 396.266 181.734 393.344C181.734 390.422 180.781 388.75 179.156 388.75C177.531 388.75 176.562 390.422 176.562 393.344C176.562 396.266 177.516 397.906 179.156 397.906ZM184.984 399L184.969 397.969L188.828 393.906C190.172 392.484 190.812 391.719 190.812 390.672C190.812 389.516 189.828 388.75 188.562 388.75C187.219 388.75 186.359 389.609 186.359 390.875H185.031C185.016 388.875 186.562 387.531 188.609 387.531C190.656 387.531 192.125 388.906 192.125 390.672C192.125 391.938 191.531 392.922 189.531 394.984L186.938 397.656V397.75H192.328V399H184.984ZM194.375 399L194.359 397.969L198.219 393.906C199.562 392.484 200.203 391.719 200.203 390.672C200.203 389.516 199.219 388.75 197.953 388.75C196.609 388.75 195.75 389.609 195.75 390.875H194.422C194.406 388.875 195.953 387.531 198 387.531C200.047 387.531 201.516 388.906 201.516 390.672C201.516 391.938 200.922 392.922 198.922 394.984L196.328 397.656V397.75H201.719V399H194.375ZM218.031 386.375V392.109H220.359V393.125H218.031V400.266H216.812V386.375H218.031ZM215.469 388.609V389.625H207.203V388.609H210.781V386.547H212V388.609H215.469ZM211.406 390.781C213.375 390.781 214.797 392.094 214.812 393.969C214.797 395.844 213.375 397.156 211.406 397.156C209.422 397.156 207.984 395.844 208 393.969C207.984 392.094 209.422 390.781 211.406 390.781ZM211.406 391.812C210.109 391.812 209.156 392.719 209.172 393.969C209.156 395.234 210.109 396.125 211.406 396.109C212.688 396.125 213.625 395.234 213.641 393.969C213.625 392.719 212.688 391.812 211.406 391.812ZM231.969 386.391V390.594H234.062V391.625H231.969V396.594H230.75V386.391H231.969ZM232.609 398.938V399.969H223.281V395.594H224.484V398.938H232.609ZM222.906 387.391V389.734H226.953V387.391H228.172V394.25H221.703V387.391H222.906ZM222.906 393.25H226.953V390.703H222.906V393.25ZM246.422 386.375V400.266H245.188V386.375H246.422ZM242.312 387.891C242.297 391.891 240.438 395.422 235.781 397.656L235.109 396.656C238.867 394.875 240.781 392.211 241.062 388.891H235.75V387.891H242.312Z" fill="#414141"/>
<path d="M292.062 399L292.047 397.969L295.906 393.906C297.25 392.484 297.891 391.719 297.891 390.672C297.891 389.516 296.906 388.75 295.641 388.75C294.297 388.75 293.438 389.609 293.438 390.875H292.109C292.094 388.875 293.641 387.531 295.688 387.531C297.734 387.531 299.203 388.906 299.203 390.672C299.203 391.938 298.609 392.922 296.609 394.984L294.016 397.656V397.75H299.406V399H292.062ZM305.156 399.156C302.641 399.156 301.203 397.047 301.203 393.344C301.203 389.672 302.672 387.531 305.156 387.531C307.641 387.531 309.109 389.672 309.109 393.344C309.109 397.047 307.656 399.156 305.156 399.156ZM305.156 397.906C306.781 397.906 307.734 396.266 307.734 393.344C307.734 390.422 306.781 388.75 305.156 388.75C303.531 388.75 302.562 390.422 302.562 393.344C302.562 396.266 303.516 397.906 305.156 397.906ZM310.984 399L310.969 397.969L314.828 393.906C316.172 392.484 316.812 391.719 316.812 390.672C316.812 389.516 315.828 388.75 314.562 388.75C313.219 388.75 312.359 389.609 312.359 390.875H311.031C311.016 388.875 312.562 387.531 314.609 387.531C316.656 387.531 318.125 388.906 318.125 390.672C318.125 391.938 317.531 392.922 315.531 394.984L312.938 397.656V397.75H318.328V399H310.984ZM324.281 399.156C322.031 399.156 320.422 397.953 320.344 396.156H321.766C321.844 397.234 322.922 397.906 324.266 397.906C325.75 397.906 326.844 397.094 326.844 395.922C326.844 394.688 325.859 393.812 324.094 393.812H323.172V392.578H324.094C325.469 392.578 326.422 391.812 326.422 390.641C326.422 389.516 325.594 388.75 324.312 388.75C323.109 388.75 322 389.422 321.938 390.531H320.578C320.656 388.734 322.312 387.531 324.328 387.531C326.484 387.531 327.797 388.938 327.781 390.562C327.797 391.844 327.047 392.797 325.859 393.125V393.203C327.328 393.438 328.234 394.484 328.219 395.922C328.234 397.781 326.531 399.156 324.281 399.156ZM338.406 388.625C338.406 390.516 339.844 392.25 341.859 392.938L341.188 393.906C339.648 393.344 338.438 392.195 337.828 390.75C337.234 392.383 336 393.672 334.375 394.297L333.719 393.312C335.797 392.531 337.188 390.672 337.203 388.531V387.094H338.406V388.625ZM344.625 386.375V390H346.719V391.031H344.625V394.828H343.406V386.375H344.625ZM340.172 395.188C343.031 395.188 344.75 396.109 344.75 397.703C344.75 399.328 343.031 400.234 340.172 400.234C337.312 400.234 335.562 399.328 335.562 397.703C335.562 396.109 337.312 395.188 340.172 395.188ZM340.172 396.172C338.078 396.172 336.781 396.75 336.797 397.703C336.781 398.688 338.078 399.25 340.172 399.266C342.281 399.25 343.562 398.688 343.562 397.703C343.562 396.75 342.281 396.172 340.172 396.172ZM358.453 386.391V390.594H360.547V391.625H358.453V396.594H357.234V386.391H358.453ZM359.094 398.938V399.969H349.766V395.594H350.969V398.938H359.094ZM349.391 387.391V389.734H353.438V387.391H354.656V394.25H348.188V387.391H349.391ZM349.391 393.25H353.438V390.703H349.391V393.25ZM372.906 386.375V400.266H371.672V386.375H372.906ZM368.797 387.891C368.781 391.891 366.922 395.422 362.266 397.656L361.594 396.656C365.352 394.875 367.266 392.211 367.547 388.891H362.234V387.891H368.797Z" fill="#414141"/>
<path d="M418.062 399L418.047 397.969L421.906 393.906C423.25 392.484 423.891 391.719 423.891 390.672C423.891 389.516 422.906 388.75 421.641 388.75C420.297 388.75 419.438 389.609 419.438 390.875H418.109C418.094 388.875 419.641 387.531 421.688 387.531C423.734 387.531 425.203 388.906 425.203 390.672C425.203 391.938 424.609 392.922 422.609 394.984L420.016 397.656V397.75H425.406V399H418.062ZM431.156 399.156C428.641 399.156 427.203 397.047 427.203 393.344C427.203 389.672 428.672 387.531 431.156 387.531C433.641 387.531 435.109 389.672 435.109 393.344C435.109 397.047 433.656 399.156 431.156 399.156ZM431.156 397.906C432.781 397.906 433.734 396.266 433.734 393.344C433.734 390.422 432.781 388.75 431.156 388.75C429.531 388.75 428.562 390.422 428.562 393.344C428.562 396.266 429.516 397.906 431.156 397.906ZM436.984 399L436.969 397.969L440.828 393.906C442.172 392.484 442.812 391.719 442.812 390.672C442.812 389.516 441.828 388.75 440.562 388.75C439.219 388.75 438.359 389.609 438.359 390.875H437.031C437.016 388.875 438.562 387.531 440.609 387.531C442.656 387.531 444.125 388.906 444.125 390.672C444.125 391.938 443.531 392.922 441.531 394.984L438.938 397.656V397.75H444.328V399H436.984ZM450.281 399.156C448.031 399.156 446.422 397.953 446.344 396.156H447.766C447.844 397.234 448.922 397.906 450.266 397.906C451.75 397.906 452.844 397.094 452.844 395.922C452.844 394.688 451.859 393.812 450.094 393.812H449.172V392.578H450.094C451.469 392.578 452.422 391.812 452.422 390.641C452.422 389.516 451.594 388.75 450.312 388.75C449.109 388.75 448 389.422 447.938 390.531H446.578C446.656 388.734 448.312 387.531 450.328 387.531C452.484 387.531 453.797 388.938 453.781 390.562C453.797 391.844 453.047 392.797 451.859 393.125V393.203C453.328 393.438 454.234 394.484 454.219 395.922C454.234 397.781 452.531 399.156 450.281 399.156ZM470.516 386.375V392.109H472.844V393.125H470.516V400.266H469.297V386.375H470.516ZM467.953 388.609V389.625H459.688V388.609H463.266V386.547H464.484V388.609H467.953ZM463.891 390.781C465.859 390.781 467.281 392.094 467.297 393.969C467.281 395.844 465.859 397.156 463.891 397.156C461.906 397.156 460.469 395.844 460.484 393.969C460.469 392.094 461.906 390.781 463.891 390.781ZM463.891 391.812C462.594 391.812 461.641 392.719 461.656 393.969C461.641 395.234 462.594 396.125 463.891 396.109C465.172 396.125 466.109 395.234 466.125 393.969C466.109 392.719 465.172 391.812 463.891 391.812ZM484.453 386.391V390.594H486.547V391.625H484.453V396.594H483.234V386.391H484.453ZM485.094 398.938V399.969H475.766V395.594H476.969V398.938H485.094ZM475.391 387.391V389.734H479.438V387.391H480.656V394.25H474.188V387.391H475.391ZM475.391 393.25H479.438V390.703H475.391V393.25ZM498.906 386.375V400.266H497.672V386.375H498.906ZM494.797 387.891C494.781 391.891 492.922 395.422 488.266 397.656L487.594 396.656C491.352 394.875 493.266 392.211 493.547 388.891H488.234V387.891H494.797Z" fill="#414141"/>
<path d="M544.062 399L544.047 397.969L547.906 393.906C549.25 392.484 549.891 391.719 549.891 390.672C549.891 389.516 548.906 388.75 547.641 388.75C546.297 388.75 545.438 389.609 545.438 390.875H544.109C544.094 388.875 545.641 387.531 547.688 387.531C549.734 387.531 551.203 388.906 551.203 390.672C551.203 391.938 550.609 392.922 548.609 394.984L546.016 397.656V397.75H551.406V399H544.062ZM557.156 399.156C554.641 399.156 553.203 397.047 553.203 393.344C553.203 389.672 554.672 387.531 557.156 387.531C559.641 387.531 561.109 389.672 561.109 393.344C561.109 397.047 559.656 399.156 557.156 399.156ZM557.156 397.906C558.781 397.906 559.734 396.266 559.734 393.344C559.734 390.422 558.781 388.75 557.156 388.75C555.531 388.75 554.562 390.422 554.562 393.344C554.562 396.266 555.516 397.906 557.156 397.906ZM562.984 399L562.969 397.969L566.828 393.906C568.172 392.484 568.812 391.719 568.812 390.672C568.812 389.516 567.828 388.75 566.562 388.75C565.219 388.75 564.359 389.609 564.359 390.875H563.031C563.016 388.875 564.562 387.531 566.609 387.531C568.656 387.531 570.125 388.906 570.125 390.672C570.125 391.938 569.531 392.922 567.531 394.984L564.938 397.656V397.75H570.328V399H562.984ZM571.844 396.688V395.531L576.938 387.688H578.672V395.453H580.25V396.688H578.672V399H577.328V396.688H571.844ZM573.359 395.453H577.328V389.469H577.188L573.359 395.359V395.453ZM590.266 388.625C590.266 390.516 591.703 392.25 593.719 392.938L593.047 393.906C591.508 393.344 590.297 392.195 589.688 390.75C589.094 392.383 587.859 393.672 586.234 394.297L585.578 393.312C587.656 392.531 589.047 390.672 589.062 388.531V387.094H590.266V388.625ZM596.484 386.375V390H598.578V391.031H596.484V394.828H595.266V386.375H596.484ZM592.031 395.188C594.891 395.188 596.609 396.109 596.609 397.703C596.609 399.328 594.891 400.234 592.031 400.234C589.172 400.234 587.422 399.328 587.422 397.703C587.422 396.109 589.172 395.188 592.031 395.188ZM592.031 396.172C589.938 396.172 588.641 396.75 588.656 397.703C588.641 398.688 589.938 399.25 592.031 399.266C594.141 399.25 595.422 398.688 595.422 397.703C595.422 396.75 594.141 396.172 592.031 396.172ZM610.312 386.391V390.594H612.406V391.625H610.312V396.594H609.094V386.391H610.312ZM610.953 398.938V399.969H601.625V395.594H602.828V398.938H610.953ZM601.25 387.391V389.734H605.297V387.391H606.516V394.25H600.047V387.391H601.25ZM601.25 393.25H605.297V390.703H601.25V393.25ZM624.766 386.375V400.266H623.531V386.375H624.766ZM620.656 387.891C620.641 391.891 618.781 395.422 614.125 397.656L613.453 396.656C617.211 394.875 619.125 392.211 619.406 388.891H614.094V387.891H620.656Z" fill="#414141"/>
<path d="M670.062 399L670.047 397.969L673.906 393.906C675.25 392.484 675.891 391.719 675.891 390.672C675.891 389.516 674.906 388.75 673.641 388.75C672.297 388.75 671.438 389.609 671.438 390.875H670.109C670.094 388.875 671.641 387.531 673.688 387.531C675.734 387.531 677.203 388.906 677.203 390.672C677.203 391.938 676.609 392.922 674.609 394.984L672.016 397.656V397.75H677.406V399H670.062ZM683.156 399.156C680.641 399.156 679.203 397.047 679.203 393.344C679.203 389.672 680.672 387.531 683.156 387.531C685.641 387.531 687.109 389.672 687.109 393.344C687.109 397.047 685.656 399.156 683.156 399.156ZM683.156 397.906C684.781 397.906 685.734 396.266 685.734 393.344C685.734 390.422 684.781 388.75 683.156 388.75C681.531 388.75 680.562 390.422 680.562 393.344C680.562 396.266 681.516 397.906 683.156 397.906ZM688.984 399L688.969 397.969L692.828 393.906C694.172 392.484 694.812 391.719 694.812 390.672C694.812 389.516 693.828 388.75 692.562 388.75C691.219 388.75 690.359 389.609 690.359 390.875H689.031C689.016 388.875 690.562 387.531 692.609 387.531C694.656 387.531 696.125 388.906 696.125 390.672C696.125 391.938 695.531 392.922 693.531 394.984L690.938 397.656V397.75H696.328V399H688.984ZM697.844 396.688V395.531L702.938 387.688H704.672V395.453H706.25V396.688H704.672V399H703.328V396.688H697.844ZM699.359 395.453H703.328V389.469H703.188L699.359 395.359V395.453ZM722.375 386.375V392.109H724.703V393.125H722.375V400.266H721.156V386.375H722.375ZM719.812 388.609V389.625H711.547V388.609H715.125V386.547H716.344V388.609H719.812ZM715.75 390.781C717.719 390.781 719.141 392.094 719.156 393.969C719.141 395.844 717.719 397.156 715.75 397.156C713.766 397.156 712.328 395.844 712.344 393.969C712.328 392.094 713.766 390.781 715.75 390.781ZM715.75 391.812C714.453 391.812 713.5 392.719 713.516 393.969C713.5 395.234 714.453 396.125 715.75 396.109C717.031 396.125 717.969 395.234 717.984 393.969C717.969 392.719 717.031 391.812 715.75 391.812ZM736.312 386.391V390.594H738.406V391.625H736.312V396.594H735.094V386.391H736.312ZM736.953 398.938V399.969H727.625V395.594H728.828V398.938H736.953ZM727.25 387.391V389.734H731.297V387.391H732.516V394.25H726.047V387.391H727.25ZM727.25 393.25H731.297V390.703H727.25V393.25ZM750.766 386.375V400.266H749.531V386.375H750.766ZM746.656 387.891C746.641 391.891 744.781 395.422 740.125 397.656L739.453 396.656C743.211 394.875 745.125 392.211 745.406 388.891H740.094V387.891H746.656Z" fill="#414141"/>
<path d="M796.062 399L796.047 397.969L799.906 393.906C801.25 392.484 801.891 391.719 801.891 390.672C801.891 389.516 800.906 388.75 799.641 388.75C798.297 388.75 797.438 389.609 797.438 390.875H796.109C796.094 388.875 797.641 387.531 799.688 387.531C801.734 387.531 803.203 388.906 803.203 390.672C803.203 391.938 802.609 392.922 800.609 394.984L798.016 397.656V397.75H803.406V399H796.062ZM809.156 399.156C806.641 399.156 805.203 397.047 805.203 393.344C805.203 389.672 806.672 387.531 809.156 387.531C811.641 387.531 813.109 389.672 813.109 393.344C813.109 397.047 811.656 399.156 809.156 399.156ZM809.156 397.906C810.781 397.906 811.734 396.266 811.734 393.344C811.734 390.422 810.781 388.75 809.156 388.75C807.531 388.75 806.562 390.422 806.562 393.344C806.562 396.266 807.516 397.906 809.156 397.906ZM814.984 399L814.969 397.969L818.828 393.906C820.172 392.484 820.812 391.719 820.812 390.672C820.812 389.516 819.828 388.75 818.562 388.75C817.219 388.75 816.359 389.609 816.359 390.875H815.031C815.016 388.875 816.562 387.531 818.609 387.531C820.656 387.531 822.125 388.906 822.125 390.672C822.125 391.938 821.531 392.922 819.531 394.984L816.938 397.656V397.75H822.328V399H814.984ZM828.062 399.156C826.016 399.156 824.469 397.891 824.391 396.156H825.75C825.859 397.172 826.844 397.922 828.062 397.922C829.531 397.922 830.594 396.844 830.594 395.422C830.594 393.953 829.484 392.875 827.969 392.859C827.016 392.844 826.281 393.141 825.859 393.875H824.5L825.297 387.688H831.422V388.938H826.469L826.047 392.25H826.156C826.656 391.859 827.422 391.594 828.219 391.594C830.375 391.594 831.969 393.188 831.969 395.391C831.969 397.578 830.312 399.156 828.062 399.156ZM842.078 388.625C842.078 390.516 843.516 392.25 845.531 392.938L844.859 393.906C843.32 393.344 842.109 392.195 841.5 390.75C840.906 392.383 839.672 393.672 838.047 394.297L837.391 393.312C839.469 392.531 840.859 390.672 840.875 388.531V387.094H842.078V388.625ZM848.297 386.375V390H850.391V391.031H848.297V394.828H847.078V386.375H848.297ZM843.844 395.188C846.703 395.188 848.422 396.109 848.422 397.703C848.422 399.328 846.703 400.234 843.844 400.234C840.984 400.234 839.234 399.328 839.234 397.703C839.234 396.109 840.984 395.188 843.844 395.188ZM843.844 396.172C841.75 396.172 840.453 396.75 840.469 397.703C840.453 398.688 841.75 399.25 843.844 399.266C845.953 399.25 847.234 398.688 847.234 397.703C847.234 396.75 845.953 396.172 843.844 396.172ZM862.125 386.391V390.594H864.219V391.625H862.125V396.594H860.906V386.391H862.125ZM862.766 398.938V399.969H853.438V395.594H854.641V398.938H862.766ZM853.062 387.391V389.734H857.109V387.391H858.328V394.25H851.859V387.391H853.062ZM853.062 393.25H857.109V390.703H853.062V393.25ZM876.578 386.375V400.266H875.344V386.375H876.578ZM872.469 387.891C872.453 391.891 870.594 395.422 865.938 397.656L865.266 396.656C869.023 394.875 870.938 392.211 871.219 388.891H865.906V387.891H872.469Z" fill="#414141"/>
<path d="M60.5625 110.117C59.0273 110.117 57.8672 109.168 57.8086 107.867H58.8281C58.9102 108.629 59.6484 109.191 60.5625 109.191C61.6641 109.191 62.4609 108.383 62.4609 107.316C62.4609 106.215 61.6289 105.406 60.4922 105.395C59.7773 105.383 59.2266 105.605 58.9102 106.156H57.8906L58.4883 101.516H63.082V102.453H59.3672L59.0508 104.938H59.1328C59.5078 104.645 60.082 104.445 60.6797 104.445C62.2969 104.445 63.4922 105.641 63.4922 107.293C63.4922 108.934 62.25 110.117 60.5625 110.117ZM65.3672 110.07C64.957 110.07 64.6055 109.73 64.6172 109.309C64.6055 108.898 64.957 108.559 65.3672 108.559C65.7773 108.559 66.1172 108.898 66.1172 109.309C66.1172 109.73 65.7773 110.07 65.3672 110.07ZM70.1602 110.117C68.2734 110.117 67.1953 108.535 67.1953 105.758C67.1953 103.004 68.2969 101.398 70.1602 101.398C72.0234 101.398 73.125 103.004 73.125 105.758C73.125 108.535 72.0352 110.117 70.1602 110.117ZM70.1602 109.18C71.3789 109.18 72.0938 107.949 72.0938 105.758C72.0938 103.566 71.3789 102.312 70.1602 102.312C68.9414 102.312 68.2148 103.566 68.2148 105.758C68.2148 107.949 68.9297 109.18 70.1602 109.18ZM77.2969 110.117C75.7617 110.117 74.6016 109.168 74.543 107.867H75.5625C75.6445 108.629 76.3828 109.191 77.2969 109.191C78.3984 109.191 79.1953 108.383 79.1953 107.316C79.1953 106.215 78.3633 105.406 77.2266 105.395C76.5117 105.383 75.9609 105.605 75.6445 106.156H74.625L75.2227 101.516H79.8164V102.453H76.1016L75.7852 104.938H75.8672C76.2422 104.645 76.8164 104.445 77.4141 104.445C79.0312 104.445 80.2266 105.641 80.2266 107.293C80.2266 108.934 78.9844 110.117 77.2969 110.117ZM83.4844 105.453C82.3828 105.453 81.7852 104.633 81.7852 103.414C81.7852 102.219 82.4062 101.387 83.4844 101.387C84.5977 101.387 85.1836 102.219 85.1836 103.414C85.1836 104.633 84.5742 105.453 83.4844 105.453ZM83.4844 104.727C84.0586 104.727 84.3281 104.211 84.3281 103.414C84.3281 102.629 84.082 102.102 83.4844 102.113C82.9219 102.113 82.6406 102.629 82.6406 103.414C82.6406 104.211 82.9219 104.727 83.4844 104.727ZM88.6641 110.117C87.5625 110.129 86.9531 109.297 86.9648 108.09C86.9531 106.883 87.5859 106.051 88.6641 106.051C89.7656 106.051 90.3516 106.883 90.3516 108.09C90.3516 109.297 89.7422 110.129 88.6641 110.117ZM88.6641 109.391C89.2266 109.391 89.4961 108.875 89.4961 108.09C89.4961 107.293 89.25 106.766 88.6641 106.777C88.1016 106.789 87.8086 107.293 87.8086 108.09C87.8086 108.875 88.0898 109.391 88.6641 109.391ZM82.6172 110L88.4531 101.516H89.4023L83.5664 110H82.6172Z" fill="#FF8C8C"/>
<path d="M823.727 190.117C822.039 190.117 820.832 189.215 820.773 187.867H821.84C821.898 188.676 822.707 189.18 823.715 189.18C824.828 189.18 825.648 188.57 825.648 187.691C825.648 186.766 824.91 186.109 823.586 186.109H822.895V185.184H823.586C824.617 185.184 825.332 184.609 825.332 183.73C825.332 182.887 824.711 182.312 823.75 182.312C822.848 182.312 822.016 182.816 821.969 183.648H820.949C821.008 182.301 822.25 181.398 823.762 181.398C825.379 181.398 826.363 182.453 826.352 183.672C826.363 184.633 825.801 185.348 824.91 185.594V185.652C826.012 185.828 826.691 186.613 826.68 187.691C826.691 189.086 825.414 190.117 823.727 190.117ZM828.66 190.07C828.25 190.07 827.898 189.73 827.91 189.309C827.898 188.898 828.25 188.559 828.66 188.559C829.07 188.559 829.41 188.898 829.41 189.309C829.41 189.73 829.07 190.07 828.66 190.07ZM833.547 190.117C831.766 190.117 830.523 189.133 830.535 187.75C830.523 186.648 831.285 185.746 832.258 185.594V185.547C831.414 185.348 830.863 184.574 830.863 183.648C830.863 182.348 832 181.398 833.547 181.398C835.094 181.398 836.23 182.348 836.242 183.648C836.23 184.574 835.668 185.348 834.836 185.547V185.594C835.797 185.746 836.559 186.648 836.57 187.75C836.559 189.133 835.316 190.117 833.547 190.117ZM833.547 189.191C834.766 189.191 835.516 188.582 835.516 187.691C835.516 186.754 834.684 186.062 833.547 186.062C832.41 186.062 831.566 186.754 831.59 187.691C831.566 188.582 832.328 189.191 833.547 189.191ZM833.547 185.172C834.508 185.172 835.211 184.586 835.211 183.73C835.211 182.887 834.543 182.312 833.547 182.312C832.539 182.312 831.883 182.887 831.883 183.73C831.883 184.586 832.574 185.172 833.547 185.172ZM840.941 190.117C839.465 190.094 837.848 189.227 837.848 186.086C837.848 183.086 839.078 181.398 841.07 181.398C842.559 181.398 843.602 182.312 843.824 183.648H842.781C842.582 182.898 842.02 182.336 841.07 182.336C839.676 182.336 838.844 183.531 838.844 185.57H838.949C839.441 184.867 840.215 184.445 841.129 184.445C842.641 184.445 843.895 185.617 843.895 187.258C843.895 188.852 842.723 190.129 840.941 190.117ZM840.941 189.191C842.043 189.191 842.863 188.324 842.875 187.27C842.863 186.227 842.078 185.371 840.965 185.371C839.852 185.371 838.996 186.273 838.984 187.281C838.984 188.277 839.805 189.191 840.941 189.191ZM847.141 185.453C846.039 185.453 845.441 184.633 845.441 183.414C845.441 182.219 846.062 181.387 847.141 181.387C848.254 181.387 848.84 182.219 848.84 183.414C848.84 184.633 848.23 185.453 847.141 185.453ZM847.141 184.727C847.715 184.727 847.984 184.211 847.984 183.414C847.984 182.629 847.738 182.102 847.141 182.113C846.578 182.113 846.297 182.629 846.297 183.414C846.297 184.211 846.578 184.727 847.141 184.727ZM852.32 190.117C851.219 190.129 850.609 189.297 850.621 188.09C850.609 186.883 851.242 186.051 852.32 186.051C853.422 186.051 854.008 186.883 854.008 188.09C854.008 189.297 853.398 190.129 852.32 190.117ZM852.32 189.391C852.883 189.391 853.152 188.875 853.152 188.09C853.152 187.293 852.906 186.766 852.32 186.777C851.758 186.789 851.465 187.293 851.465 188.09C851.465 188.875 851.746 189.391 852.32 189.391ZM846.273 190L852.109 181.516H853.059L847.223 190H846.273Z" fill="#FF8C8C"/>
<path d="M55.7969 269.516V278H54.7305V270.617H54.6836L52.6211 271.988V270.922L54.7305 269.516H55.7969ZM61.0586 269.516V278H59.9922V270.617H59.9453L57.8828 271.988V270.922L59.9922 269.516H61.0586ZM64.1523 277.215L63.2383 280.402H62.3711L63.0156 277.215H64.1523ZM68.4766 278.117C66.6953 278.117 65.4531 277.133 65.4648 275.75C65.4531 274.648 66.2148 273.746 67.1875 273.594V273.547C66.3438 273.348 65.793 272.574 65.793 271.648C65.793 270.348 66.9297 269.398 68.4766 269.398C70.0234 269.398 71.1602 270.348 71.1719 271.648C71.1602 272.574 70.5977 273.348 69.7656 273.547V273.594C70.7266 273.746 71.4883 274.648 71.5 275.75C71.4883 277.133 70.2461 278.117 68.4766 278.117ZM68.4766 277.191C69.6953 277.191 70.4453 276.582 70.4453 275.691C70.4453 274.754 69.6133 274.062 68.4766 274.062C67.3398 274.062 66.4961 274.754 66.5195 275.691C66.4961 276.582 67.2578 277.191 68.4766 277.191ZM68.4766 273.172C69.4375 273.172 70.1406 272.586 70.1406 271.73C70.1406 270.887 69.4727 270.312 68.4766 270.312C67.4688 270.312 66.8125 270.887 66.8125 271.73C66.8125 272.586 67.5039 273.172 68.4766 273.172ZM73.1875 278L77.0781 270.512V270.453H72.5898V269.516H78.168V270.5L74.2891 278H73.1875ZM82.3047 278.117C80.8281 278.094 79.2109 277.227 79.2109 274.086C79.2109 271.086 80.4414 269.398 82.4336 269.398C83.9219 269.398 84.9648 270.312 85.1875 271.648H84.1445C83.9453 270.898 83.3828 270.336 82.4336 270.336C81.0391 270.336 80.207 271.531 80.207 273.57H80.3125C80.8047 272.867 81.5781 272.445 82.4922 272.445C84.0039 272.445 85.2578 273.617 85.2578 275.258C85.2578 276.852 84.0859 278.129 82.3047 278.117ZM82.3047 277.191C83.4062 277.191 84.2266 276.324 84.2383 275.27C84.2266 274.227 83.4414 273.371 82.3281 273.371C81.2148 273.371 80.3594 274.273 80.3477 275.281C80.3477 276.277 81.168 277.191 82.3047 277.191ZM86.9941 268.736H96.4021V269.624H87.9061V278.972H86.9941V268.736ZM95.9941 268.736H96.9061V277.76C96.9061 278.048 96.8661 278.268 96.7861 278.42C96.7061 278.58 96.5621 278.704 96.3541 278.792C96.1541 278.864 95.8781 278.908 95.5261 278.924C95.1821 278.94 94.7381 278.948 94.1941 278.948C94.1861 278.868 94.1621 278.772 94.1221 278.66C94.0821 278.548 94.0381 278.436 93.9901 278.324C93.9501 278.22 93.9061 278.128 93.8581 278.048C94.1301 278.056 94.3901 278.06 94.6381 278.06C94.8941 278.06 95.1141 278.06 95.2981 278.06C95.4821 278.06 95.6141 278.06 95.6941 278.06C95.8061 278.052 95.8821 278.028 95.9221 277.988C95.9701 277.94 95.9941 277.864 95.9941 277.76V268.736ZM87.4981 273.164H96.4261V274.052H87.4981V273.164ZM91.4341 269.18H92.3341V273.608H91.4341V269.18Z" fill="#526CE9"/>
<path d="M818.797 107.516V116H817.73V108.617H817.684L815.621 109.988V108.922L817.73 107.516H818.797ZM821.059 116L821.047 115.227L823.941 112.18C824.949 111.113 825.43 110.539 825.43 109.754C825.43 108.887 824.691 108.312 823.742 108.312C822.734 108.312 822.09 108.957 822.09 109.906H821.094C821.082 108.406 822.242 107.398 823.777 107.398C825.312 107.398 826.414 108.43 826.414 109.754C826.414 110.703 825.969 111.441 824.469 112.988L822.523 114.992V115.062H826.566V116H821.059ZM829.438 115.215L828.523 118.402H827.656L828.301 115.215H829.438ZM831.195 116L831.184 115.227L834.078 112.18C835.086 111.113 835.566 110.539 835.566 109.754C835.566 108.887 834.828 108.312 833.879 108.312C832.871 108.312 832.227 108.957 832.227 109.906H831.23C831.219 108.406 832.379 107.398 833.914 107.398C835.449 107.398 836.551 108.43 836.551 109.754C836.551 110.703 836.105 111.441 834.605 112.988L832.66 114.992V115.062H836.703V116H831.195ZM838.238 116L838.227 115.227L841.121 112.18C842.129 111.113 842.609 110.539 842.609 109.754C842.609 108.887 841.871 108.312 840.922 108.312C839.914 108.312 839.27 108.957 839.27 109.906H838.273C838.262 108.406 839.422 107.398 840.957 107.398C842.492 107.398 843.594 108.43 843.594 109.754C843.594 110.703 843.148 111.441 841.648 112.988L839.703 114.992V115.062H843.746V116H838.238ZM848.059 116.117C846.172 116.117 845.094 114.535 845.094 111.758C845.094 109.004 846.195 107.398 848.059 107.398C849.922 107.398 851.023 109.004 851.023 111.758C851.023 114.535 849.934 116.117 848.059 116.117ZM848.059 115.18C849.277 115.18 849.992 113.949 849.992 111.758C849.992 109.566 849.277 108.312 848.059 108.312C846.84 108.312 846.113 109.566 846.113 111.758C846.113 113.949 846.828 115.18 848.059 115.18ZM852.713 106.736H862.121V107.624H853.625V116.972H852.713V106.736ZM861.713 106.736H862.625V115.76C862.625 116.048 862.585 116.268 862.505 116.42C862.425 116.58 862.281 116.704 862.073 116.792C861.873 116.864 861.597 116.908 861.245 116.924C860.901 116.94 860.457 116.948 859.913 116.948C859.905 116.868 859.881 116.772 859.841 116.66C859.801 116.548 859.757 116.436 859.709 116.324C859.669 116.22 859.625 116.128 859.577 116.048C859.849 116.056 860.109 116.06 860.357 116.06C860.613 116.06 860.833 116.06 861.017 116.06C861.201 116.06 861.333 116.06 861.413 116.06C861.525 116.052 861.601 116.028 861.641 115.988C861.689 115.94 861.713 115.864 861.713 115.76V106.736ZM853.217 111.164H862.145V112.052H853.217V111.164ZM857.153 107.18H858.053V111.608H857.153V107.18Z" fill="#526CE9"/>
<defs>
<linearGradient id="paint0_linear_680_873" x1="456.5" y1="366.5" x2="440" y2="168.958" gradientUnits="userSpaceOnUse">
<stop offset="0.197115" stop-color="#B9C5FF" stop-opacity="0"/>
<stop offset="0.841052" stop-color="#B9C5FF"/>
</linearGradient>
<linearGradient id="paint1_linear_680_873" x1="454.926" y1="365.5" x2="436.753" y2="158.101" gradientUnits="userSpaceOnUse">
<stop offset="0.197115" stop-color="#D9D9D9" stop-opacity="0"/>
<stop offset="0.813385" stop-color="#FFD7D7"/>
</linearGradient>
</defs>
</svg>
