<svg width="542" height="404" viewBox="0 0 542 404" fill="none" xmlns="http://www.w3.org/2000/svg">
<circle cx="3.65614" cy="10.9999" r="3.65614" fill="#0222B4"/>
<path d="M27.2121 4.46032V17.1568H26.1409V10.5015H24.27V16.4999H23.2417V4.74595H24.27V9.5732H26.1409V4.46032H27.2121ZM21.585 6.01703V6.94535H17.9432V13.058C19.6927 13.0508 20.9066 12.9865 22.3134 12.7009L22.4134 13.6435C20.8852 13.9577 19.5856 14.0148 17.6433 14.0148H16.8292V6.01703H21.585ZM38.9231 4.4746V8.65916H40.8369V9.60176H38.9231V13.9863H37.8091V4.4746H38.9231ZM36.5952 6.03131V6.94535H29.0258V6.03131H32.2535V4.4746H33.3675V6.03131H36.5952ZM32.8105 7.64515C34.6243 7.64515 35.8525 8.57347 35.8668 10.0159C35.8525 11.4441 34.6243 12.3581 32.8105 12.3581C30.9824 12.3581 29.7399 11.4441 29.7542 10.0159C29.7399 8.57347 30.9824 7.64515 32.8105 7.64515ZM32.8105 8.53063C31.6108 8.53063 30.8111 9.11618 30.8253 10.0159C30.8111 10.9157 31.6108 11.487 32.8105 11.4727C33.9959 11.487 34.7957 10.9157 34.81 10.0159C34.7957 9.11618 33.9959 8.53063 32.8105 8.53063ZM39.5087 15.9429V16.8855H30.9824V13.2293H32.0821V15.9429H39.5087ZM48.2634 5.5743V11.4584H42.3079V5.5743H48.2634ZM43.4076 6.50261V10.5586H47.1637V6.50261H43.4076ZM52.1195 4.4746V13.6007H51.0055V4.4746H52.1195ZM52.5194 15.8001V16.7284H43.9217V12.7152H45.0357V15.8001H52.5194ZM64.3733 5.08871V6.00275C64.3733 6.95249 64.3733 8.08789 64.0591 9.61604H65.9014V10.5301H60.6172V12.8723H64.459V17.1568H63.3307V13.8006H55.4757V12.8723H59.5032V10.5301H54.276V9.61604H62.9308C63.2593 8.05933 63.2593 6.95249 63.2593 6.00275H55.7471V5.08871H64.3733Z" fill="#414141"/>
<circle cx="3.65614" cy="40.3124" r="3.65614" fill="#4D66DA"/>
<path d="M27.9252 39.714V40.6424H22.6837V41.9991C25.0831 42.0991 26.497 42.8846 26.5113 44.2271C26.497 45.641 24.8689 46.4408 22.141 46.4408C19.3847 46.4408 17.7565 45.641 17.7565 44.2271C17.7565 42.8846 19.1633 42.0991 21.5841 41.9991V40.6424H16.3569V39.714H27.9252ZM22.141 42.856C20.0987 42.8703 18.8848 43.3702 18.8991 44.2271C18.8848 45.0697 20.0987 45.5696 22.141 45.5696C24.1548 45.5696 25.383 45.0697 25.383 44.2271C25.383 43.3702 24.1548 42.8703 22.141 42.856ZM26.8969 34.3727V35.2867H22.8694C22.9408 36.7149 25.0402 37.8217 27.2825 38.0574L26.8683 38.9428C24.7903 38.6929 22.8408 37.7646 22.141 36.3435C21.4484 37.7646 19.5061 38.6929 17.4138 38.9428L17.0139 38.0574C19.2133 37.8217 21.327 36.7149 21.4127 35.2867H17.4138V34.3727H26.8969ZM39.0935 34.4012V35.3152C39.0935 36.265 39.0935 37.4004 38.7793 38.9285H40.6217V39.8426H35.3374V42.1848H39.1792V46.4693H38.051V43.1131H30.196V42.1848H34.2234V39.8426H28.9963V38.9285H37.6511C37.9795 37.3718 37.9795 36.265 37.9795 35.3152H30.4673V34.4012H39.0935Z" fill="#414141"/>
<circle cx="3.65614" cy="69.6249" r="3.65614" fill="#B0BEFF"/>
<path d="M27.969 70.3262V71.2545H24.8984V75.7818H23.7701V71.2545H20.5139V75.7818H19.3571V71.2545H16.3436V70.3262H27.969ZM22.1277 63.5995C24.7984 63.5995 26.5979 64.6706 26.5979 66.3701C26.5979 68.0554 24.7984 69.1265 22.1277 69.1122C19.457 69.1265 17.6575 68.0554 17.6575 66.3701C17.6575 64.6706 19.457 63.5995 22.1277 63.5995ZM22.1277 64.5135C20.1426 64.5135 18.8001 65.2419 18.8144 66.3701C18.8001 67.4984 20.1426 68.2125 22.1277 68.2125C24.0986 68.2125 25.4554 67.4984 25.4554 66.3701C25.4554 65.2419 24.0986 64.5135 22.1277 64.5135ZM39.523 63.0996V70.0691H38.3947V66.67H35.9811V65.7417H38.3947V63.0996H39.523ZM32.3249 70.6689V72.2257H38.409V70.6689H39.523V75.6104H31.211V70.6689H32.3249ZM32.3249 74.6964H38.409V73.1254H32.3249V74.6964ZM35.167 63.628V67.0557H30.654V68.8123C32.7462 68.8052 34.3172 68.7338 36.2239 68.4267L36.3238 69.3693C34.3244 69.6692 32.6963 69.7406 30.4969 69.7406H29.54V66.1845H34.0816V64.5421H29.5114V63.628H35.167ZM48.7061 74.7678C46.6781 74.7678 45.407 73.5539 45.407 71.8829C45.407 70.6261 46.2354 69.862 47.4493 69.0123C46.7424 68.1696 46.2497 67.4555 46.2497 66.5415C46.2497 65.1419 47.2351 64.185 48.7633 64.185C50.32 64.185 51.2769 65.1847 51.2769 66.3558C51.2769 67.3413 50.7484 68.0268 49.9058 68.6552L49.1489 69.2265L51.3768 71.9257C51.641 71.4116 51.8053 70.7903 51.8053 70.0834H52.9907C52.9907 71.5187 52.5551 72.3685 52.1623 72.8826L53.5905 74.625H52.1195L51.3911 73.7538C50.7199 74.4251 49.663 74.7678 48.7061 74.7678ZM46.6638 71.8829C46.6638 72.8398 47.4636 73.6824 48.6776 73.6824C49.3774 73.6824 50.0915 73.3968 50.6627 72.8683L48.2063 69.9263L47.8492 70.1976C46.9209 70.8689 46.6638 71.583 46.6638 71.8829ZM47.4779 66.5558C47.4779 67.1271 47.8992 67.7055 48.4062 68.3125L49.0918 67.8126C49.663 67.427 50.0486 67.0557 50.0486 66.3558C50.0486 65.8417 49.5345 65.2419 48.8061 65.2419C48.0206 65.2419 47.4779 65.9131 47.4779 66.5558ZM64.5018 64.3421V72.597H58.632V64.3421H64.5018ZM59.7317 65.2419V71.683H63.4021V65.2419H59.7317ZM68.3579 63.0853V75.8104H67.2296V63.0853H68.3579ZM80.6259 63.7137V64.6277C80.6259 65.5775 80.6259 66.7129 80.3117 68.241H82.1541V69.1551H76.8698V71.4973H80.7116V75.7818H79.5834V72.4256H71.7284V71.4973H75.7558V69.1551H70.5287V68.241H79.1835C79.512 66.6843 79.512 65.5775 79.512 64.6277H71.9997V63.7137H80.6259Z" fill="#414141"/>
<circle cx="3.65614" cy="98.9364" r="3.65614" fill="#B0BEFF"/>
<path d="M27.2111 92.3968V105.093H26.1399V98.438H24.269V104.436H23.2407V92.6825H24.269V97.5097H26.1399V92.3968H27.2111ZM21.5841 93.9536V94.8819H17.9422V100.994C19.6917 100.987 20.9057 100.923 22.3124 100.637L22.4124 101.58C20.8842 101.894 19.5846 101.951 17.6423 101.951H16.8282V93.9536H21.5841ZM35.4088 93.5537V99.3949H29.539V93.5537H35.4088ZM30.6387 94.4677V98.4952H34.3234V94.4677H30.6387ZM38.9221 92.3968V96.2672H40.8359V97.2098H38.9221V101.709H37.8082V92.3968H38.9221ZM39.5077 103.879V104.822H30.9815V100.823H32.0812V103.879H39.5077Z" fill="#414141"/>
<circle cx="3.65614" cy="128.249" r="3.65614" fill="#B0BEFF"/>
<path d="M27.9404 127.993V128.893H16.3579V127.993H21.5993V126.508H17.8289V122.309H26.498V123.209H18.9286V125.594H26.5837V126.508H22.6847V127.993H27.9404ZM22.142 129.821C24.8698 129.821 26.498 130.65 26.5122 132.106C26.498 133.578 24.8698 134.392 22.142 134.406C19.3999 134.392 17.7575 133.578 17.7575 132.106C17.7575 130.65 19.3999 129.821 22.142 129.821ZM22.142 130.707C20.0997 130.707 18.8858 131.235 18.9001 132.106C18.8858 132.992 20.0997 133.506 22.142 133.506C24.1558 133.506 25.384 132.992 25.384 132.106C25.384 131.235 24.1558 130.707 22.142 130.707ZM38.9231 121.724V124.637H40.8512V125.58H38.9231V128.893H37.8091V121.724H38.9231ZM38.9231 129.593V134.234H30.8825V129.593H38.9231ZM31.9822 130.478V133.32H37.8377V130.478H31.9822ZM30.7397 122.366V126.979C32.5463 126.972 34.4101 126.829 36.4667 126.408L36.6095 127.351C34.4529 127.779 32.5392 127.922 30.6254 127.922H29.6114V122.366H30.7397ZM45.0357 122.695C46.9066 122.709 48.2348 124.423 48.2491 127.122C48.2348 129.821 46.9066 131.535 45.0357 131.535C43.1505 131.535 41.8366 129.821 41.8366 127.122C41.8366 124.423 43.1505 122.709 45.0357 122.695ZM45.0357 123.695C43.7789 123.709 42.8935 125.051 42.8935 127.122C42.8935 129.193 43.7789 130.535 45.0357 130.535C46.3068 130.535 47.1637 129.193 47.1637 127.122C47.1637 125.051 46.3068 123.709 45.0357 123.695ZM51.4625 121.709V126.779H53.5905V127.751H51.4625V134.406H50.3485V121.709H51.4625ZM58.7891 125.123C58.7748 127.436 60.3601 129.779 62.231 130.621L61.5455 131.507C60.103 130.8 58.8534 129.307 58.2464 127.493C57.6537 129.414 56.404 131.014 54.9187 131.764L54.2046 130.821C56.0898 129.95 57.6608 127.536 57.6751 125.123V122.809H58.7891V125.123ZM64.7446 121.709V134.434H63.6163V121.709H64.7446ZM70.3145 122.695C72.1854 122.709 73.5136 124.423 73.5279 127.122C73.5136 129.821 72.1854 131.535 70.3145 131.535C68.4293 131.535 67.1154 129.821 67.1154 127.122C67.1154 124.423 68.4293 122.709 70.3145 122.695ZM70.3145 123.695C69.0577 123.709 68.1722 125.051 68.1722 127.122C68.1722 129.193 69.0577 130.535 70.3145 130.535C71.5856 130.535 72.4425 129.193 72.4425 127.122C72.4425 125.051 71.5856 123.709 70.3145 123.695ZM76.7413 121.709V126.779H78.8693V127.751H76.7413V134.406H75.6273V121.709H76.7413Z" fill="#414141"/>
<circle cx="3.65614" cy="157.561" r="3.65614" fill="#B0BEFF"/>
<path d="M26.854 151.022V163.718H25.7258V151.022H26.854ZM23.0979 152.407C23.0836 156.063 21.3841 159.291 17.1281 161.333L16.514 160.419C19.9488 158.791 21.6983 156.356 21.9554 153.321H17.0996V152.407H23.0979ZM35.5088 152.179V153.121H30.6816V155.749H35.2232V156.663H30.6816V159.734C32.9666 159.734 34.5733 159.641 36.48 159.32L36.6085 160.248C34.6233 160.576 32.9524 160.648 30.553 160.662H29.5533V152.179H35.5088ZM38.8222 151.022V156.135H40.9502V157.092H38.8222V163.718H37.7082V151.022H38.8222Z" fill="#414141"/>
<path d="M485.717 160.729C482.857 123.844 466.118 89.4152 438.875 64.3854C411.631 39.3556 375.91 25.5867 338.916 25.8554L339.234 69.7075C365.13 69.5194 390.135 79.1576 409.205 96.6785C428.276 114.199 439.993 138.3 441.995 164.119L485.717 160.729Z" fill="#0222B4"/>
<path d="M485.717 160.354C487.97 189.413 481.485 218.482 467.095 243.827C452.704 269.173 431.066 289.638 404.958 302.594L385.464 263.312C403.739 254.243 418.886 239.917 428.959 222.175C439.033 204.433 443.572 184.085 441.995 163.744L485.717 160.354Z" fill="#4D66DA"/>
<path d="M194.438 158.008C197.907 121.012 215.334 86.7265 243.177 62.1203L272.217 94.9804C252.727 112.205 240.528 136.205 238.1 162.102L194.438 158.008Z" fill="#B0BEFF"/>
<path d="M404.773 302.686C380.455 314.711 353.271 319.732 326.262 317.187C299.253 314.641 273.485 304.63 251.842 288.273L278.283 253.288C293.433 264.737 311.47 271.745 330.377 273.527C349.283 275.309 368.312 271.794 385.334 263.376L404.773 302.686Z" fill="#7389F1"/>
<path d="M252.622 288.859C232.012 273.497 215.816 252.972 205.669 229.353C195.523 205.735 191.784 179.858 194.83 154.334L238.374 159.53C236.242 177.397 238.859 195.511 245.962 212.044C253.064 228.577 264.401 242.944 278.829 253.697L252.622 288.859Z" fill="#96A8FF"/>
<path d="M242.605 62.6292C269.295 38.7913 303.802 25.5723 339.588 25.4771L339.705 69.3301C314.655 69.3968 290.5 78.6501 271.816 95.3366L242.605 62.6292Z" fill="#CAD3FF"/>
<path d="M498.257 155.675C495.267 117.285 477.771 81.4508 449.295 55.3995C420.82 29.3481 383.484 15.0173 344.815 15.297" stroke="#0222B4" stroke-width="4.35294" stroke-linecap="square"/>
<path d="M497.799 163.977C500.154 194.212 493.375 224.458 478.331 250.83C463.288 277.202 440.667 298.496 413.374 311.977" stroke="#4D66DA" stroke-width="4.35294"/>
<path d="M183.756 153.095C187.241 116.147 204.751 81.9047 232.726 57.3301" stroke="#B0BEFF" stroke-width="4.35294"/>
<path d="M409.02 313.775C383.064 326.172 354.048 331.348 325.219 328.724C296.39 326.1 268.886 315.78 245.785 298.918" stroke="#7389F1" stroke-width="4.35294"/>
<path d="M241.433 294.565C220.842 279.156 204.663 258.567 194.526 234.876C184.389 211.184 180.654 185.228 183.697 159.624" stroke="#96A8FF" stroke-width="4.35294"/>
<path d="M237.08 52.9769C264.633 28.5384 300.256 14.9863 337.198 14.8887" stroke="#CAD3FF" stroke-width="4.35294"/>
<path d="M297.492 165.027L297.466 162.247L304.098 156.151C305.832 154.494 306.75 153.473 306.75 152.02C306.75 150.387 305.501 149.367 303.817 149.367C302.083 149.367 300.961 150.464 300.961 152.224H297.313C297.288 148.602 299.966 146.306 303.868 146.306C307.822 146.306 310.449 148.551 310.449 151.764C310.449 153.856 309.428 155.59 305.628 159.034L302.823 161.763V161.865H310.704V165.027H297.492ZM320.6 165.282C315.983 165.282 313.178 161.839 313.178 155.794C313.178 149.75 315.983 146.306 320.6 146.306C325.216 146.306 328.022 149.775 328.022 155.794C328.022 161.865 325.216 165.282 320.6 165.282ZM320.6 162.12C322.742 162.12 324.12 160.054 324.094 155.794C324.094 151.586 322.742 149.443 320.6 149.443C318.457 149.443 317.106 151.586 317.106 155.794C317.08 160.054 318.457 162.12 320.6 162.12ZM330.675 165.027L330.649 162.247L337.281 156.151C339.015 154.494 339.933 153.473 339.933 152.02C339.933 150.387 338.683 149.367 337 149.367C335.266 149.367 334.143 150.464 334.143 152.224H330.496C330.471 148.602 333.149 146.306 337.051 146.306C341.004 146.306 343.631 148.551 343.631 151.764C343.631 153.856 342.611 155.59 338.811 159.034L336.005 161.763V161.865H343.886V165.027H330.675ZM345.901 161.763V158.727L353.706 146.561H358.527V158.676H360.873V161.763H358.527V165.027H354.879V161.763H345.901ZM349.778 158.676H354.93V150.77H354.752L349.778 158.523V158.676ZM382.17 144.189V161.253H378.931V153.652H373.167V151.101H378.931V149.316H373.167V146.765H378.931V144.189H382.17ZM382.731 164.364V166.966H366.739V159.722H370.004V164.364H382.731ZM367.122 145.643V155.565C369.966 155.539 372.618 155.348 375.513 154.825L375.845 157.452C372.376 158.115 369.239 158.243 365.77 158.243H363.908V145.643H367.122ZM294.521 177.847V179.301C294.521 180.908 294.521 183.229 293.985 186.111L290.797 185.805C291.205 183.573 291.307 181.89 291.332 180.5H282.584V177.847H294.521ZM288.756 183.203V187.641C291.065 187.552 293.437 187.374 295.617 187.055L295.796 189.401C290.975 190.294 285.517 190.37 281.487 190.396L281.207 187.794C282.507 187.794 283.974 187.794 285.517 187.743V183.203H288.756ZM300.208 176.164V183.229H303.014V185.958H300.208V193.533H296.867V176.164H300.208ZM300.922 196.364V198.966H284.624V191.977H287.889V196.364H300.922ZM317.144 177.439V178.944C317.118 180.449 317.118 182.515 316.583 185.04L313.395 184.81C313.764 182.859 313.854 181.341 313.879 180.041H305.156V177.439H317.144ZM311.329 182.617V186.621C313.65 186.545 316.009 186.392 318.19 186.136L318.368 188.406C313.548 189.248 308.242 189.376 304.06 189.376L303.779 186.774C305.105 186.761 306.559 186.761 308.089 186.723V182.617H311.329ZM322.781 176.164V181.877H325.612V184.581H322.781V190.319H319.439V176.164H322.781ZM314.874 190.6C319.847 190.6 322.934 192.258 322.934 194.91C322.934 197.716 319.847 199.323 314.874 199.323C309.9 199.323 306.789 197.716 306.789 194.91C306.789 192.258 309.9 190.6 314.874 190.6ZM314.874 193.099C311.813 193.099 310.104 193.737 310.104 194.91C310.104 196.237 311.813 196.798 314.874 196.798C317.909 196.798 319.592 196.237 319.592 194.91C319.592 193.737 317.909 193.099 314.874 193.099ZM346.603 176.189V189.784H343.517V184.173H341.425V189.682H338.364V176.597H341.425V181.52H343.517V176.189H346.603ZM346.603 190.676V199.374H343.364V193.304H330.407V190.676H346.603ZM336.783 177.771C336.783 183.611 333.978 187.539 327.933 189.937L326.402 187.514C330.777 185.907 332.97 183.509 333.467 180.372H327.525V177.771H336.783ZM373.97 177.184V178.995C373.97 180.704 373.97 182.668 373.511 185.167H376.495V187.769H367.466V191.11H373.996V199.374H370.731V193.661H357.392V191.11H364.202V187.769H355.249V185.167H370.221C370.654 182.999 370.718 181.29 370.731 179.76H357.851V177.184H373.97ZM396.134 176.164V185.065H399.425V187.743H396.134V199.323H392.87V176.164H396.134ZM389.937 178.536C389.911 185.473 387.208 191.493 379.403 195.318L377.566 192.819C383.063 190.064 386.009 186.366 386.621 181.188H378.893V178.536H389.937Z" fill="#414141"/>
<path d="M488.314 256.986V269.021H485.804V259.363H485.737L482.978 261.092V258.881L485.953 256.986H488.314ZM495.628 269.188C492.885 269.188 490.907 267.741 490.907 265.78C490.907 264.267 492.071 263.037 493.567 262.804V262.721C492.27 262.472 491.373 261.375 491.373 260.061C491.373 258.183 493.168 256.82 495.628 256.82C498.089 256.82 499.884 258.183 499.901 260.061C499.884 261.391 498.97 262.472 497.706 262.721V262.804C499.169 263.037 500.349 264.267 500.349 265.78C500.349 267.741 498.371 269.188 495.628 269.188ZM495.628 267.276C496.892 267.276 497.74 266.561 497.74 265.53C497.74 264.483 496.858 263.719 495.628 263.719C494.398 263.719 493.5 264.483 493.517 265.53C493.5 266.561 494.348 267.276 495.628 267.276ZM495.628 261.956C496.692 261.956 497.457 261.275 497.457 260.311C497.457 259.38 496.709 258.715 495.628 258.715C494.548 258.715 493.816 259.363 493.816 260.311C493.816 261.275 494.564 261.956 495.628 261.956ZM503.176 269.171C502.394 269.171 501.762 268.539 501.779 267.775C501.762 267.01 502.394 266.395 503.176 266.395C503.907 266.395 504.555 267.01 504.555 267.775C504.555 268.539 503.907 269.171 503.176 269.171ZM510.689 256.82C513.183 256.836 515.544 258.316 515.544 262.688C515.56 266.777 513.615 269.188 510.59 269.188C508.163 269.188 506.517 267.675 506.268 265.63H508.728C508.927 266.511 509.626 267.043 510.59 267.043C512.235 267.043 513.1 265.58 513.1 263.17H513C512.435 264.234 511.255 264.866 509.908 264.866C507.747 264.866 506.151 263.236 506.135 260.992C506.135 258.565 507.963 256.803 510.689 256.82ZM510.706 258.781C509.476 258.781 508.562 259.729 508.578 260.926C508.578 262.106 509.459 263.037 510.689 263.037C511.903 263.037 512.851 262.073 512.851 260.909C512.834 259.762 511.936 258.781 510.706 258.781ZM520.398 263.004C518.602 263.004 517.622 261.69 517.622 259.795C517.622 257.884 518.636 256.57 520.398 256.57C522.21 256.57 523.157 257.884 523.174 259.795C523.157 261.707 522.176 263.004 520.398 263.004ZM520.398 261.524C521.113 261.524 521.462 260.826 521.478 259.795C521.462 258.765 521.146 258.05 520.398 258.05C519.683 258.05 519.317 258.781 519.317 259.795C519.317 260.826 519.7 261.524 520.398 261.524ZM528.51 269.42C526.731 269.42 525.751 268.107 525.751 266.212C525.751 264.3 526.765 262.987 528.51 262.987C530.322 262.987 531.286 264.3 531.303 266.212C531.286 268.124 530.305 269.42 528.51 269.42ZM528.51 267.941C529.242 267.941 529.591 267.259 529.607 266.212C529.591 265.181 529.275 264.467 528.51 264.483C527.812 264.483 527.446 265.198 527.446 266.212C527.446 267.259 527.829 267.941 528.51 267.941ZM519.35 269.021L527.629 256.986H529.491L521.212 269.021H519.35Z" fill="#4D66DA"/>
<path d="M455.83 37.2344L455.814 35.4224L460.136 31.4493C461.266 30.3688 461.865 29.7038 461.865 28.7563C461.865 27.6923 461.05 27.0274 459.953 27.0274C458.823 27.0274 458.091 27.7422 458.091 28.8892H455.714C455.697 26.5287 457.443 25.0325 459.986 25.0325C462.563 25.0325 464.275 26.4954 464.275 28.59C464.275 29.9532 463.61 31.0836 461.133 33.3278L459.305 35.1065V35.173H464.441V37.2344H455.83ZM470.675 37.4006C468.032 37.4006 466.137 35.9377 466.087 33.8431H468.614C468.664 34.7408 469.528 35.3393 470.692 35.3393C471.889 35.3393 472.753 34.6577 472.737 33.6935C472.753 32.7127 471.872 32.0145 470.459 32.0145H469.345V30.1693H470.459C471.64 30.1693 472.471 29.5209 472.471 28.5734C472.471 27.6591 471.773 27.0274 470.709 27.0274C469.645 27.0274 468.764 27.6258 468.73 28.5401H466.337C466.37 26.4622 468.248 25.0325 470.709 25.0325C473.219 25.0325 474.898 26.512 474.881 28.4238C474.898 29.7703 473.95 30.7345 472.604 30.9672V31.067C474.366 31.2831 475.347 32.3636 475.33 33.8597C475.347 35.9211 473.385 37.4006 470.675 37.4006ZM478.206 37.384C477.425 37.384 476.793 36.7523 476.81 35.9876C476.793 35.2229 477.425 34.6078 478.206 34.6078C478.937 34.6078 479.586 35.2229 479.586 35.9876C479.586 36.7523 478.937 37.384 478.206 37.384ZM485.72 25.0325C488.213 25.0492 490.574 26.5287 490.574 30.9007C490.591 34.9902 488.646 37.4006 485.62 37.4006C483.193 37.4006 481.547 35.8878 481.298 33.8431H483.758C483.958 34.7242 484.656 35.2561 485.62 35.2561C487.266 35.2561 488.13 33.7933 488.13 31.3828H488.031C487.465 32.4467 486.285 33.0784 484.939 33.0784C482.777 33.0784 481.182 31.4493 481.165 29.2051C481.165 26.778 482.994 25.0159 485.72 25.0325ZM485.737 26.9941C484.506 26.9941 483.592 27.9417 483.609 29.1386C483.609 30.3189 484.49 31.2498 485.72 31.2498C486.933 31.2498 487.881 30.2856 487.881 29.122C487.864 27.9749 486.967 26.9941 485.737 26.9941ZM495.428 31.2166C493.633 31.2166 492.652 29.9033 492.652 28.0082C492.652 26.0964 493.666 24.7832 495.428 24.7832C497.24 24.7832 498.188 26.0964 498.204 28.0082C498.188 29.9199 497.207 31.2166 495.428 31.2166ZM495.428 29.7371C496.143 29.7371 496.492 29.0389 496.509 28.0082C496.492 26.9775 496.176 26.2627 495.428 26.2627C494.713 26.2627 494.348 26.9941 494.348 28.0082C494.348 29.0389 494.73 29.7371 495.428 29.7371ZM503.541 37.6333C501.762 37.6333 500.781 36.3201 500.781 34.425C500.781 32.5132 501.795 31.1999 503.541 31.1999C505.353 31.1999 506.317 32.5132 506.333 34.425C506.317 36.3367 505.336 37.6333 503.541 37.6333ZM503.541 36.1538C504.272 36.1538 504.621 35.4723 504.638 34.425C504.621 33.3943 504.305 32.6795 503.541 32.6961C502.842 32.6961 502.477 33.4109 502.477 34.425C502.477 35.4723 502.859 36.1538 503.541 36.1538ZM494.381 37.2344L502.66 25.1988H504.521L496.243 37.2344H494.381Z" fill="#4D66DA"/>
<path d="M156.37 254.858V266.894H153.86V257.235H153.794L151.034 258.964V256.753L154.01 254.858H156.37ZM163.818 267.06C161.324 267.043 158.964 265.564 158.964 261.158C158.964 257.102 160.909 254.692 163.918 254.692C166.345 254.692 167.991 256.221 168.24 258.199H165.78C165.58 257.352 164.882 256.836 163.918 256.836C162.289 256.836 161.424 258.316 161.408 260.676H161.524C162.072 259.612 163.269 258.981 164.599 258.981C166.76 258.981 168.373 260.61 168.373 262.871C168.373 265.314 166.528 267.076 163.818 267.06ZM163.801 265.082C165.031 265.082 165.946 264.151 165.946 262.937C165.946 261.74 165.065 260.793 163.835 260.793C162.604 260.793 161.673 261.757 161.657 262.937C161.673 264.117 162.571 265.082 163.801 265.082ZM171.066 267.043C170.285 267.043 169.653 266.411 169.67 265.647C169.653 264.882 170.285 264.267 171.066 264.267C171.797 264.267 172.446 264.882 172.446 265.647C172.446 266.411 171.797 267.043 171.066 267.043ZM174.208 264.766V262.787L179.295 254.858H182.437V262.754H183.966V264.766H182.437V266.894H180.059V264.766H174.208ZM176.735 262.754H180.093V257.601H179.976L176.735 262.654V262.754ZM188.754 260.876C186.958 260.876 185.977 259.562 185.977 257.667C185.977 255.756 186.991 254.442 188.754 254.442C190.566 254.442 191.513 255.756 191.53 257.667C191.513 259.579 190.532 260.876 188.754 260.876ZM188.754 259.396C189.468 259.396 189.818 258.698 189.834 257.667C189.818 256.637 189.502 255.922 188.754 255.922C188.039 255.922 187.673 256.653 187.673 257.667C187.673 258.698 188.055 259.396 188.754 259.396ZM196.866 267.293C195.087 267.293 194.106 265.979 194.106 264.084C194.106 262.172 195.121 260.859 196.866 260.859C198.678 260.859 199.642 262.172 199.659 264.084C199.642 265.996 198.661 267.293 196.866 267.293ZM196.866 265.813C197.597 265.813 197.947 265.131 197.963 264.084C197.947 263.053 197.631 262.339 196.866 262.355C196.168 262.355 195.802 263.07 195.802 264.084C195.802 265.131 196.184 265.813 196.866 265.813ZM187.706 266.894L195.985 254.858H197.847L189.568 266.894H187.706Z" fill="#96A8FF"/>
<path d="M153.178 86.7593V98.7949H150.668V89.1365H150.601L147.842 90.8654V88.6544L150.818 86.7593H153.178ZM155.971 98.7949L155.954 96.9829L160.276 93.0099C161.407 91.9293 162.005 91.2644 162.005 90.3168C162.005 89.2529 161.191 88.5879 160.094 88.5879C158.963 88.5879 158.232 89.3027 158.232 90.4498H155.855C155.838 88.0892 157.583 86.5931 160.127 86.5931C162.704 86.5931 164.416 88.056 164.416 90.1506C164.416 91.5137 163.751 92.6441 161.274 94.8883L159.445 96.6671V96.7336H164.582V98.7949H155.971ZM167.824 98.9445C167.042 98.9445 166.411 98.3128 166.427 97.5481C166.411 96.7834 167.042 96.1684 167.824 96.1684C168.555 96.1684 169.203 96.7834 169.203 97.5481C169.203 98.3128 168.555 98.9445 167.824 98.9445ZM175.238 98.9612C172.595 98.9612 170.7 97.4983 170.65 95.4037H173.177C173.226 96.3014 174.091 96.8998 175.254 96.8998C176.451 96.8998 177.316 96.2182 177.299 95.2541C177.316 94.2733 176.435 93.5751 175.022 93.5751H173.908V91.7298H175.022C176.202 91.7298 177.033 91.0815 177.033 90.1339C177.033 89.2196 176.335 88.5879 175.271 88.5879C174.207 88.5879 173.326 89.1864 173.293 90.1007H170.899C170.932 88.0227 172.811 86.5931 175.271 86.5931C177.781 86.5931 179.46 88.0726 179.444 89.9843C179.46 91.3308 178.513 92.295 177.166 92.5278V92.6275C178.928 92.8436 179.909 93.9242 179.893 95.4203C179.909 97.4816 177.948 98.9612 175.238 98.9612ZM184.813 92.7771C183.018 92.7771 182.037 91.4638 182.037 89.5687C182.037 87.657 183.051 86.3437 184.813 86.3437C186.625 86.3437 187.573 87.657 187.589 89.5687C187.573 91.4805 186.592 92.7771 184.813 92.7771ZM184.813 91.2976C185.528 91.2976 185.877 90.5994 185.894 89.5687C185.877 88.5381 185.561 87.8232 184.813 87.8232C184.098 87.8232 183.733 88.5547 183.733 89.5687C183.733 90.5994 184.115 91.2976 184.813 91.2976ZM192.926 99.1939C191.147 99.1939 190.166 97.8806 190.166 95.9855C190.166 94.0738 191.18 92.7605 192.926 92.7605C194.738 92.7605 195.702 94.0738 195.718 95.9855C195.702 97.8972 194.721 99.1939 192.926 99.1939ZM192.926 97.7144C193.657 97.7144 194.006 97.0328 194.023 95.9855C194.006 94.9548 193.69 94.24 192.926 94.2566C192.227 94.2566 191.862 94.9715 191.862 95.9855C191.862 97.0328 192.244 97.7144 192.926 97.7144ZM183.766 98.7949L192.044 86.7593H193.906L185.628 98.7949H183.766Z" fill="#B0BEFF"/>
<path d="M251.059 6.96439V19H248.549V9.34159H248.482L245.723 11.0705V8.8595L248.698 6.96439H251.059ZM259.038 6.96439V19H256.528V9.34159H256.462L253.702 11.0705V8.8595L256.678 6.96439H259.038ZM262.646 19.1496C261.864 19.1496 261.233 18.5179 261.249 17.7532C261.233 16.9885 261.864 16.3734 262.646 16.3734C263.377 16.3734 264.026 16.9885 264.026 17.7532C264.026 18.5179 263.377 19.1496 262.646 19.1496ZM270.06 19.1662C267.417 19.1662 265.522 17.7033 265.472 15.6088H267.999C268.048 16.5064 268.913 17.1049 270.077 17.1049C271.273 17.1049 272.138 16.4233 272.121 15.4591C272.138 14.4783 271.257 13.7801 269.844 13.7801H268.73V11.9349H269.844C271.024 11.9349 271.855 11.2866 271.855 10.339C271.855 9.42471 271.157 8.79301 270.093 8.79301C269.029 8.79301 268.148 9.39146 268.115 10.3058H265.721C265.754 8.2278 267.633 6.79815 270.093 6.79815C272.603 6.79815 274.282 8.27767 274.266 10.1894C274.282 11.5359 273.335 12.5001 271.988 12.7328V12.8326C273.75 13.0487 274.731 14.1292 274.715 15.6254C274.731 17.6867 272.77 19.1662 270.06 19.1662ZM279.635 12.9822C277.84 12.9822 276.859 11.6689 276.859 9.77381C276.859 7.86207 277.873 6.5488 279.635 6.5488C281.447 6.5488 282.395 7.86207 282.411 9.77381C282.395 11.6855 281.414 12.9822 279.635 12.9822ZM279.635 11.5027C280.35 11.5027 280.699 10.8045 280.716 9.77381C280.699 8.74313 280.383 8.02831 279.635 8.02831C278.92 8.02831 278.555 8.75976 278.555 9.77381C278.555 10.8045 278.937 11.5027 279.635 11.5027ZM287.748 19.399C285.969 19.399 284.988 18.0857 284.988 16.1906C284.988 14.2788 286.002 12.9656 287.748 12.9656C289.56 12.9656 290.524 14.2788 290.54 16.1906C290.524 18.1023 289.543 19.399 287.748 19.399ZM287.748 17.9195C288.479 17.9195 288.828 17.2379 288.845 16.1906C288.828 15.1599 288.512 14.4451 287.748 14.4617C287.049 14.4617 286.684 15.1765 286.684 16.1906C286.684 17.2379 287.066 17.9195 287.748 17.9195ZM278.588 19L286.867 6.96439H288.728L280.45 19H278.588Z" fill="#C9D3FF"/>
<path d="M317.021 338.908V350.943H314.511V341.285H314.444L311.685 343.014V340.803L314.66 338.908H317.021ZM320.279 350.943L325.349 341.036V340.952H319.448V338.908H327.943V340.986L322.872 350.943H320.279ZM328.99 351.093C328.209 351.093 327.577 350.461 327.594 349.697C327.577 348.932 328.209 348.317 328.99 348.317C329.721 348.317 330.37 348.932 330.37 349.697C330.37 350.461 329.721 351.093 328.99 351.093ZM332.331 350.943L332.315 349.131L336.637 345.158C337.767 344.078 338.366 343.413 338.366 342.465C338.366 341.401 337.551 340.736 336.454 340.736C335.324 340.736 334.592 341.451 334.592 342.598H332.215C332.198 340.238 333.944 338.742 336.487 338.742C339.064 338.742 340.776 340.204 340.776 342.299C340.776 343.662 340.111 344.793 337.634 347.037L335.806 348.816V348.882H340.942V350.943H332.331ZM345.88 344.926C344.084 344.926 343.104 343.612 343.104 341.717C343.104 339.805 344.118 338.492 345.88 338.492C347.692 338.492 348.639 339.805 348.656 341.717C348.639 343.629 347.658 344.926 345.88 344.926ZM345.88 343.446C346.595 343.446 346.944 342.748 346.96 341.717C346.944 340.686 346.628 339.972 345.88 339.972C345.165 339.972 344.799 340.703 344.799 341.717C344.799 342.748 345.182 343.446 345.88 343.446ZM353.992 351.342C352.213 351.342 351.233 350.029 351.233 348.134C351.233 346.222 352.247 344.909 353.992 344.909C355.804 344.909 356.768 346.222 356.785 348.134C356.768 350.046 355.788 351.342 353.992 351.342ZM353.992 349.863C354.724 349.863 355.073 349.181 355.089 348.134C355.073 347.103 354.757 346.388 353.992 346.405C353.294 346.405 352.928 347.12 352.928 348.134C352.928 349.181 353.311 349.863 353.992 349.863ZM344.832 350.943L353.111 338.908H354.973L346.694 350.943H344.832Z" fill="#7389F1"/>
<path opacity="0.5" d="M2.87411 388.249C2.87411 386.727 4.10775 385.506 5.63011 385.506C6.94249 385.506 8.04489 386.425 8.22863 387.659H7.08685C6.95562 387.029 6.32567 386.582 5.63011 386.582C4.71145 386.582 3.96339 387.331 3.96339 388.249C3.96339 389.168 4.71145 389.916 5.63011 389.916C6.32567 389.916 6.86375 389.47 6.99499 388.84H8.12364C7.95303 390.073 6.94249 390.992 5.63011 390.992C4.10775 390.992 2.87411 389.772 2.87411 388.249ZM5.57762 393.144C2.88724 393.144 0.669314 390.953 0.682438 388.249C0.682438 385.533 2.88724 383.354 5.57762 383.354C8.29424 383.354 10.4728 385.533 10.4728 388.249C10.4859 390.953 8.29424 393.144 5.57762 393.144ZM5.57762 392.055C7.69055 392.055 9.39664 390.349 9.38352 388.249C9.3704 386.136 7.67743 384.443 5.57762 384.443C3.49093 384.443 1.78484 386.149 1.77171 388.249C1.75859 390.336 3.47781 392.055 5.57762 392.055ZM19.2133 383.498H20.4075V390.283C20.4075 392.108 19.3314 393.131 17.6778 393.131C16.1029 393.131 14.9611 392.226 14.9611 390.756H16.1292C16.1292 391.556 16.7853 392.081 17.6778 392.081C18.6621 392.081 19.2133 391.465 19.2133 390.283V383.498ZM22.9273 393H21.6936L25.1715 383.498H26.4182L29.896 393H28.6493L27.7044 390.323H23.8853L22.9273 393ZM24.2397 389.286H27.3369L25.8276 385.034H25.7489L24.2397 389.286ZM31.1822 393V383.498H34.4106C36.6417 383.498 37.6522 384.824 37.6522 386.517C37.6522 388.197 36.6417 389.548 34.4237 389.548H32.3633V393H31.1822ZM32.3633 388.499H34.3712C35.8805 388.499 36.4842 387.645 36.4842 386.517C36.4842 385.375 35.8805 384.548 34.3581 384.548H32.3633V388.499ZM38.7546 393H37.521L40.9988 383.498H42.2455L45.7233 393H44.4766L43.5317 390.323H39.7126L38.7546 393ZM40.067 389.286H43.1642L41.655 385.034H41.5762L40.067 389.286ZM54.5557 383.498V393H53.427L48.2825 385.598H48.1906V393H47.0095V383.498H48.1512L53.2958 390.913H53.3876V383.498H54.5557ZM67.5745 383.498V393H66.4458L61.3013 385.598H61.2094V393H60.0283V383.498H61.1701L66.3146 390.913H66.4065V383.498H67.5745ZM70.0942 393H68.8606L72.3384 383.498H73.5852L77.063 393H75.8162L74.8713 390.323H71.0523L70.0942 393ZM71.4066 389.286H74.5038L72.9946 385.034H72.9159L71.4066 389.286ZM76.7086 384.548V383.498H83.8742V384.548H80.8951V393H79.7009V384.548H76.7086ZM86.6302 383.498V393H85.4491V383.498H86.6302ZM96.7618 388.249C96.7618 391.255 94.9901 393.131 92.5622 393.131C90.1212 393.131 88.3626 391.255 88.3626 388.249C88.3626 385.244 90.1212 383.367 92.5622 383.367C94.9901 383.367 96.7618 385.244 96.7618 388.249ZM95.62 388.249C95.62 385.795 94.2814 384.47 92.5622 384.47C90.843 384.47 89.5043 385.795 89.5043 388.249C89.5043 390.703 90.843 392.029 92.5622 392.029C94.2814 392.029 95.62 390.703 95.62 388.249ZM106.04 383.498V393H104.912L99.7672 385.598H99.6753V393H98.4942V383.498H99.6359L104.78 390.913H104.872V383.498H106.04ZM108.56 393H107.326L110.804 383.498H112.051L115.529 393H114.282L113.337 390.323H109.518L108.56 393ZM109.872 389.286H112.97L111.46 385.034H111.382L109.872 389.286ZM116.815 393V383.498H117.996V391.95H122.406V393H116.815ZM126.828 384.548V383.498H133.994V384.548H131.015V393H129.821V384.548H126.828ZM143.207 388.249C143.207 391.255 141.435 393.131 139.007 393.131C136.566 393.131 134.808 391.255 134.808 388.249C134.808 385.244 136.566 383.367 139.007 383.367C141.435 383.367 143.207 385.244 143.207 388.249ZM142.065 388.249C142.065 385.795 140.727 384.47 139.007 384.47C137.288 384.47 135.949 385.795 135.949 388.249C135.949 390.703 137.288 392.029 139.007 392.029C140.727 392.029 142.065 390.703 142.065 388.249ZM151.16 383.498H152.341V389.785C152.341 391.74 150.884 393.171 148.64 393.171C146.396 393.171 144.939 391.74 144.939 389.785V383.498H146.12V389.693C146.12 391.071 147.078 392.068 148.64 392.068C150.215 392.068 151.16 391.071 151.16 389.693V383.498ZM154.441 393V383.498H157.669C159.9 383.498 160.911 384.732 160.911 386.425C160.911 387.678 160.347 388.669 159.139 389.089L161.278 393H159.9L157.919 389.299L157.683 389.312H155.622V393H154.441ZM155.622 388.236H157.63C159.139 388.236 159.743 387.554 159.743 386.425C159.743 385.283 159.139 384.548 157.617 384.548H155.622V388.236ZM163.798 383.498V393H162.617V383.498H163.798ZM171.082 385.887C170.977 384.955 170.124 384.417 168.982 384.417C167.722 384.417 166.895 385.073 166.895 385.979C166.895 386.976 168.011 387.344 168.733 387.527L169.678 387.79C170.701 388.052 172.368 388.643 172.368 390.415C172.368 391.963 171.121 393.171 168.916 393.171C166.869 393.171 165.596 392.108 165.491 390.533H166.699C166.804 391.596 167.788 392.094 168.916 392.094C170.229 392.094 171.213 391.425 171.213 390.388C171.213 389.47 170.334 389.115 169.336 388.827L168.168 388.512C166.672 388.079 165.754 387.317 165.754 386.031C165.754 384.43 167.184 383.367 169.021 383.367C170.859 383.367 172.184 384.443 172.237 385.887H171.082ZM174.061 383.498H175.478L178.681 391.32H178.799L182.001 383.498H183.418V393H182.303V385.821H182.211L179.258 393H178.208L175.255 385.821H175.177V393H174.061V383.498ZM196.923 388.249C196.923 391.255 195.151 393.131 192.723 393.131C190.282 393.131 188.523 391.255 188.523 388.249C188.523 385.244 190.282 383.367 192.723 383.367C195.151 383.367 196.923 385.244 196.923 388.249ZM195.781 388.249C195.781 385.795 194.442 384.47 192.723 384.47C191.004 384.47 189.665 385.795 189.665 388.249C189.665 390.703 191.004 392.029 192.723 392.029C194.442 392.029 195.781 390.703 195.781 388.249ZM198.655 393V383.498H201.883C204.115 383.498 205.125 384.732 205.125 386.425C205.125 387.678 204.561 388.669 203.353 389.089L205.493 393H204.115L202.133 389.299L201.897 389.312H199.836V393H198.655ZM199.836 388.236H201.844C203.353 388.236 203.957 387.554 203.957 386.425C203.957 385.283 203.353 384.548 201.831 384.548H199.836V388.236ZM213.314 386.464C212.907 385.244 211.976 384.47 210.624 384.47C208.944 384.47 207.605 385.795 207.605 388.249C207.605 390.703 208.944 392.029 210.703 392.029C212.31 392.029 213.406 390.953 213.432 389.273H210.952V388.236H214.587V389.26C214.587 391.622 212.96 393.131 210.703 393.131C208.17 393.131 206.464 391.255 206.464 388.249C206.464 385.244 208.183 383.367 210.624 383.367C212.632 383.367 214.181 384.627 214.535 386.464H213.314ZM216.477 393H215.244L218.721 383.498H219.968L223.446 393H222.199L221.254 390.323H217.435L216.477 393ZM217.79 389.286H220.887L219.378 385.034H219.299L217.79 389.286ZM232.278 383.498V393H231.15L226.005 385.598H225.913V393H224.732V383.498H225.874L231.018 390.913H231.11V383.498H232.278ZM235.559 383.498V393H234.378V383.498H235.559ZM237.344 393V392.147L242.449 384.548H237.292V383.498H243.867V384.351L238.761 391.95H243.919V393H237.344ZM246.071 393H244.838L248.316 383.498H249.562L253.04 393H251.793L250.848 390.323H247.029L246.071 393ZM247.384 389.286H250.481L248.972 385.034H248.893L247.384 389.286ZM252.686 384.548V383.498H259.851V384.548H256.872V393H255.678V384.548H252.686ZM262.607 383.498V393H261.426V383.498H262.607ZM272.739 388.249C272.739 391.255 270.967 393.131 268.539 393.131C266.098 393.131 264.34 391.255 264.34 388.249C264.34 385.244 266.098 383.367 268.539 383.367C270.967 383.367 272.739 385.244 272.739 388.249ZM271.597 388.249C271.597 385.795 270.259 384.47 268.539 384.47C266.82 384.47 265.481 385.795 265.481 388.249C265.481 390.703 266.82 392.029 268.539 392.029C270.259 392.029 271.597 390.703 271.597 388.249ZM282.017 383.498V393H280.889L275.744 385.598H275.652V393H274.471V383.498H275.613L280.758 390.913H280.849V383.498H282.017Z" fill="#414141"/>
</svg>
