<svg width="371" height="179" viewBox="0 0 371 179" fill="none" xmlns="http://www.w3.org/2000/svg">
<path d="M222.478 5.04834V19.6382H219.687V12.4751H216.413V10.2119H219.687V5.04834H222.478ZM222.961 22.4287V24.6699H209.206V18.3638H212.019V22.4287H222.961ZM213.183 8.95947C213.183 11.2666 214.589 13.7495 217.775 14.7822L216.391 17.0015C214.172 16.2874 212.656 14.8262 211.777 13.0024C210.898 15.0239 209.305 16.6279 206.943 17.4189L205.515 15.1338C208.811 14.1011 210.305 11.4863 210.327 8.9375V8.62988H206.306V6.38867H217.16V8.62988H213.183V8.95947ZM243.352 14.9141V17.1333H235.815V20.583H233.046V17.1333H225.048V14.9141H243.352ZM241 5.90527V13.2661H227.333V5.90527H241ZM230.08 8.08057V11.0908H238.254V8.08057H230.08ZM241.33 22.4287V24.6699H227.202V18.8472H229.992V22.4287H241.33ZM260.292 5.02637V12.6948H263.127V15.002H260.292V24.9775H257.48V5.02637H260.292ZM254.953 7.06982C254.931 13.0464 252.602 18.2319 245.878 21.5278L244.296 19.3745C249.031 17.0015 251.569 13.8154 252.097 9.35498H245.439V7.06982H254.953ZM287.429 15.2876V17.4849H279.892V20.7148H277.124V17.4849H269.125V15.2876H287.429ZM285.407 22.4287V24.6699H271.279V19.1328H274.047V22.4287H285.407ZM274.245 5.66357V7.75098H282.265V5.66357H285.056V13.8813H271.477V5.66357H274.245ZM274.245 11.6621H282.265V9.83838H274.245V11.6621ZM296.086 8.14648C296.064 10.6294 297.47 13.0464 300.634 14.0571L299.14 16.2764C296.987 15.5513 295.526 14.1121 294.68 12.2993C293.79 14.2769 292.241 15.8259 289.978 16.6279L288.461 14.3867C291.801 13.3101 293.229 10.6953 293.251 7.9707V6.05908H296.086V8.14648ZM305.446 17.8364V25.0215H302.656V20.0557H291.713V17.8364H305.446ZM305.446 5.02637V16.9355H302.656V11.0469H298.898V8.73975H302.656V5.02637H305.446ZM330.561 5.02637V25.0215H327.858V5.02637H330.561ZM326.32 5.37793V24.1206H323.706V14.6064H320.124V12.3213H323.706V5.37793H326.32ZM321.486 7.28955V9.53076H316.586V18.2319C318.729 18.2209 320.344 18.1111 322.211 17.7266L322.431 20.0117C320.168 20.4731 318.146 20.561 315.224 20.561H313.84V7.28955H321.486ZM349.414 5.02637V25.0654H346.579V5.02637H349.414ZM338.559 6.43262C341.569 6.43262 343.811 9.20117 343.811 13.5518C343.811 17.9463 341.569 20.6929 338.559 20.6929C335.483 20.6929 333.242 17.9463 333.264 13.5518C333.242 9.20117 335.483 6.43262 338.559 6.43262ZM338.559 8.95947C336.999 8.95947 335.966 10.5854 335.966 13.5518C335.966 16.54 336.999 18.144 338.559 18.144C340.075 18.144 341.108 16.54 341.108 13.5518C341.108 10.5854 340.075 8.95947 338.559 8.95947ZM368.991 5.02637V25.0654H366.223V14.3428H362.707V12.0796H366.223V5.02637H368.991ZM362.377 6.69629V8.95947H355.83V12.2773H361.652V14.4746H355.83V18.2539C358.598 18.2319 360.817 18.1331 363.3 17.7485L363.586 19.9897C360.664 20.4292 358.049 20.5391 354.621 20.5391H353.039V6.69629H362.377Z" fill="white"/>
<g opacity="0.9">
<path d="M151.9 177.224L5.36293 119.348C4.50389 119.009 3.93945 118.179 3.93945 117.255V113.005C3.93945 111.762 4.94681 110.755 6.18945 110.755H307.602C308.844 110.755 309.852 111.762 309.852 113.005V117.243C309.852 118.173 309.28 119.007 308.412 119.342L158.448 177.249C156.34 178.063 154.002 178.054 151.9 177.224Z" fill="#5F75DA"/>
<path opacity="0.6" d="M308.416 119.343L157.75 177.806C156.87 178.147 155.922 177.498 155.922 176.554V170.082C155.922 169.145 156.503 168.305 157.381 167.976L306.812 111.896C308.283 111.344 309.852 112.431 309.852 114.003V117.245C309.852 118.174 309.282 119.007 308.416 119.343Z" fill="#254598"/>
<path d="M5.52973 108.592C55.5827 89.7718 145.057 56.0911 154.692 52.3176C155.236 52.1047 155.789 52.1135 156.337 52.3165L308.065 108.58C310.016 109.303 310.024 112.06 308.077 112.795L157.619 169.54C156.243 170.059 154.725 170.055 153.352 169.528L5.52975 112.794C3.59762 112.052 3.5926 109.321 5.52973 108.592Z" fill="url(#paint0_linear_711_297)" stroke="url(#paint1_linear_711_297)" stroke-opacity="0.3" stroke-width="0.75"/>
</g>
<path d="M130.719 98.3281V109.133H127.742V98.3281H130.719ZM130.742 110.047V115.836H119.398V117.148H131.328V119.516H116.469V113.609H127.766V112.367H116.422V110.047H130.742ZM121.062 100.438C121.039 103.016 122.586 105.5 126.078 106.508L124.625 108.805C122.176 108.09 120.488 106.613 119.539 104.727C118.555 106.789 116.809 108.43 114.266 109.18L112.789 106.836C116.352 105.781 117.945 103.086 117.945 100.438V98.7969H121.062V100.438ZM151.602 98.3516V113.914H148.625V106.273H145.133V103.859H148.625V98.3516H151.602ZM152.117 116.891V119.281H137.445V112.555H140.445V116.891H152.117ZM141.688 102.523C141.688 104.984 143.188 107.633 146.586 108.734L145.109 111.102C142.742 110.34 141.125 108.781 140.188 106.836C139.25 108.992 137.551 110.703 135.031 111.547L133.508 109.109C137.023 108.008 138.617 105.219 138.641 102.5V102.172H134.352V99.7812H145.93V102.172H141.688V102.523ZM177.875 98.3516V110.633H174.898V108.547H170.094V106.156H174.898V104.117H170.305C168.98 107.492 165.957 109.812 161.258 111.102L160.086 108.734C164.996 107.445 167.398 105.102 167.82 102.172H161.234V99.7812H171.078C171.078 100.473 171.031 101.141 170.938 101.773H174.898V98.3516H177.875ZM170.773 110.891C175.109 110.891 178.016 112.555 178.039 115.203C178.016 117.875 175.109 119.562 170.773 119.562C166.391 119.562 163.461 117.875 163.484 115.203C163.461 112.555 166.391 110.891 170.773 110.891ZM170.773 113.234C168.078 113.211 166.461 113.891 166.461 115.203C166.461 116.516 168.078 117.195 170.773 117.195C173.422 117.195 175.039 116.516 175.039 115.203C175.039 113.891 173.422 113.211 170.773 113.234ZM198.617 98.3281V111.219H195.641V107.023H192.875V104.586H195.641V98.3281H198.617ZM198.617 112.133V119.422H184.273V112.133H198.617ZM187.273 114.477V117.031H195.688V114.477H187.273ZM193.25 100.18V102.57H180.688V100.18H185.516V98.1406H188.469V100.18H193.25ZM186.992 103.273C189.992 103.273 192.102 104.867 192.102 107.094C192.102 109.414 189.992 110.961 186.992 110.961C184.016 110.961 181.859 109.414 181.859 107.094C181.859 104.867 184.016 103.273 186.992 103.273ZM186.992 105.523C185.609 105.523 184.719 106.086 184.742 107.094C184.719 108.172 185.609 108.758 186.992 108.758C188.352 108.758 189.242 108.172 189.242 107.094C189.242 106.086 188.352 105.523 186.992 105.523Z" fill="white"/>
<circle cx="5.84546" cy="5.84546" r="5.47046" transform="matrix(1 0 0 -1 251.397 112.621)" fill="#ABC5EF" stroke="#ABC5EF" stroke-width="0.75"/>
<path d="M257.75 107H359C360.243 107 361.25 105.993 361.25 104.75L361.25 45.5" stroke="#ABC5EF" stroke-dasharray="1.5 1.5"/>
<defs>
<linearGradient id="paint0_linear_711_297" x1="156.853" y1="52" x2="156.853" y2="170.346" gradientUnits="userSpaceOnUse">
<stop stop-color="#001B94"/>
<stop offset="1" stop-color="#254598"/>
</linearGradient>
<linearGradient id="paint1_linear_711_297" x1="156.853" y1="52" x2="156.853" y2="170.346" gradientUnits="userSpaceOnUse">
<stop stop-color="white" stop-opacity="0.6"/>
<stop offset="1" stop-color="white"/>
</linearGradient>
</defs>
</svg>
