<svg width="411" height="131" viewBox="0 0 411 131" fill="none" xmlns="http://www.w3.org/2000/svg">
<path d="M7.96973 110.553C7.94775 114.134 9.48584 117.76 12.6938 119.298L11.002 121.539C8.85962 120.484 7.42041 118.507 6.58545 116.09C5.71753 118.683 4.16846 120.803 1.90527 121.913L0.169434 119.649C3.55322 118.089 5.15723 114.266 5.15723 110.553V107.564H7.96973V110.553ZM16.3853 106.026V113.739H19.3296V116.112H16.3853V126.021H13.5728V106.026H16.3853ZM23.7241 107.037V109.608H27.6572V107.037H30.4258V110.597H34.1172V106.026H36.9077V116.969H34.1172V112.882H30.4258V116.397H20.9116V107.037H23.7241ZM23.7241 114.156H27.6572V111.761H23.7241V114.156ZM26.3389 117.804V119.649H34.1172V117.804H36.9077V125.758H23.5703V117.804H26.3389ZM26.3389 123.517H34.1172V121.803H26.3389V123.517ZM52.2446 110.553C52.2446 114.31 53.7607 117.958 57.1006 119.408L55.3867 121.649C53.1675 120.561 51.6843 118.573 50.8604 116.112C49.9814 118.727 48.4434 120.869 46.1582 122L44.4004 119.715C47.8281 118.177 49.3882 114.31 49.4102 110.553V107.564H52.2446V110.553ZM61.561 106.026V126.065H58.7925V114.574H54.8594V112.311H58.7925V106.026H61.561ZM71.4927 110.553C71.4707 114.134 73.0088 117.76 76.2168 119.298L74.5249 121.539C72.3826 120.484 70.9434 118.507 70.1084 116.09C69.2405 118.683 67.6914 120.803 65.4282 121.913L63.6924 119.649C67.0762 118.089 68.6802 114.266 68.6802 110.553V107.564H71.4927V110.553ZM79.9082 106.026V113.739H82.8525V116.112H79.9082V126.021H77.0957V106.026H79.9082Z" fill="white"/>
<g opacity="0.6">
<path d="M248.857 125.758L102.32 67.8821C101.461 67.5428 100.896 66.713 100.896 65.7894V61.5391C100.896 60.2964 101.904 59.2891 103.146 59.2891H404.559C405.801 59.2891 406.809 60.2964 406.809 61.5391V65.7768C406.809 66.7067 406.237 67.5408 405.369 67.8758L255.405 125.783C253.297 126.597 250.959 126.588 248.857 125.758Z" fill="#5F75DA"/>
<path opacity="0.6" d="M405.374 67.8771L254.708 126.34C253.828 126.681 252.88 126.032 252.88 125.088V118.616C252.88 117.679 253.461 116.839 254.339 116.51L403.77 60.4302C405.241 59.8781 406.81 60.9655 406.81 62.5367V65.7795C406.81 66.7081 406.24 67.5412 405.374 67.8771Z" fill="#254598"/>
<path d="M102.53 57.5925C152.583 38.7718 242.057 5.09107 251.692 1.31761C252.236 1.10466 252.789 1.11351 253.337 1.31654L405.065 57.5798C407.016 58.3033 407.024 61.0603 405.077 61.7947L254.619 118.54C253.243 119.059 251.725 119.055 250.352 118.528L102.53 61.7939C100.598 61.0523 100.593 58.3208 102.53 57.5925Z" fill="url(#paint0_linear_722_511)" stroke="url(#paint1_linear_722_511)" stroke-opacity="0.3" stroke-width="0.75"/>
</g>
<path d="M125 57L24.25 57C23.0074 57 22 58.0074 22 59.25L22 93" stroke="#ABC5EF" stroke-dasharray="1.5 1.5"/>
<circle cx="5.84546" cy="5.84546" r="5.47046" transform="matrix(-1 0 0 1 131.5 50.8799)" fill="#ABC5EF" stroke="#ABC5EF" stroke-width="0.75"/>
<defs>
<linearGradient id="paint0_linear_722_511" x1="253.853" y1="1" x2="253.853" y2="119.346" gradientUnits="userSpaceOnUse">
<stop stop-color="#001B94"/>
<stop offset="1" stop-color="#254598"/>
</linearGradient>
<linearGradient id="paint1_linear_722_511" x1="253.853" y1="1" x2="253.853" y2="119.346" gradientUnits="userSpaceOnUse">
<stop stop-color="white" stop-opacity="0.6"/>
<stop offset="1" stop-color="white"/>
</linearGradient>
</defs>
</svg>
